<svg width="199" height="55" viewBox="0 0 199 55" fill="none" xmlns="http://www.w3.org/2000/svg">
<path d="M31.6875 8.25V0.5H39.4375V8.25H54.9375V16H31.6875C30.5977 16 29.6693 16.3835 28.9023 17.1504C28.1758 17.877 27.8125 18.7852 27.8125 19.875C27.8125 20.9648 28.1758 21.8932 28.9023 22.6602C29.6693 23.3867 30.5977 23.75 31.6875 23.75H47.1875C50.4167 23.75 53.1615 24.8802 55.4219 27.1406C57.6823 29.401 58.8125 32.1458 58.8125 35.375C58.8125 38.6042 57.6823 41.349 55.4219 43.6094C53.1615 45.8698 50.4167 47 47.1875 47H39.4375V54.75H31.6875V47H0.6875V39.25H47.1875C48.2773 39.25 49.1855 38.8867 49.9121 38.1602C50.679 37.3932 51.0625 36.4648 51.0625 35.375C51.0625 34.2852 50.679 33.377 49.9121 32.6504C49.1855 31.8835 48.2773 31.5 47.1875 31.5H31.6875C28.4583 31.5 25.7135 30.3698 23.4531 28.1094C21.1927 25.849 20.0625 23.1042 20.0625 19.875C20.0625 16.6458 21.1927 13.901 23.4531 11.6406C25.7135 9.38021 28.4583 8.25 31.6875 8.25ZM93.3242 16H66.5625V8.25H105.312L84 47H76.25L93.3242 16ZM132.438 47C127.069 47 122.488 45.123 118.693 41.3691C114.939 37.5749 113.062 32.9935 113.062 27.625C113.062 22.2565 114.939 17.6953 118.693 13.9414C122.488 10.1471 127.069 8.25 132.438 8.25C137.806 8.25 142.367 10.1471 146.121 13.9414C149.915 17.6953 151.812 22.2565 151.812 27.625C151.812 32.9935 149.915 37.5749 146.121 41.3691C142.367 45.123 137.806 47 132.438 47ZM132.438 39.25C135.667 39.25 138.411 38.1198 140.672 35.8594C142.932 33.599 144.062 30.8542 144.062 27.625C144.062 24.3958 142.932 21.651 140.672 19.3906C138.411 17.1302 135.667 16 132.438 16C129.208 16 126.464 17.1302 124.203 19.3906C121.943 21.651 120.812 24.3958 120.812 27.625C120.812 30.8542 121.943 33.599 124.203 35.8594C126.464 38.1198 129.208 39.25 132.438 39.25ZM178.938 47C173.569 47 168.988 45.123 165.193 41.3691C161.439 37.5749 159.562 32.9935 159.562 27.625C159.562 22.2565 161.439 17.6953 165.193 13.9414C168.988 10.1471 173.569 8.25 178.938 8.25C184.306 8.25 188.867 10.1471 192.621 13.9414C196.415 17.6953 198.312 22.2565 198.312 27.625C198.312 32.9935 196.415 37.5749 192.621 41.3691C188.867 45.123 184.306 47 178.938 47ZM178.938 39.25C182.167 39.25 184.911 38.1198 187.172 35.8594C189.432 33.599 190.562 30.8542 190.562 27.625C190.562 24.3958 189.432 21.651 187.172 19.3906C184.911 17.1302 182.167 16 178.938 16C175.708 16 172.964 17.1302 170.703 19.3906C168.443 21.651 167.312 24.3958 167.312 27.625C167.312 30.8542 168.443 33.599 170.703 35.8594C172.964 38.1198 175.708 39.25 178.938 39.25Z" fill="white"/>
</svg>
