<svg width="149" height="39" viewBox="0 0 149 39" fill="none" xmlns="http://www.w3.org/2000/svg">
<path d="M8.625 39H0.875V0.25H8.625V39ZM35.75 39C30.3815 39 25.8001 37.123 22.0059 33.3691C18.252 29.5749 16.375 24.9935 16.375 19.625C16.375 14.2565 18.252 9.69531 22.0059 5.94141C25.8001 2.14714 30.3815 0.25 35.75 0.25C41.1185 0.25 45.6797 2.14714 49.4336 5.94141C53.2279 9.69531 55.125 14.2565 55.125 19.625C55.125 24.9935 53.2279 29.5749 49.4336 33.3691C45.6797 37.123 41.1185 39 35.75 39ZM35.75 31.25C38.9792 31.25 41.724 30.1198 43.9844 27.8594C46.2448 25.599 47.375 22.8542 47.375 19.625C47.375 16.3958 46.2448 13.651 43.9844 11.3906C41.724 9.13021 38.9792 8 35.75 8C32.5208 8 29.776 9.13021 27.5156 11.3906C25.2552 13.651 24.125 16.3958 24.125 19.625C24.125 22.8542 25.2552 25.599 27.5156 27.8594C29.776 30.1198 32.5208 31.25 35.75 31.25ZM82.25 39C76.8815 39 72.3001 37.123 68.5059 33.3691C64.752 29.5749 62.875 24.9935 62.875 19.625C62.875 14.2565 64.752 9.69531 68.5059 5.94141C72.3001 2.14714 76.8815 0.25 82.25 0.25C87.6185 0.25 92.1797 2.14714 95.9336 5.94141C99.7279 9.69531 101.625 14.2565 101.625 19.625C101.625 24.9935 99.7279 29.5749 95.9336 33.3691C92.1797 37.123 87.6185 39 82.25 39ZM82.25 31.25C85.4792 31.25 88.224 30.1198 90.4844 27.8594C92.7448 25.599 93.875 22.8542 93.875 19.625C93.875 16.3958 92.7448 13.651 90.4844 11.3906C88.224 9.13021 85.4792 8 82.25 8C79.0208 8 76.276 9.13021 74.0156 11.3906C71.7552 13.651 70.625 16.3958 70.625 19.625C70.625 22.8542 71.7552 25.599 74.0156 27.8594C76.276 30.1198 79.0208 31.25 82.25 31.25ZM132.625 15.75H148.125V23.5H132.625V39H124.875V23.5H109.375V15.75H124.875V0.25H132.625V15.75Z" fill="white"/>
</svg>
