<svg width="195" height="39" viewBox="0 0 195 39" fill="none" xmlns="http://www.w3.org/2000/svg">
<path d="M8.375 39H0.625V0.25H8.375V39ZM35.5 39C30.1315 39 25.5501 37.123 21.7559 33.3691C18.002 29.5749 16.125 24.9935 16.125 19.625C16.125 14.2565 18.002 9.69531 21.7559 5.94141C25.5501 2.14714 30.1315 0.25 35.5 0.25C40.8685 0.25 45.4297 2.14714 49.1836 5.94141C52.9779 9.69531 54.875 14.2565 54.875 19.625C54.875 24.9935 52.9779 29.5749 49.1836 33.3691C45.4297 37.123 40.8685 39 35.5 39ZM35.5 31.25C38.7292 31.25 41.474 30.1198 43.7344 27.8594C45.9948 25.599 47.125 22.8542 47.125 19.625C47.125 16.3958 45.9948 13.651 43.7344 11.3906C41.474 9.13021 38.7292 8 35.5 8C32.2708 8 29.526 9.13021 27.2656 11.3906C25.0052 13.651 23.875 16.3958 23.875 19.625C23.875 22.8542 25.0052 25.599 27.2656 27.8594C29.526 30.1198 32.2708 31.25 35.5 31.25ZM82 39C76.6315 39 72.0501 37.123 68.2559 33.3691C64.502 29.5749 62.625 24.9935 62.625 19.625C62.625 14.2565 64.502 9.69531 68.2559 5.94141C72.0501 2.14714 76.6315 0.25 82 0.25C87.3685 0.25 91.9297 2.14714 95.6836 5.94141C99.4779 9.69531 101.375 14.2565 101.375 19.625C101.375 24.9935 99.4779 29.5749 95.6836 33.3691C91.9297 37.123 87.3685 39 82 39ZM82 31.25C85.2292 31.25 87.974 30.1198 90.2344 27.8594C92.4948 25.599 93.625 22.8542 93.625 19.625C93.625 16.3958 92.4948 13.651 90.2344 11.3906C87.974 9.13021 85.2292 8 82 8C78.7708 8 76.026 9.13021 73.7656 11.3906C71.5052 13.651 70.375 16.3958 70.375 19.625C70.375 22.8542 71.5052 25.599 73.7656 27.8594C76.026 30.1198 78.7708 31.25 82 31.25ZM128.5 39C123.132 39 118.55 37.123 114.756 33.3691C111.002 29.5749 109.125 24.9935 109.125 19.625C109.125 14.2565 111.002 9.69531 114.756 5.94141C118.55 2.14714 123.132 0.25 128.5 0.25C133.868 0.25 138.43 2.14714 142.184 5.94141C145.978 9.69531 147.875 14.2565 147.875 19.625C147.875 24.9935 145.978 29.5749 142.184 33.3691C138.43 37.123 133.868 39 128.5 39ZM128.5 31.25C131.729 31.25 134.474 30.1198 136.734 27.8594C138.995 25.599 140.125 22.8542 140.125 19.625C140.125 16.3958 138.995 13.651 136.734 11.3906C134.474 9.13021 131.729 8 128.5 8C125.271 8 122.526 9.13021 120.266 11.3906C118.005 13.651 116.875 16.3958 116.875 19.625C116.875 22.8542 118.005 25.599 120.266 27.8594C122.526 30.1198 125.271 31.25 128.5 31.25ZM178.875 15.75H194.375V23.5H178.875V39H171.125V23.5H155.625V15.75H171.125V0.25H178.875V15.75Z" fill="white"/>
</svg>
