<svg width="552" height="251" viewBox="0 0 552 251" fill="none" xmlns="http://www.w3.org/2000/svg">
<path d="M157.867 68H107.617V59.625H157.867C159.044 59.625 160.026 59.2324 160.811 58.4473C161.64 57.6185 162.054 56.6152 162.054 55.4375C162.054 54.2598 161.64 53.2783 160.811 52.4932C160.026 51.6644 159.044 51.25 157.867 51.25H141.117C137.627 51.25 134.661 50.0286 132.218 47.5859C129.776 45.1432 128.554 42.1771 128.554 38.6875C128.554 35.1979 129.776 32.2318 132.218 29.7891C134.661 27.3464 137.627 26.125 141.117 26.125H166.242V34.5H141.117C139.939 34.5 138.936 34.9144 138.107 35.7432C137.322 36.5283 136.929 37.5098 136.929 38.6875C136.929 39.8652 137.322 40.8685 138.107 41.6973C138.936 42.4824 139.939 42.875 141.117 42.875H157.867C161.356 42.875 164.322 44.0964 166.765 46.5391C169.208 48.9818 170.429 51.9479 170.429 55.4375C170.429 58.9271 169.208 61.8932 166.765 64.3359C164.322 66.7786 161.356 68 157.867 68ZM241.748 51.25H193.591V42.875H241.748V51.25ZM216.623 26.125V34.5H183.123V59.625H216.623V68H174.748V26.125H216.623ZM266.873 59.625H296.185V68H266.873C261.071 68 256.12 65.9717 252.02 61.915C247.963 57.8148 245.935 52.8639 245.935 47.0625C245.935 41.2611 247.963 36.332 252.02 32.2754C256.12 28.1751 261.071 26.125 266.873 26.125H300.373L296.185 34.5H266.873C263.383 34.5 260.417 35.7214 257.974 38.1641C255.531 40.6068 254.31 43.5729 254.31 47.0625C254.31 50.5521 255.531 53.5182 257.974 55.9609C260.417 58.4036 263.383 59.625 266.873 59.625ZM317.188 68C311.387 68 306.436 65.9717 302.335 61.915C298.279 57.8148 296.25 52.8639 296.25 47.0625C296.25 41.2611 298.279 36.332 302.335 32.2754C306.436 28.1751 311.387 26.125 317.188 26.125C322.989 26.125 327.918 28.1751 331.975 32.2754C336.075 36.332 338.125 41.2611 338.125 47.0625C338.125 52.8639 336.075 57.8148 331.975 61.915C327.918 65.9717 322.989 68 317.188 68ZM317.188 59.625C320.678 59.625 323.644 58.4036 326.086 55.9609C328.529 53.5182 329.75 50.5521 329.75 47.0625C329.75 43.5729 328.529 40.6068 326.086 38.1641C323.644 35.7214 320.678 34.5 317.188 34.5C313.698 34.5 310.732 35.7214 308.29 38.1641C305.847 40.6068 304.625 43.5729 304.625 47.0625C304.625 50.5521 305.847 53.5182 308.29 55.9609C310.732 58.4036 313.698 59.625 317.188 59.625ZM351.342 38.6875V84.75H342.967V26.125H351.342L376.467 55.4375V5.1875H384.842V68H376.467L351.342 38.6875ZM423.446 68H394.133V26.125H423.446C429.247 26.125 434.176 28.1751 438.233 32.2754C442.333 36.332 444.383 41.2611 444.383 47.0625C444.383 52.8639 442.333 57.8148 438.233 61.915C434.176 65.9717 429.247 68 423.446 68ZM402.508 59.625H423.446C426.935 59.625 429.902 58.4036 432.344 55.9609C434.787 53.5182 436.008 50.5521 436.008 47.0625C436.008 43.5729 434.787 40.6068 432.344 38.1641C429.902 35.7214 426.935 34.5 423.446 34.5H402.508V59.625ZM80.5288 140L66.7231 114.875H81.3794C82.5571 114.875 83.5386 114.482 84.3237 113.697C85.1525 112.868 85.5669 111.865 85.5669 110.688C85.5669 109.51 85.1525 108.528 84.3237 107.743C83.5386 106.914 82.5571 106.5 81.3794 106.5H60.4419V140H52.0669V98.125H81.3794C84.869 98.125 87.8351 99.3464 90.2778 101.789C92.7205 104.232 93.9419 107.198 93.9419 110.688C93.9419 114.177 92.7205 117.143 90.2778 119.586C87.8351 122.029 84.869 123.25 81.3794 123.25H79.5474L88.8384 140H80.5288ZM97.9985 119.062V98.125H106.374V119.062C106.374 122.552 107.595 125.518 110.038 127.961C112.48 130.404 115.446 131.625 118.936 131.625C122.426 131.625 125.392 130.404 127.834 127.961C130.277 125.518 131.499 122.552 131.499 119.062V77.1875H139.874V119.062C139.874 124.864 137.823 129.815 133.723 133.915C129.667 137.972 124.737 140 118.936 140C113.135 140 108.184 137.972 104.083 133.915C100.027 129.815 97.9985 124.864 97.9985 119.062ZM155.577 110.688V156.75H147.202V98.125H155.577L180.702 127.438V77.1875H189.077V140H180.702L155.577 110.688ZM206.808 110.688V156.75H198.433V98.125H206.808L231.933 127.438V77.1875H240.308V140H231.933L206.808 110.688ZM316.599 123.25H268.443V114.875H316.599V123.25ZM291.474 98.125V106.5H257.974V131.625H291.474V140H249.599V98.125H291.474ZM329.554 140H321.179V98.125H350.492C353.981 98.125 356.947 99.3464 359.39 101.789C361.833 104.232 363.054 107.198 363.054 110.688C363.054 114.177 361.833 117.143 359.39 119.586C356.947 122.029 353.981 123.25 350.492 123.25H348.66L367.242 156.75H358.867L335.835 114.875H350.492C351.669 114.875 352.651 114.482 353.436 113.697C354.265 112.868 354.679 111.865 354.679 110.688C354.679 109.51 354.265 108.528 353.436 107.743C352.651 106.914 351.669 106.5 350.492 106.5H329.554V140ZM409.117 119.062V98.125H417.492V119.062C417.492 122.552 418.713 125.518 421.156 127.961C423.598 130.404 426.565 131.625 430.054 131.625C433.544 131.625 436.51 130.404 438.953 127.961C441.395 125.518 442.617 122.552 442.617 119.062V98.125H450.992V119.062C450.992 124.864 448.942 129.815 444.841 133.915C440.785 137.972 435.856 140 430.054 140C424.253 140 419.302 137.972 415.202 133.915C411.145 129.815 409.117 124.864 409.117 119.062ZM466.433 156.75H458.058V98.125H487.371C490.86 98.125 493.826 99.3464 496.269 101.789C498.712 104.232 499.933 107.198 499.933 110.688C499.933 114.177 498.712 117.143 496.269 119.586C493.826 122.029 490.86 123.25 487.371 123.25H476.902V114.875H487.371C488.548 114.875 489.53 114.482 490.315 113.697C491.144 112.868 491.558 111.865 491.558 110.688C491.558 109.51 491.144 108.528 490.315 107.743C489.53 106.914 488.548 106.5 487.371 106.5H466.433V156.75Z" fill="#F44878"/>
<g filter="url(#filter0_f_131_13)">
<ellipse cx="276" cy="160.5" rx="231" ry="45.5" fill="black"/>
</g>
<path d="M191.781 187L182.331 170.5V168.3H183.431C185.198 168.3 186.681 168.133 187.881 167.8C189.114 167.467 190.081 166.917 190.781 166.15C191.481 165.383 191.898 164.333 192.031 163H182.331V159.8H191.981C191.748 158.567 191.281 157.567 190.581 156.8C189.881 156 188.931 155.417 187.731 155.05C186.564 154.683 185.131 154.5 183.431 154.5H182.331V151.3H203.031V154.5H193.581C194.348 155.133 194.981 155.883 195.481 156.75C195.981 157.617 196.298 158.633 196.431 159.8H203.031V163H196.531C196.298 165.433 195.364 167.333 193.731 168.7C192.131 170.033 189.998 170.883 187.331 171.25L196.881 187H191.781ZM256.994 155.75V162H216.369V165.125C216.369 166.004 216.662 166.753 217.248 167.371C217.867 167.957 218.615 168.25 219.494 168.25H231.994C234.598 168.25 236.812 169.161 238.635 170.984C240.458 172.807 241.369 175.021 241.369 177.625C241.369 180.229 240.458 182.443 238.635 184.266C236.812 186.089 234.598 187 231.994 187H213.244V180.75H231.994C232.873 180.75 233.605 180.457 234.191 179.871C234.81 179.253 235.119 178.504 235.119 177.625C235.119 176.746 234.81 176.014 234.191 175.428C233.605 174.809 232.873 174.5 231.994 174.5H219.494C216.89 174.5 214.676 173.589 212.854 171.766C211.031 169.943 210.119 167.729 210.119 165.125V155.75H256.994ZM278.869 187C274.54 187 270.845 185.486 267.785 182.459C264.758 179.399 263.244 175.704 263.244 171.375C263.244 167.046 264.758 163.367 267.785 160.34C270.845 157.28 274.54 155.75 278.869 155.75C283.199 155.75 286.877 157.28 289.904 160.34C292.964 163.367 294.494 167.046 294.494 171.375C294.494 175.704 292.964 179.399 289.904 182.459C286.877 185.486 283.199 187 278.869 187ZM278.869 180.75C281.473 180.75 283.687 179.839 285.51 178.016C287.333 176.193 288.244 173.979 288.244 171.375C288.244 168.771 287.333 166.557 285.51 164.734C283.687 162.911 281.473 162 278.869 162C276.265 162 274.051 162.911 272.229 164.734C270.406 166.557 269.494 168.771 269.494 171.375C269.494 173.979 270.406 176.193 272.229 178.016C274.051 179.839 276.265 180.75 278.869 180.75ZM316.369 187C312.04 187 308.345 185.486 305.285 182.459C302.258 179.399 300.744 175.704 300.744 171.375C300.744 167.046 302.258 163.367 305.285 160.34C308.345 157.28 312.04 155.75 316.369 155.75C320.699 155.75 324.377 157.28 327.404 160.34C330.464 163.367 331.994 167.046 331.994 171.375C331.994 175.704 330.464 179.399 327.404 182.459C324.377 185.486 320.699 187 316.369 187ZM316.369 180.75C318.973 180.75 321.187 179.839 323.01 178.016C324.833 176.193 325.744 173.979 325.744 171.375C325.744 168.771 324.833 166.557 323.01 164.734C321.187 162.911 318.973 162 316.369 162C313.765 162 311.551 162.911 309.729 164.734C307.906 166.557 306.994 168.771 306.994 171.375C306.994 173.979 307.906 176.193 309.729 178.016C311.551 179.839 313.765 180.75 316.369 180.75ZM353.869 187C349.54 187 345.845 185.486 342.785 182.459C339.758 179.399 338.244 175.704 338.244 171.375C338.244 167.046 339.758 163.367 342.785 160.34C345.845 157.28 349.54 155.75 353.869 155.75C358.199 155.75 361.877 157.28 364.904 160.34C367.964 163.367 369.494 167.046 369.494 171.375C369.494 175.704 367.964 179.399 364.904 182.459C361.877 185.486 358.199 187 353.869 187ZM353.869 180.75C356.473 180.75 358.687 179.839 360.51 178.016C362.333 176.193 363.244 173.979 363.244 171.375C363.244 168.771 362.333 166.557 360.51 164.734C358.687 162.911 356.473 162 353.869 162C351.265 162 349.051 162.911 347.229 164.734C345.406 166.557 344.494 168.771 344.494 171.375C344.494 173.979 345.406 176.193 347.229 178.016C349.051 179.839 351.265 180.75 353.869 180.75Z" fill="white"/>
<defs>
<filter id="filter0_f_131_13" x="0" y="70" width="552" height="181" filterUnits="userSpaceOnUse" color-interpolation-filters="sRGB">
<feFlood flood-opacity="0" result="BackgroundImageFix"/>
<feBlend mode="normal" in="SourceGraphic" in2="BackgroundImageFix" result="shape"/>
<feGaussianBlur stdDeviation="22.5" result="effect1_foregroundBlur_131_13"/>
</filter>
</defs>
</svg>
