<svg width="558" height="252" viewBox="0 0 558 252" fill="none" xmlns="http://www.w3.org/2000/svg">
<path d="M220.804 56.25H197.773V47.875H220.804V56.25ZM220.804 31.125V39.5H187.304V73H178.929V31.125H220.804ZM235.591 73H227.216V31.125H235.591V73ZM253.257 73H244.882V31.125H274.195C277.684 31.125 280.651 32.3464 283.093 34.7891C285.536 37.2318 286.757 40.1979 286.757 43.6875C286.757 47.1771 285.536 50.1432 283.093 52.5859C280.651 55.0286 277.684 56.25 274.195 56.25H272.363L290.945 89.75H282.57L259.539 47.875H274.195C275.373 47.875 276.354 47.4824 277.139 46.6973C277.968 45.8685 278.382 44.8652 278.382 43.6875C278.382 42.5098 277.968 41.5283 277.139 40.7432C276.354 39.9144 275.373 39.5 274.195 39.5H253.257V73ZM334.39 73H284.14V64.625H334.39C335.568 64.625 336.549 64.2324 337.334 63.4473C338.163 62.6185 338.578 61.6152 338.578 60.4375C338.578 59.2598 338.163 58.2783 337.334 57.4932C336.549 56.6644 335.568 56.25 334.39 56.25H317.64C314.151 56.25 311.184 55.0286 308.742 52.5859C306.299 50.1432 305.078 47.1771 305.078 43.6875C305.078 40.1979 306.299 37.2318 308.742 34.7891C311.184 32.3464 314.151 31.125 317.64 31.125H342.765V39.5H317.64C316.462 39.5 315.459 39.9144 314.63 40.7432C313.845 41.5283 313.453 42.5098 313.453 43.6875C313.453 44.8652 313.845 45.8685 314.63 46.6973C315.459 47.4824 316.462 47.875 317.64 47.875H334.39C337.88 47.875 340.846 49.0964 343.289 51.5391C345.731 53.9818 346.953 56.9479 346.953 60.4375C346.953 63.9271 345.731 66.8932 343.289 69.3359C340.846 71.7786 337.88 73 334.39 73ZM373.321 39.5V89.75H364.946V39.5H348.196V31.125H390.071V39.5H373.321ZM89.0288 145L75.2231 119.875H89.8794C91.0571 119.875 92.0386 119.482 92.8237 118.697C93.6525 117.868 94.0669 116.865 94.0669 115.688C94.0669 114.51 93.6525 113.528 92.8237 112.743C92.0386 111.914 91.0571 111.5 89.8794 111.5H68.9419V145H60.5669V103.125H89.8794C93.369 103.125 96.3351 104.346 98.7778 106.789C101.221 109.232 102.442 112.198 102.442 115.688C102.442 119.177 101.221 122.143 98.7778 124.586C96.3351 127.029 93.369 128.25 89.8794 128.25H88.0474L97.3384 145H89.0288ZM106.499 124.062V103.125H114.874V124.062C114.874 127.552 116.095 130.518 118.538 132.961C120.98 135.404 123.946 136.625 127.436 136.625C130.926 136.625 133.892 135.404 136.334 132.961C138.777 130.518 139.999 127.552 139.999 124.062V82.1875H148.374V124.062C148.374 129.864 146.323 134.815 142.223 138.915C138.167 142.972 133.237 145 127.436 145C121.635 145 116.684 142.972 112.583 138.915C108.527 134.815 106.499 129.864 106.499 124.062ZM164.077 115.688V161.75H155.702V103.125H164.077L189.202 132.438V82.1875H197.577V145H189.202L164.077 115.688ZM215.308 115.688V161.75H206.933V103.125H215.308L240.433 132.438V82.1875H248.808V145H240.433L215.308 115.688ZM325.099 128.25H276.943V119.875H325.099V128.25ZM299.974 103.125V111.5H266.474V136.625H299.974V145H258.099V103.125H299.974ZM338.054 145H329.679V103.125H358.992C362.481 103.125 365.447 104.346 367.89 106.789C370.333 109.232 371.554 112.198 371.554 115.688C371.554 119.177 370.333 122.143 367.89 124.586C365.447 127.029 362.481 128.25 358.992 128.25H357.16L375.742 161.75H367.367L344.335 119.875H358.992C360.169 119.875 361.151 119.482 361.936 118.697C362.765 117.868 363.179 116.865 363.179 115.688C363.179 114.51 362.765 113.528 361.936 112.743C361.151 111.914 360.169 111.5 358.992 111.5H338.054V145ZM417.617 124.062V103.125H425.992V124.062C425.992 127.552 427.213 130.518 429.656 132.961C432.098 135.404 435.065 136.625 438.554 136.625C442.044 136.625 445.01 135.404 447.453 132.961C449.895 130.518 451.117 127.552 451.117 124.062V103.125H459.492V124.062C459.492 129.864 457.442 134.815 453.341 138.915C449.285 142.972 444.356 145 438.554 145C432.753 145 427.802 142.972 423.702 138.915C419.645 134.815 417.617 129.864 417.617 124.062ZM474.933 161.75H466.558V103.125H495.871C499.36 103.125 502.326 104.346 504.769 106.789C507.212 109.232 508.433 112.198 508.433 115.688C508.433 119.177 507.212 122.143 504.769 124.586C502.326 127.029 499.36 128.25 495.871 128.25H485.402V119.875H495.871C497.048 119.875 498.03 119.482 498.815 118.697C499.644 117.868 500.058 116.865 500.058 115.688C500.058 114.51 499.644 113.528 498.815 112.743C498.03 111.914 497.048 111.5 495.871 111.5H474.933V161.75Z" fill="#F44878"/>
<g filter="url(#filter0_f_131_8)">
<ellipse cx="279" cy="161.5" rx="234" ry="45.5" fill="black"/>
</g>
<path d="M208.593 199L199.143 182.5V180.3H200.243C202.01 180.3 203.493 180.133 204.693 179.8C205.927 179.467 206.893 178.917 207.593 178.15C208.293 177.383 208.71 176.333 208.843 175H199.143V171.8H208.793C208.56 170.567 208.093 169.567 207.393 168.8C206.693 168 205.743 167.417 204.543 167.05C203.377 166.683 201.943 166.5 200.243 166.5H199.143V163.3H219.843V166.5H210.393C211.16 167.133 211.793 167.883 212.293 168.75C212.793 169.617 213.11 170.633 213.243 171.8H219.843V175H213.343C213.11 177.433 212.177 179.333 210.543 180.7C208.943 182.033 206.81 182.883 204.143 183.25L213.693 199H208.593ZM248.514 174H226.932V167.75H258.182L240.994 199H234.744L248.514 174ZM280.057 199C275.727 199 272.033 197.486 268.973 194.459C265.945 191.399 264.432 187.704 264.432 183.375C264.432 179.046 265.945 175.367 268.973 172.34C272.033 169.28 275.727 167.75 280.057 167.75C284.386 167.75 288.064 169.28 291.092 172.34C294.152 175.367 295.682 179.046 295.682 183.375C295.682 187.704 294.152 191.399 291.092 194.459C288.064 197.486 284.386 199 280.057 199ZM280.057 192.75C282.661 192.75 284.874 191.839 286.697 190.016C288.52 188.193 289.432 185.979 289.432 183.375C289.432 180.771 288.52 178.557 286.697 176.734C284.874 174.911 282.661 174 280.057 174C277.452 174 275.239 174.911 273.416 176.734C271.593 178.557 270.682 180.771 270.682 183.375C270.682 185.979 271.593 188.193 273.416 190.016C275.239 191.839 277.452 192.75 280.057 192.75ZM317.557 199C313.227 199 309.533 197.486 306.473 194.459C303.445 191.399 301.932 187.704 301.932 183.375C301.932 179.046 303.445 175.367 306.473 172.34C309.533 169.28 313.227 167.75 317.557 167.75C321.886 167.75 325.564 169.28 328.592 172.34C331.652 175.367 333.182 179.046 333.182 183.375C333.182 187.704 331.652 191.399 328.592 194.459C325.564 197.486 321.886 199 317.557 199ZM317.557 192.75C320.161 192.75 322.374 191.839 324.197 190.016C326.02 188.193 326.932 185.979 326.932 183.375C326.932 180.771 326.02 178.557 324.197 176.734C322.374 174.911 320.161 174 317.557 174C314.952 174 312.739 174.911 310.916 176.734C309.093 178.557 308.182 180.771 308.182 183.375C308.182 185.979 309.093 188.193 310.916 190.016C312.739 191.839 314.952 192.75 317.557 192.75ZM355.057 199C350.727 199 347.033 197.486 343.973 194.459C340.945 191.399 339.432 187.704 339.432 183.375C339.432 179.046 340.945 175.367 343.973 172.34C347.033 169.28 350.727 167.75 355.057 167.75C359.386 167.75 363.064 169.28 366.092 172.34C369.152 175.367 370.682 179.046 370.682 183.375C370.682 187.704 369.152 191.399 366.092 194.459C363.064 197.486 359.386 199 355.057 199ZM355.057 192.75C357.661 192.75 359.874 191.839 361.697 190.016C363.52 188.193 364.432 185.979 364.432 183.375C364.432 180.771 363.52 178.557 361.697 176.734C359.874 174.911 357.661 174 355.057 174C352.452 174 350.239 174.911 348.416 176.734C346.593 178.557 345.682 180.771 345.682 183.375C345.682 185.979 346.593 188.193 348.416 190.016C350.239 191.839 352.452 192.75 355.057 192.75Z" fill="white"/>
<defs>
<filter id="filter0_f_131_8" x="0" y="71" width="558" height="181" filterUnits="userSpaceOnUse" color-interpolation-filters="sRGB">
<feFlood flood-opacity="0" result="BackgroundImageFix"/>
<feBlend mode="normal" in="SourceGraphic" in2="BackgroundImageFix" result="shape"/>
<feGaussianBlur stdDeviation="22.5" result="effect1_foregroundBlur_131_8"/>
</filter>
</defs>
</svg>
