<svg width="467" height="44" viewBox="0 0 467 44" fill="none" xmlns="http://www.w3.org/2000/svg">
<path d="M0.958496 33L11.896 10.0312L22.8335 33H17.9116L11.896 20.4219L5.88037 33H0.958496ZM28.3022 28.625H45.8022V33H23.9272V11.125H28.3022V28.625ZM52.604 28.625H70.104V33H48.229V11.125H52.604V28.625ZM107.292 33H91.979V11.125H107.292C109.114 11.125 110.664 11.763 111.94 13.0391C113.216 14.3151 113.854 15.8646 113.854 17.6875C113.854 19.3737 113.307 20.832 112.213 22.0625C113.307 23.293 113.854 24.7513 113.854 26.4375C113.854 28.2604 113.216 29.8099 111.94 31.0859C110.664 32.362 109.114 33 107.292 33ZM96.354 28.625H107.292C107.907 28.625 108.419 28.4199 108.83 28.0098C109.263 27.5768 109.479 27.0527 109.479 26.4375C109.479 25.8223 109.263 25.3096 108.83 24.8994C108.419 24.4665 107.907 24.25 107.292 24.25H101.823V19.875H107.292C107.907 19.875 108.419 19.6699 108.83 19.2598C109.263 18.8268 109.479 18.3027 109.479 17.6875C109.479 17.0723 109.263 16.5596 108.83 16.1494C108.419 15.7165 107.907 15.5 107.292 15.5H96.354V28.625ZM151.93 24.25H126.774V19.875H151.93V24.25ZM138.805 11.125V15.5H121.305V28.625H138.805V33H116.93V11.125H138.805ZM165.055 11.125H182.555L180.368 15.5H165.055C163.232 15.5 161.683 16.138 160.407 17.4141C159.131 18.6901 158.493 20.2396 158.493 22.0625C158.493 23.8854 159.131 25.4349 160.407 26.7109C161.683 27.987 163.232 28.625 165.055 28.625H176.232L173.805 24.25H165.055V19.875H175.993L189.118 43.9375H184.743L178.659 33H165.055C162.025 33 159.438 31.9404 157.296 29.8213C155.177 27.6794 154.118 25.0931 154.118 22.0625C154.118 19.0319 155.177 16.457 157.296 14.3379C159.438 12.196 162.025 11.125 165.055 11.125ZM189.186 33H184.811V11.125H189.186V33ZM198.449 17.6875V41.75H194.074V11.125H198.449L211.574 26.4375V0.1875H215.949V33H211.574L198.449 17.6875ZM225.211 17.6875V41.75H220.836V11.125H225.211L238.336 26.4375V0.1875H242.711V33H238.336L225.211 17.6875ZM282.565 24.25H257.409V19.875H282.565V24.25ZM269.44 11.125V15.5H251.94V28.625H269.44V33H247.565V11.125H269.44ZM289.333 33H284.958V11.125H300.27C302.093 11.125 303.642 11.763 304.918 13.0391C306.194 14.3151 306.833 15.8646 306.833 17.6875C306.833 19.5104 306.194 21.0599 304.918 22.3359C303.642 23.612 302.093 24.25 300.27 24.25H299.313L309.02 41.75H304.645L292.614 19.875H300.27C300.885 19.875 301.398 19.6699 301.808 19.2598C302.241 18.8268 302.458 18.3027 302.458 17.6875C302.458 17.0723 302.241 16.5596 301.808 16.1494C301.398 15.7165 300.885 15.5 300.27 15.5H289.333V33ZM331.715 33H305.465V28.625H331.715C332.331 28.625 332.843 28.4199 333.253 28.0098C333.686 27.5768 333.903 27.0527 333.903 26.4375C333.903 25.8223 333.686 25.3096 333.253 24.8994C332.843 24.4665 332.331 24.25 331.715 24.25H322.965C321.142 24.25 319.593 23.612 318.317 22.3359C317.041 21.0599 316.403 19.5104 316.403 17.6875C316.403 15.8646 317.041 14.3151 318.317 13.0391C319.593 11.763 321.142 11.125 322.965 11.125H336.09V15.5H322.965C322.35 15.5 321.826 15.7165 321.393 16.1494C320.983 16.5596 320.778 17.0723 320.778 17.6875C320.778 18.3027 320.983 18.8268 321.393 19.2598C321.826 19.6699 322.35 19.875 322.965 19.875H331.715C333.538 19.875 335.088 20.513 336.364 21.7891C337.64 23.0651 338.278 24.6146 338.278 26.4375C338.278 28.2604 337.64 29.8099 336.364 31.0859C335.088 32.362 333.538 33 331.715 33ZM373.278 15.5V41.75H368.903V15.5H360.153V11.125H382.028V15.5H373.278ZM419.455 24.25H394.298V19.875H419.455V24.25ZM406.33 11.125V15.5H388.83V28.625H406.33V33H384.455V11.125H406.33ZM416.618 33L427.555 10.0312L438.493 33H433.571L427.555 20.4219L421.54 33H416.618ZM444.167 19.875V41.75H439.792V11.125H444.167L452.917 27.5312L461.667 11.125H466.042V33H461.667V19.875L455.104 33H450.729L444.167 19.875Z" fill="white"/>
</svg>
