<svg width="168" height="79" viewBox="0 0 168 79" fill="none" xmlns="http://www.w3.org/2000/svg">
<path d="M26.0703 27L38.5703 0.75L51.0703 27H45.4453L38.5703 12.625L31.6953 27H26.0703ZM57.3203 27H52.3203V2H69.8203C71.9036 2 73.6745 2.72917 75.1328 4.1875C76.5911 5.64583 77.3203 7.41667 77.3203 9.5C77.3203 11.5833 76.5911 13.3542 75.1328 14.8125C73.6745 16.2708 71.9036 17 69.8203 17H68.7266L79.8203 37H74.8203L61.0703 12H69.8203C70.5234 12 71.1094 11.7656 71.5781 11.2969C72.0729 10.8021 72.3203 10.2031 72.3203 9.5C72.3203 8.79688 72.0729 8.21094 71.5781 7.74219C71.1094 7.2474 70.5234 7 69.8203 7H57.3203V27ZM86.7344 37H81.7344V2H99.2344C101.318 2 103.089 2.72917 104.547 4.1875C106.005 5.64583 106.734 7.41667 106.734 9.5C106.734 11.5833 106.005 13.3542 104.547 14.8125C103.089 16.2708 101.318 17 99.2344 17H92.9844V12H99.2344C99.9375 12 100.523 11.7656 100.992 11.2969C101.487 10.8021 101.734 10.2031 101.734 9.5C101.734 8.79688 101.487 8.21094 100.992 7.74219C100.523 7.2474 99.9375 7 99.2344 7H86.7344V37ZM114.156 27H109.156V2H114.156V27ZM131.93 7V37H126.93V7H116.93V2H141.93V7H131.93ZM5.95312 66H0.953125V41H18.4531C20.5365 41 22.3073 41.7292 23.7656 43.1875C25.224 44.6458 25.9531 46.4167 25.9531 48.5C25.9531 50.5833 25.224 52.3542 23.7656 53.8125C22.3073 55.2708 20.5365 56 18.4531 56H17.3594L28.4531 76H23.4531L9.70312 51H18.4531C19.1562 51 19.7422 50.7656 20.2109 50.2969C20.7057 49.8021 20.9531 49.2031 20.9531 48.5C20.9531 47.7969 20.7057 47.2109 20.2109 46.7422C19.7422 46.2474 19.1562 46 18.4531 46H5.95312V66ZM24.1562 66L36.6562 39.75L49.1562 66H43.5312L36.6562 51.625L29.7812 66H24.1562ZM52.75 41H57.75V71C57.75 73.0833 57.0208 74.8542 55.5625 76.3125C54.1042 77.7708 52.3333 78.5 50.25 78.5C48.1667 78.5 46.3958 77.7708 44.9375 76.3125C43.4792 74.8542 42.75 73.0833 42.75 71H47.75C47.75 71.7031 47.9844 72.2891 48.4531 72.7578C48.9479 73.2526 49.5469 73.5 50.25 73.5C50.9531 73.5 51.5391 73.2526 52.0078 72.7578C52.5026 72.2891 52.75 71.7031 52.75 71V41ZM69.1562 76H64.1562V41H81.6562C83.7396 41 85.5104 41.7292 86.9688 43.1875C88.4271 44.6458 89.1562 46.4167 89.1562 48.5C89.1562 50.5833 88.4271 52.3542 86.9688 53.8125C85.5104 55.2708 83.7396 56 81.6562 56H75.4062V51H81.6562C82.3594 51 82.9453 50.7656 83.4141 50.2969C83.9089 49.8021 84.1562 49.2031 84.1562 48.5C84.1562 47.7969 83.9089 47.2109 83.4141 46.7422C82.9453 46.2474 82.3594 46 81.6562 46H69.1562V76ZM103.258 66C99.7943 66 96.8385 64.7891 94.3906 62.3672C91.9688 59.9193 90.7578 56.9635 90.7578 53.5C90.7578 50.0365 91.9688 47.0938 94.3906 44.6719C96.8385 42.224 99.7943 41 103.258 41C106.721 41 109.664 42.224 112.086 44.6719C114.534 47.0938 115.758 50.0365 115.758 53.5C115.758 56.9635 114.534 59.9193 112.086 62.3672C109.664 64.7891 106.721 66 103.258 66ZM103.258 61C105.341 61 107.112 60.2708 108.57 58.8125C110.029 57.3542 110.758 55.5833 110.758 53.5C110.758 51.4167 110.029 49.6458 108.57 48.1875C107.112 46.7292 105.341 46 103.258 46C101.174 46 99.4036 46.7292 97.9453 48.1875C96.487 49.6458 95.7578 51.4167 95.7578 53.5C95.7578 55.5833 96.487 57.3542 97.9453 58.8125C99.4036 60.2708 101.174 61 103.258 61ZM130.602 66C127.138 66 124.182 64.7891 121.734 62.3672C119.312 59.9193 118.102 56.9635 118.102 53.5C118.102 50.0365 119.312 47.0938 121.734 44.6719C124.182 42.224 127.138 41 130.602 41C134.065 41 137.008 42.224 139.43 44.6719C141.878 47.0938 143.102 50.0365 143.102 53.5C143.102 56.9635 141.878 59.9193 139.43 62.3672C137.008 64.7891 134.065 66 130.602 66ZM130.602 61C132.685 61 134.456 60.2708 135.914 58.8125C137.372 57.3542 138.102 55.5833 138.102 53.5C138.102 51.4167 137.372 49.6458 135.914 48.1875C134.456 46.7292 132.685 46 130.602 46C128.518 46 126.747 46.7292 125.289 48.1875C123.831 49.6458 123.102 51.4167 123.102 53.5C123.102 55.5833 123.831 57.3542 125.289 58.8125C126.747 60.2708 128.518 61 130.602 61ZM157.047 46V76H152.047V46H142.047V41H167.047V46H157.047Z" fill="black"/>
</svg>
