<svg width="145" height="79" viewBox="0 0 145 79" fill="none" xmlns="http://www.w3.org/2000/svg">
<path d="M14.5703 27L27.0703 0.75L39.5703 27H33.9453L27.0703 12.625L20.1953 27H14.5703ZM45.8203 27H40.8203V2H58.3203C60.4036 2 62.1745 2.72917 63.6328 4.1875C65.0911 5.64583 65.8203 7.41667 65.8203 9.5C65.8203 11.5833 65.0911 13.3542 63.6328 14.8125C62.1745 16.2708 60.4036 17 58.3203 17H57.2266L68.3203 37H63.3203L49.5703 12H58.3203C59.0234 12 59.6094 11.7656 60.0781 11.2969C60.5729 10.8021 60.8203 10.2031 60.8203 9.5C60.8203 8.79688 60.5729 8.21094 60.0781 7.74219C59.6094 7.2474 59.0234 7 58.3203 7H45.8203V27ZM75.2344 37H70.2344V2H87.7344C89.8177 2 91.5885 2.72917 93.0469 4.1875C94.5052 5.64583 95.2344 7.41667 95.2344 9.5C95.2344 11.5833 94.5052 13.3542 93.0469 14.8125C91.5885 16.2708 89.8177 17 87.7344 17H81.4844V12H87.7344C88.4375 12 89.0234 11.7656 89.4922 11.2969C89.987 10.8021 90.2344 10.2031 90.2344 9.5C90.2344 8.79688 89.987 8.21094 89.4922 7.74219C89.0234 7.2474 88.4375 7 87.7344 7H75.2344V37ZM102.656 27H97.6562V2H102.656V27ZM120.43 7V37H115.43V7H105.43V2H130.43V7H120.43ZM5.82031 66H0.820312V41H18.3203C20.4036 41 22.1745 41.7292 23.6328 43.1875C25.0911 44.6458 25.8203 46.4167 25.8203 48.5C25.8203 50.5833 25.0911 52.3542 23.6328 53.8125C22.1745 55.2708 20.4036 56 18.3203 56H17.2266L28.3203 76H23.3203L9.57031 51H18.3203C19.0234 51 19.6094 50.7656 20.0781 50.2969C20.5729 49.8021 20.8203 49.2031 20.8203 48.5C20.8203 47.7969 20.5729 47.2109 20.0781 46.7422C19.6094 46.2474 19.0234 46 18.3203 46H5.82031V66ZM24.0234 66L36.5234 39.75L49.0234 66H43.3984L36.5234 51.625L29.6484 66H24.0234ZM52.6172 41H57.6172V71C57.6172 73.0833 56.888 74.8542 55.4297 76.3125C53.9714 77.7708 52.2005 78.5 50.1172 78.5C48.0339 78.5 46.263 77.7708 44.8047 76.3125C43.3464 74.8542 42.6172 73.0833 42.6172 71H47.6172C47.6172 71.7031 47.8516 72.2891 48.3203 72.7578C48.8151 73.2526 49.4141 73.5 50.1172 73.5C50.8203 73.5 51.4062 73.2526 51.875 72.7578C52.3698 72.2891 52.6172 71.7031 52.6172 71V41ZM69.0234 76H64.0234V41H81.5234C83.6068 41 85.3776 41.7292 86.8359 43.1875C88.2943 44.6458 89.0234 46.4167 89.0234 48.5C89.0234 50.5833 88.2943 52.3542 86.8359 53.8125C85.3776 55.2708 83.6068 56 81.5234 56H75.2734V51H81.5234C82.2266 51 82.8125 50.7656 83.2812 50.2969C83.776 49.8021 84.0234 49.2031 84.0234 48.5C84.0234 47.7969 83.776 47.2109 83.2812 46.7422C82.8125 46.2474 82.2266 46 81.5234 46H69.0234V76ZM91.4453 53.5V41H96.4453V53.5C96.4453 55.5833 97.1745 57.3542 98.6328 58.8125C100.091 60.2708 101.862 61 103.945 61C106.029 61 107.799 60.2708 109.258 58.8125C110.716 57.3542 111.445 55.5833 111.445 53.5V28.5H116.445V53.5C116.445 56.9635 115.221 59.9193 112.773 62.3672C110.352 64.7891 107.409 66 103.945 66C100.482 66 97.526 64.7891 95.0781 62.3672C92.6562 59.9193 91.4453 56.9635 91.4453 53.5ZM134.18 46V76H129.18V46H119.18V41H144.18V46H134.18Z" fill="black"/>
</svg>
