<svg width="168" height="66" viewBox="0 0 168 66" fill="none" xmlns="http://www.w3.org/2000/svg">
<path d="M9.70312 27L22.2031 0.75L34.7031 27H29.0781L22.2031 12.625L15.3281 27H9.70312ZM43.2969 7V27H38.2969V7H28.2969V2H53.2969V7H43.2969ZM61.0703 17V27H56.0703V2H61.0703V12H76.0703V2H81.0703V27H76.0703V17H61.0703ZM82.3203 27L94.8203 0.75L107.32 27H101.695L94.8203 12.625L87.9453 27H82.3203ZM125.562 27L117.32 12H126.07C126.773 12 127.359 11.7656 127.828 11.2969C128.323 10.8021 128.57 10.2031 128.57 9.5C128.57 8.79688 128.323 8.21094 127.828 7.74219C127.359 7.2474 126.773 7 126.07 7H113.57V27H108.57V2H126.07C128.154 2 129.924 2.72917 131.383 4.1875C132.841 5.64583 133.57 7.41667 133.57 9.5C133.57 11.5833 132.841 13.3542 131.383 14.8125C129.924 16.2708 128.154 17 126.07 17H124.977L130.523 27H125.562ZM133.297 2H138.922L145.797 16.375L152.672 2H158.297L145.797 28.25L133.297 2ZM15.0938 46V66H10.0938V46H0.09375V41H25.0938V46H15.0938ZM44.8594 66L36.6172 51H45.3672C46.0703 51 46.6562 50.7656 47.125 50.2969C47.6198 49.8021 47.8672 49.2031 47.8672 48.5C47.8672 47.7969 47.6198 47.2109 47.125 46.7422C46.6562 46.2474 46.0703 46 45.3672 46H32.8672V66H27.8672V41H45.3672C47.4505 41 49.2214 41.7292 50.6797 43.1875C52.138 44.6458 52.8672 46.4167 52.8672 48.5C52.8672 50.5833 52.138 52.3542 50.6797 53.8125C49.2214 55.2708 47.4505 56 45.3672 56H44.2734L49.8203 66H44.8594ZM60.4453 66H55.4453V41H60.4453V66ZM70.9922 66H65.9922V41H83.4922C85.5755 41 87.3464 41.7292 88.8047 43.1875C90.263 44.6458 90.9922 46.4167 90.9922 48.5C90.9922 50.5833 90.263 52.3542 88.8047 53.8125C87.3464 55.2708 85.5755 56 83.4922 56H77.2422V51H83.4922C84.1953 51 84.7812 50.7656 85.25 50.2969C85.7448 49.8021 85.9922 49.2031 85.9922 48.5C85.9922 47.7969 85.7448 47.2109 85.25 46.7422C84.7812 46.2474 84.1953 46 83.4922 46H70.9922V66ZM85.9922 66L98.4922 39.75L110.992 66H105.367L98.4922 51.625L91.6172 66H85.9922ZM119.586 46V66H114.586V46H104.586V41H129.586V46H119.586ZM137.359 56V66H132.359V41H137.359V51H152.359V41H157.359V66H152.359V56H137.359ZM167.906 66H162.906V41H167.906V66Z" fill="black"/>
</svg>
