<svg width="334" height="112" viewBox="0 0 334 112" fill="none" xmlns="http://www.w3.org/2000/svg">
<mask id="path-1-outside-1_58_293" maskUnits="userSpaceOnUse" x="-5" y="-3" width="342" height="122" fill="black">
<rect fill="white" x="-5" y="-3" width="342" height="122"/>
<path d="M23 49H0.25V16.5H23C25.7083 16.5 28.0104 17.4479 29.9062 19.3438C31.8021 21.2396 32.75 23.5417 32.75 26.25C32.75 28.7552 31.9375 30.9219 30.3125 32.75C31.9375 34.5781 32.75 36.7448 32.75 39.25C32.75 41.9583 31.8021 44.2604 29.9062 46.1562C28.0104 48.0521 25.7083 49 23 49ZM6.75 42.5H23C23.9141 42.5 24.6758 42.1953 25.2852 41.5859C25.9284 40.9427 26.25 40.1641 26.25 39.25C26.25 38.3359 25.9284 37.5742 25.2852 36.9648C24.6758 36.3216 23.9141 36 23 36H14.875V29.5H23C23.9141 29.5 24.6758 29.1953 25.2852 28.5859C25.9284 27.9427 26.25 27.1641 26.25 26.25C26.25 25.3359 25.9284 24.5742 25.2852 23.9648C24.6758 23.3216 23.9141 23 23 23H6.75V42.5ZM43.8203 42.5H69.8203V49H37.3203V16.5H43.8203V42.5ZM84.5977 49C80.0951 49 76.2526 47.4258 73.0703 44.2773C69.9219 41.0951 68.3477 37.2526 68.3477 32.75C68.3477 28.2474 69.9219 24.4219 73.0703 21.2734C76.2526 18.0911 80.0951 16.5 84.5977 16.5C89.1003 16.5 92.9258 18.0911 96.0742 21.2734C99.2565 24.4219 100.848 28.2474 100.848 32.75C100.848 37.2526 99.2565 41.0951 96.0742 44.2773C92.9258 47.4258 89.1003 49 84.5977 49ZM84.5977 42.5C87.306 42.5 89.6081 41.5521 91.5039 39.6562C93.3997 37.7604 94.3477 35.4583 94.3477 32.75C94.3477 30.0417 93.3997 27.7396 91.5039 25.8438C89.6081 23.9479 87.306 23 84.5977 23C81.8893 23 79.5872 23.9479 77.6914 25.8438C75.7956 27.7396 74.8477 30.0417 74.8477 32.75C74.8477 35.4583 75.7956 37.7604 77.6914 39.6562C79.5872 41.5521 81.8893 42.5 84.5977 42.5ZM120.145 42.5H142.895V49H120.145C115.642 49 111.799 47.4258 108.617 44.2773C105.469 41.0951 103.895 37.2526 103.895 32.75C103.895 28.2474 105.469 24.4219 108.617 21.2734C111.799 18.0911 115.642 16.5 120.145 16.5H146.145L142.895 23H120.145C117.436 23 115.134 23.9479 113.238 25.8438C111.342 27.7396 110.395 30.0417 110.395 32.75C110.395 35.4583 111.342 37.7604 113.238 39.6562C115.134 41.5521 117.436 42.5 120.145 42.5ZM154.676 37.3711V49H148.176V16.5H154.676V28.1289L170.926 16.5H180.676L157.926 32.75L180.676 49H170.926L154.676 37.3711ZM191.34 42.5H214.09V49H191.34C186.837 49 182.995 47.4258 179.812 44.2773C176.664 41.0951 175.09 37.2526 175.09 32.75C175.09 28.2474 176.664 24.4219 179.812 21.2734C182.995 18.0911 186.837 16.5 191.34 16.5H217.34L214.09 23H191.34C188.632 23 186.329 23.9479 184.434 25.8438C182.538 27.7396 181.59 30.0417 181.59 32.75C181.59 35.4583 182.538 37.7604 184.434 39.6562C186.329 41.5521 188.632 42.5 191.34 42.5ZM225.871 36V49H219.371V16.5H225.871V29.5H245.371V16.5H251.871V49H245.371V36H225.871ZM253.496 49L269.746 14.875L285.996 49H278.684L269.746 30.3125L260.809 49H253.496ZM294.121 49H287.621V16.5H294.121V49ZM307.883 26.25V62H301.383V16.5H307.883L327.383 39.25V0.25H333.883V49H327.383L307.883 26.25ZM26.25 91.1602L16.5 111.625L0.25 77.5H7.5625L16.5 96.1875L22.5938 83.4414L26.25 75.875L29.9062 83.4414L36 96.1875L44.9375 77.5H52.25L36 111.625L26.25 91.1602ZM105.875 97H68.5V90.5H105.875V97ZM86.375 77.5V84H60.375V103.5H86.375V110H53.875V77.5H86.375ZM132.18 110H109.43V77.5H132.18C134.888 77.5 137.19 78.4479 139.086 80.3438C140.982 82.2396 141.93 84.5417 141.93 87.25C141.93 89.7552 141.117 91.9219 139.492 93.75C141.117 95.5781 141.93 97.7448 141.93 100.25C141.93 102.958 140.982 105.26 139.086 107.156C137.19 109.052 134.888 110 132.18 110ZM115.93 103.5H132.18C133.094 103.5 133.855 103.195 134.465 102.586C135.108 101.943 135.43 101.164 135.43 100.25C135.43 99.3359 135.108 98.5742 134.465 97.9648C133.855 97.3216 133.094 97 132.18 97H124.055V90.5H132.18C133.094 90.5 133.855 90.1953 134.465 89.5859C135.108 88.9427 135.43 88.1641 135.43 87.25C135.43 86.3359 135.108 85.5742 134.465 84.9648C133.855 84.3216 133.094 84 132.18 84H115.93V103.5ZM171.18 110H148.43V103.5H171.18C172.094 103.5 172.855 103.195 173.465 102.586C174.108 101.943 174.43 101.164 174.43 100.25C174.43 99.3359 174.108 98.5742 173.465 97.9648C172.855 97.3216 172.094 97 171.18 97H163.055V90.5H171.18C172.094 90.5 172.855 90.1953 173.465 89.5859C174.108 88.9427 174.43 88.1641 174.43 87.25C174.43 86.3359 174.108 85.5742 173.465 84.9648C172.855 84.3216 172.094 84 171.18 84H148.43V77.5H171.18C173.888 77.5 176.19 78.4479 178.086 80.3438C179.982 82.2396 180.93 84.5417 180.93 87.25C180.93 89.7552 180.117 91.9219 178.492 93.75C180.117 95.5781 180.93 97.7448 180.93 100.25C180.93 102.958 179.982 105.26 178.086 107.156C176.19 109.052 173.888 110 171.18 110Z"/>
</mask>
<path d="M23 49H0.25V16.5H23C25.7083 16.5 28.0104 17.4479 29.9062 19.3438C31.8021 21.2396 32.75 23.5417 32.75 26.25C32.75 28.7552 31.9375 30.9219 30.3125 32.75C31.9375 34.5781 32.75 36.7448 32.75 39.25C32.75 41.9583 31.8021 44.2604 29.9062 46.1562C28.0104 48.0521 25.7083 49 23 49ZM6.75 42.5H23C23.9141 42.5 24.6758 42.1953 25.2852 41.5859C25.9284 40.9427 26.25 40.1641 26.25 39.25C26.25 38.3359 25.9284 37.5742 25.2852 36.9648C24.6758 36.3216 23.9141 36 23 36H14.875V29.5H23C23.9141 29.5 24.6758 29.1953 25.2852 28.5859C25.9284 27.9427 26.25 27.1641 26.25 26.25C26.25 25.3359 25.9284 24.5742 25.2852 23.9648C24.6758 23.3216 23.9141 23 23 23H6.75V42.5ZM43.8203 42.5H69.8203V49H37.3203V16.5H43.8203V42.5ZM84.5977 49C80.0951 49 76.2526 47.4258 73.0703 44.2773C69.9219 41.0951 68.3477 37.2526 68.3477 32.75C68.3477 28.2474 69.9219 24.4219 73.0703 21.2734C76.2526 18.0911 80.0951 16.5 84.5977 16.5C89.1003 16.5 92.9258 18.0911 96.0742 21.2734C99.2565 24.4219 100.848 28.2474 100.848 32.75C100.848 37.2526 99.2565 41.0951 96.0742 44.2773C92.9258 47.4258 89.1003 49 84.5977 49ZM84.5977 42.5C87.306 42.5 89.6081 41.5521 91.5039 39.6562C93.3997 37.7604 94.3477 35.4583 94.3477 32.75C94.3477 30.0417 93.3997 27.7396 91.5039 25.8438C89.6081 23.9479 87.306 23 84.5977 23C81.8893 23 79.5872 23.9479 77.6914 25.8438C75.7956 27.7396 74.8477 30.0417 74.8477 32.75C74.8477 35.4583 75.7956 37.7604 77.6914 39.6562C79.5872 41.5521 81.8893 42.5 84.5977 42.5ZM120.145 42.5H142.895V49H120.145C115.642 49 111.799 47.4258 108.617 44.2773C105.469 41.0951 103.895 37.2526 103.895 32.75C103.895 28.2474 105.469 24.4219 108.617 21.2734C111.799 18.0911 115.642 16.5 120.145 16.5H146.145L142.895 23H120.145C117.436 23 115.134 23.9479 113.238 25.8438C111.342 27.7396 110.395 30.0417 110.395 32.75C110.395 35.4583 111.342 37.7604 113.238 39.6562C115.134 41.5521 117.436 42.5 120.145 42.5ZM154.676 37.3711V49H148.176V16.5H154.676V28.1289L170.926 16.5H180.676L157.926 32.75L180.676 49H170.926L154.676 37.3711ZM191.34 42.5H214.09V49H191.34C186.837 49 182.995 47.4258 179.812 44.2773C176.664 41.0951 175.09 37.2526 175.09 32.75C175.09 28.2474 176.664 24.4219 179.812 21.2734C182.995 18.0911 186.837 16.5 191.34 16.5H217.34L214.09 23H191.34C188.632 23 186.329 23.9479 184.434 25.8438C182.538 27.7396 181.59 30.0417 181.59 32.75C181.59 35.4583 182.538 37.7604 184.434 39.6562C186.329 41.5521 188.632 42.5 191.34 42.5ZM225.871 36V49H219.371V16.5H225.871V29.5H245.371V16.5H251.871V49H245.371V36H225.871ZM253.496 49L269.746 14.875L285.996 49H278.684L269.746 30.3125L260.809 49H253.496ZM294.121 49H287.621V16.5H294.121V49ZM307.883 26.25V62H301.383V16.5H307.883L327.383 39.25V0.25H333.883V49H327.383L307.883 26.25ZM26.25 91.1602L16.5 111.625L0.25 77.5H7.5625L16.5 96.1875L22.5938 83.4414L26.25 75.875L29.9062 83.4414L36 96.1875L44.9375 77.5H52.25L36 111.625L26.25 91.1602ZM105.875 97H68.5V90.5H105.875V97ZM86.375 77.5V84H60.375V103.5H86.375V110H53.875V77.5H86.375ZM132.18 110H109.43V77.5H132.18C134.888 77.5 137.19 78.4479 139.086 80.3438C140.982 82.2396 141.93 84.5417 141.93 87.25C141.93 89.7552 141.117 91.9219 139.492 93.75C141.117 95.5781 141.93 97.7448 141.93 100.25C141.93 102.958 140.982 105.26 139.086 107.156C137.19 109.052 134.888 110 132.18 110ZM115.93 103.5H132.18C133.094 103.5 133.855 103.195 134.465 102.586C135.108 101.943 135.43 101.164 135.43 100.25C135.43 99.3359 135.108 98.5742 134.465 97.9648C133.855 97.3216 133.094 97 132.18 97H124.055V90.5H132.18C133.094 90.5 133.855 90.1953 134.465 89.5859C135.108 88.9427 135.43 88.1641 135.43 87.25C135.43 86.3359 135.108 85.5742 134.465 84.9648C133.855 84.3216 133.094 84 132.18 84H115.93V103.5ZM171.18 110H148.43V103.5H171.18C172.094 103.5 172.855 103.195 173.465 102.586C174.108 101.943 174.43 101.164 174.43 100.25C174.43 99.3359 174.108 98.5742 173.465 97.9648C172.855 97.3216 172.094 97 171.18 97H163.055V90.5H171.18C172.094 90.5 172.855 90.1953 173.465 89.5859C174.108 88.9427 174.43 88.1641 174.43 87.25C174.43 86.3359 174.108 85.5742 173.465 84.9648C172.855 84.3216 172.094 84 171.18 84H148.43V77.5H171.18C173.888 77.5 176.19 78.4479 178.086 80.3438C179.982 82.2396 180.93 84.5417 180.93 87.25C180.93 89.7552 180.117 91.9219 178.492 93.75C180.117 95.5781 180.93 97.7448 180.93 100.25C180.93 102.958 179.982 105.26 178.086 107.156C176.19 109.052 173.888 110 171.18 110Z" fill="white"/>
<path d="M0.25 49H-2.75V52H0.25V49ZM0.25 16.5V13.5H-2.75V16.5H0.25ZM30.3125 32.75L28.0703 30.7569L26.2986 32.75L28.0703 34.7431L30.3125 32.75ZM6.75 42.5H3.75V45.5H6.75V42.5ZM25.2852 41.5859L27.4065 43.7073L25.2852 41.5859ZM25.2852 36.9648L23.1073 39.0281L23.1631 39.0869L23.2219 39.1427L25.2852 36.9648ZM14.875 36H11.875V39H14.875V36ZM14.875 29.5V26.5H11.875V29.5H14.875ZM25.2852 28.5859L27.4065 30.7073L25.2852 28.5859ZM25.2852 23.9648L23.1073 26.0281L23.1631 26.0869L23.2219 26.1427L25.2852 23.9648ZM6.75 23V20H3.75V23H6.75ZM23 46H0.25V52H23V46ZM3.25 49V16.5H-2.75V49H3.25ZM0.25 19.5H23V13.5H0.25V19.5ZM23 19.5C24.9218 19.5 26.4581 20.1382 27.7849 21.4651L32.0276 17.2224C29.5627 14.7576 26.4949 13.5 23 13.5V19.5ZM27.7849 21.4651C29.1118 22.7919 29.75 24.3282 29.75 26.25H35.75C35.75 22.7551 34.4924 19.6873 32.0276 17.2224L27.7849 21.4651ZM29.75 26.25C29.75 28.0401 29.1943 29.4924 28.0703 30.7569L32.5547 34.7431C34.6807 32.3513 35.75 29.4704 35.75 26.25H29.75ZM28.0703 34.7431C29.1943 36.0076 29.75 37.4599 29.75 39.25H35.75C35.75 36.0296 34.6807 33.1487 32.5547 30.7569L28.0703 34.7431ZM29.75 39.25C29.75 41.1718 29.1118 42.7081 27.7849 44.0349L32.0276 48.2776C34.4924 45.8127 35.75 42.7449 35.75 39.25H29.75ZM27.7849 44.0349C26.4581 45.3618 24.9218 46 23 46V52C26.4949 52 29.5627 50.7424 32.0276 48.2776L27.7849 44.0349ZM6.75 45.5H23V39.5H6.75V45.5ZM23 45.5C24.6561 45.5 26.1977 44.916 27.4065 43.7073L23.1638 39.4646C23.154 39.4744 23.1468 39.4807 23.1424 39.4844C23.138 39.488 23.1357 39.4895 23.1355 39.4897C23.1353 39.4898 23.1362 39.4892 23.1381 39.4882C23.14 39.4872 23.1416 39.4865 23.1427 39.4861C23.1456 39.4849 23.1397 39.4877 23.1203 39.4913C23.1003 39.4949 23.0616 39.5 23 39.5V45.5ZM27.4065 43.7073C28.6154 42.4984 29.25 40.9554 29.25 39.25H23.25C23.25 39.302 23.2455 39.334 23.2424 39.3502C23.2395 39.3658 23.2367 39.3725 23.236 39.3743C23.2353 39.376 23.2328 39.3819 23.2248 39.3936C23.2166 39.4058 23.1986 39.4299 23.1638 39.4646L27.4065 43.7073ZM29.25 39.25C29.25 37.5415 28.6106 35.9828 27.3484 34.787L23.2219 39.1427C23.2343 39.1544 23.2424 39.1632 23.2472 39.1687C23.2519 39.1741 23.2538 39.1769 23.2539 39.1769C23.2539 39.177 23.2536 39.1765 23.253 39.1756C23.2524 39.1746 23.2516 39.1733 23.2506 39.1716C23.2487 39.1681 23.2467 39.1641 23.245 39.1601C23.2412 39.1509 23.2416 39.1487 23.2435 39.1585C23.2455 39.1689 23.25 39.1978 23.25 39.25H29.25ZM27.463 34.9016C26.2672 33.6394 24.7085 33 23 33V39C23.0521 39 23.0811 39.0045 23.0915 39.0065C23.1013 39.0084 23.0991 39.0088 23.0899 39.005C23.0859 39.0033 23.0819 39.0013 23.0784 38.9994C23.0767 38.9984 23.0754 38.9976 23.0744 38.997C23.0735 38.9964 23.073 38.9961 23.0731 38.9961C23.0731 38.9962 23.0759 38.9981 23.0813 39.0028C23.0868 39.0076 23.0956 39.0157 23.1073 39.0281L27.463 34.9016ZM23 33H14.875V39H23V33ZM17.875 36V29.5H11.875V36H17.875ZM14.875 32.5H23V26.5H14.875V32.5ZM23 32.5C24.6561 32.5 26.1977 31.916 27.4065 30.7073L23.1638 26.4646C23.154 26.4744 23.1468 26.4807 23.1424 26.4844C23.138 26.488 23.1357 26.4895 23.1355 26.4897C23.1353 26.4898 23.1362 26.4892 23.1381 26.4882C23.14 26.4872 23.1416 26.4865 23.1427 26.4861C23.1456 26.4849 23.1397 26.4877 23.1203 26.4913C23.1003 26.4949 23.0616 26.5 23 26.5V32.5ZM27.4065 30.7073C28.6154 29.4984 29.25 27.9554 29.25 26.25H23.25C23.25 26.302 23.2455 26.334 23.2424 26.3502C23.2395 26.3658 23.2367 26.3725 23.236 26.3743C23.2353 26.376 23.2328 26.3819 23.2248 26.3936C23.2166 26.4058 23.1986 26.4299 23.1638 26.4646L27.4065 30.7073ZM29.25 26.25C29.25 24.5415 28.6106 22.9828 27.3484 21.787L23.2219 26.1427C23.2343 26.1544 23.2424 26.1632 23.2472 26.1687C23.2519 26.1741 23.2538 26.1769 23.2539 26.1769C23.2539 26.177 23.2536 26.1765 23.253 26.1756C23.2524 26.1746 23.2516 26.1733 23.2506 26.1716C23.2487 26.1681 23.2467 26.1641 23.245 26.1601C23.2412 26.1509 23.2416 26.1487 23.2435 26.1585C23.2455 26.1689 23.25 26.1979 23.25 26.25H29.25ZM27.463 21.9016C26.2672 20.6394 24.7085 20 23 20V26C23.0521 26 23.0811 26.0045 23.0915 26.0065C23.1013 26.0084 23.0991 26.0088 23.0899 26.005C23.0859 26.0033 23.0819 26.0013 23.0784 25.9994C23.0767 25.9984 23.0754 25.9976 23.0744 25.997C23.0735 25.9964 23.073 25.9961 23.0731 25.9961C23.0731 25.9962 23.0759 25.9981 23.0813 26.0028C23.0868 26.0076 23.0956 26.0157 23.1073 26.0281L27.463 21.9016ZM23 20H6.75V26H23V20ZM3.75 23V42.5H9.75V23H3.75ZM43.8203 42.5H40.8203V45.5H43.8203V42.5ZM69.8203 42.5H72.8203V39.5H69.8203V42.5ZM69.8203 49V52H72.8203V49H69.8203ZM37.3203 49H34.3203V52H37.3203V49ZM37.3203 16.5V13.5H34.3203V16.5H37.3203ZM43.8203 16.5H46.8203V13.5H43.8203V16.5ZM43.8203 45.5H69.8203V39.5H43.8203V45.5ZM66.8203 42.5V49H72.8203V42.5H66.8203ZM69.8203 46H37.3203V52H69.8203V46ZM40.3203 49V16.5H34.3203V49H40.3203ZM37.3203 19.5H43.8203V13.5H37.3203V19.5ZM40.8203 16.5V42.5H46.8203V16.5H40.8203ZM73.0703 44.2773L70.9377 46.3873L70.949 46.3987L70.9604 46.41L73.0703 44.2773ZM73.0703 21.2734L70.949 19.1521L73.0703 21.2734ZM96.0742 21.2734L93.9416 23.3834L93.9529 23.3948L93.9643 23.4061L96.0742 21.2734ZM91.5039 39.6562L89.3826 37.5349L91.5039 39.6562ZM91.5039 25.8438L89.3826 27.9651L91.5039 25.8438ZM84.5977 46C80.88 46 77.7972 44.7338 75.1803 42.1447L70.9604 46.41C74.708 50.1177 79.3101 52 84.5977 52V46ZM75.2029 42.1674C72.6138 39.5504 71.3477 36.4677 71.3477 32.75H65.3477C65.3477 38.0375 67.2299 42.6397 70.9377 46.3873L75.2029 42.1674ZM71.3477 32.75C71.3477 29.033 72.6129 25.9735 75.1916 23.3948L70.949 19.1521C67.2309 22.8702 65.3477 27.4618 65.3477 32.75H71.3477ZM75.1916 23.3948C77.811 20.7754 80.8903 19.5 84.5977 19.5V13.5C79.2998 13.5 74.6942 15.4069 70.949 19.1521L75.1916 23.3948ZM84.5977 19.5C88.3043 19.5 91.3603 20.7744 93.9416 23.3834L98.2069 19.1635C94.4912 15.4079 89.8962 13.5 84.5977 13.5V19.5ZM93.9643 23.4061C96.5733 25.9873 97.8477 29.0434 97.8477 32.75H103.848C103.848 27.4514 101.94 22.8564 98.1842 19.1408L93.9643 23.4061ZM97.8477 32.75C97.8477 36.4574 96.5723 39.5366 93.9529 42.156L98.1955 46.3987C101.941 42.6535 103.848 38.0478 103.848 32.75H97.8477ZM93.9529 42.156C91.3741 44.7348 88.3147 46 84.5977 46V52C89.8859 52 94.4774 50.1168 98.1955 46.3987L93.9529 42.156ZM84.5977 45.5C88.0926 45.5 91.1604 44.2424 93.6252 41.7776L89.3826 37.5349C88.0557 38.8618 86.5194 39.5 84.5977 39.5V45.5ZM93.6252 41.7776C96.0901 39.3127 97.3477 36.2449 97.3477 32.75H91.3477C91.3477 34.6718 90.7094 36.2081 89.3826 37.5349L93.6252 41.7776ZM97.3477 32.75C97.3477 29.2551 96.0901 26.1873 93.6252 23.7224L89.3826 27.9651C90.7094 29.2919 91.3477 30.8282 91.3477 32.75H97.3477ZM93.6252 23.7224C91.1604 21.2576 88.0926 20 84.5977 20V26C86.5194 26 88.0557 26.6382 89.3826 27.9651L93.6252 23.7224ZM84.5977 20C81.1028 20 78.0349 21.2576 75.5701 23.7224L79.8127 27.9651C81.1396 26.6382 82.6759 26 84.5977 26V20ZM75.5701 23.7224C73.1053 26.1873 71.8477 29.2551 71.8477 32.75H77.8477C77.8477 30.8282 78.4859 29.2919 79.8127 27.9651L75.5701 23.7224ZM71.8477 32.75C71.8477 36.2449 73.1053 39.3127 75.5701 41.7776L79.8127 37.5349C78.4859 36.2081 77.8477 34.6718 77.8477 32.75H71.8477ZM75.5701 41.7776C78.0349 44.2424 81.1028 45.5 84.5977 45.5V39.5C82.6759 39.5 81.1396 38.8618 79.8127 37.5349L75.5701 41.7776ZM142.895 42.5H145.895V39.5H142.895V42.5ZM142.895 49V52H145.895V49H142.895ZM108.617 44.2773L106.485 46.3873L106.496 46.3987L106.507 46.41L108.617 44.2773ZM108.617 21.2734L106.496 19.1521L108.617 21.2734ZM146.145 16.5L148.828 17.8416L150.999 13.5H146.145V16.5ZM142.895 23V26H144.749L145.578 24.3416L142.895 23ZM120.145 45.5H142.895V39.5H120.145V45.5ZM139.895 42.5V49H145.895V42.5H139.895ZM142.895 46H120.145V52H142.895V46ZM120.145 46C116.427 46 113.344 44.7338 110.727 42.1447L106.507 46.41C110.255 50.1177 114.857 52 120.145 52V46ZM110.75 42.1674C108.161 39.5504 106.895 36.4677 106.895 32.75H100.895C100.895 38.0375 102.777 42.6397 106.485 46.3873L110.75 42.1674ZM106.895 32.75C106.895 29.033 108.16 25.9735 110.739 23.3948L106.496 19.1521C102.778 22.8702 100.895 27.4618 100.895 32.75H106.895ZM110.739 23.3948C113.358 20.7754 116.437 19.5 120.145 19.5V13.5C114.847 13.5 110.241 15.4069 106.496 19.1521L110.739 23.3948ZM120.145 19.5H146.145V13.5H120.145V19.5ZM143.461 15.1584L140.211 21.6584L145.578 24.3416L148.828 17.8416L143.461 15.1584ZM142.895 20H120.145V26H142.895V20ZM120.145 20C116.65 20 113.582 21.2576 111.117 23.7224L115.36 27.9651C116.686 26.6382 118.223 26 120.145 26V20ZM111.117 23.7224C108.652 26.1873 107.395 29.2551 107.395 32.75H113.395C113.395 30.8282 114.033 29.2919 115.36 27.9651L111.117 23.7224ZM107.395 32.75C107.395 36.2449 108.652 39.3127 111.117 41.7776L115.36 37.5349C114.033 36.2081 113.395 34.6718 113.395 32.75H107.395ZM111.117 41.7776C113.582 44.2424 116.65 45.5 120.145 45.5V39.5C118.223 39.5 116.686 38.8618 115.36 37.5349L111.117 41.7776ZM154.676 37.3711L156.422 34.9314L151.676 31.5352V37.3711H154.676ZM154.676 49V52H157.676V49H154.676ZM148.176 49H145.176V52H148.176V49ZM148.176 16.5V13.5H145.176V16.5H148.176ZM154.676 16.5H157.676V13.5H154.676V16.5ZM154.676 28.1289H151.676V33.9648L156.422 30.5686L154.676 28.1289ZM170.926 16.5V13.5H169.963L169.18 14.0603L170.926 16.5ZM180.676 16.5L182.419 18.9412L190.037 13.5H180.676V16.5ZM157.926 32.75L156.182 30.3088L152.764 32.75L156.182 35.1912L157.926 32.75ZM180.676 49V52H190.037L182.419 46.5588L180.676 49ZM170.926 49L169.18 51.4397L169.963 52H170.926V49ZM151.676 37.3711V49H157.676V37.3711H151.676ZM154.676 46H148.176V52H154.676V46ZM151.176 49V16.5H145.176V49H151.176ZM148.176 19.5H154.676V13.5H148.176V19.5ZM151.676 16.5V28.1289H157.676V16.5H151.676ZM156.422 30.5686L172.672 18.9397L169.18 14.0603L152.93 25.6893L156.422 30.5686ZM170.926 19.5H180.676V13.5H170.926V19.5ZM178.932 14.0588L156.182 30.3088L159.669 35.1912L182.419 18.9412L178.932 14.0588ZM156.182 35.1912L178.932 51.4412L182.419 46.5588L159.669 30.3088L156.182 35.1912ZM180.676 46H170.926V52H180.676V46ZM172.672 46.5603L156.422 34.9314L152.93 39.8107L169.18 51.4397L172.672 46.5603ZM214.09 42.5H217.09V39.5H214.09V42.5ZM214.09 49V52H217.09V49H214.09ZM179.812 44.2773L177.68 46.3873L177.691 46.3987L177.703 46.41L179.812 44.2773ZM179.812 21.2734L177.691 19.1521L179.812 21.2734ZM217.34 16.5L220.023 17.8416L222.194 13.5H217.34V16.5ZM214.09 23V26H215.944L216.773 24.3416L214.09 23ZM191.34 45.5H214.09V39.5H191.34V45.5ZM211.09 42.5V49H217.09V42.5H211.09ZM214.09 46H191.34V52H214.09V46ZM191.34 46C187.622 46 184.539 44.7338 181.922 42.1447L177.703 46.41C181.45 50.1177 186.052 52 191.34 52V46ZM181.945 42.1674C179.356 39.5504 178.09 36.4677 178.09 32.75H172.09C172.09 38.0375 173.972 42.6397 177.68 46.3873L181.945 42.1674ZM178.09 32.75C178.09 29.033 179.355 25.9735 181.934 23.3948L177.691 19.1521C173.973 22.8702 172.09 27.4618 172.09 32.75H178.09ZM181.934 23.3948C184.553 20.7754 187.632 19.5 191.34 19.5V13.5C186.042 13.5 181.436 15.4069 177.691 19.1521L181.934 23.3948ZM191.34 19.5H217.34V13.5H191.34V19.5ZM214.657 15.1584L211.407 21.6584L216.773 24.3416L220.023 17.8416L214.657 15.1584ZM214.09 20H191.34V26H214.09V20ZM191.34 20C187.845 20 184.777 21.2576 182.312 23.7224L186.555 27.9651C187.882 26.6382 189.418 26 191.34 26V20ZM182.312 23.7224C179.847 26.1873 178.59 29.2551 178.59 32.75H184.59C184.59 30.8282 185.228 29.2919 186.555 27.9651L182.312 23.7224ZM178.59 32.75C178.59 36.2449 179.847 39.3127 182.312 41.7776L186.555 37.5349C185.228 36.2081 184.59 34.6718 184.59 32.75H178.59ZM182.312 41.7776C184.777 44.2424 187.845 45.5 191.34 45.5V39.5C189.418 39.5 187.882 38.8618 186.555 37.5349L182.312 41.7776ZM225.871 36V33H222.871V36H225.871ZM225.871 49V52H228.871V49H225.871ZM219.371 49H216.371V52H219.371V49ZM219.371 16.5V13.5H216.371V16.5H219.371ZM225.871 16.5H228.871V13.5H225.871V16.5ZM225.871 29.5H222.871V32.5H225.871V29.5ZM245.371 29.5V32.5H248.371V29.5H245.371ZM245.371 16.5V13.5H242.371V16.5H245.371ZM251.871 16.5H254.871V13.5H251.871V16.5ZM251.871 49V52H254.871V49H251.871ZM245.371 49H242.371V52H245.371V49ZM245.371 36H248.371V33H245.371V36ZM222.871 36V49H228.871V36H222.871ZM225.871 46H219.371V52H225.871V46ZM222.371 49V16.5H216.371V49H222.371ZM219.371 19.5H225.871V13.5H219.371V19.5ZM222.871 16.5V29.5H228.871V16.5H222.871ZM225.871 32.5H245.371V26.5H225.871V32.5ZM248.371 29.5V16.5H242.371V29.5H248.371ZM245.371 19.5H251.871V13.5H245.371V19.5ZM248.871 16.5V49H254.871V16.5H248.871ZM251.871 46H245.371V52H251.871V46ZM248.371 49V36H242.371V49H248.371ZM245.371 33H225.871V39H245.371V33ZM253.496 49L250.788 47.7102L248.745 52H253.496V49ZM269.746 14.875L272.455 13.5852L269.746 7.89718L267.038 13.5852L269.746 14.875ZM285.996 49V52H290.747L288.705 47.7102L285.996 49ZM278.684 49L275.977 50.2944L276.793 52H278.684V49ZM269.746 30.3125L272.452 29.0181L269.746 23.3593L267.04 29.0181L269.746 30.3125ZM260.809 49V52H262.699L263.515 50.2944L260.809 49ZM256.205 50.2898L272.455 16.1648L267.038 13.5852L250.788 47.7102L256.205 50.2898ZM267.038 16.1648L283.288 50.2898L288.705 47.7102L272.455 13.5852L267.038 16.1648ZM285.996 46H278.684V52H285.996V46ZM281.39 47.7056L272.452 29.0181L267.04 31.6069L275.977 50.2944L281.39 47.7056ZM267.04 29.0181L258.102 47.7056L263.515 50.2944L272.452 31.6069L267.04 29.0181ZM260.809 46H253.496V52H260.809V46ZM294.121 49V52H297.121V49H294.121ZM287.621 49H284.621V52H287.621V49ZM287.621 16.5V13.5H284.621V16.5H287.621ZM294.121 16.5H297.121V13.5H294.121V16.5ZM294.121 46H287.621V52H294.121V46ZM290.621 49V16.5H284.621V49H290.621ZM287.621 19.5H294.121V13.5H287.621V19.5ZM291.121 16.5V49H297.121V16.5H291.121ZM307.883 26.25L310.161 24.2976L304.883 18.1402V26.25H307.883ZM307.883 62V65H310.883V62H307.883ZM301.383 62H298.383V65H301.383V62ZM301.383 16.5V13.5H298.383V16.5H301.383ZM307.883 16.5L310.161 14.5476L309.263 13.5H307.883V16.5ZM327.383 39.25L325.105 41.2024L330.383 47.3598V39.25H327.383ZM327.383 0.25V-2.75H324.383V0.25H327.383ZM333.883 0.25H336.883V-2.75H333.883V0.25ZM333.883 49V52H336.883V49H333.883ZM327.383 49L325.105 50.9524L326.003 52H327.383V49ZM304.883 26.25V62H310.883V26.25H304.883ZM307.883 59H301.383V65H307.883V59ZM304.383 62V16.5H298.383V62H304.383ZM301.383 19.5H307.883V13.5H301.383V19.5ZM305.605 18.4524L325.105 41.2024L329.661 37.2976L310.161 14.5476L305.605 18.4524ZM330.383 39.25V0.25H324.383V39.25H330.383ZM327.383 3.25H333.883V-2.75H327.383V3.25ZM330.883 0.25V49H336.883V0.25H330.883ZM333.883 46H327.383V52H333.883V46ZM329.661 47.0476L310.161 24.2976L305.605 28.2024L325.105 50.9524L329.661 47.0476ZM26.25 91.1602L28.9583 89.8698L26.25 84.1852L23.5417 89.8698L26.25 91.1602ZM16.5 111.625L13.7914 112.915L16.4993 118.601L19.2083 112.915L16.5 111.625ZM0.25 77.5V74.5H-4.50134L-2.45858 78.7898L0.25 77.5ZM7.5625 77.5L10.2689 76.2056L9.45317 74.5H7.5625V77.5ZM16.5 96.1875L13.7936 97.4819L16.5005 103.142L19.2066 97.4815L16.5 96.1875ZM22.5938 83.4414L19.8926 82.1361L19.8872 82.1474L22.5938 83.4414ZM26.25 75.875L28.9512 74.5697L26.25 68.9798L23.5488 74.5697L26.25 75.875ZM29.9062 83.4414L32.6129 82.1474L32.6074 82.1361L29.9062 83.4414ZM36 96.1875L33.2934 97.4815L35.9995 103.142L38.7064 97.4819L36 96.1875ZM44.9375 77.5V74.5H43.0468L42.2311 76.2056L44.9375 77.5ZM52.25 77.5L54.9586 78.7898L57.0013 74.5H52.25V77.5ZM36 111.625L33.2917 112.915L36.0007 118.601L38.7086 112.915L36 111.625ZM23.5417 89.8698L13.7917 110.335L19.2083 112.915L28.9583 92.4505L23.5417 89.8698ZM19.2086 110.335L2.95858 76.2102L-2.45858 78.7898L13.7914 112.915L19.2086 110.335ZM0.25 80.5H7.5625V74.5H0.25V80.5ZM4.8561 78.7944L13.7936 97.4819L19.2064 94.8931L10.2689 76.2056L4.8561 78.7944ZM19.2066 97.4815L25.3003 84.7354L19.8872 82.1474L13.7934 94.8935L19.2066 97.4815ZM25.2949 84.7467L28.9512 77.1803L23.5488 74.5697L19.8926 82.1361L25.2949 84.7467ZM23.5488 77.1803L27.2051 84.7467L32.6074 82.1361L28.9512 74.5697L23.5488 77.1803ZM27.1997 84.7354L33.2934 97.4815L38.7066 94.8935L32.6128 82.1474L27.1997 84.7354ZM38.7064 97.4819L47.6439 78.7944L42.2311 76.2056L33.2936 94.8931L38.7064 97.4819ZM44.9375 80.5H52.25V74.5H44.9375V80.5ZM49.5414 76.2102L33.2914 110.335L38.7086 112.915L54.9586 78.7898L49.5414 76.2102ZM38.7083 110.335L28.9583 89.8698L23.5417 92.4505L33.2917 112.915L38.7083 110.335ZM105.875 97V100H108.875V97H105.875ZM68.5 97H65.5V100H68.5V97ZM68.5 90.5V87.5H65.5V90.5H68.5ZM105.875 90.5H108.875V87.5H105.875V90.5ZM86.375 77.5H89.375V74.5H86.375V77.5ZM86.375 84V87H89.375V84H86.375ZM60.375 84V81H57.375V84H60.375ZM60.375 103.5H57.375V106.5H60.375V103.5ZM86.375 103.5H89.375V100.5H86.375V103.5ZM86.375 110V113H89.375V110H86.375ZM53.875 110H50.875V113H53.875V110ZM53.875 77.5V74.5H50.875V77.5H53.875ZM105.875 94H68.5V100H105.875V94ZM71.5 97V90.5H65.5V97H71.5ZM68.5 93.5H105.875V87.5H68.5V93.5ZM102.875 90.5V97H108.875V90.5H102.875ZM83.375 77.5V84H89.375V77.5H83.375ZM86.375 81H60.375V87H86.375V81ZM57.375 84V103.5H63.375V84H57.375ZM60.375 106.5H86.375V100.5H60.375V106.5ZM83.375 103.5V110H89.375V103.5H83.375ZM86.375 107H53.875V113H86.375V107ZM56.875 110V77.5H50.875V110H56.875ZM53.875 80.5H86.375V74.5H53.875V80.5ZM109.43 110H106.43V113H109.43V110ZM109.43 77.5V74.5H106.43V77.5H109.43ZM139.492 93.75L137.25 91.7569L135.478 93.75L137.25 95.7431L139.492 93.75ZM115.93 103.5H112.93V106.5H115.93V103.5ZM134.465 102.586L136.586 104.707L134.465 102.586ZM134.465 97.9648L132.287 100.028L132.343 100.087L132.402 100.143L134.465 97.9648ZM124.055 97H121.055V100H124.055V97ZM124.055 90.5V87.5H121.055V90.5H124.055ZM134.465 89.5859L136.586 91.7073L134.465 89.5859ZM134.465 84.9648L132.287 87.0281L132.343 87.0869L132.402 87.1427L134.465 84.9648ZM115.93 84V81H112.93V84H115.93ZM132.18 107H109.43V113H132.18V107ZM112.43 110V77.5H106.43V110H112.43ZM109.43 80.5H132.18V74.5H109.43V80.5ZM132.18 80.5C134.101 80.5 135.638 81.1382 136.965 82.4651L141.207 78.2224C138.742 75.7576 135.675 74.5 132.18 74.5V80.5ZM136.965 82.4651C138.291 83.7919 138.93 85.3282 138.93 87.25H144.93C144.93 83.7551 143.672 80.6873 141.207 78.2224L136.965 82.4651ZM138.93 87.25C138.93 89.0401 138.374 90.4924 137.25 91.7569L141.734 95.7431C143.86 93.3513 144.93 90.4704 144.93 87.25H138.93ZM137.25 95.7431C138.374 97.0076 138.93 98.4599 138.93 100.25H144.93C144.93 97.0296 143.86 94.1487 141.734 91.7569L137.25 95.7431ZM138.93 100.25C138.93 102.172 138.291 103.708 136.965 105.035L141.207 109.278C143.672 106.813 144.93 103.745 144.93 100.25H138.93ZM136.965 105.035C135.638 106.362 134.101 107 132.18 107V113C135.675 113 138.742 111.742 141.207 109.278L136.965 105.035ZM115.93 106.5H132.18V100.5H115.93V106.5ZM132.18 106.5C133.836 106.5 135.377 105.916 136.586 104.707L132.344 100.465C132.334 100.474 132.327 100.481 132.322 100.484C132.318 100.488 132.315 100.49 132.315 100.49C132.315 100.49 132.316 100.489 132.318 100.488C132.32 100.487 132.321 100.486 132.322 100.486C132.325 100.485 132.319 100.488 132.3 100.491C132.28 100.495 132.241 100.5 132.18 100.5V106.5ZM136.586 104.707C137.795 103.498 138.43 101.955 138.43 100.25H132.43C132.43 100.302 132.425 100.334 132.422 100.35C132.419 100.366 132.416 100.372 132.416 100.374C132.415 100.376 132.413 100.382 132.405 100.394C132.396 100.406 132.378 100.43 132.344 100.465L136.586 104.707ZM138.43 100.25C138.43 98.5415 137.79 96.9828 136.528 95.787L132.402 100.143C132.414 100.154 132.422 100.163 132.427 100.169C132.432 100.174 132.434 100.177 132.434 100.177C132.434 100.177 132.433 100.177 132.433 100.176C132.432 100.175 132.431 100.173 132.43 100.172C132.428 100.168 132.426 100.164 132.425 100.16C132.421 100.151 132.421 100.149 132.423 100.158C132.425 100.169 132.43 100.198 132.43 100.25H138.43ZM136.643 95.9016C135.447 94.6394 133.888 94 132.18 94V100C132.232 100 132.261 100.005 132.271 100.007C132.281 100.008 132.279 100.009 132.27 100.005C132.266 100.003 132.262 100.001 132.258 99.9994C132.256 99.9984 132.255 99.9976 132.254 99.997C132.253 99.9964 132.253 99.9961 132.253 99.9961C132.253 99.9962 132.256 99.9981 132.261 100.003C132.267 100.008 132.275 100.016 132.287 100.028L136.643 95.9016ZM132.18 94H124.055V100H132.18V94ZM127.055 97V90.5H121.055V97H127.055ZM124.055 93.5H132.18V87.5H124.055V93.5ZM132.18 93.5C133.836 93.5 135.377 92.916 136.586 91.7073L132.344 87.4646C132.334 87.4744 132.327 87.4807 132.322 87.4844C132.318 87.488 132.315 87.4895 132.315 87.4897C132.315 87.4898 132.316 87.4892 132.318 87.4882C132.32 87.4872 132.321 87.4865 132.322 87.4861C132.325 87.4849 132.319 87.4877 132.3 87.4913C132.28 87.4949 132.241 87.5 132.18 87.5V93.5ZM136.586 91.7073C137.795 90.4984 138.43 88.9554 138.43 87.25H132.43C132.43 87.302 132.425 87.334 132.422 87.3502C132.419 87.3658 132.416 87.3725 132.416 87.3743C132.415 87.376 132.413 87.3819 132.405 87.3936C132.396 87.4058 132.378 87.4299 132.344 87.4646L136.586 91.7073ZM138.43 87.25C138.43 85.5415 137.79 83.9828 136.528 82.787L132.402 87.1427C132.414 87.1544 132.422 87.1632 132.427 87.1687C132.432 87.1741 132.434 87.1769 132.434 87.1769C132.434 87.177 132.433 87.1765 132.433 87.1756C132.432 87.1746 132.431 87.1733 132.43 87.1716C132.428 87.1681 132.426 87.1641 132.425 87.1601C132.421 87.1509 132.421 87.1487 132.423 87.1585C132.425 87.1689 132.43 87.1979 132.43 87.25H138.43ZM136.643 82.9016C135.447 81.6394 133.888 81 132.18 81V87C132.232 87 132.261 87.0045 132.271 87.0065C132.281 87.0084 132.279 87.0088 132.27 87.005C132.266 87.0033 132.262 87.0013 132.258 86.9994C132.256 86.9984 132.255 86.9976 132.254 86.997C132.253 86.9964 132.253 86.9961 132.253 86.9961C132.253 86.9962 132.256 86.9981 132.261 87.0028C132.267 87.0076 132.275 87.0157 132.287 87.0281L136.643 82.9016ZM132.18 81H115.93V87H132.18V81ZM112.93 84V103.5H118.93V84H112.93ZM148.43 110H145.43V113H148.43V110ZM148.43 103.5V100.5H145.43V103.5H148.43ZM173.465 102.586L175.586 104.707L173.465 102.586ZM173.465 97.9648L171.287 100.028L171.343 100.087L171.402 100.143L173.465 97.9648ZM163.055 97H160.055V100H163.055V97ZM163.055 90.5V87.5H160.055V90.5H163.055ZM173.465 89.5859L175.586 91.7073L173.465 89.5859ZM173.465 84.9648L171.287 87.0281L171.343 87.0869L171.402 87.1427L173.465 84.9648ZM148.43 84H145.43V87H148.43V84ZM148.43 77.5V74.5H145.43V77.5H148.43ZM178.492 93.75L176.25 91.7569L174.478 93.75L176.25 95.7431L178.492 93.75ZM171.18 107H148.43V113H171.18V107ZM151.43 110V103.5H145.43V110H151.43ZM148.43 106.5H171.18V100.5H148.43V106.5ZM171.18 106.5C172.836 106.5 174.377 105.916 175.586 104.707L171.344 100.465C171.334 100.474 171.327 100.481 171.322 100.484C171.318 100.488 171.315 100.49 171.315 100.49C171.315 100.49 171.316 100.489 171.318 100.488C171.32 100.487 171.321 100.486 171.322 100.486C171.325 100.485 171.319 100.488 171.3 100.491C171.28 100.495 171.241 100.5 171.18 100.5V106.5ZM175.586 104.707C176.795 103.498 177.43 101.955 177.43 100.25H171.43C171.43 100.302 171.425 100.334 171.422 100.35C171.419 100.366 171.416 100.372 171.416 100.374C171.415 100.376 171.413 100.382 171.405 100.394C171.396 100.406 171.378 100.43 171.344 100.465L175.586 104.707ZM177.43 100.25C177.43 98.5415 176.79 96.9828 175.528 95.787L171.402 100.143C171.414 100.154 171.422 100.163 171.427 100.169C171.432 100.174 171.434 100.177 171.434 100.177C171.434 100.177 171.433 100.177 171.433 100.176C171.432 100.175 171.431 100.173 171.43 100.172C171.428 100.168 171.426 100.164 171.425 100.16C171.421 100.151 171.421 100.149 171.423 100.158C171.425 100.169 171.43 100.198 171.43 100.25H177.43ZM175.643 95.9016C174.447 94.6394 172.888 94 171.18 94V100C171.232 100 171.261 100.005 171.271 100.007C171.281 100.008 171.279 100.009 171.27 100.005C171.266 100.003 171.262 100.001 171.258 99.9994C171.256 99.9984 171.255 99.9976 171.254 99.997C171.253 99.9964 171.253 99.9961 171.253 99.9961C171.253 99.9962 171.256 99.9981 171.261 100.003C171.267 100.008 171.275 100.016 171.287 100.028L175.643 95.9016ZM171.18 94H163.055V100H171.18V94ZM166.055 97V90.5H160.055V97H166.055ZM163.055 93.5H171.18V87.5H163.055V93.5ZM171.18 93.5C172.836 93.5 174.377 92.916 175.586 91.7073L171.344 87.4646C171.334 87.4744 171.327 87.4807 171.322 87.4844C171.318 87.488 171.315 87.4895 171.315 87.4897C171.315 87.4898 171.316 87.4892 171.318 87.4882C171.32 87.4872 171.321 87.4865 171.322 87.4861C171.325 87.4849 171.319 87.4877 171.3 87.4913C171.28 87.4949 171.241 87.5 171.18 87.5V93.5ZM175.586 91.7073C176.795 90.4984 177.43 88.9554 177.43 87.25H171.43C171.43 87.302 171.425 87.334 171.422 87.3502C171.419 87.3658 171.416 87.3725 171.416 87.3743C171.415 87.376 171.413 87.3819 171.405 87.3936C171.396 87.4058 171.378 87.4299 171.344 87.4646L175.586 91.7073ZM177.43 87.25C177.43 85.5415 176.79 83.9828 175.528 82.787L171.402 87.1427C171.414 87.1544 171.422 87.1632 171.427 87.1687C171.432 87.1741 171.434 87.1769 171.434 87.1769C171.434 87.177 171.433 87.1765 171.433 87.1756C171.432 87.1746 171.431 87.1733 171.43 87.1716C171.428 87.1681 171.426 87.1641 171.425 87.1601C171.421 87.1509 171.421 87.1487 171.423 87.1585C171.425 87.1689 171.43 87.1979 171.43 87.25H177.43ZM175.643 82.9016C174.447 81.6394 172.888 81 171.18 81V87C171.232 87 171.261 87.0045 171.271 87.0065C171.281 87.0084 171.279 87.0088 171.27 87.005C171.266 87.0033 171.262 87.0013 171.258 86.9994C171.256 86.9984 171.255 86.9976 171.254 86.997C171.253 86.9964 171.253 86.9961 171.253 86.9961C171.253 86.9962 171.256 86.9981 171.261 87.0028C171.267 87.0076 171.275 87.0157 171.287 87.0281L175.643 82.9016ZM171.18 81H148.43V87H171.18V81ZM151.43 84V77.5H145.43V84H151.43ZM148.43 80.5H171.18V74.5H148.43V80.5ZM171.18 80.5C173.101 80.5 174.638 81.1382 175.965 82.4651L180.207 78.2224C177.742 75.7576 174.675 74.5 171.18 74.5V80.5ZM175.965 82.4651C177.291 83.7919 177.93 85.3282 177.93 87.25H183.93C183.93 83.7551 182.672 80.6873 180.207 78.2224L175.965 82.4651ZM177.93 87.25C177.93 89.0401 177.374 90.4924 176.25 91.7569L180.734 95.7431C182.86 93.3513 183.93 90.4704 183.93 87.25H177.93ZM176.25 95.7431C177.374 97.0076 177.93 98.4599 177.93 100.25H183.93C183.93 97.0296 182.86 94.1487 180.734 91.7569L176.25 95.7431ZM177.93 100.25C177.93 102.172 177.291 103.708 175.965 105.035L180.207 109.278C182.672 106.813 183.93 103.745 183.93 100.25H177.93ZM175.965 105.035C174.638 106.362 173.101 107 171.18 107V113C174.675 113 177.742 111.742 180.207 109.278L175.965 105.035Z" fill="black" mask="url(#path-1-outside-1_58_293)"/>
</svg>
