<svg width="1161" height="75" viewBox="0 0 1161 75" fill="none" xmlns="http://www.w3.org/2000/svg">
<path d="M19.6846 51.25H46.8096V59H19.6846C14.3161 59 9.7347 57.123 5.94043 53.3691C2.18652 49.5749 0.30957 44.9935 0.30957 39.625C0.30957 34.2565 2.18652 29.6953 5.94043 25.9414C9.7347 22.1471 14.3161 20.25 19.6846 20.25H50.6846L46.8096 28H19.6846C16.4554 28 13.7106 29.1302 11.4502 31.3906C9.18978 33.651 8.05957 36.3958 8.05957 39.625C8.05957 42.8542 9.18978 45.599 11.4502 47.8594C13.7106 50.1198 16.4554 51.25 19.6846 51.25ZM48.7471 59L68.1221 18.3125L87.4971 59H78.7783L68.1221 36.7188L57.4658 59H48.7471ZM97.1846 51.25H128.185V59H89.4346V20.25H97.1846V51.25ZM140.233 51.25H171.233V59H132.483V20.25H140.233V51.25ZM248.733 43.5H227.421V35.75H248.733V43.5ZM209.983 20.25H248.733V28H217.733V74.5H209.983V20.25ZM271.681 59C266.312 59 261.731 57.123 257.937 53.3691C254.183 49.5749 252.306 44.9935 252.306 39.625C252.306 34.2565 254.183 29.6953 257.937 25.9414C261.731 22.1471 266.312 20.25 271.681 20.25C277.049 20.25 281.61 22.1471 285.364 25.9414C289.159 29.6953 291.056 34.2565 291.056 39.625C291.056 44.9935 289.159 49.5749 285.364 53.3691C281.61 57.123 277.049 59 271.681 59ZM271.681 51.25C274.91 51.25 277.655 50.1198 279.915 47.8594C282.175 45.599 283.306 42.8542 283.306 39.625C283.306 36.3958 282.175 33.651 279.915 31.3906C277.655 29.1302 274.91 28 271.681 28C268.451 28 265.707 29.1302 263.446 31.3906C261.186 33.651 260.056 36.3958 260.056 39.625C260.056 42.8542 261.186 45.599 263.446 47.8594C265.707 50.1198 268.451 51.25 271.681 51.25ZM303.286 59H295.536V20.25H322.661C325.89 20.25 328.635 21.3802 330.896 23.6406C333.156 25.901 334.286 28.6458 334.286 31.875C334.286 35.1042 333.156 37.849 330.896 40.1094C328.635 42.3698 325.89 43.5 322.661 43.5H320.966L338.161 74.5H330.411L309.099 35.75H322.661C323.751 35.75 324.659 35.3867 325.386 34.6602C326.153 33.8932 326.536 32.9648 326.536 31.875C326.536 30.7852 326.153 29.877 325.386 29.1504C324.659 28.3835 323.751 28 322.661 28H303.286V59ZM396.286 51.25H423.411V59H396.286C390.918 59 386.336 57.123 382.542 53.3691C378.788 49.5749 376.911 44.9935 376.911 39.625C376.911 34.2565 378.788 29.6953 382.542 25.9414C386.336 22.1471 390.918 20.25 396.286 20.25H427.286L423.411 28H396.286C393.057 28 390.312 29.1302 388.052 31.3906C385.791 33.651 384.661 36.3958 384.661 39.625C384.661 42.8542 385.791 45.599 388.052 47.8594C390.312 50.1198 393.057 51.25 396.286 51.25ZM442.847 59C437.478 59 432.897 57.123 429.103 53.3691C425.349 49.5749 423.472 44.9935 423.472 39.625C423.472 34.2565 425.349 29.6953 429.103 25.9414C432.897 22.1471 437.478 20.25 442.847 20.25C448.215 20.25 452.776 22.1471 456.53 25.9414C460.325 29.6953 462.222 34.2565 462.222 39.625C462.222 44.9935 460.325 49.5749 456.53 53.3691C452.776 57.123 448.215 59 442.847 59ZM442.847 51.25C446.076 51.25 448.821 50.1198 451.081 47.8594C453.341 45.599 454.472 42.8542 454.472 39.625C454.472 36.3958 453.341 33.651 451.081 31.3906C448.821 29.1302 446.076 28 442.847 28C439.618 28 436.873 29.1302 434.612 31.3906C432.352 33.651 431.222 36.3958 431.222 39.625C431.222 42.8542 432.352 45.599 434.612 47.8594C436.873 50.1198 439.618 51.25 442.847 51.25ZM474.452 35.75V74.5H466.702V20.25H474.452L489.952 49.3125L505.452 20.25H513.202V59H505.452V35.75L493.827 59H486.077L474.452 35.75ZM529.61 35.75V74.5H521.86V20.25H529.61L545.11 49.3125L560.61 20.25H568.36V59H560.61V35.75L548.985 59H541.235L529.61 35.75ZM574.899 39.625V20.25H582.649V39.625C582.649 42.8542 583.78 45.599 586.04 47.8594C588.3 50.1198 591.045 51.25 594.274 51.25C597.504 51.25 600.248 50.1198 602.509 47.8594C604.769 45.599 605.899 42.8542 605.899 39.625V0.875H613.649V39.625C613.649 44.9935 611.752 49.5749 607.958 53.3691C604.204 57.123 599.643 59 594.274 59C588.906 59 584.325 57.123 580.53 53.3691C576.776 49.5749 574.899 44.9935 574.899 39.625ZM628.181 31.875V74.5H620.431V20.25H628.181L651.431 47.375V0.875H659.181V59H651.431L628.181 31.875ZM675.528 59H667.778V20.25H675.528V59ZM703.077 28V74.5H695.327V28H679.827V20.25H718.577V28H703.077ZM735.53 40.8359L720.03 20.25H729.718L739.405 33.1465L749.093 20.25H758.78L743.28 40.7754V74.5H735.53V40.8359ZM805.28 74.5H797.53V20.25H824.655C827.884 20.25 830.629 21.3802 832.89 23.6406C835.15 25.901 836.28 28.6458 836.28 31.875C836.28 35.1042 835.15 37.849 832.89 40.1094C830.629 42.3698 827.884 43.5 824.655 43.5H814.968V35.75H824.655C825.745 35.75 826.653 35.3867 827.38 34.6602C828.147 33.8932 828.53 32.9648 828.53 31.875C828.53 30.7852 828.147 29.877 827.38 29.1504C826.653 28.3835 825.745 28 824.655 28H805.28V74.5ZM828.53 59L847.905 18.3125L867.28 59H858.562L847.905 36.7188L837.249 59H828.53ZM876.968 59H869.218V20.25H896.343C899.572 20.25 902.317 21.3802 904.577 23.6406C906.838 25.901 907.968 28.6458 907.968 31.875C907.968 35.1042 906.838 37.849 904.577 40.1094C902.317 42.3698 899.572 43.5 896.343 43.5H894.647L911.843 74.5H904.093L882.78 35.75H896.343C897.433 35.75 898.341 35.3867 899.067 34.6602C899.834 33.8932 900.218 32.9648 900.218 31.875C900.218 30.7852 899.834 29.877 899.067 29.1504C898.341 28.3835 897.433 28 896.343 28H876.968V59ZM932.853 28V74.5H925.103V28H909.603V20.25H948.353V28H932.853ZM960.401 31.875V74.5H952.651V20.25H960.401L983.651 47.375V0.875H991.401V59H983.651L960.401 31.875ZM1062 43.5H1017.44V35.75H1062V43.5ZM1038.75 20.25V28H1007.75V51.25H1038.75V59H999.999V20.25H1038.75ZM1073.99 59H1066.24V20.25H1093.36C1096.59 20.25 1099.34 21.3802 1101.6 23.6406C1103.86 25.901 1104.99 28.6458 1104.99 31.875C1104.99 35.1042 1103.86 37.849 1101.6 40.1094C1099.34 42.3698 1096.59 43.5 1093.36 43.5H1091.67L1108.86 74.5H1101.11L1079.8 35.75H1093.36C1094.45 35.75 1095.36 35.3867 1096.09 34.6602C1096.85 33.8932 1097.24 32.9648 1097.24 31.875C1097.24 30.7852 1096.85 29.877 1096.09 29.1504C1095.36 28.3835 1094.45 28 1093.36 28H1073.99V59ZM1149.07 59H1102.57V51.25H1149.07C1150.16 51.25 1151.06 50.8867 1151.79 50.1602C1152.56 49.3932 1152.94 48.4648 1152.94 47.375C1152.94 46.2852 1152.56 45.377 1151.79 44.6504C1151.06 43.8835 1150.16 43.5 1149.07 43.5H1133.57C1130.34 43.5 1127.59 42.3698 1125.33 40.1094C1123.07 37.849 1121.94 35.1042 1121.94 31.875C1121.94 28.6458 1123.07 25.901 1125.33 23.6406C1127.59 21.3802 1130.34 20.25 1133.57 20.25H1156.82V28H1133.57C1132.48 28 1131.55 28.3835 1130.78 29.1504C1130.05 29.877 1129.69 30.7852 1129.69 31.875C1129.69 32.9648 1130.05 33.8932 1130.78 34.6602C1131.55 35.3867 1132.48 35.75 1133.57 35.75H1149.07C1152.29 35.75 1155.04 36.8802 1157.3 39.1406C1159.56 41.401 1160.69 44.1458 1160.69 47.375C1160.69 50.6042 1159.56 53.349 1157.3 55.6094C1155.04 57.8698 1152.29 59 1149.07 59Z" fill="white"/>
</svg>
