<svg width="302" height="107" viewBox="0 0 302 107" fill="none" xmlns="http://www.w3.org/2000/svg">
<mask id="path-1-outside-1_58_279" maskUnits="userSpaceOnUse" x="-3" y="-3" width="311" height="113" fill="black">
<rect fill="white" x="-3" y="-3" width="311" height="113"/>
<path d="M16.5 26.5H32.75V33H16.5C11.9974 33 8.15495 31.4258 4.97266 28.2773C1.82422 25.0951 0.25 21.2526 0.25 16.75C0.25 12.2474 1.82422 8.42188 4.97266 5.27344C8.15495 2.09115 11.9974 0.5 16.5 0.5H32.75V7H16.5C13.7917 7 11.4896 7.94792 9.59375 9.84375C7.69792 11.7396 6.75 14.0417 6.75 16.75C6.75 19.4583 7.69792 21.7604 9.59375 23.6562C11.4896 25.5521 13.7917 26.5 16.5 26.5ZM46.9688 17.7656L33.9688 0.5H42.0938L50.2188 11.3164L58.3438 0.5H66.4688L53.4688 17.7148V46H46.9688V17.7656ZM90.6406 33H67.8906V0.5H90.6406C93.349 0.5 95.651 1.44792 97.5469 3.34375C99.4427 5.23958 100.391 7.54167 100.391 10.25C100.391 12.7552 99.5781 14.9219 97.9531 16.75C99.5781 18.5781 100.391 20.7448 100.391 23.25C100.391 25.9583 99.4427 28.2604 97.5469 30.1562C95.651 32.0521 93.349 33 90.6406 33ZM74.3906 26.5H90.6406C91.5547 26.5 92.3164 26.1953 92.9258 25.5859C93.569 24.9427 93.8906 24.1641 93.8906 23.25C93.8906 22.3359 93.569 21.5742 92.9258 20.9648C92.3164 20.3216 91.5547 20 90.6406 20H82.5156V13.5H90.6406C91.5547 13.5 92.3164 13.1953 92.9258 12.5859C93.569 11.9427 93.8906 11.1641 93.8906 10.25C93.8906 9.33594 93.569 8.57422 92.9258 7.96484C92.3164 7.32161 91.5547 7 90.6406 7H74.3906V26.5ZM156.961 20H119.586V13.5H156.961V20ZM137.461 0.5V7H111.461V26.5H137.461V33H104.961V0.5H137.461ZM167.016 33H160.516V0.5H183.266C185.974 0.5 188.276 1.44792 190.172 3.34375C192.068 5.23958 193.016 7.54167 193.016 10.25C193.016 12.9583 192.068 15.2604 190.172 17.1562C188.276 19.0521 185.974 20 183.266 20H181.844L196.266 46H189.766L171.891 13.5H183.266C184.18 13.5 184.941 13.1953 185.551 12.5859C186.194 11.9427 186.516 11.1641 186.516 10.25C186.516 9.33594 186.194 8.57422 185.551 7.96484C184.941 7.32161 184.18 7 183.266 7H167.016V33ZM39.25 94H0.25V87.5H39.25C40.1641 87.5 40.9258 87.1953 41.5352 86.5859C42.1784 85.9427 42.5 85.1641 42.5 84.25C42.5 83.3359 42.1784 82.5742 41.5352 81.9648C40.9258 81.3216 40.1641 81 39.25 81H26.25C23.5417 81 21.2396 80.0521 19.3438 78.1562C17.4479 76.2604 16.5 73.9583 16.5 71.25C16.5 68.5417 17.4479 66.2396 19.3438 64.3438C21.2396 62.4479 23.5417 61.5 26.25 61.5H45.75V68H26.25C25.3359 68 24.5573 68.3216 23.9141 68.9648C23.3047 69.5742 23 70.3359 23 71.25C23 72.1641 23.3047 72.9427 23.9141 73.5859C24.5573 74.1953 25.3359 74.5 26.25 74.5H39.25C41.9583 74.5 44.2604 75.4479 46.1562 77.3438C48.0521 79.2396 49 81.5417 49 84.25C49 86.9583 48.0521 89.2604 46.1562 91.1562C44.2604 93.0521 41.9583 94 39.25 94ZM104.352 81H66.9766V74.5H104.352V81ZM84.8516 61.5V68H58.8516V87.5H84.8516V94H52.3516V61.5H84.8516ZM123.852 87.5H146.602V94H123.852C119.349 94 115.507 92.4258 112.324 89.2773C109.176 86.0951 107.602 82.2526 107.602 77.75C107.602 73.2474 109.176 69.4219 112.324 66.2734C115.507 63.0911 119.349 61.5 123.852 61.5H149.852L146.602 68H123.852C121.143 68 118.841 68.9479 116.945 70.8438C115.049 72.7396 114.102 75.0417 114.102 77.75C114.102 80.4583 115.049 82.7604 116.945 84.6562C118.841 86.5521 121.143 87.5 123.852 87.5ZM151.426 77.75V61.5H157.926V77.75C157.926 80.4583 158.874 82.7604 160.77 84.6562C162.665 86.5521 164.967 87.5 167.676 87.5C170.384 87.5 172.686 86.5521 174.582 84.6562C176.478 82.7604 177.426 80.4583 177.426 77.75V45.25H183.926V77.75C183.926 82.2526 182.335 86.0951 179.152 89.2773C176.004 92.4258 172.178 94 167.676 94C163.173 94 159.331 92.4258 156.148 89.2773C153 86.0951 151.426 82.2526 151.426 77.75ZM196.113 94H189.613V61.5H212.363C215.072 61.5 217.374 62.4479 219.27 64.3438C221.165 66.2396 222.113 68.5417 222.113 71.25C222.113 73.9583 221.165 76.2604 219.27 78.1562C217.374 80.0521 215.072 81 212.363 81H210.941L225.363 107H218.863L200.988 74.5H212.363C213.277 74.5 214.039 74.1953 214.648 73.5859C215.292 72.9427 215.613 72.1641 215.613 71.25C215.613 70.3359 215.292 69.5742 214.648 68.9648C214.039 68.3216 213.277 68 212.363 68H196.113V94ZM231.965 94H225.465V61.5H231.965V94ZM255.07 68V107H248.57V68H235.57V61.5H268.07V68H255.07ZM282.289 78.7656L269.289 61.5H277.414L285.539 72.3164L293.664 61.5H301.789L288.789 78.7148V107H282.289V78.7656Z"/>
</mask>
<path d="M16.5 26.5H32.75V33H16.5C11.9974 33 8.15495 31.4258 4.97266 28.2773C1.82422 25.0951 0.25 21.2526 0.25 16.75C0.25 12.2474 1.82422 8.42188 4.97266 5.27344C8.15495 2.09115 11.9974 0.5 16.5 0.5H32.75V7H16.5C13.7917 7 11.4896 7.94792 9.59375 9.84375C7.69792 11.7396 6.75 14.0417 6.75 16.75C6.75 19.4583 7.69792 21.7604 9.59375 23.6562C11.4896 25.5521 13.7917 26.5 16.5 26.5ZM46.9688 17.7656L33.9688 0.5H42.0938L50.2188 11.3164L58.3438 0.5H66.4688L53.4688 17.7148V46H46.9688V17.7656ZM90.6406 33H67.8906V0.5H90.6406C93.349 0.5 95.651 1.44792 97.5469 3.34375C99.4427 5.23958 100.391 7.54167 100.391 10.25C100.391 12.7552 99.5781 14.9219 97.9531 16.75C99.5781 18.5781 100.391 20.7448 100.391 23.25C100.391 25.9583 99.4427 28.2604 97.5469 30.1562C95.651 32.0521 93.349 33 90.6406 33ZM74.3906 26.5H90.6406C91.5547 26.5 92.3164 26.1953 92.9258 25.5859C93.569 24.9427 93.8906 24.1641 93.8906 23.25C93.8906 22.3359 93.569 21.5742 92.9258 20.9648C92.3164 20.3216 91.5547 20 90.6406 20H82.5156V13.5H90.6406C91.5547 13.5 92.3164 13.1953 92.9258 12.5859C93.569 11.9427 93.8906 11.1641 93.8906 10.25C93.8906 9.33594 93.569 8.57422 92.9258 7.96484C92.3164 7.32161 91.5547 7 90.6406 7H74.3906V26.5ZM156.961 20H119.586V13.5H156.961V20ZM137.461 0.5V7H111.461V26.5H137.461V33H104.961V0.5H137.461ZM167.016 33H160.516V0.5H183.266C185.974 0.5 188.276 1.44792 190.172 3.34375C192.068 5.23958 193.016 7.54167 193.016 10.25C193.016 12.9583 192.068 15.2604 190.172 17.1562C188.276 19.0521 185.974 20 183.266 20H181.844L196.266 46H189.766L171.891 13.5H183.266C184.18 13.5 184.941 13.1953 185.551 12.5859C186.194 11.9427 186.516 11.1641 186.516 10.25C186.516 9.33594 186.194 8.57422 185.551 7.96484C184.941 7.32161 184.18 7 183.266 7H167.016V33ZM39.25 94H0.25V87.5H39.25C40.1641 87.5 40.9258 87.1953 41.5352 86.5859C42.1784 85.9427 42.5 85.1641 42.5 84.25C42.5 83.3359 42.1784 82.5742 41.5352 81.9648C40.9258 81.3216 40.1641 81 39.25 81H26.25C23.5417 81 21.2396 80.0521 19.3438 78.1562C17.4479 76.2604 16.5 73.9583 16.5 71.25C16.5 68.5417 17.4479 66.2396 19.3438 64.3438C21.2396 62.4479 23.5417 61.5 26.25 61.5H45.75V68H26.25C25.3359 68 24.5573 68.3216 23.9141 68.9648C23.3047 69.5742 23 70.3359 23 71.25C23 72.1641 23.3047 72.9427 23.9141 73.5859C24.5573 74.1953 25.3359 74.5 26.25 74.5H39.25C41.9583 74.5 44.2604 75.4479 46.1562 77.3438C48.0521 79.2396 49 81.5417 49 84.25C49 86.9583 48.0521 89.2604 46.1562 91.1562C44.2604 93.0521 41.9583 94 39.25 94ZM104.352 81H66.9766V74.5H104.352V81ZM84.8516 61.5V68H58.8516V87.5H84.8516V94H52.3516V61.5H84.8516ZM123.852 87.5H146.602V94H123.852C119.349 94 115.507 92.4258 112.324 89.2773C109.176 86.0951 107.602 82.2526 107.602 77.75C107.602 73.2474 109.176 69.4219 112.324 66.2734C115.507 63.0911 119.349 61.5 123.852 61.5H149.852L146.602 68H123.852C121.143 68 118.841 68.9479 116.945 70.8438C115.049 72.7396 114.102 75.0417 114.102 77.75C114.102 80.4583 115.049 82.7604 116.945 84.6562C118.841 86.5521 121.143 87.5 123.852 87.5ZM151.426 77.75V61.5H157.926V77.75C157.926 80.4583 158.874 82.7604 160.77 84.6562C162.665 86.5521 164.967 87.5 167.676 87.5C170.384 87.5 172.686 86.5521 174.582 84.6562C176.478 82.7604 177.426 80.4583 177.426 77.75V45.25H183.926V77.75C183.926 82.2526 182.335 86.0951 179.152 89.2773C176.004 92.4258 172.178 94 167.676 94C163.173 94 159.331 92.4258 156.148 89.2773C153 86.0951 151.426 82.2526 151.426 77.75ZM196.113 94H189.613V61.5H212.363C215.072 61.5 217.374 62.4479 219.27 64.3438C221.165 66.2396 222.113 68.5417 222.113 71.25C222.113 73.9583 221.165 76.2604 219.27 78.1562C217.374 80.0521 215.072 81 212.363 81H210.941L225.363 107H218.863L200.988 74.5H212.363C213.277 74.5 214.039 74.1953 214.648 73.5859C215.292 72.9427 215.613 72.1641 215.613 71.25C215.613 70.3359 215.292 69.5742 214.648 68.9648C214.039 68.3216 213.277 68 212.363 68H196.113V94ZM231.965 94H225.465V61.5H231.965V94ZM255.07 68V107H248.57V68H235.57V61.5H268.07V68H255.07ZM282.289 78.7656L269.289 61.5H277.414L285.539 72.3164L293.664 61.5H301.789L288.789 78.7148V107H282.289V78.7656Z" fill="white"/>
<path d="M32.75 26.5H35.75V23.5H32.75V26.5ZM32.75 33V36H35.75V33H32.75ZM4.97266 28.2773L2.84002 30.3873L2.85131 30.3987L2.86271 30.41L4.97266 28.2773ZM4.97266 5.27344L2.85134 3.15212L4.97266 5.27344ZM32.75 0.5H35.75V-2.5H32.75V0.5ZM32.75 7V10H35.75V7H32.75ZM16.5 29.5H32.75V23.5H16.5V29.5ZM29.75 26.5V33H35.75V26.5H29.75ZM32.75 30H16.5V36H32.75V30ZM16.5 30C12.7823 30 9.69958 28.7338 7.0826 26.1447L2.86271 30.41C6.61032 34.1177 11.2125 36 16.5 36V30ZM7.10529 26.1674C4.51616 23.5504 3.25 20.4677 3.25 16.75H-2.75C-2.75 22.0375 -0.86772 26.6397 2.84002 30.3873L7.10529 26.1674ZM3.25 16.75C3.25 13.033 4.51521 9.97352 7.09398 7.39476L2.85134 3.15212C-0.866777 6.87023 -2.75 11.4618 -2.75 16.75H3.25ZM7.09398 7.39476C9.71335 4.77538 12.7926 3.5 16.5 3.5V-2.5C11.2022 -2.5 6.59654 -0.593088 2.85134 3.15212L7.09398 7.39476ZM16.5 3.5H32.75V-2.5H16.5V3.5ZM29.75 0.5V7H35.75V0.5H29.75ZM32.75 4H16.5V10H32.75V4ZM16.5 4C13.0051 4 9.93726 5.2576 7.47243 7.72243L11.7151 11.9651C13.0419 10.6382 14.5782 10 16.5 10V4ZM7.47243 7.72243C5.0076 10.1873 3.75 13.2551 3.75 16.75H9.75C9.75 14.8282 10.3882 13.2919 11.7151 11.9651L7.47243 7.72243ZM3.75 16.75C3.75 20.2449 5.0076 23.3127 7.47243 25.7776L11.7151 21.5349C10.3882 20.2081 9.75 18.6718 9.75 16.75H3.75ZM7.47243 25.7776C9.93726 28.2424 13.0051 29.5 16.5 29.5V23.5C14.5782 23.5 13.0419 22.8618 11.7151 21.5349L7.47243 25.7776ZM46.9688 17.7656H49.9688V16.7625L49.3654 15.9611L46.9688 17.7656ZM33.9688 0.5V-2.5H27.9546L31.5721 2.30451L33.9688 0.5ZM42.0938 0.5L44.4924 -1.3018L43.5923 -2.5H42.0938V0.5ZM50.2188 11.3164L47.8201 13.1182L50.2188 16.3114L52.6174 13.1182L50.2188 11.3164ZM58.3438 0.5V-2.5H56.8452L55.9451 -1.3018L58.3438 0.5ZM66.4688 0.5L68.8628 2.3079L72.4935 -2.5H66.4688V0.5ZM53.4688 17.7148L51.0747 15.9069L50.4688 16.7093V17.7148H53.4688ZM53.4688 46V49H56.4688V46H53.4688ZM46.9688 46H43.9688V49H46.9688V46ZM49.3654 15.9611L36.3654 -1.30451L31.5721 2.30451L44.5721 19.5701L49.3654 15.9611ZM33.9688 3.5H42.0938V-2.5H33.9688V3.5ZM39.6951 2.3018L47.8201 13.1182L52.6174 9.5146L44.4924 -1.3018L39.6951 2.3018ZM52.6174 13.1182L60.7424 2.3018L55.9451 -1.3018L47.8201 9.5146L52.6174 13.1182ZM58.3438 3.5H66.4688V-2.5H58.3438V3.5ZM64.0747 -1.3079L51.0747 15.9069L55.8628 19.5227L68.8628 2.3079L64.0747 -1.3079ZM50.4688 17.7148V46H56.4688V17.7148H50.4688ZM53.4688 43H46.9688V49H53.4688V43ZM49.9688 46V17.7656H43.9688V46H49.9688ZM67.8906 33H64.8906V36H67.8906V33ZM67.8906 0.5V-2.5H64.8906V0.5H67.8906ZM97.9531 16.75L95.7109 14.7569L93.9393 16.75L95.7109 18.7431L97.9531 16.75ZM74.3906 26.5H71.3906V29.5H74.3906V26.5ZM92.9258 25.5859L95.0471 27.7073L92.9258 25.5859ZM92.9258 20.9648L90.7479 23.0281L90.8037 23.0869L90.8625 23.1427L92.9258 20.9648ZM82.5156 20H79.5156V23H82.5156V20ZM82.5156 13.5V10.5H79.5156V13.5H82.5156ZM92.9258 12.5859L95.0471 14.7073L92.9258 12.5859ZM92.9258 7.96484L90.7479 10.0281L90.8037 10.0869L90.8625 10.1427L92.9258 7.96484ZM74.3906 7V4H71.3906V7H74.3906ZM90.6406 30H67.8906V36H90.6406V30ZM70.8906 33V0.5H64.8906V33H70.8906ZM67.8906 3.5H90.6406V-2.5H67.8906V3.5ZM90.6406 3.5C92.5624 3.5 94.0987 4.13824 95.4256 5.46507L99.6682 1.22243C97.2034 -1.2424 94.1355 -2.5 90.6406 -2.5V3.5ZM95.4256 5.46507C96.7524 6.79191 97.3906 8.32824 97.3906 10.25H103.391C103.391 6.7551 102.133 3.68726 99.6682 1.22243L95.4256 5.46507ZM97.3906 10.25C97.3906 12.0401 96.8349 13.4924 95.7109 14.7569L100.195 18.7431C102.321 16.3513 103.391 13.4704 103.391 10.25H97.3906ZM95.7109 18.7431C96.8349 20.0076 97.3906 21.4599 97.3906 23.25H103.391C103.391 20.0296 102.321 17.1487 100.195 14.7569L95.7109 18.7431ZM97.3906 23.25C97.3906 25.1718 96.7524 26.7081 95.4256 28.0349L99.6682 32.2776C102.133 29.8127 103.391 26.7449 103.391 23.25H97.3906ZM95.4256 28.0349C94.0987 29.3618 92.5624 30 90.6406 30V36C94.1355 36 97.2034 34.7424 99.6682 32.2776L95.4256 28.0349ZM74.3906 29.5H90.6406V23.5H74.3906V29.5ZM90.6406 29.5C92.2968 29.5 93.8383 28.916 95.0471 27.7073L90.8045 23.4646C90.7947 23.4744 90.7874 23.4807 90.783 23.4844C90.7786 23.488 90.7763 23.4895 90.7761 23.4897C90.7759 23.4898 90.7769 23.4892 90.7787 23.4882C90.7806 23.4872 90.7823 23.4865 90.7833 23.4861C90.7863 23.4849 90.7803 23.4877 90.7609 23.4913C90.7409 23.4949 90.7022 23.5 90.6406 23.5V29.5ZM95.0471 27.7073C96.256 26.4984 96.8906 24.9554 96.8906 23.25H90.8906C90.8906 23.302 90.8861 23.334 90.883 23.3502C90.8801 23.3658 90.8774 23.3725 90.8766 23.3743C90.8759 23.376 90.8734 23.3819 90.8655 23.3936C90.8572 23.4058 90.8392 23.4299 90.8045 23.4646L95.0471 27.7073ZM96.8906 23.25C96.8906 21.5415 96.2513 19.9828 94.989 18.787L90.8625 23.1427C90.8749 23.1544 90.883 23.1632 90.8878 23.1687C90.8925 23.1741 90.8945 23.1769 90.8945 23.1769C90.8945 23.177 90.8942 23.1765 90.8936 23.1756C90.893 23.1746 90.8922 23.1733 90.8913 23.1716C90.8893 23.1681 90.8874 23.1641 90.8857 23.1601C90.8818 23.1509 90.8822 23.1487 90.8841 23.1585C90.8861 23.1689 90.8906 23.1978 90.8906 23.25H96.8906ZM95.1036 18.9016C93.9078 17.6394 92.3491 17 90.6406 17V23C90.6928 23 90.7218 23.0045 90.7322 23.0065C90.7419 23.0084 90.7397 23.0088 90.7305 23.005C90.7265 23.0033 90.7225 23.0013 90.719 22.9994C90.7174 22.9984 90.716 22.9976 90.7151 22.997C90.7141 22.9964 90.7136 22.9961 90.7137 22.9961C90.7137 22.9962 90.7165 22.9981 90.722 23.0028C90.7274 23.0076 90.7362 23.0157 90.7479 23.0281L95.1036 18.9016ZM90.6406 17H82.5156V23H90.6406V17ZM85.5156 20V13.5H79.5156V20H85.5156ZM82.5156 16.5H90.6406V10.5H82.5156V16.5ZM90.6406 16.5C92.2968 16.5 93.8383 15.916 95.0471 14.7073L90.8045 10.4646C90.7947 10.4744 90.7874 10.4807 90.783 10.4844C90.7786 10.488 90.7763 10.4895 90.7761 10.4897C90.7759 10.4898 90.7769 10.4892 90.7787 10.4882C90.7806 10.4872 90.7823 10.4865 90.7833 10.4861C90.7863 10.4849 90.7803 10.4877 90.7609 10.4913C90.7409 10.4949 90.7022 10.5 90.6406 10.5V16.5ZM95.0471 14.7073C96.256 13.4984 96.8906 11.9554 96.8906 10.25H90.8906C90.8906 10.302 90.8861 10.334 90.883 10.3502C90.8801 10.3658 90.8774 10.3725 90.8766 10.3743C90.8759 10.376 90.8734 10.3819 90.8655 10.3936C90.8572 10.4058 90.8392 10.4299 90.8045 10.4646L95.0471 14.7073ZM96.8906 10.25C96.8906 8.54153 96.2513 6.9828 94.989 5.78699L90.8625 10.1427C90.8749 10.1544 90.883 10.1632 90.8878 10.1687C90.8925 10.1741 90.8945 10.1769 90.8945 10.1769C90.8945 10.177 90.8942 10.1765 90.8936 10.1756C90.893 10.1746 90.8922 10.1733 90.8913 10.1716C90.8893 10.1681 90.8874 10.1641 90.8857 10.1601C90.8818 10.1509 90.8822 10.1487 90.8841 10.1585C90.8861 10.1689 90.8906 10.1979 90.8906 10.25H96.8906ZM95.1036 5.90161C93.9078 4.63936 92.3491 4 90.6406 4V10C90.6928 10 90.7218 10.0045 90.7322 10.0065C90.7419 10.0084 90.7397 10.0088 90.7305 10.005C90.7265 10.0033 90.7225 10.0013 90.719 9.99936C90.7174 9.99843 90.716 9.99763 90.7151 9.99703C90.7141 9.99643 90.7136 9.9961 90.7137 9.99614C90.7137 9.99616 90.7165 9.9981 90.722 10.0028C90.7274 10.0076 90.7362 10.0157 90.7479 10.0281L95.1036 5.90161ZM90.6406 4H74.3906V10H90.6406V4ZM71.3906 7V26.5H77.3906V7H71.3906ZM156.961 20V23H159.961V20H156.961ZM119.586 20H116.586V23H119.586V20ZM119.586 13.5V10.5H116.586V13.5H119.586ZM156.961 13.5H159.961V10.5H156.961V13.5ZM137.461 0.5H140.461V-2.5H137.461V0.5ZM137.461 7V10H140.461V7H137.461ZM111.461 7V4H108.461V7H111.461ZM111.461 26.5H108.461V29.5H111.461V26.5ZM137.461 26.5H140.461V23.5H137.461V26.5ZM137.461 33V36H140.461V33H137.461ZM104.961 33H101.961V36H104.961V33ZM104.961 0.5V-2.5H101.961V0.5H104.961ZM156.961 17H119.586V23H156.961V17ZM122.586 20V13.5H116.586V20H122.586ZM119.586 16.5H156.961V10.5H119.586V16.5ZM153.961 13.5V20H159.961V13.5H153.961ZM134.461 0.5V7H140.461V0.5H134.461ZM137.461 4H111.461V10H137.461V4ZM108.461 7V26.5H114.461V7H108.461ZM111.461 29.5H137.461V23.5H111.461V29.5ZM134.461 26.5V33H140.461V26.5H134.461ZM137.461 30H104.961V36H137.461V30ZM107.961 33V0.5H101.961V33H107.961ZM104.961 3.5H137.461V-2.5H104.961V3.5ZM167.016 33V36H170.016V33H167.016ZM160.516 33H157.516V36H160.516V33ZM160.516 0.5V-2.5H157.516V0.5H160.516ZM181.844 20V17H176.749L179.22 21.4552L181.844 20ZM196.266 46V49H201.36L198.889 44.5448L196.266 46ZM189.766 46L187.137 47.4458L187.992 49H189.766V46ZM171.891 13.5V10.5H166.817L169.262 14.9458L171.891 13.5ZM185.551 12.5859L187.672 14.7073L185.551 12.5859ZM185.551 7.96484L183.373 10.0281L183.429 10.0869L183.488 10.1427L185.551 7.96484ZM167.016 7V4H164.016V7H167.016ZM167.016 30H160.516V36H167.016V30ZM163.516 33V0.5H157.516V33H163.516ZM160.516 3.5H183.266V-2.5H160.516V3.5ZM183.266 3.5C185.187 3.5 186.724 4.13824 188.051 5.46507L192.293 1.22243C189.828 -1.2424 186.761 -2.5 183.266 -2.5V3.5ZM188.051 5.46507C189.377 6.79191 190.016 8.32824 190.016 10.25H196.016C196.016 6.7551 194.758 3.68726 192.293 1.22243L188.051 5.46507ZM190.016 10.25C190.016 12.1718 189.377 13.7081 188.051 15.0349L192.293 19.2776C194.758 16.8127 196.016 13.7449 196.016 10.25H190.016ZM188.051 15.0349C186.724 16.3618 185.187 17 183.266 17V23C186.761 23 189.828 21.7424 192.293 19.2776L188.051 15.0349ZM183.266 17H181.844V23H183.266V17ZM179.22 21.4552L193.642 47.4552L198.889 44.5448L184.467 18.5448L179.22 21.4552ZM196.266 43H189.766V49H196.266V43ZM192.394 44.5542L174.519 12.0542L169.262 14.9458L187.137 47.4458L192.394 44.5542ZM171.891 16.5H183.266V10.5H171.891V16.5ZM183.266 16.5C184.922 16.5 186.463 15.916 187.672 14.7073L183.429 10.4646C183.42 10.4744 183.412 10.4807 183.408 10.4844C183.404 10.488 183.401 10.4895 183.401 10.4897C183.401 10.4898 183.402 10.4892 183.404 10.4882C183.406 10.4872 183.407 10.4865 183.408 10.4861C183.411 10.4849 183.405 10.4877 183.386 10.4913C183.366 10.4949 183.327 10.5 183.266 10.5V16.5ZM187.672 14.7073C188.881 13.4984 189.516 11.9554 189.516 10.25H183.516C183.516 10.302 183.511 10.334 183.508 10.3502C183.505 10.3658 183.502 10.3725 183.502 10.3743C183.501 10.376 183.498 10.3819 183.49 10.3936C183.482 10.4058 183.464 10.4299 183.429 10.4646L187.672 14.7073ZM189.516 10.25C189.516 8.54153 188.876 6.9828 187.614 5.78699L183.488 10.1427C183.5 10.1544 183.508 10.1632 183.513 10.1687C183.518 10.1741 183.519 10.1769 183.519 10.1769C183.52 10.177 183.519 10.1765 183.519 10.1756C183.518 10.1746 183.517 10.1733 183.516 10.1716C183.514 10.1681 183.512 10.1641 183.511 10.1601C183.507 10.1509 183.507 10.1487 183.509 10.1585C183.511 10.1689 183.516 10.1979 183.516 10.25H189.516ZM187.729 5.90161C186.533 4.63936 184.974 4 183.266 4V10C183.318 10 183.347 10.0045 183.357 10.0065C183.367 10.0084 183.365 10.0088 183.356 10.005C183.352 10.0033 183.348 10.0013 183.344 9.99936C183.342 9.99843 183.341 9.99763 183.34 9.99703C183.339 9.99643 183.339 9.9961 183.339 9.99614C183.339 9.99616 183.342 9.9981 183.347 10.0028C183.352 10.0076 183.361 10.0157 183.373 10.0281L187.729 5.90161ZM183.266 4H167.016V10H183.266V4ZM164.016 7V33H170.016V7H164.016ZM0.25 94H-2.75V97H0.25V94ZM0.25 87.5V84.5H-2.75V87.5H0.25ZM41.5352 86.5859L43.6565 88.7073L41.5352 86.5859ZM41.5352 81.9648L39.3573 84.0281L39.4131 84.0869L39.4719 84.1427L41.5352 81.9648ZM45.75 61.5H48.75V58.5H45.75V61.5ZM45.75 68V71H48.75V68H45.75ZM23.9141 68.9648L26.0354 71.0862L23.9141 68.9648ZM23.9141 73.5859L21.7362 75.6492L21.792 75.708L21.8508 75.7638L23.9141 73.5859ZM39.25 91H0.25V97H39.25V91ZM3.25 94V87.5H-2.75V94H3.25ZM0.25 90.5H39.25V84.5H0.25V90.5ZM39.25 90.5C40.9061 90.5 42.4477 89.916 43.6565 88.7073L39.4138 84.4646C39.404 84.4744 39.3968 84.4807 39.3924 84.4844C39.388 84.488 39.3857 84.4895 39.3855 84.4897C39.3853 84.4898 39.3862 84.4892 39.3881 84.4882C39.39 84.4872 39.3916 84.4865 39.3927 84.4861C39.3956 84.4849 39.3897 84.4877 39.3703 84.4913C39.3503 84.4949 39.3116 84.5 39.25 84.5V90.5ZM43.6565 88.7073C44.8654 87.4984 45.5 85.9554 45.5 84.25H39.5C39.5 84.302 39.4955 84.334 39.4924 84.3502C39.4895 84.3658 39.4867 84.3725 39.486 84.3743C39.4853 84.376 39.4828 84.3819 39.4748 84.3936C39.4666 84.4058 39.4486 84.4299 39.4138 84.4646L43.6565 88.7073ZM45.5 84.25C45.5 82.5415 44.8606 80.9828 43.5984 79.787L39.4719 84.1427C39.4843 84.1544 39.4924 84.1632 39.4972 84.1687C39.5019 84.1741 39.5038 84.1769 39.5039 84.1769C39.5039 84.177 39.5036 84.1765 39.503 84.1756C39.5024 84.1746 39.5016 84.1733 39.5006 84.1716C39.4987 84.1681 39.4967 84.1641 39.495 84.1601C39.4912 84.1509 39.4916 84.1487 39.4935 84.1585C39.4955 84.1689 39.5 84.1979 39.5 84.25H45.5ZM43.713 79.9016C42.5172 78.6394 40.9585 78 39.25 78V84C39.3022 84 39.3311 84.0045 39.3415 84.0065C39.3513 84.0084 39.3491 84.0088 39.3399 84.005C39.3359 84.0033 39.3319 84.0013 39.3284 83.9994C39.3267 83.9984 39.3254 83.9976 39.3244 83.997C39.3235 83.9964 39.323 83.9961 39.3231 83.9961C39.3231 83.9962 39.3259 83.9981 39.3313 84.0028C39.3368 84.0076 39.3456 84.0157 39.3573 84.0281L43.713 79.9016ZM39.25 78H26.25V84H39.25V78ZM26.25 78C24.3282 78 22.7919 77.3618 21.4651 76.0349L17.2224 80.2776C19.6873 82.7424 22.7551 84 26.25 84V78ZM21.4651 76.0349C20.1382 74.7081 19.5 73.1718 19.5 71.25H13.5C13.5 74.7449 14.7576 77.8127 17.2224 80.2776L21.4651 76.0349ZM19.5 71.25C19.5 69.3282 20.1382 67.7919 21.4651 66.4651L17.2224 62.2224C14.7576 64.6873 13.5 67.7551 13.5 71.25H19.5ZM21.4651 66.4651C22.7919 65.1382 24.3282 64.5 26.25 64.5V58.5C22.7551 58.5 19.6873 59.7576 17.2224 62.2224L21.4651 66.4651ZM26.25 64.5H45.75V58.5H26.25V64.5ZM42.75 61.5V68H48.75V61.5H42.75ZM45.75 65H26.25V71H45.75V65ZM26.25 65C24.5446 65 23.0016 65.6346 21.7927 66.8435L26.0354 71.0862C26.0701 71.0514 26.0942 71.0334 26.1064 71.0252C26.1181 71.0172 26.124 71.0147 26.1257 71.014C26.1275 71.0133 26.1342 71.0105 26.1498 71.0076C26.166 71.0045 26.198 71 26.25 71V65ZM21.7927 66.8435C20.584 68.0523 20 69.5938 20 71.25H26C26 71.1884 26.0051 71.1497 26.0087 71.1297C26.0123 71.1103 26.0151 71.1044 26.0139 71.1073C26.0135 71.1084 26.0128 71.11 26.0118 71.1119C26.0108 71.1138 26.0102 71.1147 26.0103 71.1145C26.0105 71.1143 26.012 71.112 26.0156 71.1076C26.0193 71.1032 26.0256 71.096 26.0354 71.0862L21.7927 66.8435ZM20 71.25C20 72.9048 20.5807 74.4295 21.7362 75.6492L26.0919 71.5227C26.037 71.4648 26.0254 71.4345 26.0222 71.4263C26.0184 71.4165 26 71.3679 26 71.25H20ZM21.8508 75.7638C23.0705 76.9193 24.5952 77.5 26.25 77.5V71.5C26.1321 71.5 26.0835 71.4816 26.0737 71.4778C26.0655 71.4746 26.0352 71.463 25.9773 71.4081L21.8508 75.7638ZM26.25 77.5H39.25V71.5H26.25V77.5ZM39.25 77.5C41.1718 77.5 42.7081 78.1382 44.0349 79.4651L48.2776 75.2224C45.8127 72.7576 42.7449 71.5 39.25 71.5V77.5ZM44.0349 79.4651C45.3618 80.7919 46 82.3282 46 84.25H52C52 80.7551 50.7424 77.6873 48.2776 75.2224L44.0349 79.4651ZM46 84.25C46 86.1718 45.3618 87.7081 44.0349 89.0349L48.2776 93.2776C50.7424 90.8127 52 87.7449 52 84.25H46ZM44.0349 89.0349C42.7081 90.3618 41.1718 91 39.25 91V97C42.7449 97 45.8127 95.7424 48.2776 93.2776L44.0349 89.0349ZM104.352 81V84H107.352V81H104.352ZM66.9766 81H63.9766V84H66.9766V81ZM66.9766 74.5V71.5H63.9766V74.5H66.9766ZM104.352 74.5H107.352V71.5H104.352V74.5ZM84.8516 61.5H87.8516V58.5H84.8516V61.5ZM84.8516 68V71H87.8516V68H84.8516ZM58.8516 68V65H55.8516V68H58.8516ZM58.8516 87.5H55.8516V90.5H58.8516V87.5ZM84.8516 87.5H87.8516V84.5H84.8516V87.5ZM84.8516 94V97H87.8516V94H84.8516ZM52.3516 94H49.3516V97H52.3516V94ZM52.3516 61.5V58.5H49.3516V61.5H52.3516ZM104.352 78H66.9766V84H104.352V78ZM69.9766 81V74.5H63.9766V81H69.9766ZM66.9766 77.5H104.352V71.5H66.9766V77.5ZM101.352 74.5V81H107.352V74.5H101.352ZM81.8516 61.5V68H87.8516V61.5H81.8516ZM84.8516 65H58.8516V71H84.8516V65ZM55.8516 68V87.5H61.8516V68H55.8516ZM58.8516 90.5H84.8516V84.5H58.8516V90.5ZM81.8516 87.5V94H87.8516V87.5H81.8516ZM84.8516 91H52.3516V97H84.8516V91ZM55.3516 94V61.5H49.3516V94H55.3516ZM52.3516 64.5H84.8516V58.5H52.3516V64.5ZM146.602 87.5H149.602V84.5H146.602V87.5ZM146.602 94V97H149.602V94H146.602ZM112.324 89.2773L110.192 91.3873L110.203 91.3987L110.214 91.41L112.324 89.2773ZM112.324 66.2734L110.203 64.1521L112.324 66.2734ZM149.852 61.5L152.535 62.8416L154.706 58.5H149.852V61.5ZM146.602 68V71H148.456L149.285 69.3416L146.602 68ZM123.852 90.5H146.602V84.5H123.852V90.5ZM143.602 87.5V94H149.602V87.5H143.602ZM146.602 91H123.852V97H146.602V91ZM123.852 91C120.134 91 117.051 89.7338 114.434 87.1447L110.214 91.41C113.962 95.1177 118.564 97 123.852 97V91ZM114.457 87.1674C111.868 84.5504 110.602 81.4677 110.602 77.75H104.602C104.602 83.0375 106.484 87.6397 110.192 91.3873L114.457 87.1674ZM110.602 77.75C110.602 74.033 111.867 70.9735 114.446 68.3948L110.203 64.1521C106.485 67.8702 104.602 72.4618 104.602 77.75H110.602ZM114.446 68.3948C117.065 65.7754 120.144 64.5 123.852 64.5V58.5C118.554 58.5 113.948 60.4069 110.203 64.1521L114.446 68.3948ZM123.852 64.5H149.852V58.5H123.852V64.5ZM147.168 60.1584L143.918 66.6584L149.285 69.3416L152.535 62.8416L147.168 60.1584ZM146.602 65H123.852V71H146.602V65ZM123.852 65C120.357 65 117.289 66.2576 114.824 68.7224L119.067 72.9651C120.393 71.6382 121.93 71 123.852 71V65ZM114.824 68.7224C112.359 71.1873 111.102 74.2551 111.102 77.75H117.102C117.102 75.8282 117.74 74.2919 119.067 72.9651L114.824 68.7224ZM111.102 77.75C111.102 81.2449 112.359 84.3127 114.824 86.7776L119.067 82.5349C117.74 81.2081 117.102 79.6718 117.102 77.75H111.102ZM114.824 86.7776C117.289 89.2424 120.357 90.5 123.852 90.5V84.5C121.93 84.5 120.393 83.8618 119.067 82.5349L114.824 86.7776ZM151.426 61.5V58.5H148.426V61.5H151.426ZM157.926 61.5H160.926V58.5H157.926V61.5ZM174.582 84.6562L172.461 82.5349L174.582 84.6562ZM177.426 45.25V42.25H174.426V45.25H177.426ZM183.926 45.25H186.926V42.25H183.926V45.25ZM156.148 89.2773L154.016 91.3873L154.027 91.3987L154.038 91.41L156.148 89.2773ZM154.426 77.75V61.5H148.426V77.75H154.426ZM151.426 64.5H157.926V58.5H151.426V64.5ZM154.926 61.5V77.75H160.926V61.5H154.926ZM154.926 77.75C154.926 81.2449 156.183 84.3127 158.648 86.7776L162.891 82.5349C161.564 81.2081 160.926 79.6718 160.926 77.75H154.926ZM158.648 86.7776C161.113 89.2424 164.181 90.5 167.676 90.5V84.5C165.754 84.5 164.218 83.8618 162.891 82.5349L158.648 86.7776ZM167.676 90.5C171.171 90.5 174.239 89.2424 176.703 86.7776L172.461 82.5349C171.134 83.8618 169.598 84.5 167.676 84.5V90.5ZM176.703 86.7776C179.168 84.3127 180.426 81.2449 180.426 77.75H174.426C174.426 79.6718 173.788 81.2081 172.461 82.5349L176.703 86.7776ZM180.426 77.75V45.25H174.426V77.75H180.426ZM177.426 48.25H183.926V42.25H177.426V48.25ZM180.926 45.25V77.75H186.926V45.25H180.926ZM180.926 77.75C180.926 81.4574 179.65 84.5366 177.031 87.156L181.274 91.3987C185.019 87.6535 186.926 83.0478 186.926 77.75H180.926ZM177.031 87.156C174.452 89.7348 171.393 91 167.676 91V97C172.964 97 177.556 95.1168 181.274 91.3987L177.031 87.156ZM167.676 91C163.958 91 160.875 89.7338 158.258 87.1447L154.038 91.41C157.786 95.1177 162.388 97 167.676 97V91ZM158.281 87.1674C155.692 84.5504 154.426 81.4677 154.426 77.75H148.426C148.426 83.0375 150.308 87.6397 154.016 91.3873L158.281 87.1674ZM196.113 94V97H199.113V94H196.113ZM189.613 94H186.613V97H189.613V94ZM189.613 61.5V58.5H186.613V61.5H189.613ZM210.941 81V78H205.847L208.318 82.4552L210.941 81ZM225.363 107V110H230.458L227.987 105.545L225.363 107ZM218.863 107L216.235 108.446L217.089 110H218.863V107ZM200.988 74.5V71.5H195.914L198.36 75.9458L200.988 74.5ZM214.648 73.5859L216.77 75.7073L214.648 73.5859ZM214.648 68.9648L212.471 71.0281L212.526 71.0869L212.585 71.1427L214.648 68.9648ZM196.113 68V65H193.113V68H196.113ZM196.113 91H189.613V97H196.113V91ZM192.613 94V61.5H186.613V94H192.613ZM189.613 64.5H212.363V58.5H189.613V64.5ZM212.363 64.5C214.285 64.5 215.821 65.1382 217.148 66.4651L221.391 62.2224C218.926 59.7576 215.858 58.5 212.363 58.5V64.5ZM217.148 66.4651C218.475 67.7919 219.113 69.3282 219.113 71.25H225.113C225.113 67.7551 223.856 64.6873 221.391 62.2224L217.148 66.4651ZM219.113 71.25C219.113 73.1718 218.475 74.7081 217.148 76.0349L221.391 80.2776C223.856 77.8127 225.113 74.7449 225.113 71.25H219.113ZM217.148 76.0349C215.821 77.3618 214.285 78 212.363 78V84C215.858 84 218.926 82.7424 221.391 80.2776L217.148 76.0349ZM212.363 78H210.941V84H212.363V78ZM208.318 82.4552L222.74 108.455L227.987 105.545L213.565 79.5448L208.318 82.4552ZM225.363 104H218.863V110H225.363V104ZM221.492 105.554L203.617 73.0542L198.36 75.9458L216.235 108.446L221.492 105.554ZM200.988 77.5H212.363V71.5H200.988V77.5ZM212.363 77.5C214.019 77.5 215.561 76.916 216.77 75.7073L212.527 71.4646C212.517 71.4744 212.51 71.4807 212.506 71.4844C212.501 71.488 212.499 71.4895 212.499 71.4897C212.499 71.4898 212.5 71.4892 212.501 71.4882C212.503 71.4872 212.505 71.4865 212.506 71.4861C212.509 71.4849 212.503 71.4877 212.484 71.4913C212.464 71.4949 212.425 71.5 212.363 71.5V77.5ZM216.77 75.7073C217.979 74.4984 218.613 72.9554 218.613 71.25H212.613C212.613 71.302 212.609 71.334 212.606 71.3502C212.603 71.3658 212.6 71.3725 212.599 71.3743C212.599 71.376 212.596 71.3819 212.588 71.3936C212.58 71.4058 212.562 71.4299 212.527 71.4646L216.77 75.7073ZM218.613 71.25C218.613 69.5415 217.974 67.9828 216.712 66.787L212.585 71.1427C212.598 71.1544 212.606 71.1632 212.61 71.1687C212.615 71.1741 212.617 71.1769 212.617 71.1769C212.617 71.177 212.617 71.1765 212.616 71.1756C212.616 71.1746 212.615 71.1733 212.614 71.1716C212.612 71.1681 212.61 71.1641 212.608 71.1601C212.604 71.1509 212.605 71.1487 212.607 71.1585C212.609 71.1689 212.613 71.1979 212.613 71.25H218.613ZM216.826 66.9016C215.63 65.6394 214.072 65 212.363 65V71C212.415 71 212.444 71.0045 212.455 71.0065C212.465 71.0084 212.462 71.0088 212.453 71.005C212.449 71.0033 212.445 71.0013 212.442 70.9994C212.44 70.9984 212.439 70.9976 212.438 70.997C212.437 70.9964 212.436 70.9961 212.436 70.9961C212.436 70.9962 212.439 70.9981 212.445 71.0028C212.45 71.0076 212.459 71.0157 212.471 71.0281L216.826 66.9016ZM212.363 65H196.113V71H212.363V65ZM193.113 68V94H199.113V68H193.113ZM231.965 94V97H234.965V94H231.965ZM225.465 94H222.465V97H225.465V94ZM225.465 61.5V58.5H222.465V61.5H225.465ZM231.965 61.5H234.965V58.5H231.965V61.5ZM231.965 91H225.465V97H231.965V91ZM228.465 94V61.5H222.465V94H228.465ZM225.465 64.5H231.965V58.5H225.465V64.5ZM228.965 61.5V94H234.965V61.5H228.965ZM255.07 68V65H252.07V68H255.07ZM255.07 107V110H258.07V107H255.07ZM248.57 107H245.57V110H248.57V107ZM248.57 68H251.57V65H248.57V68ZM235.57 68H232.57V71H235.57V68ZM235.57 61.5V58.5H232.57V61.5H235.57ZM268.07 61.5H271.07V58.5H268.07V61.5ZM268.07 68V71H271.07V68H268.07ZM252.07 68V107H258.07V68H252.07ZM255.07 104H248.57V110H255.07V104ZM251.57 107V68H245.57V107H251.57ZM248.57 65H235.57V71H248.57V65ZM238.57 68V61.5H232.57V68H238.57ZM235.57 64.5H268.07V58.5H235.57V64.5ZM265.07 61.5V68H271.07V61.5H265.07ZM268.07 65H255.07V71H268.07V65ZM282.289 78.7656H285.289V77.7625L284.686 76.9611L282.289 78.7656ZM269.289 61.5V58.5H263.275L266.892 63.3045L269.289 61.5ZM277.414 61.5L279.813 59.6982L278.913 58.5H277.414V61.5ZM285.539 72.3164L283.14 74.1182L285.539 77.3114L287.938 74.1182L285.539 72.3164ZM293.664 61.5V58.5H292.165L291.265 59.6982L293.664 61.5ZM301.789 61.5L304.183 63.3079L307.814 58.5H301.789V61.5ZM288.789 78.7148L286.395 76.9069L285.789 77.7094V78.7148H288.789ZM288.789 107V110H291.789V107H288.789ZM282.289 107H279.289V110H282.289V107ZM284.686 76.9611L271.686 59.6955L266.892 63.3045L279.892 80.5701L284.686 76.9611ZM269.289 64.5H277.414V58.5H269.289V64.5ZM275.015 63.3018L283.14 74.1182L287.938 70.5146L279.813 59.6982L275.015 63.3018ZM287.938 74.1182L296.063 63.3018L291.265 59.6982L283.14 70.5146L287.938 74.1182ZM293.664 64.5H301.789V58.5H293.664V64.5ZM299.395 59.6921L286.395 76.9069L291.183 80.5227L304.183 63.3079L299.395 59.6921ZM285.789 78.7148V107H291.789V78.7148H285.789ZM288.789 104H282.289V110H288.789V104ZM285.289 107V78.7656H279.289V107H285.289Z" fill="black" mask="url(#path-1-outside-1_58_279)"/>
</svg>
