<svg width="43" height="43" viewBox="0 0 43 43" fill="none" xmlns="http://www.w3.org/2000/svg">
<rect width="43" height="43" rx="9" fill="#5865F2"/>
<path d="M31.9309 11.6355C30.0124 10.7281 27.9551 10.0596 25.8041 9.67666C25.7649 9.66927 25.7258 9.68773 25.7056 9.72467C25.4411 10.2098 25.148 10.8426 24.9428 11.34C22.6292 10.983 20.3275 10.983 18.0614 11.34C17.8562 10.8315 17.5524 10.2098 17.2867 9.72467C17.2665 9.68897 17.2274 9.6705 17.1882 9.67666C15.0384 10.0583 12.9811 10.7269 11.0614 11.6355C11.0448 11.6429 11.0306 11.6552 11.0211 11.6712C7.11891 17.6807 6.04993 23.5425 6.57434 29.3317C6.57671 29.36 6.59214 29.3871 6.61349 29.4043C9.18806 31.3533 11.682 32.5365 14.1296 33.3207C14.1687 33.3331 14.2102 33.3183 14.2352 33.285C14.8141 32.47 15.3303 31.6106 15.7728 30.7069C15.7989 30.654 15.774 30.5912 15.7206 30.5702C14.9019 30.2501 14.1224 29.8598 13.3726 29.4166C13.3133 29.3809 13.3086 29.2935 13.3631 29.2516C13.5209 29.1297 13.6787 29.0029 13.8294 28.8749C13.8567 28.8515 13.8947 28.8465 13.9267 28.8613C18.8528 31.1797 24.1858 31.1797 29.0537 28.8613C29.0858 28.8453 29.1238 28.8502 29.1522 28.8736C29.3029 29.0017 29.4607 29.1297 29.6197 29.2516C29.6743 29.2935 29.6707 29.3809 29.6114 29.4166C28.8616 29.8684 28.0821 30.2501 27.2622 30.569C27.2089 30.5899 27.1851 30.654 27.2112 30.7069C27.6632 31.6094 28.1794 32.4687 28.7476 33.2838C28.7714 33.3183 28.8141 33.3331 28.8533 33.3207C31.3127 32.5365 33.8066 31.3533 36.3812 29.4043C36.4037 29.3871 36.418 29.3612 36.4203 29.3329C37.048 22.64 35.3691 16.8263 31.97 11.6724C31.9617 11.6552 31.9475 11.6429 31.9309 11.6355ZM16.5084 25.8067C15.0253 25.8067 13.8033 24.4031 13.8033 22.6794C13.8033 20.9557 15.0016 19.5522 16.5084 19.5522C18.027 19.5522 19.2372 20.9681 19.2135 22.6794C19.2135 24.4031 18.0151 25.8067 16.5084 25.8067ZM26.51 25.8067C25.027 25.8067 23.805 24.4031 23.805 22.6794C23.805 20.9557 25.0033 19.5522 26.51 19.5522C28.0287 19.5522 29.2388 20.9681 29.2151 22.6794C29.2151 24.4031 28.0287 25.8067 26.51 25.8067Z" fill="white"/>
</svg>
