<svg width="150" height="76" viewBox="0 0 150 76" fill="none" xmlns="http://www.w3.org/2000/svg">
<path d="M5.27344 18.0547V27H0.273438V2H5.27344V10.9453L17.7734 2H25.2734L7.77344 14.5L25.2734 27H17.7734L5.27344 18.0547ZM25.9766 27L38.4766 0.75L50.9766 27H45.3516L38.4766 12.625L31.6016 27H25.9766ZM82.2266 27H52.2266V22H82.2266C82.9297 22 83.5156 21.7656 83.9844 21.2969C84.4792 20.8021 84.7266 20.2031 84.7266 19.5C84.7266 18.7969 84.4792 18.2109 83.9844 17.7422C83.5156 17.2474 82.9297 17 82.2266 17H72.2266C70.1432 17 68.3724 16.2708 66.9141 14.8125C65.4557 13.3542 64.7266 11.5833 64.7266 9.5C64.7266 7.41667 65.4557 5.64583 66.9141 4.1875C68.3724 2.72917 70.1432 2 72.2266 2H87.2266V7H72.2266C71.5234 7 70.9245 7.2474 70.4297 7.74219C69.9609 8.21094 69.7266 8.79688 69.7266 9.5C69.7266 10.2031 69.9609 10.8021 70.4297 11.2969C70.9245 11.7656 71.5234 12 72.2266 12H82.2266C84.3099 12 86.0807 12.7292 87.5391 14.1875C88.9974 15.6458 89.7266 17.4167 89.7266 19.5C89.7266 21.5833 88.9974 23.3542 87.5391 24.8125C86.0807 26.2708 84.3099 27 82.2266 27ZM97.3047 17V27H92.3047V2H97.3047V12H112.305V2H117.305V27H112.305V17H97.3047ZM118.477 2H124.102L130.977 16.375L137.852 2H143.477L130.977 28.25L118.477 2ZM149.727 27H144.727V2H149.727V27ZM10.5273 66L23.0273 39.75L35.5273 66H29.9023L23.0273 51.625L16.1523 66H10.5273ZM41.7773 66H36.7773V41H54.2773C56.3607 41 58.1315 41.7292 59.5898 43.1875C61.0482 44.6458 61.7773 46.4167 61.7773 48.5C61.7773 50.5833 61.0482 52.3542 59.5898 53.8125C58.1315 55.2708 56.3607 56 54.2773 56H53.1836L64.2773 76H59.2773L45.5273 51H54.2773C54.9805 51 55.5664 50.7656 56.0352 50.2969C56.5299 49.8021 56.7773 49.2031 56.7773 48.5C56.7773 47.7969 56.5299 47.2109 56.0352 46.7422C55.5664 46.2474 54.9805 46 54.2773 46H41.7773V66ZM75.8789 66C72.4154 66 69.4596 64.7891 67.0117 62.3672C64.5898 59.9193 63.3789 56.9635 63.3789 53.5C63.3789 50.0365 64.5898 47.0938 67.0117 44.6719C69.4596 42.224 72.4154 41 75.8789 41C79.3424 41 82.2852 42.224 84.707 44.6719C87.1549 47.0938 88.3789 50.0365 88.3789 53.5C88.3789 56.9635 87.1549 59.9193 84.707 62.3672C82.2852 64.7891 79.3424 66 75.8789 66ZM75.8789 61C77.9622 61 79.7331 60.2708 81.1914 58.8125C82.6497 57.3542 83.3789 55.5833 83.3789 53.5C83.3789 51.4167 82.6497 49.6458 81.1914 48.1875C79.7331 46.7292 77.9622 46 75.8789 46C73.7956 46 72.0247 46.7292 70.5664 48.1875C69.1081 49.6458 68.3789 51.4167 68.3789 53.5C68.3789 55.5833 69.1081 57.3542 70.5664 58.8125C72.0247 60.2708 73.7956 61 75.8789 61ZM96.2695 66H91.2695V41H108.77C110.853 41 112.624 41.7292 114.082 43.1875C115.54 44.6458 116.27 46.4167 116.27 48.5C116.27 50.5833 115.54 52.3542 114.082 53.8125C112.624 55.2708 110.853 56 108.77 56H107.676L118.77 76H113.77L100.02 51H108.77C109.473 51 110.059 50.7656 110.527 50.2969C111.022 49.8021 111.27 49.2031 111.27 48.5C111.27 47.7969 111.022 47.2109 110.527 46.7422C110.059 46.2474 109.473 46 108.77 46H96.2695V66ZM114.473 66L126.973 39.75L139.473 66H133.848L126.973 51.625L120.098 66H114.473Z" fill="black"/>
</svg>
