<svg width="477" height="62" viewBox="0 0 477 62" fill="none" xmlns="http://www.w3.org/2000/svg">
<mask id="path-1-outside-1_67_11" maskUnits="userSpaceOnUse" x="-3" y="-3" width="483" height="68" fill="black">
<rect fill="white" x="-3" y="-3" width="483" height="68"/>
<path d="M16.5 49C11.9974 49 8.15495 47.4258 4.97266 44.2773C1.82422 41.0951 0.25 37.2526 0.25 32.75C0.25 28.2474 1.82422 24.4219 4.97266 21.2734C8.15495 18.0911 11.9974 16.5 16.5 16.5C21.0026 16.5 24.8281 18.0911 27.9766 21.2734C31.1589 24.4219 32.75 28.2474 32.75 32.75C32.75 37.2526 31.1589 41.0951 27.9766 44.2773C24.8281 47.4258 21.0026 49 16.5 49ZM16.5 42.5C19.2083 42.5 21.5104 41.5521 23.4062 39.6562C25.3021 37.7604 26.25 35.4583 26.25 32.75C26.25 30.0417 25.3021 27.7396 23.4062 25.8438C21.5104 23.9479 19.2083 23 16.5 23C13.7917 23 11.4896 23.9479 9.59375 25.8438C7.69792 27.7396 6.75 30.0417 6.75 32.75C6.75 35.4583 7.69792 37.7604 9.59375 39.6562C11.4896 41.5521 13.7917 42.5 16.5 42.5ZM43.0078 62H36.5078V16.5H59.2578C61.9661 16.5 64.2682 17.4479 66.1641 19.3438C68.0599 21.2396 69.0078 23.5417 69.0078 26.25C69.0078 28.9583 68.0599 31.2604 66.1641 33.1562C64.2682 35.0521 61.9661 36 59.2578 36H51.1328V29.5H59.2578C60.1719 29.5 60.9336 29.1953 61.543 28.5859C62.1862 27.9427 62.5078 27.1641 62.5078 26.25C62.5078 25.3359 62.1862 24.5742 61.543 23.9648C60.9336 23.3216 60.1719 23 59.2578 23H43.0078V62ZM124.156 36H86.7812V29.5H124.156V36ZM104.656 16.5V23H78.6562V42.5H104.656V49H72.1562V16.5H104.656ZM134.211 26.25V62H127.711V16.5H134.211L153.711 39.25V0.25H160.211V49H153.711L134.211 26.25ZM199.211 49H192.711V16.5H199.211V49ZM212.973 26.25V62H206.473V16.5H212.973L232.473 39.25V0.25H238.973V49H232.473L212.973 26.25ZM252.734 26.25V62H246.234V16.5H252.734L272.234 39.25V0.25H278.734V49H272.234L252.734 26.25ZM298.742 49C294.24 49 290.397 47.4258 287.215 44.2773C284.066 41.0951 282.492 37.2526 282.492 32.75C282.492 28.2474 284.066 24.4219 287.215 21.2734C290.397 18.0911 294.24 16.5 298.742 16.5C303.245 16.5 307.07 18.0911 310.219 21.2734C313.401 24.4219 314.992 28.2474 314.992 32.75C314.992 37.2526 313.401 41.0951 310.219 44.2773C307.07 47.4258 303.245 49 298.742 49ZM298.742 42.5C301.451 42.5 303.753 41.5521 305.648 39.6562C307.544 37.7604 308.492 35.4583 308.492 32.75C308.492 30.0417 307.544 27.7396 305.648 25.8438C303.753 23.9479 301.451 23 298.742 23C296.034 23 293.732 23.9479 291.836 25.8438C289.94 27.7396 288.992 30.0417 288.992 32.75C288.992 35.4583 289.94 37.7604 291.836 39.6562C293.732 41.5521 296.034 42.5 298.742 42.5ZM312.758 16.5H320.07L329.008 35.1875L337.945 16.5H345.258L329.008 50.625L312.758 16.5ZM337.285 49L353.535 14.875L369.785 49H362.473L353.535 30.3125L344.598 49H337.285ZM380.957 23V62H374.457V23H361.457V16.5H393.957V23H380.957ZM404.062 49H397.562V16.5H404.062V49ZM424.07 49C419.568 49 415.725 47.4258 412.543 44.2773C409.395 41.0951 407.82 37.2526 407.82 32.75C407.82 28.2474 409.395 24.4219 412.543 21.2734C415.725 18.0911 419.568 16.5 424.07 16.5C428.573 16.5 432.398 18.0911 435.547 21.2734C438.729 24.4219 440.32 28.2474 440.32 32.75C440.32 37.2526 438.729 41.0951 435.547 44.2773C432.398 47.4258 428.573 49 424.07 49ZM424.07 42.5C426.779 42.5 429.081 41.5521 430.977 39.6562C432.872 37.7604 433.82 35.4583 433.82 32.75C433.82 30.0417 432.872 27.7396 430.977 25.8438C429.081 23.9479 426.779 23 424.07 23C421.362 23 419.06 23.9479 417.164 25.8438C415.268 27.7396 414.32 30.0417 414.32 32.75C414.32 35.4583 415.268 37.7604 417.164 39.6562C419.06 41.5521 421.362 42.5 424.07 42.5ZM450.578 26.25V62H444.078V16.5H450.578L470.078 39.25V0.25H476.578V49H470.078L450.578 26.25Z"/>
</mask>
<path d="M16.5 49C11.9974 49 8.15495 47.4258 4.97266 44.2773C1.82422 41.0951 0.25 37.2526 0.25 32.75C0.25 28.2474 1.82422 24.4219 4.97266 21.2734C8.15495 18.0911 11.9974 16.5 16.5 16.5C21.0026 16.5 24.8281 18.0911 27.9766 21.2734C31.1589 24.4219 32.75 28.2474 32.75 32.75C32.75 37.2526 31.1589 41.0951 27.9766 44.2773C24.8281 47.4258 21.0026 49 16.5 49ZM16.5 42.5C19.2083 42.5 21.5104 41.5521 23.4062 39.6562C25.3021 37.7604 26.25 35.4583 26.25 32.75C26.25 30.0417 25.3021 27.7396 23.4062 25.8438C21.5104 23.9479 19.2083 23 16.5 23C13.7917 23 11.4896 23.9479 9.59375 25.8438C7.69792 27.7396 6.75 30.0417 6.75 32.75C6.75 35.4583 7.69792 37.7604 9.59375 39.6562C11.4896 41.5521 13.7917 42.5 16.5 42.5ZM43.0078 62H36.5078V16.5H59.2578C61.9661 16.5 64.2682 17.4479 66.1641 19.3438C68.0599 21.2396 69.0078 23.5417 69.0078 26.25C69.0078 28.9583 68.0599 31.2604 66.1641 33.1562C64.2682 35.0521 61.9661 36 59.2578 36H51.1328V29.5H59.2578C60.1719 29.5 60.9336 29.1953 61.543 28.5859C62.1862 27.9427 62.5078 27.1641 62.5078 26.25C62.5078 25.3359 62.1862 24.5742 61.543 23.9648C60.9336 23.3216 60.1719 23 59.2578 23H43.0078V62ZM124.156 36H86.7812V29.5H124.156V36ZM104.656 16.5V23H78.6562V42.5H104.656V49H72.1562V16.5H104.656ZM134.211 26.25V62H127.711V16.5H134.211L153.711 39.25V0.25H160.211V49H153.711L134.211 26.25ZM199.211 49H192.711V16.5H199.211V49ZM212.973 26.25V62H206.473V16.5H212.973L232.473 39.25V0.25H238.973V49H232.473L212.973 26.25ZM252.734 26.25V62H246.234V16.5H252.734L272.234 39.25V0.25H278.734V49H272.234L252.734 26.25ZM298.742 49C294.24 49 290.397 47.4258 287.215 44.2773C284.066 41.0951 282.492 37.2526 282.492 32.75C282.492 28.2474 284.066 24.4219 287.215 21.2734C290.397 18.0911 294.24 16.5 298.742 16.5C303.245 16.5 307.07 18.0911 310.219 21.2734C313.401 24.4219 314.992 28.2474 314.992 32.75C314.992 37.2526 313.401 41.0951 310.219 44.2773C307.07 47.4258 303.245 49 298.742 49ZM298.742 42.5C301.451 42.5 303.753 41.5521 305.648 39.6562C307.544 37.7604 308.492 35.4583 308.492 32.75C308.492 30.0417 307.544 27.7396 305.648 25.8438C303.753 23.9479 301.451 23 298.742 23C296.034 23 293.732 23.9479 291.836 25.8438C289.94 27.7396 288.992 30.0417 288.992 32.75C288.992 35.4583 289.94 37.7604 291.836 39.6562C293.732 41.5521 296.034 42.5 298.742 42.5ZM312.758 16.5H320.07L329.008 35.1875L337.945 16.5H345.258L329.008 50.625L312.758 16.5ZM337.285 49L353.535 14.875L369.785 49H362.473L353.535 30.3125L344.598 49H337.285ZM380.957 23V62H374.457V23H361.457V16.5H393.957V23H380.957ZM404.062 49H397.562V16.5H404.062V49ZM424.07 49C419.568 49 415.725 47.4258 412.543 44.2773C409.395 41.0951 407.82 37.2526 407.82 32.75C407.82 28.2474 409.395 24.4219 412.543 21.2734C415.725 18.0911 419.568 16.5 424.07 16.5C428.573 16.5 432.398 18.0911 435.547 21.2734C438.729 24.4219 440.32 28.2474 440.32 32.75C440.32 37.2526 438.729 41.0951 435.547 44.2773C432.398 47.4258 428.573 49 424.07 49ZM424.07 42.5C426.779 42.5 429.081 41.5521 430.977 39.6562C432.872 37.7604 433.82 35.4583 433.82 32.75C433.82 30.0417 432.872 27.7396 430.977 25.8438C429.081 23.9479 426.779 23 424.07 23C421.362 23 419.06 23.9479 417.164 25.8438C415.268 27.7396 414.32 30.0417 414.32 32.75C414.32 35.4583 415.268 37.7604 417.164 39.6562C419.06 41.5521 421.362 42.5 424.07 42.5ZM450.578 26.25V62H444.078V16.5H450.578L470.078 39.25V0.25H476.578V49H470.078L450.578 26.25Z" fill="white"/>
<path d="M4.97266 44.2773L2.84002 46.3873L2.85131 46.3987L2.86271 46.41L4.97266 44.2773ZM4.97266 21.2734L2.85134 19.1521L4.97266 21.2734ZM27.9766 21.2734L25.8439 23.3834L25.8552 23.3948L25.8666 23.4061L27.9766 21.2734ZM23.4062 39.6562L21.2849 37.5349L23.4062 39.6562ZM23.4062 25.8438L21.2849 27.9651L23.4062 25.8438ZM16.5 46C12.7823 46 9.69958 44.7338 7.0826 42.1447L2.86271 46.41C6.61032 50.1177 11.2125 52 16.5 52V46ZM7.10529 42.1674C4.51616 39.5504 3.25 36.4677 3.25 32.75H-2.75C-2.75 38.0375 -0.86772 42.6397 2.84002 46.3873L7.10529 42.1674ZM3.25 32.75C3.25 29.033 4.51521 25.9735 7.09398 23.3948L2.85134 19.1521C-0.866777 22.8702 -2.75 27.4618 -2.75 32.75H3.25ZM7.09398 23.3948C9.71335 20.7754 12.7926 19.5 16.5 19.5V13.5C11.2022 13.5 6.59654 15.4069 2.85134 19.1521L7.09398 23.3948ZM16.5 19.5C20.2066 19.5 23.2627 20.7744 25.8439 23.3834L30.1092 19.1635C26.3936 15.4079 21.7986 13.5 16.5 13.5V19.5ZM25.8666 23.4061C28.4756 25.9873 29.75 29.0434 29.75 32.75H35.75C35.75 27.4514 33.8421 22.8564 30.0865 19.1408L25.8666 23.4061ZM29.75 32.75C29.75 36.4574 28.4746 39.5366 25.8552 42.156L30.0979 46.3987C33.8431 42.6535 35.75 38.0478 35.75 32.75H29.75ZM25.8552 42.156C23.2765 44.7348 20.217 46 16.5 46V52C21.7882 52 26.3798 50.1168 30.0979 46.3987L25.8552 42.156ZM16.5 45.5C19.9949 45.5 23.0627 44.2424 25.5276 41.7776L21.2849 37.5349C19.9581 38.8618 18.4218 39.5 16.5 39.5V45.5ZM25.5276 41.7776C27.9924 39.3127 29.25 36.2449 29.25 32.75H23.25C23.25 34.6718 22.6118 36.2081 21.2849 37.5349L25.5276 41.7776ZM29.25 32.75C29.25 29.2551 27.9924 26.1873 25.5276 23.7224L21.2849 27.9651C22.6118 29.2919 23.25 30.8282 23.25 32.75H29.25ZM25.5276 23.7224C23.0627 21.2576 19.9949 20 16.5 20V26C18.4218 26 19.9581 26.6382 21.2849 27.9651L25.5276 23.7224ZM16.5 20C13.0051 20 9.93726 21.2576 7.47243 23.7224L11.7151 27.9651C13.0419 26.6382 14.5782 26 16.5 26V20ZM7.47243 23.7224C5.0076 26.1873 3.75 29.2551 3.75 32.75H9.75C9.75 30.8282 10.3882 29.2919 11.7151 27.9651L7.47243 23.7224ZM3.75 32.75C3.75 36.2449 5.0076 39.3127 7.47243 41.7776L11.7151 37.5349C10.3882 36.2081 9.75 34.6718 9.75 32.75H3.75ZM7.47243 41.7776C9.93726 44.2424 13.0051 45.5 16.5 45.5V39.5C14.5782 39.5 13.0419 38.8618 11.7151 37.5349L7.47243 41.7776ZM43.0078 62V65H46.0078V62H43.0078ZM36.5078 62H33.5078V65H36.5078V62ZM36.5078 16.5V13.5H33.5078V16.5H36.5078ZM51.1328 36H48.1328V39H51.1328V36ZM51.1328 29.5V26.5H48.1328V29.5H51.1328ZM61.543 28.5859L63.6643 30.7073L61.543 28.5859ZM61.543 23.9648L59.3651 26.0281L59.4209 26.0869L59.4797 26.1427L61.543 23.9648ZM43.0078 23V20H40.0078V23H43.0078ZM43.0078 59H36.5078V65H43.0078V59ZM39.5078 62V16.5H33.5078V62H39.5078ZM36.5078 19.5H59.2578V13.5H36.5078V19.5ZM59.2578 19.5C61.1796 19.5 62.7159 20.1382 64.0427 21.4651L68.2854 17.2224C65.8206 14.7576 62.7527 13.5 59.2578 13.5V19.5ZM64.0427 21.4651C65.3696 22.7919 66.0078 24.3282 66.0078 26.25H72.0078C72.0078 22.7551 70.7502 19.6873 68.2854 17.2224L64.0427 21.4651ZM66.0078 26.25C66.0078 28.1718 65.3696 29.7081 64.0427 31.0349L68.2854 35.2776C70.7502 32.8127 72.0078 29.7449 72.0078 26.25H66.0078ZM64.0427 31.0349C62.7159 32.3618 61.1796 33 59.2578 33V39C62.7527 39 65.8206 37.7424 68.2854 35.2776L64.0427 31.0349ZM59.2578 33H51.1328V39H59.2578V33ZM54.1328 36V29.5H48.1328V36H54.1328ZM51.1328 32.5H59.2578V26.5H51.1328V32.5ZM59.2578 32.5C60.914 32.5 62.4555 31.916 63.6643 30.7073L59.4216 26.4646C59.4118 26.4744 59.4046 26.4807 59.4002 26.4844C59.3958 26.488 59.3935 26.4895 59.3933 26.4897C59.3931 26.4898 59.394 26.4892 59.3959 26.4882C59.3978 26.4872 59.3994 26.4865 59.4005 26.4861C59.4035 26.4849 59.3975 26.4877 59.3781 26.4913C59.3581 26.4949 59.3194 26.5 59.2578 26.5V32.5ZM63.6643 30.7073C64.8732 29.4984 65.5078 27.9554 65.5078 26.25H59.5078C59.5078 26.302 59.5033 26.334 59.5002 26.3502C59.4973 26.3658 59.4946 26.3725 59.4938 26.3743C59.4931 26.376 59.4906 26.3819 59.4827 26.3936C59.4744 26.4058 59.4564 26.4299 59.4216 26.4646L63.6643 30.7073ZM65.5078 26.25C65.5078 24.5415 64.8684 22.9828 63.6062 21.787L59.4797 26.1427C59.4921 26.1544 59.5002 26.1632 59.505 26.1687C59.5097 26.1741 59.5117 26.1769 59.5117 26.1769C59.5117 26.177 59.5114 26.1765 59.5108 26.1756C59.5102 26.1746 59.5094 26.1733 59.5084 26.1716C59.5065 26.1681 59.5046 26.1641 59.5029 26.1601C59.499 26.1509 59.4994 26.1487 59.5013 26.1585C59.5033 26.1689 59.5078 26.1979 59.5078 26.25H65.5078ZM63.7208 21.9016C62.525 20.6394 60.9663 20 59.2578 20V26C59.31 26 59.3389 26.0045 59.3494 26.0065C59.3591 26.0084 59.3569 26.0088 59.3477 26.005C59.3437 26.0033 59.3397 26.0013 59.3362 25.9994C59.3345 25.9984 59.3332 25.9976 59.3323 25.997C59.3313 25.9964 59.3308 25.9961 59.3309 25.9961C59.3309 25.9962 59.3337 25.9981 59.3391 26.0028C59.3446 26.0076 59.3534 26.0157 59.3651 26.0281L63.7208 21.9016ZM59.2578 20H43.0078V26H59.2578V20ZM40.0078 23V62H46.0078V23H40.0078ZM124.156 36V39H127.156V36H124.156ZM86.7812 36H83.7812V39H86.7812V36ZM86.7812 29.5V26.5H83.7812V29.5H86.7812ZM124.156 29.5H127.156V26.5H124.156V29.5ZM104.656 16.5H107.656V13.5H104.656V16.5ZM104.656 23V26H107.656V23H104.656ZM78.6562 23V20H75.6562V23H78.6562ZM78.6562 42.5H75.6562V45.5H78.6562V42.5ZM104.656 42.5H107.656V39.5H104.656V42.5ZM104.656 49V52H107.656V49H104.656ZM72.1562 49H69.1562V52H72.1562V49ZM72.1562 16.5V13.5H69.1562V16.5H72.1562ZM124.156 33H86.7812V39H124.156V33ZM89.7812 36V29.5H83.7812V36H89.7812ZM86.7812 32.5H124.156V26.5H86.7812V32.5ZM121.156 29.5V36H127.156V29.5H121.156ZM101.656 16.5V23H107.656V16.5H101.656ZM104.656 20H78.6562V26H104.656V20ZM75.6562 23V42.5H81.6562V23H75.6562ZM78.6562 45.5H104.656V39.5H78.6562V45.5ZM101.656 42.5V49H107.656V42.5H101.656ZM104.656 46H72.1562V52H104.656V46ZM75.1562 49V16.5H69.1562V49H75.1562ZM72.1562 19.5H104.656V13.5H72.1562V19.5ZM134.211 26.25L136.489 24.2976L131.211 18.1402V26.25H134.211ZM134.211 62V65H137.211V62H134.211ZM127.711 62H124.711V65H127.711V62ZM127.711 16.5V13.5H124.711V16.5H127.711ZM134.211 16.5L136.489 14.5476L135.591 13.5H134.211V16.5ZM153.711 39.25L151.433 41.2024L156.711 47.3598V39.25H153.711ZM153.711 0.25V-2.75H150.711V0.25H153.711ZM160.211 0.25H163.211V-2.75H160.211V0.25ZM160.211 49V52H163.211V49H160.211ZM153.711 49L151.433 50.9524L152.331 52H153.711V49ZM131.211 26.25V62H137.211V26.25H131.211ZM134.211 59H127.711V65H134.211V59ZM130.711 62V16.5H124.711V62H130.711ZM127.711 19.5H134.211V13.5H127.711V19.5ZM131.933 18.4524L151.433 41.2024L155.989 37.2976L136.489 14.5476L131.933 18.4524ZM156.711 39.25V0.25H150.711V39.25H156.711ZM153.711 3.25H160.211V-2.75H153.711V3.25ZM157.211 0.25V49H163.211V0.25H157.211ZM160.211 46H153.711V52H160.211V46ZM155.989 47.0476L136.489 24.2976L131.933 28.2024L151.433 50.9524L155.989 47.0476ZM199.211 49V52H202.211V49H199.211ZM192.711 49H189.711V52H192.711V49ZM192.711 16.5V13.5H189.711V16.5H192.711ZM199.211 16.5H202.211V13.5H199.211V16.5ZM199.211 46H192.711V52H199.211V46ZM195.711 49V16.5H189.711V49H195.711ZM192.711 19.5H199.211V13.5H192.711V19.5ZM196.211 16.5V49H202.211V16.5H196.211ZM212.973 26.25L215.25 24.2976L209.973 18.1402V26.25H212.973ZM212.973 62V65H215.973V62H212.973ZM206.473 62H203.473V65H206.473V62ZM206.473 16.5V13.5H203.473V16.5H206.473ZM212.973 16.5L215.25 14.5476L214.352 13.5H212.973V16.5ZM232.473 39.25L230.195 41.2024L235.473 47.3598V39.25H232.473ZM232.473 0.25V-2.75H229.473V0.25H232.473ZM238.973 0.25H241.973V-2.75H238.973V0.25ZM238.973 49V52H241.973V49H238.973ZM232.473 49L230.195 50.9524L231.093 52H232.473V49ZM209.973 26.25V62H215.973V26.25H209.973ZM212.973 59H206.473V65H212.973V59ZM209.473 62V16.5H203.473V62H209.473ZM206.473 19.5H212.973V13.5H206.473V19.5ZM210.695 18.4524L230.195 41.2024L234.75 37.2976L215.25 14.5476L210.695 18.4524ZM235.473 39.25V0.25H229.473V39.25H235.473ZM232.473 3.25H238.973V-2.75H232.473V3.25ZM235.973 0.25V49H241.973V0.25H235.973ZM238.973 46H232.473V52H238.973V46ZM234.75 47.0476L215.25 24.2976L210.695 28.2024L230.195 50.9524L234.75 47.0476ZM252.734 26.25L255.012 24.2976L249.734 18.1402V26.25H252.734ZM252.734 62V65H255.734V62H252.734ZM246.234 62H243.234V65H246.234V62ZM246.234 16.5V13.5H243.234V16.5H246.234ZM252.734 16.5L255.012 14.5476L254.114 13.5H252.734V16.5ZM272.234 39.25L269.957 41.2024L275.234 47.3598V39.25H272.234ZM272.234 0.25V-2.75H269.234V0.25H272.234ZM278.734 0.25H281.734V-2.75H278.734V0.25ZM278.734 49V52H281.734V49H278.734ZM272.234 49L269.957 50.9524L270.855 52H272.234V49ZM249.734 26.25V62H255.734V26.25H249.734ZM252.734 59H246.234V65H252.734V59ZM249.234 62V16.5H243.234V62H249.234ZM246.234 19.5H252.734V13.5H246.234V19.5ZM250.457 18.4524L269.957 41.2024L274.512 37.2976L255.012 14.5476L250.457 18.4524ZM275.234 39.25V0.25H269.234V39.25H275.234ZM272.234 3.25H278.734V-2.75H272.234V3.25ZM275.734 0.25V49H281.734V0.25H275.734ZM278.734 46H272.234V52H278.734V46ZM274.512 47.0476L255.012 24.2976L250.457 28.2024L269.957 50.9524L274.512 47.0476ZM287.215 44.2773L285.082 46.3873L285.093 46.3987L285.105 46.41L287.215 44.2773ZM287.215 21.2734L285.094 19.1521L287.215 21.2734ZM310.219 21.2734L308.086 23.3834L308.097 23.3948L308.109 23.4061L310.219 21.2734ZM305.648 39.6562L303.527 37.5349L305.648 39.6562ZM305.648 25.8438L303.527 27.9651L305.648 25.8438ZM298.742 46C295.025 46 291.942 44.7338 289.325 42.1447L285.105 46.41C288.853 50.1177 293.455 52 298.742 52V46ZM289.347 42.1674C286.758 39.5504 285.492 36.4677 285.492 32.75H279.492C279.492 38.0375 281.374 42.6397 285.082 46.3873L289.347 42.1674ZM285.492 32.75C285.492 29.033 286.757 25.9735 289.336 23.3948L285.094 19.1521C281.375 22.8702 279.492 27.4618 279.492 32.75H285.492ZM289.336 23.3948C291.956 20.7754 295.035 19.5 298.742 19.5V13.5C293.444 13.5 288.839 15.4069 285.094 19.1521L289.336 23.3948ZM298.742 19.5C302.449 19.5 305.505 20.7744 308.086 23.3834L312.351 19.1635C308.636 15.4079 304.041 13.5 298.742 13.5V19.5ZM308.109 23.4061C310.718 25.9873 311.992 29.0434 311.992 32.75H317.992C317.992 27.4514 316.084 22.8564 312.329 19.1408L308.109 23.4061ZM311.992 32.75C311.992 36.4574 310.717 39.5366 308.097 42.156L312.34 46.3987C316.085 42.6535 317.992 38.0478 317.992 32.75H311.992ZM308.097 42.156C305.519 44.7348 302.459 46 298.742 46V52C304.03 52 308.622 50.1168 312.34 46.3987L308.097 42.156ZM298.742 45.5C302.237 45.5 305.305 44.2424 307.77 41.7776L303.527 37.5349C302.2 38.8618 300.664 39.5 298.742 39.5V45.5ZM307.77 41.7776C310.235 39.3127 311.492 36.2449 311.492 32.75H305.492C305.492 34.6718 304.854 36.2081 303.527 37.5349L307.77 41.7776ZM311.492 32.75C311.492 29.2551 310.235 26.1873 307.77 23.7224L303.527 27.9651C304.854 29.2919 305.492 30.8282 305.492 32.75H311.492ZM307.77 23.7224C305.305 21.2576 302.237 20 298.742 20V26C300.664 26 302.2 26.6382 303.527 27.9651L307.77 23.7224ZM298.742 20C295.247 20 292.179 21.2576 289.715 23.7224L293.957 27.9651C295.284 26.6382 296.82 26 298.742 26V20ZM289.715 23.7224C287.25 26.1873 285.992 29.2551 285.992 32.75H291.992C291.992 30.8282 292.63 29.2919 293.957 27.9651L289.715 23.7224ZM285.992 32.75C285.992 36.2449 287.25 39.3127 289.715 41.7776L293.957 37.5349C292.63 36.2081 291.992 34.6718 291.992 32.75H285.992ZM289.715 41.7776C292.179 44.2424 295.247 45.5 298.742 45.5V39.5C296.82 39.5 295.284 38.8618 293.957 37.5349L289.715 41.7776ZM312.758 16.5V13.5H308.006L310.049 17.7898L312.758 16.5ZM320.07 16.5L322.777 15.2056L321.961 13.5H320.07V16.5ZM329.008 35.1875L326.301 36.4819L329.008 42.1407L331.714 36.4819L329.008 35.1875ZM337.945 16.5V13.5H336.055L335.239 15.2056L337.945 16.5ZM345.258 16.5L347.966 17.7898L350.009 13.5H345.258V16.5ZM329.008 50.625L326.299 51.9148L329.008 57.6028L331.716 51.9148L329.008 50.625ZM312.758 19.5H320.07V13.5H312.758V19.5ZM317.364 17.7944L326.301 36.4819L331.714 33.8931L322.777 15.2056L317.364 17.7944ZM331.714 36.4819L340.652 17.7944L335.239 15.2056L326.301 33.8931L331.714 36.4819ZM337.945 19.5H345.258V13.5H337.945V19.5ZM342.549 15.2102L326.299 49.3352L331.716 51.9148L347.966 17.7898L342.549 15.2102ZM331.716 49.3352L315.466 15.2102L310.049 17.7898L326.299 51.9148L331.716 49.3352ZM337.285 49L334.577 47.7102L332.534 52H337.285V49ZM353.535 14.875L356.244 13.5852L353.535 7.89718L350.827 13.5852L353.535 14.875ZM369.785 49V52H374.537L372.494 47.7102L369.785 49ZM362.473 49L359.766 50.2944L360.582 52H362.473V49ZM353.535 30.3125L356.242 29.0181L353.535 23.3593L350.829 29.0181L353.535 30.3125ZM344.598 49V52H346.488L347.304 50.2944L344.598 49ZM339.994 50.2898L356.244 16.1648L350.827 13.5852L334.577 47.7102L339.994 50.2898ZM350.827 16.1648L367.077 50.2898L372.494 47.7102L356.244 13.5852L350.827 16.1648ZM369.785 46H362.473V52H369.785V46ZM365.179 47.7056L356.242 29.0181L350.829 31.6069L359.766 50.2944L365.179 47.7056ZM350.829 29.0181L341.891 47.7056L347.304 50.2944L356.242 31.6069L350.829 29.0181ZM344.598 46H337.285V52H344.598V46ZM380.957 23V20H377.957V23H380.957ZM380.957 62V65H383.957V62H380.957ZM374.457 62H371.457V65H374.457V62ZM374.457 23H377.457V20H374.457V23ZM361.457 23H358.457V26H361.457V23ZM361.457 16.5V13.5H358.457V16.5H361.457ZM393.957 16.5H396.957V13.5H393.957V16.5ZM393.957 23V26H396.957V23H393.957ZM377.957 23V62H383.957V23H377.957ZM380.957 59H374.457V65H380.957V59ZM377.457 62V23H371.457V62H377.457ZM374.457 20H361.457V26H374.457V20ZM364.457 23V16.5H358.457V23H364.457ZM361.457 19.5H393.957V13.5H361.457V19.5ZM390.957 16.5V23H396.957V16.5H390.957ZM393.957 20H380.957V26H393.957V20ZM404.062 49V52H407.062V49H404.062ZM397.562 49H394.562V52H397.562V49ZM397.562 16.5V13.5H394.562V16.5H397.562ZM404.062 16.5H407.062V13.5H404.062V16.5ZM404.062 46H397.562V52H404.062V46ZM400.562 49V16.5H394.562V49H400.562ZM397.562 19.5H404.062V13.5H397.562V19.5ZM401.062 16.5V49H407.062V16.5H401.062ZM412.543 44.2773L410.41 46.3873L410.422 46.3987L410.433 46.41L412.543 44.2773ZM412.543 21.2734L410.422 19.1521L412.543 21.2734ZM435.547 21.2734L433.414 23.3834L433.426 23.3948L433.437 23.4061L435.547 21.2734ZM430.977 39.6562L428.855 37.5349L430.977 39.6562ZM430.977 25.8438L428.855 27.9651L430.977 25.8438ZM424.07 46C420.353 46 417.27 44.7338 414.653 42.1447L410.433 46.41C414.181 50.1177 418.783 52 424.07 52V46ZM414.676 42.1674C412.086 39.5504 410.82 36.4677 410.82 32.75H404.82C404.82 38.0375 406.703 42.6397 410.41 46.3873L414.676 42.1674ZM410.82 32.75C410.82 29.033 412.086 25.9735 414.664 23.3948L410.422 19.1521C406.704 22.8702 404.82 27.4618 404.82 32.75H410.82ZM414.664 23.3948C417.284 20.7754 420.363 19.5 424.07 19.5V13.5C418.772 13.5 414.167 15.4069 410.422 19.1521L414.664 23.3948ZM424.07 19.5C427.777 19.5 430.833 20.7744 433.414 23.3834L437.68 19.1635C433.964 15.4079 429.369 13.5 424.07 13.5V19.5ZM433.437 23.4061C436.046 25.9873 437.32 29.0434 437.32 32.75H443.32C443.32 27.4514 441.412 22.8564 437.657 19.1408L433.437 23.4061ZM437.32 32.75C437.32 36.4574 436.045 39.5366 433.426 42.156L437.668 46.3987C441.413 42.6535 443.32 38.0478 443.32 32.75H437.32ZM433.426 42.156C430.847 44.7348 427.787 46 424.07 46V52C429.359 52 433.95 50.1168 437.668 46.3987L433.426 42.156ZM424.07 45.5C427.565 45.5 430.633 44.2424 433.098 41.7776L428.855 37.5349C427.528 38.8618 425.992 39.5 424.07 39.5V45.5ZM433.098 41.7776C435.563 39.3127 436.82 36.2449 436.82 32.75H430.82C430.82 34.6718 430.182 36.2081 428.855 37.5349L433.098 41.7776ZM436.82 32.75C436.82 29.2551 435.563 26.1873 433.098 23.7224L428.855 27.9651C430.182 29.2919 430.82 30.8282 430.82 32.75H436.82ZM433.098 23.7224C430.633 21.2576 427.565 20 424.07 20V26C425.992 26 427.528 26.6382 428.855 27.9651L433.098 23.7224ZM424.07 20C420.575 20 417.508 21.2576 415.043 23.7224L419.285 27.9651C420.612 26.6382 422.149 26 424.07 26V20ZM415.043 23.7224C412.578 26.1873 411.32 29.2551 411.32 32.75H417.32C417.32 30.8282 417.959 29.2919 419.285 27.9651L415.043 23.7224ZM411.32 32.75C411.32 36.2449 412.578 39.3127 415.043 41.7776L419.285 37.5349C417.959 36.2081 417.32 34.6718 417.32 32.75H411.32ZM415.043 41.7776C417.508 44.2424 420.575 45.5 424.07 45.5V39.5C422.149 39.5 420.612 38.8618 419.285 37.5349L415.043 41.7776ZM450.578 26.25L452.856 24.2976L447.578 18.1402V26.25H450.578ZM450.578 62V65H453.578V62H450.578ZM444.078 62H441.078V65H444.078V62ZM444.078 16.5V13.5H441.078V16.5H444.078ZM450.578 16.5L452.856 14.5476L451.958 13.5H450.578V16.5ZM470.078 39.25L467.8 41.2024L473.078 47.3598V39.25H470.078ZM470.078 0.25V-2.75H467.078V0.25H470.078ZM476.578 0.25H479.578V-2.75H476.578V0.25ZM476.578 49V52H479.578V49H476.578ZM470.078 49L467.8 50.9524L468.698 52H470.078V49ZM447.578 26.25V62H453.578V26.25H447.578ZM450.578 59H444.078V65H450.578V59ZM447.078 62V16.5H441.078V62H447.078ZM444.078 19.5H450.578V13.5H444.078V19.5ZM448.3 18.4524L467.8 41.2024L472.356 37.2976L452.856 14.5476L448.3 18.4524ZM473.078 39.25V0.25H467.078V39.25H473.078ZM470.078 3.25H476.578V-2.75H470.078V3.25ZM473.578 0.25V49H479.578V0.25H473.578ZM476.578 46H470.078V52H476.578V46ZM472.356 47.0476L452.856 24.2976L448.3 28.2024L467.8 50.9524L472.356 47.0476Z" fill="black" mask="url(#path-1-outside-1_67_11)"/>
</svg>
