<svg width="198" height="69" viewBox="0 0 198 69" fill="none" xmlns="http://www.w3.org/2000/svg">
<path d="M24.6094 30H0.609375V26H24.6094C25.1719 26 25.6406 25.8125 26.0156 25.4375C26.4115 25.0417 26.6094 24.5625 26.6094 24C26.6094 23.4375 26.4115 22.9688 26.0156 22.5938C25.6406 22.1979 25.1719 22 24.6094 22H16.6094C14.9427 22 13.526 21.4167 12.3594 20.25C11.1927 19.0833 10.6094 17.6667 10.6094 16C10.6094 14.3333 11.1927 12.9167 12.3594 11.75C13.526 10.5833 14.9427 10 16.6094 10H28.6094V14H16.6094C16.0469 14 15.5677 14.1979 15.1719 14.5938C14.7969 14.9688 14.6094 15.4375 14.6094 16C14.6094 16.5625 14.7969 17.0417 15.1719 17.4375C15.5677 17.8125 16.0469 18 16.6094 18H24.6094C26.276 18 27.6927 18.5833 28.8594 19.75C30.026 20.9167 30.6094 22.3333 30.6094 24C30.6094 25.6667 30.026 27.0833 28.8594 28.25C27.6927 29.4167 26.276 30 24.6094 30ZM31.8906 20V10H35.8906V20C35.8906 21.6667 36.474 23.0833 37.6406 24.25C38.8073 25.4167 40.224 26 41.8906 26C43.5573 26 44.974 25.4167 46.1406 24.25C47.3073 23.0833 47.8906 21.6667 47.8906 20V0H51.8906V20C51.8906 22.7708 50.9115 25.1354 48.9531 27.0938C47.0156 29.0312 44.6615 30 41.8906 30C39.1198 30 36.7552 29.0312 34.7969 27.0938C32.8594 25.1354 31.8906 22.7708 31.8906 20ZM69.3906 30H55.3906V10H69.3906C72.1615 10 74.5156 10.9792 76.4531 12.9375C78.4115 14.875 79.3906 17.2292 79.3906 20C79.3906 22.7708 78.4115 25.1354 76.4531 27.0938C74.5156 29.0312 72.1615 30 69.3906 30ZM59.3906 26H69.3906C71.0573 26 72.474 25.4167 73.6406 24.25C74.8073 23.0833 75.3906 21.6667 75.3906 20C75.3906 18.3333 74.8073 16.9167 73.6406 15.75C72.474 14.5833 71.0573 14 69.3906 14H59.3906V26ZM85.7031 22V30H81.7031V10H85.7031V18H97.7031V10H101.703V30H97.7031V22H85.7031ZM102.703 30L112.703 9L122.703 30H118.203L112.703 18.5L107.203 30H102.703ZM127.891 16V38H123.891V10H127.891L139.891 24V0H143.891V30H139.891L127.891 16ZM170.109 30H146.109V26H170.109C170.672 26 171.141 25.8125 171.516 25.4375C171.911 25.0417 172.109 24.5625 172.109 24C172.109 23.4375 171.911 22.9688 171.516 22.5938C171.141 22.1979 170.672 22 170.109 22H162.109C160.443 22 159.026 21.4167 157.859 20.25C156.693 19.0833 156.109 17.6667 156.109 16C156.109 14.3333 156.693 12.9167 157.859 11.75C159.026 10.5833 160.443 10 162.109 10H174.109V14H162.109C161.547 14 161.068 14.1979 160.672 14.5938C160.297 14.9688 160.109 15.4375 160.109 16C160.109 16.5625 160.297 17.0417 160.672 17.4375C161.068 17.8125 161.547 18 162.109 18H170.109C171.776 18 173.193 18.5833 174.359 19.75C175.526 20.9167 176.109 22.3333 176.109 24C176.109 25.6667 175.526 27.0833 174.359 28.25C173.193 29.4167 171.776 30 170.109 30ZM177.391 20V10H181.391V20C181.391 21.6667 181.974 23.0833 183.141 24.25C184.307 25.4167 185.724 26 187.391 26C189.057 26 190.474 25.4167 191.641 24.25C192.807 23.0833 193.391 21.6667 193.391 20V0H197.391V20C197.391 22.7708 196.411 25.1354 194.453 27.0938C192.516 29.0312 190.161 30 187.391 30C184.62 30 182.255 29.0312 180.297 27.0938C178.359 25.1354 177.391 22.7708 177.391 20ZM46.9219 53.8438V61H42.9219V41H46.9219V48.1562L56.9219 41H62.9219L48.9219 51L62.9219 61H56.9219L46.9219 53.8438ZM63.5781 51V41H67.5781V51C67.5781 52.6667 68.1615 54.0833 69.3281 55.25C70.4948 56.4167 71.9115 57 73.5781 57C75.2448 57 76.6615 56.4167 77.8281 55.25C78.9948 54.0833 79.5781 52.6667 79.5781 51V31H83.5781V51C83.5781 53.7708 82.599 56.1354 80.6406 58.0938C78.7031 60.0312 76.349 61 73.5781 61C70.8073 61 68.4427 60.0312 66.4844 58.0938C64.5469 56.1354 63.5781 53.7708 63.5781 51ZM91.0781 49V69H87.0781V41H91.0781L99.0781 56L107.078 41H111.078V61H107.078V49L101.078 61H97.0781L91.0781 49ZM112.078 61L122.078 40L132.078 61H127.578L122.078 49.5L116.578 61H112.078ZM137.078 61H133.078V41H147.078C148.745 41 150.161 41.5833 151.328 42.75C152.495 43.9167 153.078 45.3333 153.078 47C153.078 48.6667 152.495 50.0833 151.328 51.25C150.161 52.4167 148.745 53 147.078 53H146.203L155.078 69H151.078L140.078 49H147.078C147.641 49 148.109 48.8125 148.484 48.4375C148.88 48.0417 149.078 47.5625 149.078 47C149.078 46.4375 148.88 45.9688 148.484 45.5938C148.109 45.1979 147.641 45 147.078 45H137.078V61Z" fill="black"/>
</svg>
