<svg width="185" height="36" viewBox="0 0 185 36" fill="none" xmlns="http://www.w3.org/2000/svg">
<path d="M10.3434 36L0.89336 19.5V17.3H1.99336C3.76003 17.3 5.24336 17.1333 6.44336 16.8C7.67669 16.4667 8.64336 15.9167 9.34336 15.15C10.0434 14.3833 10.46 13.3333 10.5934 12H0.89336V8.8H10.5434C10.31 7.56667 9.84336 6.56667 9.14336 5.8C8.44336 5 7.49336 4.41666 6.29336 4.05C5.12669 3.68333 3.69336 3.5 1.99336 3.5H0.89336V0.299998H21.5934V3.5H12.1434C12.91 4.13333 13.5434 4.88333 14.0434 5.75C14.5434 6.61666 14.86 7.63333 14.9934 8.8H21.5934V12H15.0934C14.86 14.4333 13.9267 16.3333 12.2934 17.7C10.6934 19.0333 8.56003 19.8833 5.89336 20.25L15.4434 36H10.3434ZM34.9316 36H28.6816V4.75H34.9316V36ZM56.8066 36C52.4772 36 48.7826 34.4863 45.7227 31.459C42.6953 28.3991 41.1816 24.7044 41.1816 20.375C41.1816 16.0456 42.6953 12.3672 45.7227 9.33984C48.7826 6.27995 52.4772 4.75 56.8066 4.75C61.1361 4.75 64.8145 6.27995 67.8418 9.33984C70.9017 12.3672 72.4316 16.0456 72.4316 20.375C72.4316 24.7044 70.9017 28.3991 67.8418 31.459C64.8145 34.4863 61.1361 36 56.8066 36ZM56.8066 29.75C59.4108 29.75 61.6243 28.8385 63.4473 27.0156C65.2702 25.1927 66.1816 22.9792 66.1816 20.375C66.1816 17.7708 65.2702 15.5573 63.4473 13.7344C61.6243 11.9115 59.4108 11 56.8066 11C54.2025 11 51.9889 11.9115 50.166 13.7344C48.3431 15.5573 47.4316 17.7708 47.4316 20.375C47.4316 22.9792 48.3431 25.1927 50.166 27.0156C51.9889 28.8385 54.2025 29.75 56.8066 29.75ZM94.3066 36C89.9772 36 86.2826 34.4863 83.2227 31.459C80.1953 28.3991 78.6816 24.7044 78.6816 20.375C78.6816 16.0456 80.1953 12.3672 83.2227 9.33984C86.2826 6.27995 89.9772 4.75 94.3066 4.75C98.6361 4.75 102.314 6.27995 105.342 9.33984C108.402 12.3672 109.932 16.0456 109.932 20.375C109.932 24.7044 108.402 28.3991 105.342 31.459C102.314 34.4863 98.6361 36 94.3066 36ZM94.3066 29.75C96.9108 29.75 99.1243 28.8385 100.947 27.0156C102.77 25.1927 103.682 22.9792 103.682 20.375C103.682 17.7708 102.77 15.5573 100.947 13.7344C99.1243 11.9115 96.9108 11 94.3066 11C91.7025 11 89.4889 11.9115 87.666 13.7344C85.8431 15.5573 84.9316 17.7708 84.9316 20.375C84.9316 22.9792 85.8431 25.1927 87.666 27.0156C89.4889 28.8385 91.7025 29.75 94.3066 29.75ZM131.807 36C127.477 36 123.783 34.4863 120.723 31.459C117.695 28.3991 116.182 24.7044 116.182 20.375C116.182 16.0456 117.695 12.3672 120.723 9.33984C123.783 6.27995 127.477 4.75 131.807 4.75C136.136 4.75 139.814 6.27995 142.842 9.33984C145.902 12.3672 147.432 16.0456 147.432 20.375C147.432 24.7044 145.902 28.3991 142.842 31.459C139.814 34.4863 136.136 36 131.807 36ZM131.807 29.75C134.411 29.75 136.624 28.8385 138.447 27.0156C140.27 25.1927 141.182 22.9792 141.182 20.375C141.182 17.7708 140.27 15.5573 138.447 13.7344C136.624 11.9115 134.411 11 131.807 11C129.202 11 126.989 11.9115 125.166 13.7344C123.343 15.5573 122.432 17.7708 122.432 20.375C122.432 22.9792 123.343 25.1927 125.166 27.0156C126.989 28.8385 129.202 29.75 131.807 29.75ZM169.307 36C164.977 36 161.283 34.4863 158.223 31.459C155.195 28.3991 153.682 24.7044 153.682 20.375C153.682 16.0456 155.195 12.3672 158.223 9.33984C161.283 6.27995 164.977 4.75 169.307 4.75C173.636 4.75 177.314 6.27995 180.342 9.33984C183.402 12.3672 184.932 16.0456 184.932 20.375C184.932 24.7044 183.402 28.3991 180.342 31.459C177.314 34.4863 173.636 36 169.307 36ZM169.307 29.75C171.911 29.75 174.124 28.8385 175.947 27.0156C177.77 25.1927 178.682 22.9792 178.682 20.375C178.682 17.7708 177.77 15.5573 175.947 13.7344C174.124 11.9115 171.911 11 169.307 11C166.702 11 164.489 11.9115 162.666 13.7344C160.843 15.5573 159.932 17.7708 159.932 20.375C159.932 22.9792 160.843 25.1927 162.666 27.0156C164.489 28.8385 166.702 29.75 169.307 29.75Z" fill="white"/>
</svg>
