<svg width="226" height="36" viewBox="0 0 226 36" fill="none" xmlns="http://www.w3.org/2000/svg">
<path d="M10.0309 36L0.58086 19.5V17.3H1.68086C3.44753 17.3 4.93086 17.1333 6.13086 16.8C7.36419 16.4667 8.33086 15.9167 9.03086 15.15C9.73086 14.3833 10.1475 13.3333 10.2809 12H0.58086V8.8H10.2309C9.99753 7.56667 9.53086 6.56667 8.83086 5.8C8.13086 5 7.18086 4.41666 5.98086 4.05C4.81419 3.68333 3.38086 3.5 1.68086 3.5H0.58086V0.299998H21.2809V3.5H11.8309C12.5975 4.13333 13.2309 4.88333 13.7309 5.75C14.2309 6.61666 14.5475 7.63333 14.6809 8.8H21.2809V12H14.7809C14.5475 14.4333 13.6142 16.3333 11.9809 17.7C10.3809 19.0333 8.24753 19.8833 5.58086 20.25L15.1309 36H10.0309ZM75.2441 29.75V36H28.3691V26.625C28.3691 24.0208 29.2806 21.8073 31.1035 19.9844C32.9264 18.1615 35.14 17.25 37.7441 17.25H50.2441C51.123 17.25 51.8555 16.957 52.4414 16.3711C53.0599 15.7526 53.3691 15.0039 53.3691 14.125C53.3691 13.2461 53.0599 12.5137 52.4414 11.9277C51.8555 11.3092 51.123 11 50.2441 11H31.4941V4.75H50.2441C52.8483 4.75 55.0618 5.66146 56.8848 7.48438C58.7077 9.30729 59.6191 11.5208 59.6191 14.125C59.6191 16.7292 58.7077 18.9427 56.8848 20.7656C55.0618 22.5885 52.8483 23.5 50.2441 23.5H37.7441C36.8652 23.5 36.1165 23.8092 35.498 24.4277C34.9121 25.0137 34.6191 25.7461 34.6191 26.625V29.75H75.2441ZM97.1191 36C92.7897 36 89.0951 34.4863 86.0352 31.459C83.0078 28.3991 81.4941 24.7044 81.4941 20.375C81.4941 16.0456 83.0078 12.3672 86.0352 9.33984C89.0951 6.27995 92.7897 4.75 97.1191 4.75C101.449 4.75 105.127 6.27995 108.154 9.33984C111.214 12.3672 112.744 16.0456 112.744 20.375C112.744 24.7044 111.214 28.3991 108.154 31.459C105.127 34.4863 101.449 36 97.1191 36ZM97.1191 29.75C99.7233 29.75 101.937 28.8385 103.76 27.0156C105.583 25.1927 106.494 22.9792 106.494 20.375C106.494 17.7708 105.583 15.5573 103.76 13.7344C101.937 11.9115 99.7233 11 97.1191 11C94.515 11 92.3014 11.9115 90.4785 13.7344C88.6556 15.5573 87.7441 17.7708 87.7441 20.375C87.7441 22.9792 88.6556 25.1927 90.4785 27.0156C92.3014 28.8385 94.515 29.75 97.1191 29.75ZM134.619 36C130.29 36 126.595 34.4863 123.535 31.459C120.508 28.3991 118.994 24.7044 118.994 20.375C118.994 16.0456 120.508 12.3672 123.535 9.33984C126.595 6.27995 130.29 4.75 134.619 4.75C138.949 4.75 142.627 6.27995 145.654 9.33984C148.714 12.3672 150.244 16.0456 150.244 20.375C150.244 24.7044 148.714 28.3991 145.654 31.459C142.627 34.4863 138.949 36 134.619 36ZM134.619 29.75C137.223 29.75 139.437 28.8385 141.26 27.0156C143.083 25.1927 143.994 22.9792 143.994 20.375C143.994 17.7708 143.083 15.5573 141.26 13.7344C139.437 11.9115 137.223 11 134.619 11C132.015 11 129.801 11.9115 127.979 13.7344C126.156 15.5573 125.244 17.7708 125.244 20.375C125.244 22.9792 126.156 25.1927 127.979 27.0156C129.801 28.8385 132.015 29.75 134.619 29.75ZM172.119 36C167.79 36 164.095 34.4863 161.035 31.459C158.008 28.3991 156.494 24.7044 156.494 20.375C156.494 16.0456 158.008 12.3672 161.035 9.33984C164.095 6.27995 167.79 4.75 172.119 4.75C176.449 4.75 180.127 6.27995 183.154 9.33984C186.214 12.3672 187.744 16.0456 187.744 20.375C187.744 24.7044 186.214 28.3991 183.154 31.459C180.127 34.4863 176.449 36 172.119 36ZM172.119 29.75C174.723 29.75 176.937 28.8385 178.76 27.0156C180.583 25.1927 181.494 22.9792 181.494 20.375C181.494 17.7708 180.583 15.5573 178.76 13.7344C176.937 11.9115 174.723 11 172.119 11C169.515 11 167.301 11.9115 165.479 13.7344C163.656 15.5573 162.744 17.7708 162.744 20.375C162.744 22.9792 163.656 25.1927 165.479 27.0156C167.301 28.8385 169.515 29.75 172.119 29.75ZM209.619 36C205.29 36 201.595 34.4863 198.535 31.459C195.508 28.3991 193.994 24.7044 193.994 20.375C193.994 16.0456 195.508 12.3672 198.535 9.33984C201.595 6.27995 205.29 4.75 209.619 4.75C213.949 4.75 217.627 6.27995 220.654 9.33984C223.714 12.3672 225.244 16.0456 225.244 20.375C225.244 24.7044 223.714 28.3991 220.654 31.459C217.627 34.4863 213.949 36 209.619 36ZM209.619 29.75C212.223 29.75 214.437 28.8385 216.26 27.0156C218.083 25.1927 218.994 22.9792 218.994 20.375C218.994 17.7708 218.083 15.5573 216.26 13.7344C214.437 11.9115 212.223 11 209.619 11C207.015 11 204.801 11.9115 202.979 13.7344C201.156 15.5573 200.244 17.7708 200.244 20.375C200.244 22.9792 201.156 25.1927 202.979 27.0156C204.801 28.8385 207.015 29.75 209.619 29.75Z" fill="white"/>
</svg>