<svg width="188" height="36" viewBox="0 0 188 36" fill="none" xmlns="http://www.w3.org/2000/svg">
<path d="M9.78086 36L0.33086 19.5V17.3H1.43086C3.19753 17.3 4.68086 17.1333 5.88086 16.8C7.11419 16.4667 8.08086 15.9167 8.78086 15.15C9.48086 14.3833 9.89753 13.3333 10.0309 12H0.33086V8.8H9.98086C9.74753 7.56667 9.28086 6.56667 8.58086 5.8C7.88086 5 6.93086 4.41666 5.73086 4.05C4.56419 3.68333 3.13086 3.5 1.43086 3.5H0.33086V0.299998H21.0309V3.5H11.5809C12.3475 4.13333 12.9809 4.88333 13.4809 5.75C13.9809 6.61666 14.2975 7.63333 14.4309 8.8H21.0309V12H14.5309C14.2975 14.4333 13.3642 16.3333 11.7309 17.7C10.1309 19.0333 7.99753 19.8833 5.33086 20.25L14.8809 36H9.78086ZM74.9941 4.75V11H34.3691V14.125C34.3691 15.0039 34.6621 15.7526 35.248 16.3711C35.8665 16.957 36.6152 17.25 37.4941 17.25H49.9941C52.5983 17.25 54.8118 18.1615 56.6348 19.9844C58.4577 21.8073 59.3691 24.0208 59.3691 26.625C59.3691 29.2292 58.4577 31.4427 56.6348 33.2656C54.8118 35.0885 52.5983 36 49.9941 36H31.2441V29.75H49.9941C50.873 29.75 51.6055 29.457 52.1914 28.8711C52.8099 28.2526 53.1191 27.5039 53.1191 26.625C53.1191 25.7461 52.8099 25.0137 52.1914 24.4277C51.6055 23.8092 50.873 23.5 49.9941 23.5H37.4941C34.89 23.5 32.6764 22.5885 30.8535 20.7656C29.0306 18.9427 28.1191 16.7292 28.1191 14.125V4.75H74.9941ZM96.8691 36C92.5397 36 88.8451 34.4863 85.7852 31.459C82.7578 28.3991 81.2441 24.7044 81.2441 20.375C81.2441 16.0456 82.7578 12.3672 85.7852 9.33984C88.8451 6.27995 92.5397 4.75 96.8691 4.75C101.199 4.75 104.877 6.27995 107.904 9.33984C110.964 12.3672 112.494 16.0456 112.494 20.375C112.494 24.7044 110.964 28.3991 107.904 31.459C104.877 34.4863 101.199 36 96.8691 36ZM96.8691 29.75C99.4733 29.75 101.687 28.8385 103.51 27.0156C105.333 25.1927 106.244 22.9792 106.244 20.375C106.244 17.7708 105.333 15.5573 103.51 13.7344C101.687 11.9115 99.4733 11 96.8691 11C94.265 11 92.0514 11.9115 90.2285 13.7344C88.4056 15.5573 87.4941 17.7708 87.4941 20.375C87.4941 22.9792 88.4056 25.1927 90.2285 27.0156C92.0514 28.8385 94.265 29.75 96.8691 29.75ZM134.369 36C130.04 36 126.345 34.4863 123.285 31.459C120.258 28.3991 118.744 24.7044 118.744 20.375C118.744 16.0456 120.258 12.3672 123.285 9.33984C126.345 6.27995 130.04 4.75 134.369 4.75C138.699 4.75 142.377 6.27995 145.404 9.33984C148.464 12.3672 149.994 16.0456 149.994 20.375C149.994 24.7044 148.464 28.3991 145.404 31.459C142.377 34.4863 138.699 36 134.369 36ZM134.369 29.75C136.973 29.75 139.187 28.8385 141.01 27.0156C142.833 25.1927 143.744 22.9792 143.744 20.375C143.744 17.7708 142.833 15.5573 141.01 13.7344C139.187 11.9115 136.973 11 134.369 11C131.765 11 129.551 11.9115 127.729 13.7344C125.906 15.5573 124.994 17.7708 124.994 20.375C124.994 22.9792 125.906 25.1927 127.729 27.0156C129.551 28.8385 131.765 29.75 134.369 29.75ZM171.869 36C167.54 36 163.845 34.4863 160.785 31.459C157.758 28.3991 156.244 24.7044 156.244 20.375C156.244 16.0456 157.758 12.3672 160.785 9.33984C163.845 6.27995 167.54 4.75 171.869 4.75C176.199 4.75 179.877 6.27995 182.904 9.33984C185.964 12.3672 187.494 16.0456 187.494 20.375C187.494 24.7044 185.964 28.3991 182.904 31.459C179.877 34.4863 176.199 36 171.869 36ZM171.869 29.75C174.473 29.75 176.687 28.8385 178.51 27.0156C180.333 25.1927 181.244 22.9792 181.244 20.375C181.244 17.7708 180.333 15.5573 178.51 13.7344C176.687 11.9115 174.473 11 171.869 11C169.265 11 167.051 11.9115 165.229 13.7344C163.406 15.5573 162.494 17.7708 162.494 20.375C162.494 22.9792 163.406 25.1927 165.229 27.0156C167.051 28.8385 169.265 29.75 171.869 29.75Z" fill="white"/>
</svg>
