<svg width="401" height="302" viewBox="0 0 401 302" fill="none" xmlns="http://www.w3.org/2000/svg">
<path d="M201 132.873L154.875 229.688L78 68.25H112.594L154.875 156.656L183.703 96.3574L201 60.5625L218.297 96.3574L247.125 156.656L289.406 68.25H324L247.125 229.688L201 132.873Z" fill="#F44878"/>
<g filter="url(#filter0_f_131_3)">
<ellipse cx="200.5" cy="211.5" rx="155.5" ry="45.5" fill="black"/>
</g>
<g filter="url(#filter1_d_131_3)">
<mask id="path-3-outside-1_131_3" maskUnits="userSpaceOnUse" x="108" y="200" width="187" height="38" fill="black">
<rect fill="white" x="108" y="200" width="187" height="38"/>
<path d="M119.343 237L109.893 220.5V218.3H110.993C112.76 218.3 114.243 218.133 115.443 217.8C116.677 217.467 117.643 216.917 118.343 216.15C119.043 215.383 119.46 214.333 119.593 213H109.893V209.8H119.543C119.31 208.567 118.843 207.567 118.143 206.8C117.443 206 116.493 205.417 115.293 205.05C114.127 204.683 112.693 204.5 110.993 204.5H109.893V201.3H130.593V204.5H121.143C121.91 205.133 122.543 205.883 123.043 206.75C123.543 207.617 123.86 208.633 123.993 209.8H130.593V213H124.093C123.86 215.433 122.927 217.333 121.293 218.7C119.693 220.033 117.56 220.883 114.893 221.25L124.443 237H119.343ZM143.932 237H137.682V205.75H143.932V237ZM165.807 237C161.477 237 157.783 235.486 154.723 232.459C151.695 229.399 150.182 225.704 150.182 221.375C150.182 217.046 151.695 213.367 154.723 210.34C157.783 207.28 161.477 205.75 165.807 205.75C170.136 205.75 173.814 207.28 176.842 210.34C179.902 213.367 181.432 217.046 181.432 221.375C181.432 225.704 179.902 229.399 176.842 232.459C173.814 235.486 170.136 237 165.807 237ZM165.807 230.75C168.411 230.75 170.624 229.839 172.447 228.016C174.27 226.193 175.182 223.979 175.182 221.375C175.182 218.771 174.27 216.557 172.447 214.734C170.624 212.911 168.411 212 165.807 212C163.202 212 160.989 212.911 159.166 214.734C157.343 216.557 156.432 218.771 156.432 221.375C156.432 223.979 157.343 226.193 159.166 228.016C160.989 229.839 163.202 230.75 165.807 230.75ZM203.307 237C198.977 237 195.283 235.486 192.223 232.459C189.195 229.399 187.682 225.704 187.682 221.375C187.682 217.046 189.195 213.367 192.223 210.34C195.283 207.28 198.977 205.75 203.307 205.75C207.636 205.75 211.314 207.28 214.342 210.34C217.402 213.367 218.932 217.046 218.932 221.375C218.932 225.704 217.402 229.399 214.342 232.459C211.314 235.486 207.636 237 203.307 237ZM203.307 230.75C205.911 230.75 208.124 229.839 209.947 228.016C211.77 226.193 212.682 223.979 212.682 221.375C212.682 218.771 211.77 216.557 209.947 214.734C208.124 212.911 205.911 212 203.307 212C200.702 212 198.489 212.911 196.666 214.734C194.843 216.557 193.932 218.771 193.932 221.375C193.932 223.979 194.843 226.193 196.666 228.016C198.489 229.839 200.702 230.75 203.307 230.75ZM240.807 237C236.477 237 232.783 235.486 229.723 232.459C226.695 229.399 225.182 225.704 225.182 221.375C225.182 217.046 226.695 213.367 229.723 210.34C232.783 207.28 236.477 205.75 240.807 205.75C245.136 205.75 248.814 207.28 251.842 210.34C254.902 213.367 256.432 217.046 256.432 221.375C256.432 225.704 254.902 229.399 251.842 232.459C248.814 235.486 245.136 237 240.807 237ZM240.807 230.75C243.411 230.75 245.624 229.839 247.447 228.016C249.27 226.193 250.182 223.979 250.182 221.375C250.182 218.771 249.27 216.557 247.447 214.734C245.624 212.911 243.411 212 240.807 212C238.202 212 235.989 212.911 234.166 214.734C232.343 216.557 231.432 218.771 231.432 221.375C231.432 223.979 232.343 226.193 234.166 228.016C235.989 229.839 238.202 230.75 240.807 230.75ZM278.307 237C273.977 237 270.283 235.486 267.223 232.459C264.195 229.399 262.682 225.704 262.682 221.375C262.682 217.046 264.195 213.367 267.223 210.34C270.283 207.28 273.977 205.75 278.307 205.75C282.636 205.75 286.314 207.28 289.342 210.34C292.402 213.367 293.932 217.046 293.932 221.375C293.932 225.704 292.402 229.399 289.342 232.459C286.314 235.486 282.636 237 278.307 237ZM278.307 230.75C280.911 230.75 283.124 229.839 284.947 228.016C286.77 226.193 287.682 223.979 287.682 221.375C287.682 218.771 286.77 216.557 284.947 214.734C283.124 212.911 280.911 212 278.307 212C275.702 212 273.489 212.911 271.666 214.734C269.843 216.557 268.932 218.771 268.932 221.375C268.932 223.979 269.843 226.193 271.666 228.016C273.489 229.839 275.702 230.75 278.307 230.75Z"/>
</mask>
<path d="M119.343 237L109.893 220.5V218.3H110.993C112.76 218.3 114.243 218.133 115.443 217.8C116.677 217.467 117.643 216.917 118.343 216.15C119.043 215.383 119.46 214.333 119.593 213H109.893V209.8H119.543C119.31 208.567 118.843 207.567 118.143 206.8C117.443 206 116.493 205.417 115.293 205.05C114.127 204.683 112.693 204.5 110.993 204.5H109.893V201.3H130.593V204.5H121.143C121.91 205.133 122.543 205.883 123.043 206.75C123.543 207.617 123.86 208.633 123.993 209.8H130.593V213H124.093C123.86 215.433 122.927 217.333 121.293 218.7C119.693 220.033 117.56 220.883 114.893 221.25L124.443 237H119.343ZM143.932 237H137.682V205.75H143.932V237ZM165.807 237C161.477 237 157.783 235.486 154.723 232.459C151.695 229.399 150.182 225.704 150.182 221.375C150.182 217.046 151.695 213.367 154.723 210.34C157.783 207.28 161.477 205.75 165.807 205.75C170.136 205.75 173.814 207.28 176.842 210.34C179.902 213.367 181.432 217.046 181.432 221.375C181.432 225.704 179.902 229.399 176.842 232.459C173.814 235.486 170.136 237 165.807 237ZM165.807 230.75C168.411 230.75 170.624 229.839 172.447 228.016C174.27 226.193 175.182 223.979 175.182 221.375C175.182 218.771 174.27 216.557 172.447 214.734C170.624 212.911 168.411 212 165.807 212C163.202 212 160.989 212.911 159.166 214.734C157.343 216.557 156.432 218.771 156.432 221.375C156.432 223.979 157.343 226.193 159.166 228.016C160.989 229.839 163.202 230.75 165.807 230.75ZM203.307 237C198.977 237 195.283 235.486 192.223 232.459C189.195 229.399 187.682 225.704 187.682 221.375C187.682 217.046 189.195 213.367 192.223 210.34C195.283 207.28 198.977 205.75 203.307 205.75C207.636 205.75 211.314 207.28 214.342 210.34C217.402 213.367 218.932 217.046 218.932 221.375C218.932 225.704 217.402 229.399 214.342 232.459C211.314 235.486 207.636 237 203.307 237ZM203.307 230.75C205.911 230.75 208.124 229.839 209.947 228.016C211.77 226.193 212.682 223.979 212.682 221.375C212.682 218.771 211.77 216.557 209.947 214.734C208.124 212.911 205.911 212 203.307 212C200.702 212 198.489 212.911 196.666 214.734C194.843 216.557 193.932 218.771 193.932 221.375C193.932 223.979 194.843 226.193 196.666 228.016C198.489 229.839 200.702 230.75 203.307 230.75ZM240.807 237C236.477 237 232.783 235.486 229.723 232.459C226.695 229.399 225.182 225.704 225.182 221.375C225.182 217.046 226.695 213.367 229.723 210.34C232.783 207.28 236.477 205.75 240.807 205.75C245.136 205.75 248.814 207.28 251.842 210.34C254.902 213.367 256.432 217.046 256.432 221.375C256.432 225.704 254.902 229.399 251.842 232.459C248.814 235.486 245.136 237 240.807 237ZM240.807 230.75C243.411 230.75 245.624 229.839 247.447 228.016C249.27 226.193 250.182 223.979 250.182 221.375C250.182 218.771 249.27 216.557 247.447 214.734C245.624 212.911 243.411 212 240.807 212C238.202 212 235.989 212.911 234.166 214.734C232.343 216.557 231.432 218.771 231.432 221.375C231.432 223.979 232.343 226.193 234.166 228.016C235.989 229.839 238.202 230.75 240.807 230.75ZM278.307 237C273.977 237 270.283 235.486 267.223 232.459C264.195 229.399 262.682 225.704 262.682 221.375C262.682 217.046 264.195 213.367 267.223 210.34C270.283 207.28 273.977 205.75 278.307 205.75C282.636 205.75 286.314 207.28 289.342 210.34C292.402 213.367 293.932 217.046 293.932 221.375C293.932 225.704 292.402 229.399 289.342 232.459C286.314 235.486 282.636 237 278.307 237ZM278.307 230.75C280.911 230.75 283.124 229.839 284.947 228.016C286.77 226.193 287.682 223.979 287.682 221.375C287.682 218.771 286.77 216.557 284.947 214.734C283.124 212.911 280.911 212 278.307 212C275.702 212 273.489 212.911 271.666 214.734C269.843 216.557 268.932 218.771 268.932 221.375C268.932 223.979 269.843 226.193 271.666 228.016C273.489 229.839 275.702 230.75 278.307 230.75Z" fill="white"/>
<path d="M119.343 237L118.476 237.497L118.764 238H119.343V237ZM109.893 220.5H108.893V220.766L109.026 220.997L109.893 220.5ZM109.893 218.3V217.3H108.893V218.3H109.893ZM115.443 217.8L115.182 216.835L115.176 216.836L115.443 217.8ZM118.343 216.15L117.605 215.476L117.605 215.476L118.343 216.15ZM119.593 213L120.588 213.1L120.698 212H119.593V213ZM109.893 213H108.893V214H109.893V213ZM109.893 209.8V208.8H108.893V209.8H109.893ZM119.543 209.8V210.8H120.75L120.526 209.614L119.543 209.8ZM118.143 206.8L117.391 207.459L117.398 207.466L117.405 207.474L118.143 206.8ZM115.293 205.05L114.994 206.004L115.001 206.006L115.293 205.05ZM109.893 204.5H108.893V205.5H109.893V204.5ZM109.893 201.3V200.3H108.893V201.3H109.893ZM130.593 201.3H131.593V200.3H130.593V201.3ZM130.593 204.5V205.5H131.593V204.5H130.593ZM121.143 204.5V203.5H118.363L120.506 205.271L121.143 204.5ZM123.043 206.75L122.177 207.25L122.177 207.25L123.043 206.75ZM123.993 209.8L123 209.914L123.101 210.8H123.993V209.8ZM130.593 209.8H131.593V208.8H130.593V209.8ZM130.593 213V214H131.593V213H130.593ZM124.093 213V212H123.185L123.098 212.905L124.093 213ZM121.293 218.7L121.934 219.468L121.935 219.467L121.293 218.7ZM114.893 221.25L114.757 220.259L113.249 220.467L114.038 221.768L114.893 221.25ZM124.443 237V238H126.219L125.298 236.482L124.443 237ZM120.211 236.503L110.761 220.003L109.026 220.997L118.476 237.497L120.211 236.503ZM110.893 220.5V218.3H108.893V220.5H110.893ZM109.893 219.3H110.993V217.3H109.893V219.3ZM110.993 219.3C112.816 219.3 114.396 219.129 115.711 218.764L115.176 216.836C114.091 217.138 112.704 217.3 110.993 217.3V219.3ZM115.704 218.765C117.079 218.394 118.227 217.761 119.082 216.824L117.605 215.476C117.06 216.073 116.275 216.539 115.182 216.835L115.704 218.765ZM119.082 216.824C119.964 215.858 120.44 214.585 120.588 213.1L118.598 212.9C118.48 214.082 118.122 214.909 117.605 215.476L119.082 216.824ZM119.593 212H109.893V214H119.593V212ZM110.893 213V209.8H108.893V213H110.893ZM109.893 210.8H119.543V208.8H109.893V210.8ZM120.526 209.614C120.265 208.237 119.731 207.056 118.882 206.126L117.405 207.474C117.956 208.078 118.355 208.897 118.561 209.986L120.526 209.614ZM118.896 206.141C118.053 205.178 116.931 204.505 115.586 204.094L115.001 206.006C116.055 206.329 116.834 206.822 117.391 207.459L118.896 206.141ZM115.593 204.096C114.3 203.69 112.759 203.5 110.993 203.5V205.5C112.628 205.5 113.953 205.677 114.994 206.004L115.593 204.096ZM110.993 203.5H109.893V205.5H110.993V203.5ZM110.893 204.5V201.3H108.893V204.5H110.893ZM109.893 202.3H130.593V200.3H109.893V202.3ZM129.593 201.3V204.5H131.593V201.3H129.593ZM130.593 203.5H121.143V205.5H130.593V203.5ZM120.506 205.271C121.181 205.828 121.736 206.486 122.177 207.25L123.91 206.25C123.35 205.281 122.639 204.439 121.78 203.729L120.506 205.271ZM122.177 207.25C122.598 207.979 122.879 208.86 123 209.914L124.987 209.686C124.841 208.407 124.489 207.254 123.91 206.25L122.177 207.25ZM123.993 210.8H130.593V208.8H123.993V210.8ZM129.593 209.8V213H131.593V209.8H129.593ZM130.593 212H124.093V214H130.593V212ZM123.098 212.905C122.886 215.118 122.053 216.76 120.652 217.933L121.935 219.467C123.8 217.906 124.834 215.749 125.089 213.095L123.098 212.905ZM120.653 217.932C119.233 219.115 117.292 219.911 114.757 220.259L115.03 222.241C117.828 221.856 120.153 220.952 121.934 219.468L120.653 217.932ZM114.038 221.768L123.588 237.518L125.298 236.482L115.748 220.732L114.038 221.768ZM124.443 236H119.343V238H124.443V236ZM143.932 237V238H144.932V237H143.932ZM137.682 237H136.682V238H137.682V237ZM137.682 205.75V204.75H136.682V205.75H137.682ZM143.932 205.75H144.932V204.75H143.932V205.75ZM143.932 236H137.682V238H143.932V236ZM138.682 237V205.75H136.682V237H138.682ZM137.682 206.75H143.932V204.75H137.682V206.75ZM142.932 205.75V237H144.932V205.75H142.932ZM154.723 232.459L154.012 233.162L154.019 233.17L154.723 232.459ZM176.842 210.34L176.131 211.043L176.138 211.051L176.842 210.34ZM176.842 232.459L177.549 233.166L176.842 232.459ZM172.447 228.016L171.74 227.309L172.447 228.016ZM172.447 214.734L171.74 215.441L172.447 214.734ZM165.807 236C161.739 236 158.297 234.589 155.426 231.748L154.019 233.17C157.268 236.384 161.216 238 165.807 238V236ZM155.434 231.756C152.593 228.884 151.182 225.443 151.182 221.375H149.182C149.182 225.966 150.798 229.914 154.012 233.162L155.434 231.756ZM151.182 221.375C151.182 217.307 152.592 213.884 155.43 211.047L154.016 209.633C150.798 212.85 149.182 216.784 149.182 221.375H151.182ZM155.43 211.047C158.302 208.175 161.742 206.75 165.807 206.75V204.75C161.212 204.75 157.263 206.385 154.016 209.633L155.43 211.047ZM165.807 206.75C169.871 206.75 173.293 208.174 176.131 211.043L177.553 209.637C174.336 206.386 170.401 204.75 165.807 204.75V206.75ZM176.138 211.051C179.007 213.889 180.432 217.311 180.432 221.375H182.432C182.432 216.78 180.796 212.845 177.545 209.629L176.138 211.051ZM180.432 221.375C180.432 225.439 179.007 228.88 176.135 231.752L177.549 233.166C180.796 229.919 182.432 225.969 182.432 221.375H180.432ZM176.135 231.752C173.297 234.589 169.874 236 165.807 236V238C170.398 238 174.332 236.383 177.549 233.166L176.135 231.752ZM165.807 231.75C168.673 231.75 171.142 230.735 173.154 228.723L171.74 227.309C170.107 228.942 168.149 229.75 165.807 229.75V231.75ZM173.154 228.723C175.167 226.71 176.182 224.241 176.182 221.375H174.182C174.182 223.717 173.373 225.675 171.74 227.309L173.154 228.723ZM176.182 221.375C176.182 218.509 175.167 216.04 173.154 214.027L171.74 215.441C173.373 217.075 174.182 219.033 174.182 221.375H176.182ZM173.154 214.027C171.142 212.015 168.673 211 165.807 211V213C168.149 213 170.107 213.808 171.74 215.441L173.154 214.027ZM165.807 211C162.94 211 160.471 212.015 158.459 214.027L159.873 215.441C161.506 213.808 163.465 213 165.807 213V211ZM158.459 214.027C156.446 216.04 155.432 218.509 155.432 221.375H157.432C157.432 219.033 158.24 217.075 159.873 215.441L158.459 214.027ZM155.432 221.375C155.432 224.241 156.446 226.71 158.459 228.723L159.873 227.309C158.24 225.675 157.432 223.717 157.432 221.375H155.432ZM158.459 228.723C160.471 230.735 162.94 231.75 165.807 231.75V229.75C163.465 229.75 161.506 228.942 159.873 227.309L158.459 228.723ZM192.223 232.459L191.512 233.162L191.519 233.17L192.223 232.459ZM214.342 210.34L213.631 211.043L213.638 211.051L214.342 210.34ZM214.342 232.459L215.049 233.166L214.342 232.459ZM209.947 228.016L209.24 227.309L209.947 228.016ZM209.947 214.734L209.24 215.441L209.947 214.734ZM203.307 236C199.239 236 195.797 234.589 192.926 231.748L191.519 233.17C194.768 236.384 198.716 238 203.307 238V236ZM192.934 231.756C190.093 228.884 188.682 225.443 188.682 221.375H186.682C186.682 225.966 188.298 229.914 191.512 233.162L192.934 231.756ZM188.682 221.375C188.682 217.307 190.092 213.884 192.93 211.047L191.516 209.633C188.298 212.85 186.682 216.784 186.682 221.375H188.682ZM192.93 211.047C195.802 208.175 199.242 206.75 203.307 206.75V204.75C198.712 204.75 194.763 206.385 191.516 209.633L192.93 211.047ZM203.307 206.75C207.371 206.75 210.793 208.174 213.631 211.043L215.053 209.637C211.836 206.386 207.901 204.75 203.307 204.75V206.75ZM213.638 211.051C216.507 213.889 217.932 217.311 217.932 221.375H219.932C219.932 216.78 218.296 212.845 215.045 209.629L213.638 211.051ZM217.932 221.375C217.932 225.439 216.507 228.88 213.635 231.752L215.049 233.166C218.296 229.919 219.932 225.969 219.932 221.375H217.932ZM213.635 231.752C210.797 234.589 207.374 236 203.307 236V238C207.898 238 211.832 236.383 215.049 233.166L213.635 231.752ZM203.307 231.75C206.173 231.75 208.642 230.735 210.654 228.723L209.24 227.309C207.607 228.942 205.649 229.75 203.307 229.75V231.75ZM210.654 228.723C212.667 226.71 213.682 224.241 213.682 221.375H211.682C211.682 223.717 210.873 225.675 209.24 227.309L210.654 228.723ZM213.682 221.375C213.682 218.509 212.667 216.04 210.654 214.027L209.24 215.441C210.873 217.075 211.682 219.033 211.682 221.375H213.682ZM210.654 214.027C208.642 212.015 206.173 211 203.307 211V213C205.649 213 207.607 213.808 209.24 215.441L210.654 214.027ZM203.307 211C200.44 211 197.971 212.015 195.959 214.027L197.373 215.441C199.006 213.808 200.965 213 203.307 213V211ZM195.959 214.027C193.946 216.04 192.932 218.509 192.932 221.375H194.932C194.932 219.033 195.74 217.075 197.373 215.441L195.959 214.027ZM192.932 221.375C192.932 224.241 193.946 226.71 195.959 228.723L197.373 227.309C195.74 225.675 194.932 223.717 194.932 221.375H192.932ZM195.959 228.723C197.971 230.735 200.44 231.75 203.307 231.75V229.75C200.965 229.75 199.006 228.942 197.373 227.309L195.959 228.723ZM229.723 232.459L229.012 233.162L229.019 233.17L229.723 232.459ZM251.842 210.34L251.131 211.043L251.138 211.051L251.842 210.34ZM251.842 232.459L252.549 233.166L251.842 232.459ZM247.447 228.016L246.74 227.309L247.447 228.016ZM247.447 214.734L246.74 215.441L247.447 214.734ZM240.807 236C236.739 236 233.297 234.589 230.426 231.748L229.019 233.17C232.268 236.384 236.216 238 240.807 238V236ZM230.434 231.756C227.593 228.884 226.182 225.443 226.182 221.375H224.182C224.182 225.966 225.798 229.914 229.012 233.162L230.434 231.756ZM226.182 221.375C226.182 217.307 227.592 213.884 230.43 211.047L229.016 209.633C225.798 212.85 224.182 216.784 224.182 221.375H226.182ZM230.43 211.047C233.302 208.175 236.742 206.75 240.807 206.75V204.75C236.212 204.75 232.263 206.385 229.016 209.633L230.43 211.047ZM240.807 206.75C244.871 206.75 248.293 208.174 251.131 211.043L252.553 209.637C249.336 206.386 245.401 204.75 240.807 204.75V206.75ZM251.138 211.051C254.007 213.889 255.432 217.311 255.432 221.375H257.432C257.432 216.78 255.796 212.845 252.545 209.629L251.138 211.051ZM255.432 221.375C255.432 225.439 254.007 228.88 251.135 231.752L252.549 233.166C255.796 229.919 257.432 225.969 257.432 221.375H255.432ZM251.135 231.752C248.297 234.589 244.874 236 240.807 236V238C245.398 238 249.332 236.383 252.549 233.166L251.135 231.752ZM240.807 231.75C243.673 231.75 246.142 230.735 248.154 228.723L246.74 227.309C245.107 228.942 243.149 229.75 240.807 229.75V231.75ZM248.154 228.723C250.167 226.71 251.182 224.241 251.182 221.375H249.182C249.182 223.717 248.373 225.675 246.74 227.309L248.154 228.723ZM251.182 221.375C251.182 218.509 250.167 216.04 248.154 214.027L246.74 215.441C248.373 217.075 249.182 219.033 249.182 221.375H251.182ZM248.154 214.027C246.142 212.015 243.673 211 240.807 211V213C243.149 213 245.107 213.808 246.74 215.441L248.154 214.027ZM240.807 211C237.94 211 235.471 212.015 233.459 214.027L234.873 215.441C236.506 213.808 238.465 213 240.807 213V211ZM233.459 214.027C231.446 216.04 230.432 218.509 230.432 221.375H232.432C232.432 219.033 233.24 217.075 234.873 215.441L233.459 214.027ZM230.432 221.375C230.432 224.241 231.446 226.71 233.459 228.723L234.873 227.309C233.24 225.675 232.432 223.717 232.432 221.375H230.432ZM233.459 228.723C235.471 230.735 237.94 231.75 240.807 231.75V229.75C238.465 229.75 236.506 228.942 234.873 227.309L233.459 228.723ZM267.223 232.459L266.512 233.162L266.519 233.17L267.223 232.459ZM289.342 210.34L288.631 211.043L288.638 211.051L289.342 210.34ZM289.342 232.459L290.049 233.166L289.342 232.459ZM284.947 228.016L284.24 227.309L284.947 228.016ZM284.947 214.734L284.24 215.441L284.947 214.734ZM278.307 236C274.239 236 270.797 234.589 267.926 231.748L266.519 233.17C269.768 236.384 273.716 238 278.307 238V236ZM267.934 231.756C265.093 228.884 263.682 225.443 263.682 221.375H261.682C261.682 225.966 263.298 229.914 266.512 233.162L267.934 231.756ZM263.682 221.375C263.682 217.307 265.092 213.884 267.93 211.047L266.516 209.633C263.298 212.85 261.682 216.784 261.682 221.375H263.682ZM267.93 211.047C270.802 208.175 274.242 206.75 278.307 206.75V204.75C273.712 204.75 269.763 206.385 266.516 209.633L267.93 211.047ZM278.307 206.75C282.371 206.75 285.793 208.174 288.631 211.043L290.053 209.637C286.836 206.386 282.901 204.75 278.307 204.75V206.75ZM288.638 211.051C291.507 213.889 292.932 217.311 292.932 221.375H294.932C294.932 216.78 293.296 212.845 290.045 209.629L288.638 211.051ZM292.932 221.375C292.932 225.439 291.507 228.88 288.635 231.752L290.049 233.166C293.296 229.919 294.932 225.969 294.932 221.375H292.932ZM288.635 231.752C285.797 234.589 282.374 236 278.307 236V238C282.898 238 286.832 236.383 290.049 233.166L288.635 231.752ZM278.307 231.75C281.173 231.75 283.642 230.735 285.654 228.723L284.24 227.309C282.607 228.942 280.649 229.75 278.307 229.75V231.75ZM285.654 228.723C287.667 226.71 288.682 224.241 288.682 221.375H286.682C286.682 223.717 285.873 225.675 284.24 227.309L285.654 228.723ZM288.682 221.375C288.682 218.509 287.667 216.04 285.654 214.027L284.24 215.441C285.873 217.075 286.682 219.033 286.682 221.375H288.682ZM285.654 214.027C283.642 212.015 281.173 211 278.307 211V213C280.649 213 282.607 213.808 284.24 215.441L285.654 214.027ZM278.307 211C275.44 211 272.971 212.015 270.959 214.027L272.373 215.441C274.006 213.808 275.965 213 278.307 213V211ZM270.959 214.027C268.946 216.04 267.932 218.509 267.932 221.375H269.932C269.932 219.033 270.74 217.075 272.373 215.441L270.959 214.027ZM267.932 221.375C267.932 224.241 268.946 226.71 270.959 228.723L272.373 227.309C270.74 225.675 269.932 223.717 269.932 221.375H267.932ZM270.959 228.723C272.971 230.735 275.44 231.75 278.307 231.75V229.75C275.965 229.75 274.006 228.942 272.373 227.309L270.959 228.723Z" fill="black" mask="url(#path-3-outside-1_131_3)"/>
</g>
<defs>
<filter id="filter0_f_131_3" x="0" y="121" width="401" height="181" filterUnits="userSpaceOnUse" color-interpolation-filters="sRGB">
<feFlood flood-opacity="0" result="BackgroundImageFix"/>
<feBlend mode="normal" in="SourceGraphic" in2="BackgroundImageFix" result="shape"/>
<feGaussianBlur stdDeviation="22.5" result="effect1_foregroundBlur_131_3"/>
</filter>
<filter id="filter1_d_131_3" x="104.893" y="200.3" width="194.038" height="45.7" filterUnits="userSpaceOnUse" color-interpolation-filters="sRGB">
<feFlood flood-opacity="0" result="BackgroundImageFix"/>
<feColorMatrix in="SourceAlpha" type="matrix" values="0 0 0 0 0 0 0 0 0 0 0 0 0 0 0 0 0 0 127 0" result="hardAlpha"/>
<feOffset dy="4"/>
<feGaussianBlur stdDeviation="2"/>
<feComposite in2="hardAlpha" operator="out"/>
<feColorMatrix type="matrix" values="0 0 0 0 0 0 0 0 0 0 0 0 0 0 0 0 0 0 0.25 0"/>
<feBlend mode="normal" in2="BackgroundImageFix" result="effect1_dropShadow_131_3"/>
<feBlend mode="normal" in="SourceGraphic" in2="effect1_dropShadow_131_3" result="shape"/>
</filter>
</defs>
</svg>
