<svg width="133" height="39" viewBox="0 0 133 39" fill="none" xmlns="http://www.w3.org/2000/svg">
<path d="M27.75 39H0.625V31.25H27.75C28.8398 31.25 29.748 30.8867 30.4746 30.1602C31.2415 29.3932 31.625 28.4648 31.625 27.375C31.625 26.2852 31.2415 25.377 30.4746 24.6504C29.748 23.8835 28.8398 23.5 27.75 23.5H18.0625V15.75H27.75C28.8398 15.75 29.748 15.3867 30.4746 14.6602C31.2415 13.8932 31.625 12.9648 31.625 11.875C31.625 10.7852 31.2415 9.87695 30.4746 9.15039C29.748 8.38346 28.8398 8 27.75 8H0.625V0.25H27.75C30.9792 0.25 33.724 1.38021 35.9844 3.64062C38.2448 5.90104 39.375 8.64583 39.375 11.875C39.375 14.862 38.4062 17.4453 36.4688 19.625C38.4062 21.8047 39.375 24.388 39.375 27.375C39.375 30.6042 38.2448 33.349 35.9844 35.6094C33.724 37.8698 30.9792 39 27.75 39ZM66.5 39C61.1315 39 56.5501 37.123 52.7559 33.3691C49.002 29.5749 47.125 24.9935 47.125 19.625C47.125 14.2565 49.002 9.69531 52.7559 5.94141C56.5501 2.14714 61.1315 0.25 66.5 0.25C71.8685 0.25 76.4297 2.14714 80.1836 5.94141C83.9779 9.69531 85.875 14.2565 85.875 19.625C85.875 24.9935 83.9779 29.5749 80.1836 33.3691C76.4297 37.123 71.8685 39 66.5 39ZM66.5 31.25C69.7292 31.25 72.474 30.1198 74.7344 27.8594C76.9948 25.599 78.125 22.8542 78.125 19.625C78.125 16.3958 76.9948 13.651 74.7344 11.3906C72.474 9.13021 69.7292 8 66.5 8C63.2708 8 60.526 9.13021 58.2656 11.3906C56.0052 13.651 54.875 16.3958 54.875 19.625C54.875 22.8542 56.0052 25.599 58.2656 27.8594C60.526 30.1198 63.2708 31.25 66.5 31.25ZM116.875 15.75H132.375V23.5H116.875V39H109.125V23.5H93.625V15.75H109.125V0.25H116.875V15.75Z" fill="white"/>
</svg>
