<svg width="464" height="57" viewBox="0 0 464 57" fill="none" xmlns="http://www.w3.org/2000/svg">
<path d="M0 45L15 13.5L30 45H23.25L15 27.75L6.75 45H0ZM52.5 45H31.5V15H52.5C55 15 57.125 15.875 58.875 17.625C60.625 19.375 61.5 21.5 61.5 24C61.5 26.3125 60.75 28.3125 59.25 30C60.75 31.6875 61.5 33.6875 61.5 36C61.5 38.5 60.625 40.625 58.875 42.375C57.125 44.125 55 45 52.5 45ZM37.5 39H52.5C53.3438 39 54.0469 38.7188 54.6094 38.1562C55.2031 37.5625 55.5 36.8438 55.5 36C55.5 35.1562 55.2031 34.4531 54.6094 33.8906C54.0469 33.2969 53.3438 33 52.5 33H45V27H52.5C53.3438 27 54.0469 26.7188 54.6094 26.1562C55.2031 25.5625 55.5 24.8438 55.5 24C55.5 23.1562 55.2031 22.4531 54.6094 21.8906C54.0469 21.2969 53.3438 21 52.5 21H37.5V39ZM79.4062 45C75.25 45 71.7031 43.5469 68.7656 40.6406C65.8594 37.7031 64.4062 34.1562 64.4062 30C64.4062 25.8438 65.8594 22.3125 68.7656 19.4062C71.7031 16.4688 75.25 15 79.4062 15C83.5625 15 87.0938 16.4688 90 19.4062C92.9375 22.3125 94.4062 25.8438 94.4062 30C94.4062 34.1562 92.9375 37.7031 90 40.6406C87.0938 43.5469 83.5625 45 79.4062 45ZM79.4062 39C81.9062 39 84.0312 38.125 85.7812 36.375C87.5312 34.625 88.4062 32.5 88.4062 30C88.4062 27.5 87.5312 25.375 85.7812 23.625C84.0312 21.875 81.9062 21 79.4062 21C76.9062 21 74.7812 21.875 73.0312 23.625C71.2812 25.375 70.4062 27.5 70.4062 30C70.4062 32.5 71.2812 34.625 73.0312 36.375C74.7812 38.125 76.9062 39 79.4062 39ZM97.5469 30V15H103.547V30C103.547 32.5 104.422 34.625 106.172 36.375C107.922 38.125 110.047 39 112.547 39C115.047 39 117.172 38.125 118.922 36.375C120.672 34.625 121.547 32.5 121.547 30V0H127.547V30C127.547 34.1562 126.078 37.7031 123.141 40.6406C120.234 43.5469 116.703 45 112.547 45C108.391 45 104.844 43.5469 101.906 40.6406C99 37.7031 97.5469 34.1562 97.5469 30ZM148.828 21V57H142.828V21H130.828V15H160.828V21H148.828Z" fill="white"/>
<path d="M205.828 39H220.828V45H205.828C201.672 45 198.125 43.5469 195.188 40.6406C192.281 37.7031 190.828 34.1562 190.828 30C190.828 25.8438 192.281 22.3125 195.188 19.4062C198.125 16.4688 201.672 15 205.828 15H220.828V21H205.828C203.328 21 201.203 21.875 199.453 23.625C197.703 25.375 196.828 27.5 196.828 30C196.828 32.5 197.703 34.625 199.453 36.375C201.203 38.125 203.328 39 205.828 39ZM235.406 45C231.25 45 227.703 43.5469 224.766 40.6406C221.859 37.7031 220.406 34.1562 220.406 30C220.406 25.8438 221.859 22.3125 224.766 19.4062C227.703 16.4688 231.25 15 235.406 15C239.562 15 243.094 16.4688 246 19.4062C248.938 22.3125 250.406 25.8438 250.406 30C250.406 34.1562 248.938 37.7031 246 40.6406C243.094 43.5469 239.562 45 235.406 45ZM235.406 39C237.906 39 240.031 38.125 241.781 36.375C243.531 34.625 244.406 32.5 244.406 30C244.406 27.5 243.531 25.375 241.781 23.625C240.031 21.875 237.906 21 235.406 21C232.906 21 230.781 21.875 229.031 23.625C227.281 25.375 226.406 27.5 226.406 30C226.406 32.5 227.281 34.625 229.031 36.375C230.781 38.125 232.906 39 235.406 39ZM274.875 45H253.875V15H274.875C279.031 15 282.562 16.4688 285.469 19.4062C288.406 22.3125 289.875 25.8438 289.875 30C289.875 34.1562 288.406 37.7031 285.469 40.6406C282.562 43.5469 279.031 45 274.875 45ZM259.875 39H274.875C277.375 39 279.5 38.125 281.25 36.375C283 34.625 283.875 32.5 283.875 30C283.875 27.5 283 25.375 281.25 23.625C279.5 21.875 277.375 21 274.875 21H259.875V39ZM341.344 33H306.844V27H341.344V33ZM323.344 15V21H299.344V39H323.344V45H293.344V15H323.344ZM349.688 21H336.469V15H358.969L345.75 39H378.469V45H336.469L349.688 21ZM429.797 33H395.297V27H429.797V33ZM411.797 15V21H387.797V39H411.797V45H381.797V15H411.797ZM439.078 24V57H433.078V15H439.078L457.078 36V0H463.078V45H457.078L439.078 24Z" fill="#F44878"/>
</svg>
