<svg width="341" height="34" viewBox="0 0 341 34" fill="none" xmlns="http://www.w3.org/2000/svg">
<path d="M0.319336 23L11.2568 0.03125L22.1943 23H17.2725L11.2568 10.4219L5.24121 23H0.319336ZM27.6631 18.625H45.1631V23H23.2881V1.125H27.6631V18.625ZM51.9648 18.625H69.4648V23H47.5898V1.125H51.9648V18.625ZM102.277 1.125H119.777L117.59 5.5H102.277C100.454 5.5 98.9049 6.13802 97.6289 7.41406C96.3529 8.6901 95.7148 10.2396 95.7148 12.0625C95.7148 13.8854 96.3529 15.4349 97.6289 16.7109C98.9049 17.987 100.454 18.625 102.277 18.625H113.454L111.027 14.25H102.277V9.875H113.215L126.34 33.9375H121.965L115.881 23H102.277C99.2467 23 96.6605 21.9404 94.5186 19.8213C92.3994 17.6794 91.3398 15.0931 91.3398 12.0625C91.3398 9.0319 92.3994 6.45703 94.5186 4.33789C96.6605 2.19596 99.2467 1.125 102.277 1.125ZM126.408 23H122.033V1.125H126.408V23ZM135.637 23H131.262V1.125H146.574C148.397 1.125 149.947 1.76302 151.223 3.03906C152.499 4.3151 153.137 5.86458 153.137 7.6875C153.137 9.51042 152.499 11.0599 151.223 12.3359C149.947 13.612 148.397 14.25 146.574 14.25H145.617L155.324 31.75H150.949L138.918 9.875H146.574C147.189 9.875 147.702 9.66992 148.112 9.25977C148.545 8.82682 148.762 8.30273 148.762 7.6875C148.762 7.07227 148.545 6.55957 148.112 6.14941C147.702 5.71647 147.189 5.5 146.574 5.5H135.637V23ZM159.768 18.625H177.268V23H155.393V1.125H159.768V18.625ZM206.354 23H180.104V18.625H206.354C206.97 18.625 207.482 18.4199 207.893 18.0098C208.326 17.5768 208.542 17.0527 208.542 16.4375C208.542 15.8223 208.326 15.3096 207.893 14.8994C207.482 14.4665 206.97 14.25 206.354 14.25H197.604C195.782 14.25 194.232 13.612 192.956 12.3359C191.68 11.0599 191.042 9.51042 191.042 7.6875C191.042 5.86458 191.68 4.3151 192.956 3.03906C194.232 1.76302 195.782 1.125 197.604 1.125H210.729V5.5H197.604C196.989 5.5 196.465 5.71647 196.032 6.14941C195.622 6.55957 195.417 7.07227 195.417 7.6875C195.417 8.30273 195.622 8.82682 196.032 9.25977C196.465 9.66992 196.989 9.875 197.604 9.875H206.354C208.177 9.875 209.727 10.513 211.003 11.7891C212.279 13.0651 212.917 14.6146 212.917 16.4375C212.917 18.2604 212.279 19.8099 211.003 21.0859C209.727 22.362 208.177 23 206.354 23ZM247.917 5.5V31.75H243.542V5.5H234.792V1.125H256.667V5.5H247.917ZM294.094 14.25H268.938V9.875H294.094V14.25ZM280.969 1.125V5.5H263.469V18.625H280.969V23H259.094V1.125H280.969ZM291.257 23L302.194 0.03125L313.132 23H308.21L302.194 10.4219L296.179 23H291.257ZM318.806 9.875V31.75H314.431V1.125H318.806L327.556 17.5312L336.306 1.125H340.681V23H336.306V9.875L329.743 23H325.368L318.806 9.875Z" fill="white"/>
</svg>
