<svg width="170" height="76" viewBox="0 0 170 76" fill="none" xmlns="http://www.w3.org/2000/svg">
<path d="M0.136719 27L12.6367 0.75L25.1367 27H19.5117L12.6367 12.625L5.76172 27H0.136719ZM56.3867 27H26.3867V22H56.3867C57.0898 22 57.6758 21.7656 58.1445 21.2969C58.6393 20.8021 58.8867 20.2031 58.8867 19.5C58.8867 18.7969 58.6393 18.2109 58.1445 17.7422C57.6758 17.2474 57.0898 17 56.3867 17H46.3867C44.3034 17 42.5326 16.2708 41.0742 14.8125C39.6159 13.3542 38.8867 11.5833 38.8867 9.5C38.8867 7.41667 39.6159 5.64583 41.0742 4.1875C42.5326 2.72917 44.3034 2 46.3867 2H61.3867V7H46.3867C45.6836 7 45.0846 7.2474 44.5898 7.74219C44.1211 8.21094 43.8867 8.79688 43.8867 9.5C43.8867 10.2031 44.1211 10.8021 44.5898 11.2969C45.0846 11.7656 45.6836 12 46.3867 12H56.3867C58.4701 12 60.2409 12.7292 61.6992 14.1875C63.1576 15.6458 63.8867 17.4167 63.8867 19.5C63.8867 21.5833 63.1576 23.3542 61.6992 24.8125C60.2409 26.2708 58.4701 27 56.3867 27ZM71.4648 17V27H66.4648V2H71.4648V12H86.4648V2H91.4648V27H86.4648V17H71.4648ZM102.012 27H97.0117V2H102.012V27ZM134.785 27H104.785V22H134.785C135.488 22 136.074 21.7656 136.543 21.2969C137.038 20.8021 137.285 20.2031 137.285 19.5C137.285 18.7969 137.038 18.2109 136.543 17.7422C136.074 17.2474 135.488 17 134.785 17H124.785C122.702 17 120.931 16.2708 119.473 14.8125C118.014 13.3542 117.285 11.5833 117.285 9.5C117.285 7.41667 118.014 5.64583 119.473 4.1875C120.931 2.72917 122.702 2 124.785 2H139.785V7H124.785C124.082 7 123.483 7.2474 122.988 7.74219C122.52 8.21094 122.285 8.79688 122.285 9.5C122.285 10.2031 122.52 10.8021 122.988 11.2969C123.483 11.7656 124.082 12 124.785 12H134.785C136.868 12 138.639 12.7292 140.098 14.1875C141.556 15.6458 142.285 17.4167 142.285 19.5C142.285 21.5833 141.556 23.3542 140.098 24.8125C138.639 26.2708 136.868 27 134.785 27ZM149.863 17V27H144.863V2H149.863V12H164.863V2H169.863V27H164.863V17H149.863ZM19.9023 57.0547V66H14.9023V41H19.9023V49.9453L32.4023 41H39.9023L22.4023 53.5L39.9023 66H32.4023L19.9023 57.0547ZM40.7227 53.5V41H45.7227V53.5C45.7227 55.5833 46.4518 57.3542 47.9102 58.8125C49.3685 60.2708 51.1393 61 53.2227 61C55.306 61 57.0768 60.2708 58.5352 58.8125C59.9935 57.3542 60.7227 55.5833 60.7227 53.5V28.5H65.7227V53.5C65.7227 56.9635 64.4987 59.9193 62.0508 62.3672C59.6289 64.7891 56.6862 66 53.2227 66C49.7591 66 46.8034 64.7891 44.3555 62.3672C41.9336 59.9193 40.7227 56.9635 40.7227 53.5ZM75.0977 51V76H70.0977V41H75.0977L85.0977 59.75L95.0977 41H100.098V66H95.0977V51L87.5977 66H82.5977L75.0977 51ZM101.348 66L113.848 39.75L126.348 66H120.723L113.848 51.625L106.973 66H101.348ZM132.598 66H127.598V41H145.098C147.181 41 148.952 41.7292 150.41 43.1875C151.868 44.6458 152.598 46.4167 152.598 48.5C152.598 50.5833 151.868 52.3542 150.41 53.8125C148.952 55.2708 147.181 56 145.098 56H144.004L155.098 76H150.098L136.348 51H145.098C145.801 51 146.387 50.7656 146.855 50.2969C147.35 49.8021 147.598 49.2031 147.598 48.5C147.598 47.7969 147.35 47.2109 146.855 46.7422C146.387 46.2474 145.801 46 145.098 46H132.598V66Z" fill="black"/>
</svg>
