<svg width="458" height="113" viewBox="0 0 458 113" fill="none" xmlns="http://www.w3.org/2000/svg">
<mask id="path-1-outside-1_58_267" maskUnits="userSpaceOnUse" x="-5" y="-7" width="466" height="123" fill="black">
<rect fill="white" x="-5" y="-7" width="466" height="123"/>
<path d="M0.25 35L16.5 0.875L32.75 35H25.4375L16.5 16.3125L7.5625 35H0.25ZM40.875 35H34.375V2.5H57.125C59.8333 2.5 62.1354 3.44792 64.0312 5.34375C65.9271 7.23958 66.875 9.54167 66.875 12.25C66.875 14.9583 65.9271 17.2604 64.0312 19.1562C62.1354 21.0521 59.8333 22 57.125 22H55.7031L70.125 48H63.625L45.75 15.5H57.125C58.0391 15.5 58.8008 15.1953 59.4102 14.5859C60.0534 13.9427 60.375 13.1641 60.375 12.25C60.375 11.3359 60.0534 10.5742 59.4102 9.96484C58.8008 9.32161 58.0391 9 57.125 9H40.875V35ZM87.7461 9V48H81.2461V9H68.2461V2.5H100.746V9H87.7461ZM110.852 35H104.352V2.5H110.852V35ZM150.613 22H132.738V15.5H150.613V22ZM118.113 2.5H150.613V9H124.613V48H118.113V2.5ZM162.09 35H155.59V2.5H162.09V35ZM182.098 28.5H204.848V35H182.098C177.595 35 173.753 33.4258 170.57 30.2773C167.422 27.0951 165.848 23.2526 165.848 18.75C165.848 14.2474 167.422 10.4219 170.57 7.27344C173.753 4.09115 177.595 2.5 182.098 2.5H208.098L204.848 9H182.098C179.389 9 177.087 9.94792 175.191 11.8438C173.296 13.7396 172.348 16.0417 172.348 18.75C172.348 21.4583 173.296 23.7604 175.191 25.6562C177.087 27.5521 179.389 28.5 182.098 28.5ZM216.629 35H210.129V2.5H216.629V35ZM218.254 35L234.504 0.875L250.754 35H243.441L234.504 16.3125L225.566 35H218.254ZM258.879 28.5H284.879V35H252.379V2.5H258.879V28.5ZM6.75 96H0.25V63.5H6.75V96ZM20.5117 73.25V109H14.0117V63.5H20.5117L40.0117 86.25V47.25H46.5117V96H40.0117L20.5117 73.25ZM69.6172 70V109H63.1172V70H50.1172V63.5H82.6172V70H69.6172ZM138.223 83H100.848V76.5H138.223V83ZM118.723 63.5V70H92.7227V89.5H118.723V96H86.2227V63.5H118.723ZM148.277 89.5H174.277V96H141.777V63.5H148.277V89.5ZM184.383 89.5H210.383V96H177.883V63.5H184.383V89.5ZM220.488 96H213.988V63.5H220.488V96ZM240.496 63.5H266.496L263.246 70H240.496C237.788 70 235.486 70.9479 233.59 72.8438C231.694 74.7396 230.746 77.0417 230.746 79.75C230.746 82.4583 231.694 84.7604 233.59 86.6562C235.486 88.5521 237.788 89.5 240.496 89.5H257.102L253.496 83H240.496V76.5H256.746L276.246 112.25H269.746L260.707 96H240.496C235.993 96 232.151 94.4258 228.969 91.2773C225.82 88.0951 224.246 84.2526 224.246 79.75C224.246 75.2474 225.82 71.4219 228.969 68.2734C232.151 65.0911 235.993 63.5 240.496 63.5ZM321.848 83H284.473V76.5H321.848V83ZM302.348 63.5V70H276.348V89.5H302.348V96H269.848V63.5H302.348ZM331.902 73.25V109H325.402V63.5H331.902L351.402 86.25V47.25H357.902V96H351.402L331.902 73.25ZM377.91 89.5H400.66V96H377.91C373.408 96 369.565 94.4258 366.383 91.2773C363.234 88.0951 361.66 84.2526 361.66 79.75C361.66 75.2474 363.234 71.4219 366.383 68.2734C369.565 65.0911 373.408 63.5 377.91 63.5H403.91L400.66 70H377.91C375.202 70 372.9 70.9479 371.004 72.8438C369.108 74.7396 368.16 77.0417 368.16 79.75C368.16 82.4583 369.108 84.7604 371.004 86.6562C372.9 88.5521 375.202 89.5 377.91 89.5ZM457.941 83H420.566V76.5H457.941V83ZM438.441 63.5V70H412.441V89.5H438.441V96H405.941V63.5H438.441Z"/>
</mask>
<path d="M0.25 35L16.5 0.875L32.75 35H25.4375L16.5 16.3125L7.5625 35H0.25ZM40.875 35H34.375V2.5H57.125C59.8333 2.5 62.1354 3.44792 64.0312 5.34375C65.9271 7.23958 66.875 9.54167 66.875 12.25C66.875 14.9583 65.9271 17.2604 64.0312 19.1562C62.1354 21.0521 59.8333 22 57.125 22H55.7031L70.125 48H63.625L45.75 15.5H57.125C58.0391 15.5 58.8008 15.1953 59.4102 14.5859C60.0534 13.9427 60.375 13.1641 60.375 12.25C60.375 11.3359 60.0534 10.5742 59.4102 9.96484C58.8008 9.32161 58.0391 9 57.125 9H40.875V35ZM87.7461 9V48H81.2461V9H68.2461V2.5H100.746V9H87.7461ZM110.852 35H104.352V2.5H110.852V35ZM150.613 22H132.738V15.5H150.613V22ZM118.113 2.5H150.613V9H124.613V48H118.113V2.5ZM162.09 35H155.59V2.5H162.09V35ZM182.098 28.5H204.848V35H182.098C177.595 35 173.753 33.4258 170.57 30.2773C167.422 27.0951 165.848 23.2526 165.848 18.75C165.848 14.2474 167.422 10.4219 170.57 7.27344C173.753 4.09115 177.595 2.5 182.098 2.5H208.098L204.848 9H182.098C179.389 9 177.087 9.94792 175.191 11.8438C173.296 13.7396 172.348 16.0417 172.348 18.75C172.348 21.4583 173.296 23.7604 175.191 25.6562C177.087 27.5521 179.389 28.5 182.098 28.5ZM216.629 35H210.129V2.5H216.629V35ZM218.254 35L234.504 0.875L250.754 35H243.441L234.504 16.3125L225.566 35H218.254ZM258.879 28.5H284.879V35H252.379V2.5H258.879V28.5ZM6.75 96H0.25V63.5H6.75V96ZM20.5117 73.25V109H14.0117V63.5H20.5117L40.0117 86.25V47.25H46.5117V96H40.0117L20.5117 73.25ZM69.6172 70V109H63.1172V70H50.1172V63.5H82.6172V70H69.6172ZM138.223 83H100.848V76.5H138.223V83ZM118.723 63.5V70H92.7227V89.5H118.723V96H86.2227V63.5H118.723ZM148.277 89.5H174.277V96H141.777V63.5H148.277V89.5ZM184.383 89.5H210.383V96H177.883V63.5H184.383V89.5ZM220.488 96H213.988V63.5H220.488V96ZM240.496 63.5H266.496L263.246 70H240.496C237.788 70 235.486 70.9479 233.59 72.8438C231.694 74.7396 230.746 77.0417 230.746 79.75C230.746 82.4583 231.694 84.7604 233.59 86.6562C235.486 88.5521 237.788 89.5 240.496 89.5H257.102L253.496 83H240.496V76.5H256.746L276.246 112.25H269.746L260.707 96H240.496C235.993 96 232.151 94.4258 228.969 91.2773C225.82 88.0951 224.246 84.2526 224.246 79.75C224.246 75.2474 225.82 71.4219 228.969 68.2734C232.151 65.0911 235.993 63.5 240.496 63.5ZM321.848 83H284.473V76.5H321.848V83ZM302.348 63.5V70H276.348V89.5H302.348V96H269.848V63.5H302.348ZM331.902 73.25V109H325.402V63.5H331.902L351.402 86.25V47.25H357.902V96H351.402L331.902 73.25ZM377.91 89.5H400.66V96H377.91C373.408 96 369.565 94.4258 366.383 91.2773C363.234 88.0951 361.66 84.2526 361.66 79.75C361.66 75.2474 363.234 71.4219 366.383 68.2734C369.565 65.0911 373.408 63.5 377.91 63.5H403.91L400.66 70H377.91C375.202 70 372.9 70.9479 371.004 72.8438C369.108 74.7396 368.16 77.0417 368.16 79.75C368.16 82.4583 369.108 84.7604 371.004 86.6562C372.9 88.5521 375.202 89.5 377.91 89.5ZM457.941 83H420.566V76.5H457.941V83ZM438.441 63.5V70H412.441V89.5H438.441V96H405.941V63.5H438.441Z" fill="white"/>
<path d="M0.25 35L-2.45858 33.7102L-4.50134 38H0.25V35ZM16.5 0.875L19.2086 -0.414801L16.5 -6.10282L13.7914 -0.414801L16.5 0.875ZM32.75 35V38H37.5013L35.4586 33.7102L32.75 35ZM25.4375 35L22.7311 36.2944L23.5468 38H25.4375V35ZM16.5 16.3125L19.2064 15.0181L16.5 9.35929L13.7936 15.0181L16.5 16.3125ZM7.5625 35V38H9.45317L10.2689 36.2944L7.5625 35ZM2.95858 36.2898L19.2086 2.1648L13.7914 -0.414801L-2.45858 33.7102L2.95858 36.2898ZM13.7914 2.1648L30.0414 36.2898L35.4586 33.7102L19.2086 -0.414801L13.7914 2.1648ZM32.75 32H25.4375V38H32.75V32ZM28.1439 33.7056L19.2064 15.0181L13.7936 17.6069L22.7311 36.2944L28.1439 33.7056ZM13.7936 15.0181L4.8561 33.7056L10.2689 36.2944L19.2064 17.6069L13.7936 15.0181ZM7.5625 32H0.25V38H7.5625V32ZM40.875 35V38H43.875V35H40.875ZM34.375 35H31.375V38H34.375V35ZM34.375 2.5V-0.5H31.375V2.5H34.375ZM55.7031 22V19H50.6084L53.0797 23.4552L55.7031 22ZM70.125 48V51H75.2197L72.7484 46.5448L70.125 48ZM63.625 48L60.9964 49.4458L61.8512 51H63.625V48ZM45.75 15.5V12.5H40.6762L43.1214 16.9458L45.75 15.5ZM59.4102 14.5859L61.5315 16.7073L59.4102 14.5859ZM59.4102 9.96484L57.2323 12.0281L57.2881 12.0869L57.3469 12.1427L59.4102 9.96484ZM40.875 9V6H37.875V9H40.875ZM40.875 32H34.375V38H40.875V32ZM37.375 35V2.5H31.375V35H37.375ZM34.375 5.5H57.125V-0.5H34.375V5.5ZM57.125 5.5C59.0468 5.5 60.5831 6.13824 61.9099 7.46507L66.1526 3.22243C63.6877 0.757599 60.6199 -0.5 57.125 -0.5V5.5ZM61.9099 7.46507C63.2368 8.79191 63.875 10.3282 63.875 12.25H69.875C69.875 8.7551 68.6174 5.68726 66.1526 3.22243L61.9099 7.46507ZM63.875 12.25C63.875 14.1718 63.2368 15.7081 61.9099 17.0349L66.1526 21.2776C68.6174 18.8127 69.875 15.7449 69.875 12.25H63.875ZM61.9099 17.0349C60.5831 18.3618 59.0468 19 57.125 19V25C60.6199 25 63.6877 23.7424 66.1526 21.2776L61.9099 17.0349ZM57.125 19H55.7031V25H57.125V19ZM53.0797 23.4552L67.5016 49.4552L72.7484 46.5448L58.3266 20.5448L53.0797 23.4552ZM70.125 45H63.625V51H70.125V45ZM66.2536 46.5542L48.3786 14.0542L43.1214 16.9458L60.9964 49.4458L66.2536 46.5542ZM45.75 18.5H57.125V12.5H45.75V18.5ZM57.125 18.5C58.7811 18.5 60.3227 17.916 61.5315 16.7073L57.2888 12.4646C57.279 12.4744 57.2718 12.4807 57.2674 12.4844C57.263 12.488 57.2607 12.4895 57.2605 12.4897C57.2603 12.4898 57.2612 12.4892 57.2631 12.4882C57.265 12.4872 57.2666 12.4865 57.2677 12.4861C57.2706 12.4849 57.2647 12.4877 57.2453 12.4913C57.2253 12.4949 57.1866 12.5 57.125 12.5V18.5ZM61.5315 16.7073C62.7404 15.4984 63.375 13.9554 63.375 12.25H57.375C57.375 12.302 57.3705 12.334 57.3674 12.3502C57.3645 12.3658 57.3617 12.3725 57.361 12.3743C57.3603 12.376 57.3578 12.3819 57.3498 12.3936C57.3416 12.4058 57.3236 12.4299 57.2888 12.4646L61.5315 16.7073ZM63.375 12.25C63.375 10.5415 62.7356 8.9828 61.4734 7.78699L57.3469 12.1427C57.3593 12.1544 57.3674 12.1632 57.3722 12.1687C57.3769 12.1741 57.3788 12.1769 57.3789 12.1769C57.3789 12.177 57.3786 12.1765 57.378 12.1756C57.3774 12.1746 57.3766 12.1733 57.3756 12.1716C57.3737 12.1681 57.3717 12.1641 57.37 12.1601C57.3662 12.1509 57.3666 12.1487 57.3685 12.1585C57.3705 12.1689 57.375 12.1979 57.375 12.25H63.375ZM61.588 7.90161C60.3922 6.63936 58.8335 6 57.125 6V12C57.1772 12 57.2061 12.0045 57.2165 12.0065C57.2263 12.0084 57.2241 12.0088 57.2149 12.005C57.2109 12.0033 57.2069 12.0013 57.2034 11.9994C57.2017 11.9984 57.2004 11.9976 57.1994 11.997C57.1985 11.9964 57.198 11.9961 57.1981 11.9961C57.1981 11.9962 57.2009 11.9981 57.2063 12.0028C57.2118 12.0076 57.2206 12.0157 57.2323 12.0281L61.588 7.90161ZM57.125 6H40.875V12H57.125V6ZM37.875 9V35H43.875V9H37.875ZM87.7461 9V6H84.7461V9H87.7461ZM87.7461 48V51H90.7461V48H87.7461ZM81.2461 48H78.2461V51H81.2461V48ZM81.2461 9H84.2461V6H81.2461V9ZM68.2461 9H65.2461V12H68.2461V9ZM68.2461 2.5V-0.5H65.2461V2.5H68.2461ZM100.746 2.5H103.746V-0.5H100.746V2.5ZM100.746 9V12H103.746V9H100.746ZM84.7461 9V48H90.7461V9H84.7461ZM87.7461 45H81.2461V51H87.7461V45ZM84.2461 48V9H78.2461V48H84.2461ZM81.2461 6H68.2461V12H81.2461V6ZM71.2461 9V2.5H65.2461V9H71.2461ZM68.2461 5.5H100.746V-0.5H68.2461V5.5ZM97.7461 2.5V9H103.746V2.5H97.7461ZM100.746 6H87.7461V12H100.746V6ZM110.852 35V38H113.852V35H110.852ZM104.352 35H101.352V38H104.352V35ZM104.352 2.5V-0.5H101.352V2.5H104.352ZM110.852 2.5H113.852V-0.5H110.852V2.5ZM110.852 32H104.352V38H110.852V32ZM107.352 35V2.5H101.352V35H107.352ZM104.352 5.5H110.852V-0.5H104.352V5.5ZM107.852 2.5V35H113.852V2.5H107.852ZM150.613 22V25H153.613V22H150.613ZM132.738 22H129.738V25H132.738V22ZM132.738 15.5V12.5H129.738V15.5H132.738ZM150.613 15.5H153.613V12.5H150.613V15.5ZM118.113 2.5V-0.5H115.113V2.5H118.113ZM150.613 2.5H153.613V-0.5H150.613V2.5ZM150.613 9V12H153.613V9H150.613ZM124.613 9V6H121.613V9H124.613ZM124.613 48V51H127.613V48H124.613ZM118.113 48H115.113V51H118.113V48ZM150.613 19H132.738V25H150.613V19ZM135.738 22V15.5H129.738V22H135.738ZM132.738 18.5H150.613V12.5H132.738V18.5ZM147.613 15.5V22H153.613V15.5H147.613ZM118.113 5.5H150.613V-0.5H118.113V5.5ZM147.613 2.5V9H153.613V2.5H147.613ZM150.613 6H124.613V12H150.613V6ZM121.613 9V48H127.613V9H121.613ZM124.613 45H118.113V51H124.613V45ZM121.113 48V2.5H115.113V48H121.113ZM162.09 35V38H165.09V35H162.09ZM155.59 35H152.59V38H155.59V35ZM155.59 2.5V-0.5H152.59V2.5H155.59ZM162.09 2.5H165.09V-0.5H162.09V2.5ZM162.09 32H155.59V38H162.09V32ZM158.59 35V2.5H152.59V35H158.59ZM155.59 5.5H162.09V-0.5H155.59V5.5ZM159.09 2.5V35H165.09V2.5H159.09ZM204.848 28.5H207.848V25.5H204.848V28.5ZM204.848 35V38H207.848V35H204.848ZM170.57 30.2773L168.438 32.3873L168.449 32.3987L168.46 32.41L170.57 30.2773ZM170.57 7.27344L168.449 5.15212L170.57 7.27344ZM208.098 2.5L210.781 3.84164L212.952 -0.5H208.098V2.5ZM204.848 9V12H206.702L207.531 10.3416L204.848 9ZM182.098 31.5H204.848V25.5H182.098V31.5ZM201.848 28.5V35H207.848V28.5H201.848ZM204.848 32H182.098V38H204.848V32ZM182.098 32C178.38 32 175.297 30.7338 172.68 28.1447L168.46 32.41C172.208 36.1177 176.81 38 182.098 38V32ZM172.703 28.1674C170.114 25.5504 168.848 22.4677 168.848 18.75H162.848C162.848 24.0375 164.73 28.6397 168.438 32.3873L172.703 28.1674ZM168.848 18.75C168.848 15.033 170.113 11.9735 172.692 9.39476L168.449 5.15212C164.731 8.87023 162.848 13.4618 162.848 18.75H168.848ZM172.692 9.39476C175.311 6.77538 178.39 5.5 182.098 5.5V-0.5C176.8 -0.5 172.194 1.40691 168.449 5.15212L172.692 9.39476ZM182.098 5.5H208.098V-0.5H182.098V5.5ZM205.414 1.15836L202.164 7.65836L207.531 10.3416L210.781 3.84164L205.414 1.15836ZM204.848 6H182.098V12H204.848V6ZM182.098 6C178.603 6 175.535 7.2576 173.07 9.72243L177.313 13.9651C178.64 12.6382 180.176 12 182.098 12V6ZM173.07 9.72243C170.605 12.1873 169.348 15.2551 169.348 18.75H175.348C175.348 16.8282 175.986 15.2919 177.313 13.9651L173.07 9.72243ZM169.348 18.75C169.348 22.2449 170.605 25.3127 173.07 27.7776L177.313 23.5349C175.986 22.2081 175.348 20.6718 175.348 18.75H169.348ZM173.07 27.7776C175.535 30.2424 178.603 31.5 182.098 31.5V25.5C180.176 25.5 178.64 24.8618 177.313 23.5349L173.07 27.7776ZM216.629 35V38H219.629V35H216.629ZM210.129 35H207.129V38H210.129V35ZM210.129 2.5V-0.5H207.129V2.5H210.129ZM216.629 2.5H219.629V-0.5H216.629V2.5ZM216.629 32H210.129V38H216.629V32ZM213.129 35V2.5H207.129V35H213.129ZM210.129 5.5H216.629V-0.5H210.129V5.5ZM213.629 2.5V35H219.629V2.5H213.629ZM218.254 35L215.545 33.7102L213.503 38H218.254V35ZM234.504 0.875L237.212 -0.414801L234.504 -6.10282L231.795 -0.414801L234.504 0.875ZM250.754 35V38H255.505L253.462 33.7102L250.754 35ZM243.441 35L240.735 36.2944L241.551 38H243.441V35ZM234.504 16.3125L237.21 15.0181L234.504 9.35929L231.798 15.0181L234.504 16.3125ZM225.566 35V38H227.457L228.273 36.2944L225.566 35ZM220.962 36.2898L237.212 2.1648L231.795 -0.414801L215.545 33.7102L220.962 36.2898ZM231.795 2.1648L248.045 36.2898L253.462 33.7102L237.212 -0.414801L231.795 2.1648ZM250.754 32H243.441V38H250.754V32ZM246.148 33.7056L237.21 15.0181L231.798 17.6069L240.735 36.2944L246.148 33.7056ZM231.798 15.0181L222.86 33.7056L228.273 36.2944L237.21 17.6069L231.798 15.0181ZM225.566 32H218.254V38H225.566V32ZM258.879 28.5H255.879V31.5H258.879V28.5ZM284.879 28.5H287.879V25.5H284.879V28.5ZM284.879 35V38H287.879V35H284.879ZM252.379 35H249.379V38H252.379V35ZM252.379 2.5V-0.5H249.379V2.5H252.379ZM258.879 2.5H261.879V-0.5H258.879V2.5ZM258.879 31.5H284.879V25.5H258.879V31.5ZM281.879 28.5V35H287.879V28.5H281.879ZM284.879 32H252.379V38H284.879V32ZM255.379 35V2.5H249.379V35H255.379ZM252.379 5.5H258.879V-0.5H252.379V5.5ZM255.879 2.5V28.5H261.879V2.5H255.879ZM6.75 96V99H9.75V96H6.75ZM0.25 96H-2.75V99H0.25V96ZM0.25 63.5V60.5H-2.75V63.5H0.25ZM6.75 63.5H9.75V60.5H6.75V63.5ZM6.75 93H0.25V99H6.75V93ZM3.25 96V63.5H-2.75V96H3.25ZM0.25 66.5H6.75V60.5H0.25V66.5ZM3.75 63.5V96H9.75V63.5H3.75ZM20.5117 73.25L22.7895 71.2976L17.5117 65.1402V73.25H20.5117ZM20.5117 109V112H23.5117V109H20.5117ZM14.0117 109H11.0117V112H14.0117V109ZM14.0117 63.5V60.5H11.0117V63.5H14.0117ZM20.5117 63.5L22.7895 61.5476L21.8915 60.5H20.5117V63.5ZM40.0117 86.25L37.7339 88.2024L43.0117 94.3598V86.25H40.0117ZM40.0117 47.25V44.25H37.0117V47.25H40.0117ZM46.5117 47.25H49.5117V44.25H46.5117V47.25ZM46.5117 96V99H49.5117V96H46.5117ZM40.0117 96L37.7339 97.9524L38.6319 99H40.0117V96ZM17.5117 73.25V109H23.5117V73.25H17.5117ZM20.5117 106H14.0117V112H20.5117V106ZM17.0117 109V63.5H11.0117V109H17.0117ZM14.0117 66.5H20.5117V60.5H14.0117V66.5ZM18.2339 65.4524L37.7339 88.2024L42.2895 84.2976L22.7895 61.5476L18.2339 65.4524ZM43.0117 86.25V47.25H37.0117V86.25H43.0117ZM40.0117 50.25H46.5117V44.25H40.0117V50.25ZM43.5117 47.25V96H49.5117V47.25H43.5117ZM46.5117 93H40.0117V99H46.5117V93ZM42.2895 94.0476L22.7895 71.2976L18.2339 75.2024L37.7339 97.9524L42.2895 94.0476ZM69.6172 70V67H66.6172V70H69.6172ZM69.6172 109V112H72.6172V109H69.6172ZM63.1172 109H60.1172V112H63.1172V109ZM63.1172 70H66.1172V67H63.1172V70ZM50.1172 70H47.1172V73H50.1172V70ZM50.1172 63.5V60.5H47.1172V63.5H50.1172ZM82.6172 63.5H85.6172V60.5H82.6172V63.5ZM82.6172 70V73H85.6172V70H82.6172ZM66.6172 70V109H72.6172V70H66.6172ZM69.6172 106H63.1172V112H69.6172V106ZM66.1172 109V70H60.1172V109H66.1172ZM63.1172 67H50.1172V73H63.1172V67ZM53.1172 70V63.5H47.1172V70H53.1172ZM50.1172 66.5H82.6172V60.5H50.1172V66.5ZM79.6172 63.5V70H85.6172V63.5H79.6172ZM82.6172 67H69.6172V73H82.6172V67ZM138.223 83V86H141.223V83H138.223ZM100.848 83H97.8477V86H100.848V83ZM100.848 76.5V73.5H97.8477V76.5H100.848ZM138.223 76.5H141.223V73.5H138.223V76.5ZM118.723 63.5H121.723V60.5H118.723V63.5ZM118.723 70V73H121.723V70H118.723ZM92.7227 70V67H89.7227V70H92.7227ZM92.7227 89.5H89.7227V92.5H92.7227V89.5ZM118.723 89.5H121.723V86.5H118.723V89.5ZM118.723 96V99H121.723V96H118.723ZM86.2227 96H83.2227V99H86.2227V96ZM86.2227 63.5V60.5H83.2227V63.5H86.2227ZM138.223 80H100.848V86H138.223V80ZM103.848 83V76.5H97.8477V83H103.848ZM100.848 79.5H138.223V73.5H100.848V79.5ZM135.223 76.5V83H141.223V76.5H135.223ZM115.723 63.5V70H121.723V63.5H115.723ZM118.723 67H92.7227V73H118.723V67ZM89.7227 70V89.5H95.7227V70H89.7227ZM92.7227 92.5H118.723V86.5H92.7227V92.5ZM115.723 89.5V96H121.723V89.5H115.723ZM118.723 93H86.2227V99H118.723V93ZM89.2227 96V63.5H83.2227V96H89.2227ZM86.2227 66.5H118.723V60.5H86.2227V66.5ZM148.277 89.5H145.277V92.5H148.277V89.5ZM174.277 89.5H177.277V86.5H174.277V89.5ZM174.277 96V99H177.277V96H174.277ZM141.777 96H138.777V99H141.777V96ZM141.777 63.5V60.5H138.777V63.5H141.777ZM148.277 63.5H151.277V60.5H148.277V63.5ZM148.277 92.5H174.277V86.5H148.277V92.5ZM171.277 89.5V96H177.277V89.5H171.277ZM174.277 93H141.777V99H174.277V93ZM144.777 96V63.5H138.777V96H144.777ZM141.777 66.5H148.277V60.5H141.777V66.5ZM145.277 63.5V89.5H151.277V63.5H145.277ZM184.383 89.5H181.383V92.5H184.383V89.5ZM210.383 89.5H213.383V86.5H210.383V89.5ZM210.383 96V99H213.383V96H210.383ZM177.883 96H174.883V99H177.883V96ZM177.883 63.5V60.5H174.883V63.5H177.883ZM184.383 63.5H187.383V60.5H184.383V63.5ZM184.383 92.5H210.383V86.5H184.383V92.5ZM207.383 89.5V96H213.383V89.5H207.383ZM210.383 93H177.883V99H210.383V93ZM180.883 96V63.5H174.883V96H180.883ZM177.883 66.5H184.383V60.5H177.883V66.5ZM181.383 63.5V89.5H187.383V63.5H181.383ZM220.488 96V99H223.488V96H220.488ZM213.988 96H210.988V99H213.988V96ZM213.988 63.5V60.5H210.988V63.5H213.988ZM220.488 63.5H223.488V60.5H220.488V63.5ZM220.488 93H213.988V99H220.488V93ZM216.988 96V63.5H210.988V96H216.988ZM213.988 66.5H220.488V60.5H213.988V66.5ZM217.488 63.5V96H223.488V63.5H217.488ZM266.496 63.5L269.179 64.8416L271.35 60.5H266.496V63.5ZM263.246 70V73H265.1L265.929 71.3416L263.246 70ZM257.102 89.5V92.5H262.196L259.725 88.0448L257.102 89.5ZM253.496 83L256.12 81.5448L255.263 80H253.496V83ZM240.496 83H237.496V86H240.496V83ZM240.496 76.5V73.5H237.496V76.5H240.496ZM256.746 76.5L259.38 75.0634L258.527 73.5H256.746V76.5ZM276.246 112.25V115.25H281.3L278.88 110.813L276.246 112.25ZM269.746 112.25L267.124 113.708L267.982 115.25H269.746V112.25ZM260.707 96L263.329 94.5417L262.471 93H260.707V96ZM228.969 91.2773L226.836 93.3873L226.847 93.3987L226.859 93.41L228.969 91.2773ZM228.969 68.2734L226.847 66.1521L228.969 68.2734ZM240.496 66.5H266.496V60.5H240.496V66.5ZM263.813 62.1584L260.563 68.6584L265.929 71.3416L269.179 64.8416L263.813 62.1584ZM263.246 67H240.496V73H263.246V67ZM240.496 67C237.001 67 233.933 68.2576 231.469 70.7224L235.711 74.9651C237.038 73.6382 238.574 73 240.496 73V67ZM231.469 70.7224C229.004 73.1873 227.746 76.2551 227.746 79.75H233.746C233.746 77.8282 234.384 76.2919 235.711 74.9651L231.469 70.7224ZM227.746 79.75C227.746 83.2449 229.004 86.3127 231.469 88.7776L235.711 84.5349C234.384 83.2081 233.746 81.6718 233.746 79.75H227.746ZM231.469 88.7776C233.933 91.2424 237.001 92.5 240.496 92.5V86.5C238.574 86.5 237.038 85.8618 235.711 84.5349L231.469 88.7776ZM240.496 92.5H257.102V86.5H240.496V92.5ZM259.725 88.0448L256.12 81.5448L250.873 84.4552L254.478 90.9552L259.725 88.0448ZM253.496 80H240.496V86H253.496V80ZM243.496 83V76.5H237.496V83H243.496ZM240.496 79.5H256.746V73.5H240.496V79.5ZM254.112 77.9366L273.612 113.687L278.88 110.813L259.38 75.0634L254.112 77.9366ZM276.246 109.25H269.746V115.25H276.246V109.25ZM272.368 110.792L263.329 94.5417L258.085 97.4583L267.124 113.708L272.368 110.792ZM260.707 93H240.496V99H260.707V93ZM240.496 93C236.778 93 233.696 91.7338 231.079 89.1447L226.859 93.41C230.606 97.1177 235.209 99 240.496 99V93ZM231.101 89.1674C228.512 86.5504 227.246 83.4677 227.246 79.75H221.246C221.246 85.0375 223.128 89.6397 226.836 93.3873L231.101 89.1674ZM227.246 79.75C227.246 76.033 228.511 72.9735 231.09 70.3948L226.847 66.1521C223.129 69.8702 221.246 74.4618 221.246 79.75H227.246ZM231.09 70.3948C233.709 67.7754 236.789 66.5 240.496 66.5V60.5C235.198 60.5 230.593 62.4069 226.847 66.1521L231.09 70.3948ZM321.848 83V86H324.848V83H321.848ZM284.473 83H281.473V86H284.473V83ZM284.473 76.5V73.5H281.473V76.5H284.473ZM321.848 76.5H324.848V73.5H321.848V76.5ZM302.348 63.5H305.348V60.5H302.348V63.5ZM302.348 70V73H305.348V70H302.348ZM276.348 70V67H273.348V70H276.348ZM276.348 89.5H273.348V92.5H276.348V89.5ZM302.348 89.5H305.348V86.5H302.348V89.5ZM302.348 96V99H305.348V96H302.348ZM269.848 96H266.848V99H269.848V96ZM269.848 63.5V60.5H266.848V63.5H269.848ZM321.848 80H284.473V86H321.848V80ZM287.473 83V76.5H281.473V83H287.473ZM284.473 79.5H321.848V73.5H284.473V79.5ZM318.848 76.5V83H324.848V76.5H318.848ZM299.348 63.5V70H305.348V63.5H299.348ZM302.348 67H276.348V73H302.348V67ZM273.348 70V89.5H279.348V70H273.348ZM276.348 92.5H302.348V86.5H276.348V92.5ZM299.348 89.5V96H305.348V89.5H299.348ZM302.348 93H269.848V99H302.348V93ZM272.848 96V63.5H266.848V96H272.848ZM269.848 66.5H302.348V60.5H269.848V66.5ZM331.902 73.25L334.18 71.2976L328.902 65.1402V73.25H331.902ZM331.902 109V112H334.902V109H331.902ZM325.402 109H322.402V112H325.402V109ZM325.402 63.5V60.5H322.402V63.5H325.402ZM331.902 63.5L334.18 61.5476L333.282 60.5H331.902V63.5ZM351.402 86.25L349.125 88.2024L354.402 94.3598V86.25H351.402ZM351.402 47.25V44.25H348.402V47.25H351.402ZM357.902 47.25H360.902V44.25H357.902V47.25ZM357.902 96V99H360.902V96H357.902ZM351.402 96L349.125 97.9524L350.023 99H351.402V96ZM328.902 73.25V109H334.902V73.25H328.902ZM331.902 106H325.402V112H331.902V106ZM328.402 109V63.5H322.402V109H328.402ZM325.402 66.5H331.902V60.5H325.402V66.5ZM329.625 65.4524L349.125 88.2024L353.68 84.2976L334.18 61.5476L329.625 65.4524ZM354.402 86.25V47.25H348.402V86.25H354.402ZM351.402 50.25H357.902V44.25H351.402V50.25ZM354.902 47.25V96H360.902V47.25H354.902ZM357.902 93H351.402V99H357.902V93ZM353.68 94.0476L334.18 71.2976L329.625 75.2024L349.125 97.9524L353.68 94.0476ZM400.66 89.5H403.66V86.5H400.66V89.5ZM400.66 96V99H403.66V96H400.66ZM366.383 91.2773L364.25 93.3873L364.261 93.3987L364.273 93.41L366.383 91.2773ZM366.383 68.2734L364.262 66.1521L366.383 68.2734ZM403.91 63.5L406.593 64.8416L408.764 60.5H403.91V63.5ZM400.66 70V73H402.514L403.343 71.3416L400.66 70ZM377.91 92.5H400.66V86.5H377.91V92.5ZM397.66 89.5V96H403.66V89.5H397.66ZM400.66 93H377.91V99H400.66V93ZM377.91 93C374.192 93 371.11 91.7338 368.493 89.1447L364.273 93.41C368.02 97.1177 372.623 99 377.91 99V93ZM368.515 89.1674C365.926 86.5504 364.66 83.4677 364.66 79.75H358.66C358.66 85.0375 360.542 89.6397 364.25 93.3873L368.515 89.1674ZM364.66 79.75C364.66 76.033 365.925 72.9735 368.504 70.3948L364.262 66.1521C360.543 69.8702 358.66 74.4618 358.66 79.75H364.66ZM368.504 70.3948C371.124 67.7754 374.203 66.5 377.91 66.5V60.5C372.612 60.5 368.007 62.4069 364.262 66.1521L368.504 70.3948ZM377.91 66.5H403.91V60.5H377.91V66.5ZM401.227 62.1584L397.977 68.6584L403.343 71.3416L406.593 64.8416L401.227 62.1584ZM400.66 67H377.91V73H400.66V67ZM377.91 67C374.415 67 371.347 68.2576 368.883 70.7224L373.125 74.9651C374.452 73.6382 375.988 73 377.91 73V67ZM368.883 70.7224C366.418 73.1873 365.16 76.2551 365.16 79.75H371.16C371.16 77.8282 371.798 76.2919 373.125 74.9651L368.883 70.7224ZM365.16 79.75C365.16 83.2449 366.418 86.3127 368.883 88.7776L373.125 84.5349C371.798 83.2081 371.16 81.6718 371.16 79.75H365.16ZM368.883 88.7776C371.347 91.2424 374.415 92.5 377.91 92.5V86.5C375.988 86.5 374.452 85.8618 373.125 84.5349L368.883 88.7776ZM457.941 83V86H460.941V83H457.941ZM420.566 83H417.566V86H420.566V83ZM420.566 76.5V73.5H417.566V76.5H420.566ZM457.941 76.5H460.941V73.5H457.941V76.5ZM438.441 63.5H441.441V60.5H438.441V63.5ZM438.441 70V73H441.441V70H438.441ZM412.441 70V67H409.441V70H412.441ZM412.441 89.5H409.441V92.5H412.441V89.5ZM438.441 89.5H441.441V86.5H438.441V89.5ZM438.441 96V99H441.441V96H438.441ZM405.941 96H402.941V99H405.941V96ZM405.941 63.5V60.5H402.941V63.5H405.941ZM457.941 80H420.566V86H457.941V80ZM423.566 83V76.5H417.566V83H423.566ZM420.566 79.5H457.941V73.5H420.566V79.5ZM454.941 76.5V83H460.941V76.5H454.941ZM435.441 63.5V70H441.441V63.5H435.441ZM438.441 67H412.441V73H438.441V67ZM409.441 70V89.5H415.441V70H409.441ZM412.441 92.5H438.441V86.5H412.441V92.5ZM435.441 89.5V96H441.441V89.5H435.441ZM438.441 93H405.941V99H438.441V93ZM408.941 96V63.5H402.941V96H408.941ZM405.941 66.5H438.441V60.5H405.941V66.5Z" fill="black" mask="url(#path-1-outside-1_58_267)"/>
</svg>
