<svg width="600" height="170" viewBox="0 0 600 170" fill="none" xmlns="http://www.w3.org/2000/svg">
<path d="M67.9585 56L78.896 33.0312L89.8335 56H84.9116L78.896 43.4219L72.8804 56H67.9585ZM95.3022 51.625H112.802V56H90.9272V34.125H95.3022V51.625ZM119.604 51.625H137.104V56H115.229V34.125H119.604V51.625ZM174.292 56H158.979V34.125H174.292C176.114 34.125 177.664 34.763 178.94 36.0391C180.216 37.3151 180.854 38.8646 180.854 40.6875C180.854 42.3737 180.307 43.832 179.213 45.0625C180.307 46.293 180.854 47.7513 180.854 49.4375C180.854 51.2604 180.216 52.8099 178.94 54.0859C177.664 55.362 176.114 56 174.292 56ZM163.354 51.625H174.292C174.907 51.625 175.419 51.4199 175.83 51.0098C176.263 50.5768 176.479 50.0527 176.479 49.4375C176.479 48.8223 176.263 48.3096 175.83 47.8994C175.419 47.4665 174.907 47.25 174.292 47.25H168.823V42.875H174.292C174.907 42.875 175.419 42.6699 175.83 42.2598C176.263 41.8268 176.479 41.3027 176.479 40.6875C176.479 40.0723 176.263 39.5596 175.83 39.1494C175.419 38.7165 174.907 38.5 174.292 38.5H163.354V51.625ZM218.93 47.25H193.774V42.875H218.93V47.25ZM205.805 34.125V38.5H188.305V51.625H205.805V56H183.93V34.125H205.805ZM232.055 34.125H249.555L247.368 38.5H232.055C230.232 38.5 228.683 39.138 227.407 40.4141C226.131 41.6901 225.493 43.2396 225.493 45.0625C225.493 46.8854 226.131 48.4349 227.407 49.7109C228.683 50.987 230.232 51.625 232.055 51.625H243.232L240.805 47.25H232.055V42.875H242.993L256.118 66.9375H251.743L245.659 56H232.055C229.025 56 226.438 54.9404 224.296 52.8213C222.177 50.6794 221.118 48.0931 221.118 45.0625C221.118 42.0319 222.177 39.457 224.296 37.3379C226.438 35.196 229.025 34.125 232.055 34.125ZM256.186 56H251.811V34.125H256.186V56ZM265.449 40.6875V64.75H261.074V34.125H265.449L278.574 49.4375V23.1875H282.949V56H278.574L265.449 40.6875ZM292.211 40.6875V64.75H287.836V34.125H292.211L305.336 49.4375V23.1875H309.711V56H305.336L292.211 40.6875ZM349.565 47.25H324.409V42.875H349.565V47.25ZM336.44 34.125V38.5H318.94V51.625H336.44V56H314.565V34.125H336.44ZM356.333 56H351.958V34.125H367.27C369.093 34.125 370.642 34.763 371.918 36.0391C373.194 37.3151 373.833 38.8646 373.833 40.6875C373.833 42.5104 373.194 44.0599 371.918 45.3359C370.642 46.612 369.093 47.25 367.27 47.25H366.313L376.02 64.75H371.645L359.614 42.875H367.27C367.885 42.875 368.398 42.6699 368.808 42.2598C369.241 41.8268 369.458 41.3027 369.458 40.6875C369.458 40.0723 369.241 39.5596 368.808 39.1494C368.398 38.7165 367.885 38.5 367.27 38.5H356.333V56ZM398.715 56H372.465V51.625H398.715C399.331 51.625 399.843 51.4199 400.253 51.0098C400.686 50.5768 400.903 50.0527 400.903 49.4375C400.903 48.8223 400.686 48.3096 400.253 47.8994C399.843 47.4665 399.331 47.25 398.715 47.25H389.965C388.142 47.25 386.593 46.612 385.317 45.3359C384.041 44.0599 383.403 42.5104 383.403 40.6875C383.403 38.8646 384.041 37.3151 385.317 36.0391C386.593 34.763 388.142 34.125 389.965 34.125H403.09V38.5H389.965C389.35 38.5 388.826 38.7165 388.393 39.1494C387.983 39.5596 387.778 40.0723 387.778 40.6875C387.778 41.3027 387.983 41.8268 388.393 42.2598C388.826 42.6699 389.35 42.875 389.965 42.875H398.715C400.538 42.875 402.088 43.513 403.364 44.7891C404.64 46.0651 405.278 47.6146 405.278 49.4375C405.278 51.2604 404.64 52.8099 403.364 54.0859C402.088 55.362 400.538 56 398.715 56ZM440.278 38.5V64.75H435.903V38.5H427.153V34.125H449.028V38.5H440.278ZM486.455 47.25H461.298V42.875H486.455V47.25ZM473.33 34.125V38.5H455.83V51.625H473.33V56H451.455V34.125H473.33ZM483.618 56L494.555 33.0312L505.493 56H500.571L494.555 43.4219L488.54 56H483.618ZM511.167 42.875V64.75H506.792V34.125H511.167L519.917 50.5312L528.667 34.125H533.042V56H528.667V42.875L522.104 56H517.729L511.167 42.875Z" fill="white"/>
<g filter="url(#filter0_f_131_23)">
<ellipse cx="300" cy="85" rx="255" ry="40" fill="black"/>
</g>
<path d="M234.525 107L226.965 93.8V92.04H227.845C229.258 92.04 230.445 91.9067 231.405 91.64C232.391 91.3733 233.165 90.9333 233.725 90.32C234.285 89.7067 234.618 88.8667 234.725 87.8H226.965V85.24H234.685C234.498 84.2533 234.125 83.4533 233.565 82.84C233.005 82.2 232.245 81.7333 231.285 81.44C230.351 81.1467 229.205 81 227.845 81H226.965V78.44H243.525V81H235.965C236.578 81.5067 237.085 82.1067 237.485 82.8C237.885 83.4933 238.138 84.3067 238.245 85.24H243.525V87.8H238.325C238.138 89.7467 237.391 91.2667 236.085 92.36C234.805 93.4267 233.098 94.1067 230.965 94.4L238.605 107H234.525ZM286.695 102V107H249.195V99.5C249.195 97.4167 249.924 95.6458 251.383 94.1875C252.841 92.7292 254.612 92 256.695 92H266.695C267.398 92 267.984 91.7656 268.453 91.2969C268.948 90.8021 269.195 90.2031 269.195 89.5C269.195 88.7969 268.948 88.2109 268.453 87.7422C267.984 87.2474 267.398 87 266.695 87H251.695V82H266.695C268.779 82 270.549 82.7292 272.008 84.1875C273.466 85.6458 274.195 87.4167 274.195 89.5C274.195 91.5833 273.466 93.3542 272.008 94.8125C270.549 96.2708 268.779 97 266.695 97H256.695C255.992 97 255.393 97.2474 254.898 97.7422C254.43 98.2109 254.195 98.7969 254.195 99.5V102H286.695ZM304.195 107C300.732 107 297.776 105.789 295.328 103.367C292.906 100.919 291.695 97.9635 291.695 94.5C291.695 91.0365 292.906 88.0938 295.328 85.6719C297.776 83.224 300.732 82 304.195 82C307.659 82 310.602 83.224 313.023 85.6719C315.471 88.0938 316.695 91.0365 316.695 94.5C316.695 97.9635 315.471 100.919 313.023 103.367C310.602 105.789 307.659 107 304.195 107ZM304.195 102C306.279 102 308.049 101.271 309.508 99.8125C310.966 98.3542 311.695 96.5833 311.695 94.5C311.695 92.4167 310.966 90.6458 309.508 89.1875C308.049 87.7292 306.279 87 304.195 87C302.112 87 300.341 87.7292 298.883 89.1875C297.424 90.6458 296.695 92.4167 296.695 94.5C296.695 96.5833 297.424 98.3542 298.883 99.8125C300.341 101.271 302.112 102 304.195 102ZM334.195 107C330.732 107 327.776 105.789 325.328 103.367C322.906 100.919 321.695 97.9635 321.695 94.5C321.695 91.0365 322.906 88.0938 325.328 85.6719C327.776 83.224 330.732 82 334.195 82C337.659 82 340.602 83.224 343.023 85.6719C345.471 88.0938 346.695 91.0365 346.695 94.5C346.695 97.9635 345.471 100.919 343.023 103.367C340.602 105.789 337.659 107 334.195 107ZM334.195 102C336.279 102 338.049 101.271 339.508 99.8125C340.966 98.3542 341.695 96.5833 341.695 94.5C341.695 92.4167 340.966 90.6458 339.508 89.1875C338.049 87.7292 336.279 87 334.195 87C332.112 87 330.341 87.7292 328.883 89.1875C327.424 90.6458 326.695 92.4167 326.695 94.5C326.695 96.5833 327.424 98.3542 328.883 99.8125C330.341 101.271 332.112 102 334.195 102ZM364.195 107C360.732 107 357.776 105.789 355.328 103.367C352.906 100.919 351.695 97.9635 351.695 94.5C351.695 91.0365 352.906 88.0938 355.328 85.6719C357.776 83.224 360.732 82 364.195 82C367.659 82 370.602 83.224 373.023 85.6719C375.471 88.0938 376.695 91.0365 376.695 94.5C376.695 97.9635 375.471 100.919 373.023 103.367C370.602 105.789 367.659 107 364.195 107ZM364.195 102C366.279 102 368.049 101.271 369.508 99.8125C370.966 98.3542 371.695 96.5833 371.695 94.5C371.695 92.4167 370.966 90.6458 369.508 89.1875C368.049 87.7292 366.279 87 364.195 87C362.112 87 360.341 87.7292 358.883 89.1875C357.424 90.6458 356.695 92.4167 356.695 94.5C356.695 96.5833 357.424 98.3542 358.883 99.8125C360.341 101.271 362.112 102 364.195 102Z" fill="#F44878"/>
<defs>
<filter id="filter0_f_131_23" x="0" y="0" width="600" height="170" filterUnits="userSpaceOnUse" color-interpolation-filters="sRGB">
<feFlood flood-opacity="0" result="BackgroundImageFix"/>
<feBlend mode="normal" in="SourceGraphic" in2="BackgroundImageFix" result="shape"/>
<feGaussianBlur stdDeviation="22.5" result="effect1_foregroundBlur_131_23"/>
</filter>
</defs>
</svg>
