<svg width="1213" height="75" viewBox="0 0 1213 75" fill="none" xmlns="http://www.w3.org/2000/svg">
<path d="M20.2852 51.25H47.4102V59H20.2852C14.9167 59 10.3353 57.123 6.54102 53.3691C2.78711 49.5749 0.910156 44.9935 0.910156 39.625C0.910156 34.2565 2.78711 29.6953 6.54102 25.9414C10.3353 22.1471 14.9167 20.25 20.2852 20.25H51.2852L47.4102 28H20.2852C17.056 28 14.3112 29.1302 12.0508 31.3906C9.79036 33.651 8.66016 36.3958 8.66016 39.625C8.66016 42.8542 9.79036 45.599 12.0508 47.8594C14.3112 50.1198 17.056 51.25 20.2852 51.25ZM49.3477 59L68.7227 18.3125L88.0977 59H79.3789L68.7227 36.7188L58.0664 59H49.3477ZM97.7852 51.25H128.785V59H90.0352V20.25H97.7852V51.25ZM140.834 51.25H171.834V59H133.084V20.25H140.834V51.25ZM249.334 43.5H228.021V35.75H249.334V43.5ZM210.584 20.25H249.334V28H218.334V74.5H210.584V20.25ZM272.281 59C266.913 59 262.331 57.123 258.537 53.3691C254.783 49.5749 252.906 44.9935 252.906 39.625C252.906 34.2565 254.783 29.6953 258.537 25.9414C262.331 22.1471 266.913 20.25 272.281 20.25C277.65 20.25 282.211 22.1471 285.965 25.9414C289.759 29.6953 291.656 34.2565 291.656 39.625C291.656 44.9935 289.759 49.5749 285.965 53.3691C282.211 57.123 277.65 59 272.281 59ZM272.281 51.25C275.51 51.25 278.255 50.1198 280.516 47.8594C282.776 45.599 283.906 42.8542 283.906 39.625C283.906 36.3958 282.776 33.651 280.516 31.3906C278.255 29.1302 275.51 28 272.281 28C269.052 28 266.307 29.1302 264.047 31.3906C261.786 33.651 260.656 36.3958 260.656 39.625C260.656 42.8542 261.786 45.599 264.047 47.8594C266.307 50.1198 269.052 51.25 272.281 51.25ZM303.887 59H296.137V20.25H323.262C326.491 20.25 329.236 21.3802 331.496 23.6406C333.757 25.901 334.887 28.6458 334.887 31.875C334.887 35.1042 333.757 37.849 331.496 40.1094C329.236 42.3698 326.491 43.5 323.262 43.5H321.566L338.762 74.5H331.012L309.699 35.75H323.262C324.352 35.75 325.26 35.3867 325.986 34.6602C326.753 33.8932 327.137 32.9648 327.137 31.875C327.137 30.7852 326.753 29.877 325.986 29.1504C325.26 28.3835 324.352 28 323.262 28H303.887V59ZM396.887 51.25H416.262V59H396.887C391.518 59 386.937 57.123 383.143 53.3691C379.389 49.5749 377.512 44.9935 377.512 39.625C377.512 34.2565 379.389 29.6953 383.143 25.9414C386.937 22.1471 391.518 20.25 396.887 20.25H416.262V28H396.887C393.658 28 390.913 29.1302 388.652 31.3906C386.392 33.651 385.262 36.3958 385.262 39.625C385.262 42.8542 386.392 45.599 388.652 47.8594C390.913 50.1198 393.658 51.25 396.887 51.25ZM418.199 59L437.574 18.3125L456.949 59H448.23L437.574 36.7188L426.918 59H418.199ZM467 35.75V74.5H459.25V20.25H467L482.5 49.3125L498 20.25H505.75V59H498V35.75L486.375 59H478.625L467 35.75ZM522.158 74.5H514.408V20.25H541.533C544.762 20.25 547.507 21.3802 549.768 23.6406C552.028 25.901 553.158 28.6458 553.158 31.875C553.158 35.1042 552.028 37.849 549.768 40.1094C547.507 42.3698 544.762 43.5 541.533 43.5H531.846V35.75H541.533C542.623 35.75 543.531 35.3867 544.258 34.6602C545.025 33.8932 545.408 32.9648 545.408 31.875C545.408 30.7852 545.025 29.877 544.258 29.1504C543.531 28.3835 542.623 28 541.533 28H522.158V74.5ZM556.912 39.625V20.25H564.662V39.625C564.662 42.8542 565.792 45.599 568.053 47.8594C570.313 50.1198 573.058 51.25 576.287 51.25C579.516 51.25 582.261 50.1198 584.521 47.8594C586.782 45.599 587.912 42.8542 587.912 39.625V0.875H595.662V39.625C595.662 44.9935 593.765 49.5749 589.971 53.3691C586.217 57.123 581.656 59 576.287 59C570.919 59 566.337 57.123 562.543 53.3691C558.789 49.5749 556.912 44.9935 556.912 39.625ZM640.527 59H594.027V51.25H640.527C641.617 51.25 642.525 50.8867 643.252 50.1602C644.019 49.3932 644.402 48.4648 644.402 47.375C644.402 46.2852 644.019 45.377 643.252 44.6504C642.525 43.8835 641.617 43.5 640.527 43.5H625.027C621.798 43.5 619.053 42.3698 616.793 40.1094C614.533 37.849 613.402 35.1042 613.402 31.875C613.402 28.6458 614.533 25.901 616.793 23.6406C619.053 21.3802 621.798 20.25 625.027 20.25H648.277V28H625.027C623.938 28 623.009 28.3835 622.242 29.1504C621.516 29.877 621.152 30.7852 621.152 31.875C621.152 32.9648 621.516 33.8932 622.242 34.6602C623.009 35.3867 623.938 35.75 625.027 35.75H640.527C643.757 35.75 646.501 36.8802 648.762 39.1406C651.022 41.401 652.152 44.1458 652.152 47.375C652.152 50.6042 651.022 53.349 648.762 55.6094C646.501 57.8698 643.757 59 640.527 59ZM690.902 59L710.277 18.3125L729.652 59H720.934L710.277 36.7188L699.621 59H690.902ZM739.703 35.75V74.5H731.953V20.25H739.703L755.203 49.3125L770.703 20.25H778.453V59H770.703V35.75L759.078 59H751.328L739.703 35.75ZM814.176 59H787.051V20.25H814.176C817.405 20.25 820.15 21.3802 822.41 23.6406C824.671 25.901 825.801 28.6458 825.801 31.875C825.801 34.862 824.832 37.4453 822.895 39.625C824.832 41.8047 825.801 44.388 825.801 47.375C825.801 50.6042 824.671 53.349 822.41 55.6094C820.15 57.8698 817.405 59 814.176 59ZM794.801 51.25H814.176C815.266 51.25 816.174 50.8867 816.9 50.1602C817.667 49.3932 818.051 48.4648 818.051 47.375C818.051 46.2852 817.667 45.377 816.9 44.6504C816.174 43.8835 815.266 43.5 814.176 43.5H804.488V35.75H814.176C815.266 35.75 816.174 35.3867 816.9 34.6602C817.667 33.8932 818.051 32.9648 818.051 31.875C818.051 30.7852 817.667 29.877 816.9 29.1504C816.174 28.3835 815.266 28 814.176 28H794.801V51.25ZM825.377 59L844.752 18.3125L864.127 59H855.408L844.752 36.7188L834.096 59H825.377ZM912.564 59H866.064V51.25H912.564C913.654 51.25 914.562 50.8867 915.289 50.1602C916.056 49.3932 916.439 48.4648 916.439 47.375C916.439 46.2852 916.056 45.377 915.289 44.6504C914.562 43.8835 913.654 43.5 912.564 43.5H897.064C893.835 43.5 891.09 42.3698 888.83 40.1094C886.57 37.849 885.439 35.1042 885.439 31.875C885.439 28.6458 886.57 25.901 888.83 23.6406C891.09 21.3802 893.835 20.25 897.064 20.25H920.314V28H897.064C895.975 28 895.046 28.3835 894.279 29.1504C893.553 29.877 893.189 30.7852 893.189 31.875C893.189 32.9648 893.553 33.8932 894.279 34.6602C895.046 35.3867 895.975 35.75 897.064 35.75H912.564C915.794 35.75 918.538 36.8802 920.799 39.1406C923.059 41.401 924.189 44.1458 924.189 47.375C924.189 50.6042 923.059 53.349 920.799 55.6094C918.538 57.8698 915.794 59 912.564 59ZM972.385 59H925.885V51.25H972.385C973.475 51.25 974.383 50.8867 975.109 50.1602C975.876 49.3932 976.26 48.4648 976.26 47.375C976.26 46.2852 975.876 45.377 975.109 44.6504C974.383 43.8835 973.475 43.5 972.385 43.5H956.885C953.656 43.5 950.911 42.3698 948.65 40.1094C946.39 37.849 945.26 35.1042 945.26 31.875C945.26 28.6458 946.39 25.901 948.65 23.6406C950.911 21.3802 953.656 20.25 956.885 20.25H980.135V28H956.885C955.795 28 954.867 28.3835 954.1 29.1504C953.373 29.877 953.01 30.7852 953.01 31.875C953.01 32.9648 953.373 33.8932 954.1 34.6602C954.867 35.3867 955.795 35.75 956.885 35.75H972.385C975.614 35.75 978.359 36.8802 980.619 39.1406C982.88 41.401 984.01 44.1458 984.01 47.375C984.01 50.6042 982.88 53.349 980.619 55.6094C978.359 57.8698 975.614 59 972.385 59ZM983.586 59L1002.96 18.3125L1022.34 59H1013.62L1002.96 36.7188L992.305 59H983.586ZM1051.4 59H1024.27V20.25H1051.4C1056.77 20.25 1061.33 22.1471 1065.08 25.9414C1068.88 29.6953 1070.77 34.2565 1070.77 39.625C1070.77 44.9935 1068.88 49.5749 1065.08 53.3691C1061.33 57.123 1056.77 59 1051.4 59ZM1032.02 51.25H1051.4C1054.63 51.25 1057.37 50.1198 1059.63 47.8594C1061.89 45.599 1063.02 42.8542 1063.02 39.625C1063.02 36.3958 1061.89 33.651 1059.63 31.3906C1057.37 29.1302 1054.63 28 1051.4 28H1032.02V51.25ZM1093.78 59C1088.41 59 1083.83 57.123 1080.04 53.3691C1076.28 49.5749 1074.41 44.9935 1074.41 39.625C1074.41 34.2565 1076.28 29.6953 1080.04 25.9414C1083.83 22.1471 1088.41 20.25 1093.78 20.25C1099.15 20.25 1103.71 22.1471 1107.46 25.9414C1111.26 29.6953 1113.16 34.2565 1113.16 39.625C1113.16 44.9935 1111.26 49.5749 1107.46 53.3691C1103.71 57.123 1099.15 59 1093.78 59ZM1093.78 51.25C1097.01 51.25 1099.76 50.1198 1102.02 47.8594C1104.28 45.599 1105.41 42.8542 1105.41 39.625C1105.41 36.3958 1104.28 33.651 1102.02 31.3906C1099.76 29.1302 1097.01 28 1093.78 28C1090.55 28 1087.81 29.1302 1085.55 31.3906C1083.29 33.651 1082.16 36.3958 1082.16 39.625C1082.16 42.8542 1083.29 45.599 1085.55 47.8594C1087.81 50.1198 1090.55 51.25 1093.78 51.25ZM1125.39 59H1117.64V20.25H1144.76C1147.99 20.25 1150.74 21.3802 1153 23.6406C1155.26 25.901 1156.39 28.6458 1156.39 31.875C1156.39 35.1042 1155.26 37.849 1153 40.1094C1150.74 42.3698 1147.99 43.5 1144.76 43.5H1143.07L1160.26 74.5H1152.51L1131.2 35.75H1144.76C1145.85 35.75 1146.76 35.3867 1147.49 34.6602C1148.25 33.8932 1148.64 32.9648 1148.64 31.875C1148.64 30.7852 1148.25 29.877 1147.49 29.1504C1146.76 28.3835 1145.85 28 1144.76 28H1125.39V59ZM1200.46 59H1153.96V51.25H1200.46C1201.55 51.25 1202.46 50.8867 1203.19 50.1602C1203.96 49.3932 1204.34 48.4648 1204.34 47.375C1204.34 46.2852 1203.96 45.377 1203.19 44.6504C1202.46 43.8835 1201.55 43.5 1200.46 43.5H1184.96C1181.74 43.5 1178.99 42.3698 1176.73 40.1094C1174.47 37.849 1173.34 35.1042 1173.34 31.875C1173.34 28.6458 1174.47 25.901 1176.73 23.6406C1178.99 21.3802 1181.74 20.25 1184.96 20.25H1208.21V28H1184.96C1183.88 28 1182.95 28.3835 1182.18 29.1504C1181.45 29.877 1181.09 30.7852 1181.09 31.875C1181.09 32.9648 1181.45 33.8932 1182.18 34.6602C1182.95 35.3867 1183.88 35.75 1184.96 35.75H1200.46C1203.69 35.75 1206.44 36.8802 1208.7 39.1406C1210.96 41.401 1212.09 44.1458 1212.09 47.375C1212.09 50.6042 1210.96 53.349 1208.7 55.6094C1206.44 57.8698 1203.69 59 1200.46 59Z" fill="white"/>
</svg>
