<svg width="229" height="33" viewBox="0 0 229 33" fill="none" xmlns="http://www.w3.org/2000/svg">
<mask id="path-1-outside-1_58_289" maskUnits="userSpaceOnUse" x="-3" y="-3" width="235" height="39" fill="black">
<rect fill="white" x="-3" y="-3" width="235" height="39"/>
<path d="M32.75 20H14.875V13.5H32.75V20ZM32.75 0.5V7H6.75V33H0.25V0.5H32.75ZM44.2266 33H37.7266V0.5H44.2266V33ZM57.9375 10.25V33H51.4375V0.5H57.9375L77.4375 23.25V0.5H83.9375V33H77.4375L57.9375 10.25ZM107.043 7V33H100.543V7H87.543V0.5H120.043V7H107.043ZM156.148 20H138.273V13.5H156.148V20ZM156.148 0.5V7H130.148V26.5H156.148V33H123.648V0.5H156.148ZM175.344 26.5H191.594V33H175.344C170.841 33 166.999 31.4258 163.816 28.2773C160.668 25.0951 159.094 21.2526 159.094 16.75C159.094 12.2474 160.668 8.42188 163.816 5.27344C166.999 2.09115 170.841 0.5 175.344 0.5H191.594V7H175.344C172.635 7 170.333 7.94792 168.438 9.84375C166.542 11.7396 165.594 14.0417 165.594 16.75C165.594 19.4583 166.542 21.7604 168.438 23.6562C170.333 25.5521 172.635 26.5 175.344 26.5ZM202.816 20V33H196.316V0.5H202.816V13.5H222.316V0.5H228.816V33H222.316V20H202.816Z"/>
</mask>
<path d="M32.75 20H14.875V13.5H32.75V20ZM32.75 0.5V7H6.75V33H0.25V0.5H32.75ZM44.2266 33H37.7266V0.5H44.2266V33ZM57.9375 10.25V33H51.4375V0.5H57.9375L77.4375 23.25V0.5H83.9375V33H77.4375L57.9375 10.25ZM107.043 7V33H100.543V7H87.543V0.5H120.043V7H107.043ZM156.148 20H138.273V13.5H156.148V20ZM156.148 0.5V7H130.148V26.5H156.148V33H123.648V0.5H156.148ZM175.344 26.5H191.594V33H175.344C170.841 33 166.999 31.4258 163.816 28.2773C160.668 25.0951 159.094 21.2526 159.094 16.75C159.094 12.2474 160.668 8.42188 163.816 5.27344C166.999 2.09115 170.841 0.5 175.344 0.5H191.594V7H175.344C172.635 7 170.333 7.94792 168.438 9.84375C166.542 11.7396 165.594 14.0417 165.594 16.75C165.594 19.4583 166.542 21.7604 168.438 23.6562C170.333 25.5521 172.635 26.5 175.344 26.5ZM202.816 20V33H196.316V0.5H202.816V13.5H222.316V0.5H228.816V33H222.316V20H202.816Z" fill="white"/>
<path d="M32.75 20V23H35.75V20H32.75ZM14.875 20H11.875V23H14.875V20ZM14.875 13.5V10.5H11.875V13.5H14.875ZM32.75 13.5H35.75V10.5H32.75V13.5ZM32.75 0.5H35.75V-2.5H32.75V0.5ZM32.75 7V10H35.75V7H32.75ZM6.75 7V4H3.75V7H6.75ZM6.75 33V36H9.75V33H6.75ZM0.25 33H-2.75V36H0.25V33ZM0.25 0.5V-2.5H-2.75V0.5H0.25ZM32.75 17H14.875V23H32.75V17ZM17.875 20V13.5H11.875V20H17.875ZM14.875 16.5H32.75V10.5H14.875V16.5ZM29.75 13.5V20H35.75V13.5H29.75ZM29.75 0.5V7H35.75V0.5H29.75ZM32.75 4H6.75V10H32.75V4ZM3.75 7V33H9.75V7H3.75ZM6.75 30H0.25V36H6.75V30ZM3.25 33V0.5H-2.75V33H3.25ZM0.25 3.5H32.75V-2.5H0.25V3.5ZM44.2266 33V36H47.2266V33H44.2266ZM37.7266 33H34.7266V36H37.7266V33ZM37.7266 0.5V-2.5H34.7266V0.5H37.7266ZM44.2266 0.5H47.2266V-2.5H44.2266V0.5ZM44.2266 30H37.7266V36H44.2266V30ZM40.7266 33V0.5H34.7266V33H40.7266ZM37.7266 3.5H44.2266V-2.5H37.7266V3.5ZM41.2266 0.5V33H47.2266V0.5H41.2266ZM57.9375 10.25L60.2153 8.29763L54.9375 2.14023V10.25H57.9375ZM57.9375 33V36H60.9375V33H57.9375ZM51.4375 33H48.4375V36H51.4375V33ZM51.4375 0.5V-2.5H48.4375V0.5H51.4375ZM57.9375 0.5L60.2153 -1.45237L59.3173 -2.5H57.9375V0.5ZM77.4375 23.25L75.1597 25.2024L80.4375 31.3598V23.25H77.4375ZM77.4375 0.5V-2.5H74.4375V0.5H77.4375ZM83.9375 0.5H86.9375V-2.5H83.9375V0.5ZM83.9375 33V36H86.9375V33H83.9375ZM77.4375 33L75.1597 34.9524L76.0577 36H77.4375V33ZM54.9375 10.25V33H60.9375V10.25H54.9375ZM57.9375 30H51.4375V36H57.9375V30ZM54.4375 33V0.5H48.4375V33H54.4375ZM51.4375 3.5H57.9375V-2.5H51.4375V3.5ZM55.6597 2.45237L75.1597 25.2024L79.7153 21.2976L60.2153 -1.45237L55.6597 2.45237ZM80.4375 23.25V0.5H74.4375V23.25H80.4375ZM77.4375 3.5H83.9375V-2.5H77.4375V3.5ZM80.9375 0.5V33H86.9375V0.5H80.9375ZM83.9375 30H77.4375V36H83.9375V30ZM79.7153 31.0476L60.2153 8.29763L55.6597 12.2024L75.1597 34.9524L79.7153 31.0476ZM107.043 7V4H104.043V7H107.043ZM107.043 33V36H110.043V33H107.043ZM100.543 33H97.543V36H100.543V33ZM100.543 7H103.543V4H100.543V7ZM87.543 7H84.543V10H87.543V7ZM87.543 0.5V-2.5H84.543V0.5H87.543ZM120.043 0.5H123.043V-2.5H120.043V0.5ZM120.043 7V10H123.043V7H120.043ZM104.043 7V33H110.043V7H104.043ZM107.043 30H100.543V36H107.043V30ZM103.543 33V7H97.543V33H103.543ZM100.543 4H87.543V10H100.543V4ZM90.543 7V0.5H84.543V7H90.543ZM87.543 3.5H120.043V-2.5H87.543V3.5ZM117.043 0.5V7H123.043V0.5H117.043ZM120.043 4H107.043V10H120.043V4ZM156.148 20V23H159.148V20H156.148ZM138.273 20H135.273V23H138.273V20ZM138.273 13.5V10.5H135.273V13.5H138.273ZM156.148 13.5H159.148V10.5H156.148V13.5ZM156.148 0.5H159.148V-2.5H156.148V0.5ZM156.148 7V10H159.148V7H156.148ZM130.148 7V4H127.148V7H130.148ZM130.148 26.5H127.148V29.5H130.148V26.5ZM156.148 26.5H159.148V23.5H156.148V26.5ZM156.148 33V36H159.148V33H156.148ZM123.648 33H120.648V36H123.648V33ZM123.648 0.5V-2.5H120.648V0.5H123.648ZM156.148 17H138.273V23H156.148V17ZM141.273 20V13.5H135.273V20H141.273ZM138.273 16.5H156.148V10.5H138.273V16.5ZM153.148 13.5V20H159.148V13.5H153.148ZM153.148 0.5V7H159.148V0.5H153.148ZM156.148 4H130.148V10H156.148V4ZM127.148 7V26.5H133.148V7H127.148ZM130.148 29.5H156.148V23.5H130.148V29.5ZM153.148 26.5V33H159.148V26.5H153.148ZM156.148 30H123.648V36H156.148V30ZM126.648 33V0.5H120.648V33H126.648ZM123.648 3.5H156.148V-2.5H123.648V3.5ZM191.594 26.5H194.594V23.5H191.594V26.5ZM191.594 33V36H194.594V33H191.594ZM163.816 28.2773L161.684 30.3873L161.695 30.3987L161.706 30.41L163.816 28.2773ZM163.816 5.27344L161.695 3.15212L163.816 5.27344ZM191.594 0.5H194.594V-2.5H191.594V0.5ZM191.594 7V10H194.594V7H191.594ZM175.344 29.5H191.594V23.5H175.344V29.5ZM188.594 26.5V33H194.594V26.5H188.594ZM191.594 30H175.344V36H191.594V30ZM175.344 30C171.626 30 168.543 28.7338 165.926 26.1447L161.706 30.41C165.454 34.1177 170.056 36 175.344 36V30ZM165.949 26.1674C163.36 23.5504 162.094 20.4677 162.094 16.75H156.094C156.094 22.0375 157.976 26.6397 161.684 30.3873L165.949 26.1674ZM162.094 16.75C162.094 13.033 163.359 9.97352 165.938 7.39476L161.695 3.15212C157.977 6.87023 156.094 11.4618 156.094 16.75H162.094ZM165.938 7.39476C168.557 4.77538 171.636 3.5 175.344 3.5V-2.5C170.046 -2.5 165.44 -0.593088 161.695 3.15212L165.938 7.39476ZM175.344 3.5H191.594V-2.5H175.344V3.5ZM188.594 0.5V7H194.594V0.5H188.594ZM191.594 4H175.344V10H191.594V4ZM175.344 4C171.849 4 168.781 5.2576 166.316 7.72243L170.559 11.9651C171.886 10.6382 173.422 10 175.344 10V4ZM166.316 7.72243C163.851 10.1873 162.594 13.2551 162.594 16.75H168.594C168.594 14.8282 169.232 13.2919 170.559 11.9651L166.316 7.72243ZM162.594 16.75C162.594 20.2449 163.851 23.3127 166.316 25.7776L170.559 21.5349C169.232 20.2081 168.594 18.6718 168.594 16.75H162.594ZM166.316 25.7776C168.781 28.2424 171.849 29.5 175.344 29.5V23.5C173.422 23.5 171.886 22.8618 170.559 21.5349L166.316 25.7776ZM202.816 20V17H199.816V20H202.816ZM202.816 33V36H205.816V33H202.816ZM196.316 33H193.316V36H196.316V33ZM196.316 0.5V-2.5H193.316V0.5H196.316ZM202.816 0.5H205.816V-2.5H202.816V0.5ZM202.816 13.5H199.816V16.5H202.816V13.5ZM222.316 13.5V16.5H225.316V13.5H222.316ZM222.316 0.5V-2.5H219.316V0.5H222.316ZM228.816 0.5H231.816V-2.5H228.816V0.5ZM228.816 33V36H231.816V33H228.816ZM222.316 33H219.316V36H222.316V33ZM222.316 20H225.316V17H222.316V20ZM199.816 20V33H205.816V20H199.816ZM202.816 30H196.316V36H202.816V30ZM199.316 33V0.5H193.316V33H199.316ZM196.316 3.5H202.816V-2.5H196.316V3.5ZM199.816 0.5V13.5H205.816V0.5H199.816ZM202.816 16.5H222.316V10.5H202.816V16.5ZM225.316 13.5V0.5H219.316V13.5H225.316ZM222.316 3.5H228.816V-2.5H222.316V3.5ZM225.816 0.5V33H231.816V0.5H225.816ZM228.816 30H222.316V36H228.816V30ZM225.316 33V20H219.316V33H225.316ZM222.316 17H202.816V23H222.316V17Z" fill="black" mask="url(#path-1-outside-1_58_289)"/>
</svg>
