<svg width="449" height="131" viewBox="0 0 449 131" fill="none" xmlns="http://www.w3.org/2000/svg">
<path d="M160.804 25.25H137.773V16.875H160.804V25.25ZM160.804 0.125V8.5H127.304V42H118.929V0.125H160.804ZM175.591 42H167.216V0.125H175.591V42ZM193.257 42H184.882V0.125H214.195C217.684 0.125 220.651 1.34635 223.093 3.78906C225.536 6.23177 226.757 9.19792 226.757 12.6875C226.757 16.1771 225.536 19.1432 223.093 21.5859C220.651 24.0286 217.684 25.25 214.195 25.25H212.363L230.945 58.75H222.57L199.539 16.875H214.195C215.373 16.875 216.354 16.4824 217.139 15.6973C217.968 14.8685 218.382 13.8652 218.382 12.6875C218.382 11.5098 217.968 10.5283 217.139 9.74316C216.354 8.91439 215.373 8.5 214.195 8.5H193.257V42ZM274.39 42H224.14V33.625H274.39C275.568 33.625 276.549 33.2324 277.334 32.4473C278.163 31.6185 278.578 30.6152 278.578 29.4375C278.578 28.2598 278.163 27.2783 277.334 26.4932C276.549 25.6644 275.568 25.25 274.39 25.25H257.64C254.151 25.25 251.184 24.0286 248.742 21.5859C246.299 19.1432 245.078 16.1771 245.078 12.6875C245.078 9.19792 246.299 6.23177 248.742 3.78906C251.184 1.34635 254.151 0.125 257.64 0.125H282.765V8.5H257.64C256.462 8.5 255.459 8.91439 254.63 9.74316C253.845 10.5283 253.453 11.5098 253.453 12.6875C253.453 13.8652 253.845 14.8685 254.63 15.6973C255.459 16.4824 256.462 16.875 257.64 16.875H274.39C277.88 16.875 280.846 18.0964 283.289 20.5391C285.731 22.9818 286.953 25.9479 286.953 29.4375C286.953 32.9271 285.731 35.8932 283.289 38.3359C280.846 40.7786 277.88 42 274.39 42ZM313.321 8.5V58.75H304.946V8.5H288.196V0.125H330.071V8.5H313.321ZM29.0288 114L15.2231 88.875H29.8794C31.0571 88.875 32.0386 88.4824 32.8237 87.6973C33.6525 86.8685 34.0669 85.8652 34.0669 84.6875C34.0669 83.5098 33.6525 82.5283 32.8237 81.7432C32.0386 80.9144 31.0571 80.5 29.8794 80.5H8.94189V114H0.566895V72.125H29.8794C33.369 72.125 36.3351 73.3464 38.7778 75.7891C41.2205 78.2318 42.4419 81.1979 42.4419 84.6875C42.4419 88.1771 41.2205 91.1432 38.7778 93.5859C36.3351 96.0286 33.369 97.25 29.8794 97.25H28.0474L37.3384 114H29.0288ZM46.4985 93.0625V72.125H54.8735V93.0625C54.8735 96.5521 56.0949 99.5182 58.5376 101.961C60.9803 104.404 63.9465 105.625 67.436 105.625C70.9256 105.625 73.8918 104.404 76.3345 101.961C78.7772 99.5182 79.9985 96.5521 79.9985 93.0625V51.1875H88.3735V93.0625C88.3735 98.8639 86.3234 103.815 82.2231 107.915C78.1665 111.972 73.2375 114 67.436 114C61.6346 114 56.6838 111.972 52.5835 107.915C48.5269 103.815 46.4985 98.8639 46.4985 93.0625ZM104.077 84.6875V130.75H95.7017V72.125H104.077L129.202 101.438V51.1875H137.577V114H129.202L104.077 84.6875ZM155.308 84.6875V130.75H146.933V72.125H155.308L180.433 101.438V51.1875H188.808V114H180.433L155.308 84.6875ZM265.099 97.25H216.943V88.875H265.099V97.25ZM239.974 72.125V80.5H206.474V105.625H239.974V114H198.099V72.125H239.974ZM278.054 114H269.679V72.125H298.992C302.481 72.125 305.447 73.3464 307.89 75.7891C310.333 78.2318 311.554 81.1979 311.554 84.6875C311.554 88.1771 310.333 91.1432 307.89 93.5859C305.447 96.0286 302.481 97.25 298.992 97.25H297.16L315.742 130.75H307.367L284.335 88.875H298.992C300.169 88.875 301.151 88.4824 301.936 87.6973C302.765 86.8685 303.179 85.8652 303.179 84.6875C303.179 83.5098 302.765 82.5283 301.936 81.7432C301.151 80.9144 300.169 80.5 298.992 80.5H278.054V114ZM357.617 93.0625V72.125H365.992V93.0625C365.992 96.5521 367.213 99.5182 369.656 101.961C372.098 104.404 375.065 105.625 378.554 105.625C382.044 105.625 385.01 104.404 387.453 101.961C389.895 99.5182 391.117 96.5521 391.117 93.0625V72.125H399.492V93.0625C399.492 98.8639 397.442 103.815 393.341 107.915C389.285 111.972 384.356 114 378.554 114C372.753 114 367.802 111.972 363.702 107.915C359.645 103.815 357.617 98.8639 357.617 93.0625ZM414.933 130.75H406.558V72.125H435.871C439.36 72.125 442.326 73.3464 444.769 75.7891C447.212 78.2318 448.433 81.1979 448.433 84.6875C448.433 88.1771 447.212 91.1432 444.769 93.5859C442.326 96.0286 439.36 97.25 435.871 97.25H425.402V88.875H435.871C437.048 88.875 438.03 88.4824 438.815 87.6973C439.644 86.8685 440.058 85.8652 440.058 84.6875C440.058 83.5098 439.644 82.5283 438.815 81.7432C438.03 80.9144 437.048 80.5 435.871 80.5H414.933V130.75Z" fill="#F44878"/>
</svg>
