<svg width="43" height="44" viewBox="0 0 43 44" fill="none" xmlns="http://www.w3.org/2000/svg">
<path d="M21.2775 0C12.3973 0 9.80012 0.00934344 9.29528 0.0520563C7.4729 0.206557 6.3389 0.499207 5.10347 1.12655C4.15138 1.60874 3.40051 2.16768 2.65945 2.95119C1.30984 4.38007 0.491894 6.13797 0.195798 8.22756C0.0518396 9.242 0.00996076 9.44889 0.00145413 14.6305C-0.00181766 16.3577 0.00145413 18.6308 0.00145413 21.6798C0.00145413 30.7296 0.0112695 33.3758 0.0538027 33.8897C0.201033 35.6983 0.479134 36.8362 1.06806 38.0809C2.19355 40.4634 4.34311 42.252 6.87547 42.9194C7.75231 43.1497 8.72076 43.2765 9.96403 43.3365C10.4908 43.3599 15.8598 43.3766 21.2321 43.3766C26.6043 43.3766 31.9766 43.3699 32.4903 43.3432C33.9298 43.2741 34.7658 43.1597 35.6901 42.9161C36.9457 42.5877 38.1159 41.9836 39.119 41.1462C40.1221 40.3087 40.9338 39.2581 41.4975 38.0675C42.075 36.8529 42.3678 35.6716 42.5003 33.9574C42.5291 33.5837 42.5412 27.6249 42.5412 21.6741C42.5412 15.7223 42.5281 9.77457 42.4993 9.40083C42.3652 7.65895 42.0723 6.48768 41.4762 5.24968C40.9871 4.23625 40.444 3.47943 39.6555 2.70559C38.2486 1.33478 36.5276 0.500541 34.4766 0.198882C33.4829 0.05239 33.285 0.00900974 28.2006 0H21.2775Z" fill="url(#paint0_radial_114_144)"/>
<path d="M21.2775 0C12.3973 0 9.80012 0.00934344 9.29528 0.0520563C7.4729 0.206557 6.3389 0.499207 5.10347 1.12655C4.15138 1.60874 3.40051 2.16768 2.65945 2.95119C1.30984 4.38007 0.491894 6.13797 0.195798 8.22756C0.0518396 9.242 0.00996076 9.44889 0.00145413 14.6305C-0.00181766 16.3577 0.00145413 18.6308 0.00145413 21.6798C0.00145413 30.7296 0.0112695 33.3758 0.0538027 33.8897C0.201033 35.6983 0.479134 36.8362 1.06806 38.0809C2.19355 40.4634 4.34311 42.252 6.87547 42.9194C7.75231 43.1497 8.72076 43.2765 9.96403 43.3365C10.4908 43.3599 15.8598 43.3766 21.2321 43.3766C26.6043 43.3766 31.9766 43.3699 32.4903 43.3432C33.9298 43.2741 34.7658 43.1597 35.6901 42.9161C36.9457 42.5877 38.1159 41.9836 39.119 41.1462C40.1221 40.3087 40.9338 39.2581 41.4975 38.0675C42.075 36.8529 42.3678 35.6716 42.5003 33.9574C42.5291 33.5837 42.5412 27.6249 42.5412 21.6741C42.5412 15.7223 42.5281 9.77457 42.4993 9.40083C42.3652 7.65895 42.0723 6.48768 41.4762 5.24968C40.9871 4.23625 40.444 3.47943 39.6555 2.70559C38.2486 1.33478 36.5276 0.500541 34.4766 0.198882C33.4829 0.05239 33.285 0.00900974 28.2006 0H21.2775Z" fill="url(#paint1_radial_114_144)"/>
<path d="M21.2676 5.67285C17.0025 5.67285 16.4672 5.69187 14.792 5.76962C13.1202 5.84771 11.979 6.11767 10.9804 6.51376C9.94751 6.92287 9.07133 7.47013 8.19842 8.36076C7.32485 9.25106 6.78828 10.1447 6.38585 11.1978C5.9965 12.2166 5.73149 13.3809 5.65624 15.0854C5.58164 16.7939 5.56201 17.3401 5.56201 21.6902C5.56201 26.0402 5.58099 26.5845 5.65689 28.293C5.73378 29.9982 5.99847 31.1621 6.3865 32.1805C6.78795 33.234 7.32452 34.1277 8.19776 35.018C9.07035 35.9089 9.94653 36.4575 10.9788 36.8666C11.978 37.2627 13.1195 37.5327 14.7911 37.6108C16.4662 37.6885 17.0011 37.7075 21.2659 37.7075C25.5313 37.7075 26.065 37.6885 27.7401 37.6108C29.412 37.5327 30.5545 37.2627 31.5537 36.8666C32.5863 36.4575 33.4612 35.9089 34.3337 35.018C35.2073 34.1277 35.7439 33.234 36.1463 32.1809C36.5324 31.1621 36.7974 29.9979 36.8759 28.2933C36.9512 26.5848 36.9708 26.0402 36.9708 21.6902C36.9708 17.3401 36.9512 16.7942 36.8759 15.0857C36.7974 13.3805 36.5324 12.2166 36.1463 11.1982C35.7439 10.1447 35.2073 9.25106 34.3337 8.36076C33.4602 7.4698 32.5866 6.92254 31.5527 6.51376C30.5516 6.11767 29.4097 5.84771 27.7378 5.76962C26.0627 5.69187 25.5294 5.67285 21.263 5.67285H21.2676ZM19.8587 8.55931C20.2769 8.55864 20.7434 8.55931 21.2676 8.55931C25.4607 8.55931 25.9577 8.57466 27.6135 8.65141C29.1447 8.72282 29.9757 8.98377 30.5293 9.20301C31.2622 9.49332 31.7847 9.84036 32.334 10.401C32.8837 10.9616 33.224 11.4955 33.5093 12.243C33.7242 12.8069 33.9804 13.6545 34.0501 15.2162C34.1253 16.9047 34.1417 17.4119 34.1417 21.6865C34.1417 25.9611 34.1253 26.4684 34.0501 28.1569C33.9801 29.7185 33.7242 30.5661 33.5093 31.1301C33.2246 31.8776 32.8837 32.4098 32.334 32.9701C31.7844 33.5307 31.2625 33.8777 30.5293 34.168C29.9764 34.3883 29.1447 34.6486 27.6135 34.72C25.958 34.7967 25.4607 34.8134 21.2676 34.8134C17.0741 34.8134 16.5771 34.7967 14.9216 34.72C13.3904 34.6479 12.5594 34.3869 12.0055 34.1677C11.2726 33.8774 10.7491 33.5303 10.1994 32.9697C9.64978 32.4091 9.30951 31.8766 9.02421 31.1287C8.80926 30.5648 8.55308 29.7172 8.48339 28.1555C8.40814 26.467 8.39309 25.9598 8.39309 21.6825C8.39309 17.4052 8.40814 16.9007 8.48339 15.2122C8.5534 13.6505 8.80926 12.8029 9.02421 12.2383C9.30886 11.4908 9.64978 10.9569 10.1994 10.3963C10.7491 9.83569 11.2726 9.48865 12.0055 9.19767C12.559 8.97743 13.3904 8.71715 14.9216 8.6454C16.3703 8.57866 16.9318 8.55864 19.8587 8.55531V8.55931ZM29.6505 11.2189C29.2778 11.2189 28.9134 11.3316 28.6034 11.5428C28.2935 11.7541 28.052 12.0543 27.9094 12.4055C27.7667 12.7568 27.7295 13.1433 27.8022 13.5162C27.875 13.889 28.0545 14.2315 28.3182 14.5003C28.5818 14.7691 28.9177 14.9521 29.2833 15.0262C29.6489 15.1003 30.0278 15.0621 30.3722 14.9165C30.7165 14.7709 31.0108 14.5245 31.2178 14.2083C31.4248 13.8921 31.5352 13.5204 31.5351 13.1403C31.5351 12.0791 30.6909 11.2182 29.6505 11.2182V11.2189ZM21.2676 13.4646C16.8137 13.4646 13.2026 17.1476 13.2026 21.6902C13.2026 26.2328 16.8137 29.9141 21.2676 29.9141C25.7214 29.9141 29.3315 26.2328 29.3315 21.6902C29.3315 17.1476 25.7211 13.4646 21.2672 13.4646H21.2676ZM21.2676 16.3511C24.1585 16.3511 26.5024 18.7413 26.5024 21.6902C26.5024 24.6387 24.1585 27.0293 21.2676 27.0293C18.3763 27.0293 16.0327 24.6387 16.0327 21.6902C16.0327 18.7413 18.3763 16.3511 21.2676 16.3511V16.3511Z" fill="white"/>
<defs>
<radialGradient id="paint0_radial_114_144" cx="0" cy="0" r="1" gradientUnits="userSpaceOnUse" gradientTransform="translate(11.3001 46.7175) rotate(-90) scale(42.9894 39.2135)">
<stop stop-color="#FFDD55"/>
<stop offset="0.1" stop-color="#FFDD55"/>
<stop offset="0.5" stop-color="#FF543E"/>
<stop offset="1" stop-color="#C837AB"/>
</radialGradient>
<radialGradient id="paint1_radial_114_144" cx="0" cy="0" r="1" gradientUnits="userSpaceOnUse" gradientTransform="translate(-7.12587 3.12478) rotate(78.8932) scale(19.2023 77.7426)">
<stop stop-color="#3771C8"/>
<stop offset="0.128" stop-color="#3771C8"/>
<stop offset="1" stop-color="#6600FF" stop-opacity="0"/>
</radialGradient>
</defs>
</svg>
