<svg width="521" height="158" viewBox="0 0 521 158" fill="none" xmlns="http://www.w3.org/2000/svg">
<path d="M92.3193 56L103.257 33.0312L114.194 56H109.272L103.257 43.4219L97.2412 56H92.3193ZM119.663 51.625H137.163V56H115.288V34.125H119.663V51.625ZM143.965 51.625H161.465V56H139.59V34.125H143.965V51.625ZM194.277 34.125H211.777L209.59 38.5H194.277C192.454 38.5 190.905 39.138 189.629 40.4141C188.353 41.6901 187.715 43.2396 187.715 45.0625C187.715 46.8854 188.353 48.4349 189.629 49.7109C190.905 50.987 192.454 51.625 194.277 51.625H205.454L203.027 47.25H194.277V42.875H205.215L218.34 66.9375H213.965L207.881 56H194.277C191.247 56 188.66 54.9404 186.519 52.8213C184.399 50.6794 183.34 48.0931 183.34 45.0625C183.34 42.0319 184.399 39.457 186.519 37.3379C188.66 35.196 191.247 34.125 194.277 34.125ZM218.408 56H214.033V34.125H218.408V56ZM227.637 56H223.262V34.125H238.574C240.397 34.125 241.947 34.763 243.223 36.0391C244.499 37.3151 245.137 38.8646 245.137 40.6875C245.137 42.5104 244.499 44.0599 243.223 45.3359C241.947 46.612 240.397 47.25 238.574 47.25H237.617L247.324 64.75H242.949L230.918 42.875H238.574C239.189 42.875 239.702 42.6699 240.112 42.2598C240.545 41.8268 240.762 41.3027 240.762 40.6875C240.762 40.0723 240.545 39.5596 240.112 39.1494C239.702 38.7165 239.189 38.5 238.574 38.5H227.637V56ZM251.768 51.625H269.268V56H247.393V34.125H251.768V51.625ZM298.354 56H272.104V51.625H298.354C298.97 51.625 299.482 51.4199 299.893 51.0098C300.326 50.5768 300.542 50.0527 300.542 49.4375C300.542 48.8223 300.326 48.3096 299.893 47.8994C299.482 47.4665 298.97 47.25 298.354 47.25H289.604C287.782 47.25 286.232 46.612 284.956 45.3359C283.68 44.0599 283.042 42.5104 283.042 40.6875C283.042 38.8646 283.68 37.3151 284.956 36.0391C286.232 34.763 287.782 34.125 289.604 34.125H302.729V38.5H289.604C288.989 38.5 288.465 38.7165 288.032 39.1494C287.622 39.5596 287.417 40.0723 287.417 40.6875C287.417 41.3027 287.622 41.8268 288.032 42.2598C288.465 42.6699 288.989 42.875 289.604 42.875H298.354C300.177 42.875 301.727 43.513 303.003 44.7891C304.279 46.0651 304.917 47.6146 304.917 49.4375C304.917 51.2604 304.279 52.8099 303.003 54.0859C301.727 55.362 300.177 56 298.354 56ZM339.917 38.5V64.75H335.542V38.5H326.792V34.125H348.667V38.5H339.917ZM386.094 47.25H360.938V42.875H386.094V47.25ZM372.969 34.125V38.5H355.469V51.625H372.969V56H351.094V34.125H372.969ZM383.257 56L394.194 33.0312L405.132 56H400.21L394.194 43.4219L388.179 56H383.257ZM410.806 42.875V64.75H406.431V34.125H410.806L419.556 50.5312L428.306 34.125H432.681V56H428.306V42.875L421.743 56H417.368L410.806 42.875Z" fill="white"/>
<g filter="url(#filter0_f_131_18)">
<ellipse cx="260.5" cy="79" rx="215.5" ry="34" fill="black"/>
</g>
<path d="M196.525 107L188.965 93.8V92.04H189.845C191.258 92.04 192.445 91.9067 193.405 91.64C194.391 91.3733 195.165 90.9333 195.725 90.32C196.285 89.7067 196.618 88.8667 196.725 87.8H188.965V85.24H196.685C196.498 84.2533 196.125 83.4533 195.565 82.84C195.005 82.2 194.245 81.7333 193.285 81.44C192.351 81.1467 191.205 81 189.845 81H188.965V78.44H205.525V81H197.965C198.578 81.5067 199.085 82.1067 199.485 82.8C199.885 83.4933 200.138 84.3067 200.245 85.24H205.525V87.8H200.325C200.138 89.7467 199.391 91.2667 198.085 92.36C196.805 93.4267 195.098 94.1067 192.965 94.4L200.605 107H196.525ZM248.695 102V107H211.195V99.5C211.195 97.4167 211.924 95.6458 213.383 94.1875C214.841 92.7292 216.612 92 218.695 92H228.695C229.398 92 229.984 91.7656 230.453 91.2969C230.948 90.8021 231.195 90.2031 231.195 89.5C231.195 88.7969 230.948 88.2109 230.453 87.7422C229.984 87.2474 229.398 87 228.695 87H213.695V82H228.695C230.779 82 232.549 82.7292 234.008 84.1875C235.466 85.6458 236.195 87.4167 236.195 89.5C236.195 91.5833 235.466 93.3542 234.008 94.8125C232.549 96.2708 230.779 97 228.695 97H218.695C217.992 97 217.393 97.2474 216.898 97.7422C216.43 98.2109 216.195 98.7969 216.195 99.5V102H248.695ZM266.195 107C262.732 107 259.776 105.789 257.328 103.367C254.906 100.919 253.695 97.9635 253.695 94.5C253.695 91.0365 254.906 88.0938 257.328 85.6719C259.776 83.224 262.732 82 266.195 82C269.659 82 272.602 83.224 275.023 85.6719C277.471 88.0938 278.695 91.0365 278.695 94.5C278.695 97.9635 277.471 100.919 275.023 103.367C272.602 105.789 269.659 107 266.195 107ZM266.195 102C268.279 102 270.049 101.271 271.508 99.8125C272.966 98.3542 273.695 96.5833 273.695 94.5C273.695 92.4167 272.966 90.6458 271.508 89.1875C270.049 87.7292 268.279 87 266.195 87C264.112 87 262.341 87.7292 260.883 89.1875C259.424 90.6458 258.695 92.4167 258.695 94.5C258.695 96.5833 259.424 98.3542 260.883 99.8125C262.341 101.271 264.112 102 266.195 102ZM296.195 107C292.732 107 289.776 105.789 287.328 103.367C284.906 100.919 283.695 97.9635 283.695 94.5C283.695 91.0365 284.906 88.0938 287.328 85.6719C289.776 83.224 292.732 82 296.195 82C299.659 82 302.602 83.224 305.023 85.6719C307.471 88.0938 308.695 91.0365 308.695 94.5C308.695 97.9635 307.471 100.919 305.023 103.367C302.602 105.789 299.659 107 296.195 107ZM296.195 102C298.279 102 300.049 101.271 301.508 99.8125C302.966 98.3542 303.695 96.5833 303.695 94.5C303.695 92.4167 302.966 90.6458 301.508 89.1875C300.049 87.7292 298.279 87 296.195 87C294.112 87 292.341 87.7292 290.883 89.1875C289.424 90.6458 288.695 92.4167 288.695 94.5C288.695 96.5833 289.424 98.3542 290.883 99.8125C292.341 101.271 294.112 102 296.195 102ZM326.195 107C322.732 107 319.776 105.789 317.328 103.367C314.906 100.919 313.695 97.9635 313.695 94.5C313.695 91.0365 314.906 88.0938 317.328 85.6719C319.776 83.224 322.732 82 326.195 82C329.659 82 332.602 83.224 335.023 85.6719C337.471 88.0938 338.695 91.0365 338.695 94.5C338.695 97.9635 337.471 100.919 335.023 103.367C332.602 105.789 329.659 107 326.195 107ZM326.195 102C328.279 102 330.049 101.271 331.508 99.8125C332.966 98.3542 333.695 96.5833 333.695 94.5C333.695 92.4167 332.966 90.6458 331.508 89.1875C330.049 87.7292 328.279 87 326.195 87C324.112 87 322.341 87.7292 320.883 89.1875C319.424 90.6458 318.695 92.4167 318.695 94.5C318.695 96.5833 319.424 98.3542 320.883 99.8125C322.341 101.271 324.112 102 326.195 102Z" fill="#F44878"/>
<defs>
<filter id="filter0_f_131_18" x="0" y="0" width="521" height="158" filterUnits="userSpaceOnUse" color-interpolation-filters="sRGB">
<feFlood flood-opacity="0" result="BackgroundImageFix"/>
<feBlend mode="normal" in="SourceGraphic" in2="BackgroundImageFix" result="shape"/>
<feGaussianBlur stdDeviation="22.5" result="effect1_foregroundBlur_131_18"/>
</filter>
</defs>
</svg>
