<svg width="398" height="127" viewBox="0 0 398 127" fill="none" xmlns="http://www.w3.org/2000/svg">
<mask id="path-1-outside-1_58_275" maskUnits="userSpaceOnUse" x="-3" y="-3" width="404" height="133" fill="black">
<rect fill="white" x="-3" y="-3" width="404" height="133"/>
<path d="M6.75 49H0.25V16.5H6.75V49ZM20.5117 26.25V62H14.0117V16.5H20.5117L40.0117 39.25V0.25H46.5117V49H40.0117L20.5117 26.25ZM69.6172 23V62H63.1172V23H50.1172V16.5H82.6172V23H69.6172ZM138.223 36H100.848V29.5H138.223V36ZM118.723 16.5V23H92.7227V42.5H118.723V49H86.2227V16.5H118.723ZM148.277 49H141.777V16.5H164.527C167.236 16.5 169.538 17.4479 171.434 19.3438C173.329 21.2396 174.277 23.5417 174.277 26.25C174.277 28.9583 173.329 31.2604 171.434 33.1562C169.538 35.0521 167.236 36 164.527 36H163.105L177.527 62H171.027L153.152 29.5H164.527C165.441 29.5 166.203 29.1953 166.812 28.5859C167.456 27.9427 167.777 27.1641 167.777 26.25C167.777 25.3359 167.456 24.5742 166.812 23.9648C166.203 23.3216 165.441 23 164.527 23H148.277V49ZM186.516 26.25V62H180.016V16.5H186.516L206.016 39.25V0.25H212.516V49H206.016L186.516 26.25ZM271.727 36H234.352V29.5H271.727V36ZM252.227 16.5V23H226.227V42.5H252.227V49H219.727V16.5H252.227ZM282.898 23V62H276.398V23H263.398V16.5H295.898V23H282.898ZM344.648 49C340.146 49 336.303 47.4258 333.121 44.2773C329.973 41.0951 328.398 37.2526 328.398 32.75C328.398 28.2474 329.973 24.4219 333.121 21.2734C336.303 18.0911 340.146 16.5 344.648 16.5C349.151 16.5 352.977 18.0911 356.125 21.2734C359.307 24.4219 360.898 28.2474 360.898 32.75C360.898 37.2526 359.307 41.0951 356.125 44.2773C352.977 47.4258 349.151 49 344.648 49ZM344.648 42.5C347.357 42.5 349.659 41.5521 351.555 39.6562C353.451 37.7604 354.398 35.4583 354.398 32.75C354.398 30.0417 353.451 27.7396 351.555 25.8438C349.659 23.9479 347.357 23 344.648 23C341.94 23 339.638 23.9479 337.742 25.8438C335.846 27.7396 334.898 30.0417 334.898 32.75C334.898 35.4583 335.846 37.7604 337.742 39.6562C339.638 41.5521 341.94 42.5 344.648 42.5ZM397.156 36H379.281V29.5H397.156V36ZM364.656 16.5H397.156V23H371.156V62H364.656V16.5ZM19.75 84V123H13.25V84H0.25V77.5H32.75V84H19.75ZM42.8555 97V110H36.3555V77.5H42.8555V90.5H62.3555V77.5H68.8555V110H62.3555V97H42.8555ZM82.5664 110H76.0664V77.5H82.5664V110ZM96.3281 87.25V123H89.8281V77.5H96.3281L115.828 100.25V61.25H122.328V110H115.828L96.3281 87.25ZM142.336 77.5H168.336L165.086 84H142.336C139.628 84 137.326 84.9479 135.43 86.8438C133.534 88.7396 132.586 91.0417 132.586 93.75C132.586 96.4583 133.534 98.7604 135.43 100.656C137.326 102.552 139.628 103.5 142.336 103.5H158.941L155.336 97H142.336V90.5H158.586L178.086 126.25H171.586L162.547 110H142.336C137.833 110 133.991 108.426 130.809 105.277C127.66 102.095 126.086 98.2526 126.086 93.75C126.086 89.2474 127.66 85.4219 130.809 82.2734C133.991 79.0911 137.833 77.5 142.336 77.5ZM210.129 110H171.129V103.5H210.129C211.043 103.5 211.805 103.195 212.414 102.586C213.057 101.943 213.379 101.164 213.379 100.25C213.379 99.3359 213.057 98.5742 212.414 97.9648C211.805 97.3216 211.043 97 210.129 97H197.129C194.421 97 192.118 96.0521 190.223 94.1562C188.327 92.2604 187.379 89.9583 187.379 87.25C187.379 84.5417 188.327 82.2396 190.223 80.3438C192.118 78.4479 194.421 77.5 197.129 77.5H216.629V84H197.129C196.215 84 195.436 84.3216 194.793 84.9648C194.184 85.5742 193.879 86.3359 193.879 87.25C193.879 88.1641 194.184 88.9427 194.793 89.5859C195.436 90.1953 196.215 90.5 197.129 90.5H210.129C212.837 90.5 215.139 91.4479 217.035 93.3438C218.931 95.2396 219.879 97.5417 219.879 100.25C219.879 102.958 218.931 105.26 217.035 107.156C215.139 109.052 212.837 110 210.129 110ZM252.379 71H265.379V77.5H258.879V110H265.379V116.5H252.379V71ZM278.379 110H271.879V77.5H278.379V110ZM298.387 110C293.884 110 290.042 108.426 286.859 105.277C283.711 102.095 282.137 98.2526 282.137 93.75C282.137 89.2474 283.711 85.4219 286.859 82.2734C290.042 79.0911 293.884 77.5 298.387 77.5C302.889 77.5 306.715 79.0911 309.863 82.2734C313.046 85.4219 314.637 89.2474 314.637 93.75C314.637 98.2526 313.046 102.095 309.863 105.277C306.715 108.426 302.889 110 298.387 110ZM298.387 103.5C301.095 103.5 303.397 102.552 305.293 100.656C307.189 98.7604 308.137 96.4583 308.137 93.75C308.137 91.0417 307.189 88.7396 305.293 86.8438C303.397 84.9479 301.095 84 298.387 84C295.678 84 293.376 84.9479 291.48 86.8438C289.585 88.7396 288.637 91.0417 288.637 93.75C288.637 96.4583 289.585 98.7604 291.48 100.656C293.376 102.552 295.678 103.5 298.387 103.5ZM332.766 84V123H326.266V84H313.266V77.5H345.766V84H332.766ZM358.766 77.5H352.266V71H365.266V116.5H352.266V110H358.766V77.5Z"/>
</mask>
<path d="M6.75 49H0.25V16.5H6.75V49ZM20.5117 26.25V62H14.0117V16.5H20.5117L40.0117 39.25V0.25H46.5117V49H40.0117L20.5117 26.25ZM69.6172 23V62H63.1172V23H50.1172V16.5H82.6172V23H69.6172ZM138.223 36H100.848V29.5H138.223V36ZM118.723 16.5V23H92.7227V42.5H118.723V49H86.2227V16.5H118.723ZM148.277 49H141.777V16.5H164.527C167.236 16.5 169.538 17.4479 171.434 19.3438C173.329 21.2396 174.277 23.5417 174.277 26.25C174.277 28.9583 173.329 31.2604 171.434 33.1562C169.538 35.0521 167.236 36 164.527 36H163.105L177.527 62H171.027L153.152 29.5H164.527C165.441 29.5 166.203 29.1953 166.812 28.5859C167.456 27.9427 167.777 27.1641 167.777 26.25C167.777 25.3359 167.456 24.5742 166.812 23.9648C166.203 23.3216 165.441 23 164.527 23H148.277V49ZM186.516 26.25V62H180.016V16.5H186.516L206.016 39.25V0.25H212.516V49H206.016L186.516 26.25ZM271.727 36H234.352V29.5H271.727V36ZM252.227 16.5V23H226.227V42.5H252.227V49H219.727V16.5H252.227ZM282.898 23V62H276.398V23H263.398V16.5H295.898V23H282.898ZM344.648 49C340.146 49 336.303 47.4258 333.121 44.2773C329.973 41.0951 328.398 37.2526 328.398 32.75C328.398 28.2474 329.973 24.4219 333.121 21.2734C336.303 18.0911 340.146 16.5 344.648 16.5C349.151 16.5 352.977 18.0911 356.125 21.2734C359.307 24.4219 360.898 28.2474 360.898 32.75C360.898 37.2526 359.307 41.0951 356.125 44.2773C352.977 47.4258 349.151 49 344.648 49ZM344.648 42.5C347.357 42.5 349.659 41.5521 351.555 39.6562C353.451 37.7604 354.398 35.4583 354.398 32.75C354.398 30.0417 353.451 27.7396 351.555 25.8438C349.659 23.9479 347.357 23 344.648 23C341.94 23 339.638 23.9479 337.742 25.8438C335.846 27.7396 334.898 30.0417 334.898 32.75C334.898 35.4583 335.846 37.7604 337.742 39.6562C339.638 41.5521 341.94 42.5 344.648 42.5ZM397.156 36H379.281V29.5H397.156V36ZM364.656 16.5H397.156V23H371.156V62H364.656V16.5ZM19.75 84V123H13.25V84H0.25V77.5H32.75V84H19.75ZM42.8555 97V110H36.3555V77.5H42.8555V90.5H62.3555V77.5H68.8555V110H62.3555V97H42.8555ZM82.5664 110H76.0664V77.5H82.5664V110ZM96.3281 87.25V123H89.8281V77.5H96.3281L115.828 100.25V61.25H122.328V110H115.828L96.3281 87.25ZM142.336 77.5H168.336L165.086 84H142.336C139.628 84 137.326 84.9479 135.43 86.8438C133.534 88.7396 132.586 91.0417 132.586 93.75C132.586 96.4583 133.534 98.7604 135.43 100.656C137.326 102.552 139.628 103.5 142.336 103.5H158.941L155.336 97H142.336V90.5H158.586L178.086 126.25H171.586L162.547 110H142.336C137.833 110 133.991 108.426 130.809 105.277C127.66 102.095 126.086 98.2526 126.086 93.75C126.086 89.2474 127.66 85.4219 130.809 82.2734C133.991 79.0911 137.833 77.5 142.336 77.5ZM210.129 110H171.129V103.5H210.129C211.043 103.5 211.805 103.195 212.414 102.586C213.057 101.943 213.379 101.164 213.379 100.25C213.379 99.3359 213.057 98.5742 212.414 97.9648C211.805 97.3216 211.043 97 210.129 97H197.129C194.421 97 192.118 96.0521 190.223 94.1562C188.327 92.2604 187.379 89.9583 187.379 87.25C187.379 84.5417 188.327 82.2396 190.223 80.3438C192.118 78.4479 194.421 77.5 197.129 77.5H216.629V84H197.129C196.215 84 195.436 84.3216 194.793 84.9648C194.184 85.5742 193.879 86.3359 193.879 87.25C193.879 88.1641 194.184 88.9427 194.793 89.5859C195.436 90.1953 196.215 90.5 197.129 90.5H210.129C212.837 90.5 215.139 91.4479 217.035 93.3438C218.931 95.2396 219.879 97.5417 219.879 100.25C219.879 102.958 218.931 105.26 217.035 107.156C215.139 109.052 212.837 110 210.129 110ZM252.379 71H265.379V77.5H258.879V110H265.379V116.5H252.379V71ZM278.379 110H271.879V77.5H278.379V110ZM298.387 110C293.884 110 290.042 108.426 286.859 105.277C283.711 102.095 282.137 98.2526 282.137 93.75C282.137 89.2474 283.711 85.4219 286.859 82.2734C290.042 79.0911 293.884 77.5 298.387 77.5C302.889 77.5 306.715 79.0911 309.863 82.2734C313.046 85.4219 314.637 89.2474 314.637 93.75C314.637 98.2526 313.046 102.095 309.863 105.277C306.715 108.426 302.889 110 298.387 110ZM298.387 103.5C301.095 103.5 303.397 102.552 305.293 100.656C307.189 98.7604 308.137 96.4583 308.137 93.75C308.137 91.0417 307.189 88.7396 305.293 86.8438C303.397 84.9479 301.095 84 298.387 84C295.678 84 293.376 84.9479 291.48 86.8438C289.585 88.7396 288.637 91.0417 288.637 93.75C288.637 96.4583 289.585 98.7604 291.48 100.656C293.376 102.552 295.678 103.5 298.387 103.5ZM332.766 84V123H326.266V84H313.266V77.5H345.766V84H332.766ZM358.766 77.5H352.266V71H365.266V116.5H352.266V110H358.766V77.5Z" fill="white"/>
<path d="M6.75 49V52H9.75V49H6.75ZM0.25 49H-2.75V52H0.25V49ZM0.25 16.5V13.5H-2.75V16.5H0.25ZM6.75 16.5H9.75V13.5H6.75V16.5ZM6.75 46H0.25V52H6.75V46ZM3.25 49V16.5H-2.75V49H3.25ZM0.25 19.5H6.75V13.5H0.25V19.5ZM3.75 16.5V49H9.75V16.5H3.75ZM20.5117 26.25L22.7895 24.2976L17.5117 18.1402V26.25H20.5117ZM20.5117 62V65H23.5117V62H20.5117ZM14.0117 62H11.0117V65H14.0117V62ZM14.0117 16.5V13.5H11.0117V16.5H14.0117ZM20.5117 16.5L22.7895 14.5476L21.8915 13.5H20.5117V16.5ZM40.0117 39.25L37.7339 41.2024L43.0117 47.3598V39.25H40.0117ZM40.0117 0.25V-2.75H37.0117V0.25H40.0117ZM46.5117 0.25H49.5117V-2.75H46.5117V0.25ZM46.5117 49V52H49.5117V49H46.5117ZM40.0117 49L37.7339 50.9524L38.6319 52H40.0117V49ZM17.5117 26.25V62H23.5117V26.25H17.5117ZM20.5117 59H14.0117V65H20.5117V59ZM17.0117 62V16.5H11.0117V62H17.0117ZM14.0117 19.5H20.5117V13.5H14.0117V19.5ZM18.2339 18.4524L37.7339 41.2024L42.2895 37.2976L22.7895 14.5476L18.2339 18.4524ZM43.0117 39.25V0.25H37.0117V39.25H43.0117ZM40.0117 3.25H46.5117V-2.75H40.0117V3.25ZM43.5117 0.25V49H49.5117V0.25H43.5117ZM46.5117 46H40.0117V52H46.5117V46ZM42.2895 47.0476L22.7895 24.2976L18.2339 28.2024L37.7339 50.9524L42.2895 47.0476ZM69.6172 23V20H66.6172V23H69.6172ZM69.6172 62V65H72.6172V62H69.6172ZM63.1172 62H60.1172V65H63.1172V62ZM63.1172 23H66.1172V20H63.1172V23ZM50.1172 23H47.1172V26H50.1172V23ZM50.1172 16.5V13.5H47.1172V16.5H50.1172ZM82.6172 16.5H85.6172V13.5H82.6172V16.5ZM82.6172 23V26H85.6172V23H82.6172ZM66.6172 23V62H72.6172V23H66.6172ZM69.6172 59H63.1172V65H69.6172V59ZM66.1172 62V23H60.1172V62H66.1172ZM63.1172 20H50.1172V26H63.1172V20ZM53.1172 23V16.5H47.1172V23H53.1172ZM50.1172 19.5H82.6172V13.5H50.1172V19.5ZM79.6172 16.5V23H85.6172V16.5H79.6172ZM82.6172 20H69.6172V26H82.6172V20ZM138.223 36V39H141.223V36H138.223ZM100.848 36H97.8477V39H100.848V36ZM100.848 29.5V26.5H97.8477V29.5H100.848ZM138.223 29.5H141.223V26.5H138.223V29.5ZM118.723 16.5H121.723V13.5H118.723V16.5ZM118.723 23V26H121.723V23H118.723ZM92.7227 23V20H89.7227V23H92.7227ZM92.7227 42.5H89.7227V45.5H92.7227V42.5ZM118.723 42.5H121.723V39.5H118.723V42.5ZM118.723 49V52H121.723V49H118.723ZM86.2227 49H83.2227V52H86.2227V49ZM86.2227 16.5V13.5H83.2227V16.5H86.2227ZM138.223 33H100.848V39H138.223V33ZM103.848 36V29.5H97.8477V36H103.848ZM100.848 32.5H138.223V26.5H100.848V32.5ZM135.223 29.5V36H141.223V29.5H135.223ZM115.723 16.5V23H121.723V16.5H115.723ZM118.723 20H92.7227V26H118.723V20ZM89.7227 23V42.5H95.7227V23H89.7227ZM92.7227 45.5H118.723V39.5H92.7227V45.5ZM115.723 42.5V49H121.723V42.5H115.723ZM118.723 46H86.2227V52H118.723V46ZM89.2227 49V16.5H83.2227V49H89.2227ZM86.2227 19.5H118.723V13.5H86.2227V19.5ZM148.277 49V52H151.277V49H148.277ZM141.777 49H138.777V52H141.777V49ZM141.777 16.5V13.5H138.777V16.5H141.777ZM163.105 36V33H158.011L160.482 37.4552L163.105 36ZM177.527 62V65H182.622L180.151 60.5448L177.527 62ZM171.027 62L168.399 63.4458L169.254 65H171.027V62ZM153.152 29.5V26.5H148.079L150.524 30.9458L153.152 29.5ZM166.812 28.5859L168.934 30.7073L166.812 28.5859ZM166.812 23.9648L164.635 26.0281L164.69 26.0869L164.749 26.1427L166.812 23.9648ZM148.277 23V20H145.277V23H148.277ZM148.277 46H141.777V52H148.277V46ZM144.777 49V16.5H138.777V49H144.777ZM141.777 19.5H164.527V13.5H141.777V19.5ZM164.527 19.5C166.449 19.5 167.985 20.1382 169.312 21.4651L173.555 17.2224C171.09 14.7576 168.022 13.5 164.527 13.5V19.5ZM169.312 21.4651C170.639 22.7919 171.277 24.3282 171.277 26.25H177.277C177.277 22.7551 176.02 19.6873 173.555 17.2224L169.312 21.4651ZM171.277 26.25C171.277 28.1718 170.639 29.7081 169.312 31.0349L173.555 35.2776C176.02 32.8127 177.277 29.7449 177.277 26.25H171.277ZM169.312 31.0349C167.985 32.3618 166.449 33 164.527 33V39C168.022 39 171.09 37.7424 173.555 35.2776L169.312 31.0349ZM164.527 33H163.105V39H164.527V33ZM160.482 37.4552L174.904 63.4552L180.151 60.5448L165.729 34.5448L160.482 37.4552ZM177.527 59H171.027V65H177.527V59ZM173.656 60.5542L155.781 28.0542L150.524 30.9458L168.399 63.4458L173.656 60.5542ZM153.152 32.5H164.527V26.5H153.152V32.5ZM164.527 32.5C166.183 32.5 167.725 31.916 168.934 30.7073L164.691 26.4646C164.681 26.4744 164.674 26.4807 164.67 26.4844C164.665 26.488 164.663 26.4895 164.663 26.4897C164.663 26.4898 164.664 26.4892 164.665 26.4882C164.667 26.4872 164.669 26.4865 164.67 26.4861C164.673 26.4849 164.667 26.4877 164.648 26.4913C164.628 26.4949 164.589 26.5 164.527 26.5V32.5ZM168.934 30.7073C170.143 29.4984 170.777 27.9554 170.777 26.25H164.777C164.777 26.302 164.773 26.334 164.77 26.3502C164.767 26.3658 164.764 26.3725 164.763 26.3743C164.763 26.376 164.76 26.3819 164.752 26.3936C164.744 26.4058 164.726 26.4299 164.691 26.4646L168.934 30.7073ZM170.777 26.25C170.777 24.5415 170.138 22.9828 168.876 21.787L164.749 26.1427C164.762 26.1544 164.77 26.1632 164.775 26.1687C164.779 26.1741 164.781 26.1769 164.781 26.1769C164.781 26.177 164.781 26.1765 164.78 26.1756C164.78 26.1746 164.779 26.1733 164.778 26.1716C164.776 26.1681 164.774 26.1641 164.772 26.1601C164.769 26.1509 164.769 26.1487 164.771 26.1585C164.773 26.1689 164.777 26.1979 164.777 26.25H170.777ZM168.99 21.9016C167.795 20.6394 166.236 20 164.527 20V26C164.579 26 164.608 26.0045 164.619 26.0065C164.629 26.0084 164.626 26.0088 164.617 26.005C164.613 26.0033 164.609 26.0013 164.606 25.9994C164.604 25.9984 164.603 25.9976 164.602 25.997C164.601 25.9964 164.6 25.9961 164.6 25.9961C164.6 25.9962 164.603 25.9981 164.609 26.0028C164.614 26.0076 164.623 26.0157 164.635 26.0281L168.99 21.9016ZM164.527 20H148.277V26H164.527V20ZM145.277 23V49H151.277V23H145.277ZM186.516 26.25L188.793 24.2976L183.516 18.1402V26.25H186.516ZM186.516 62V65H189.516V62H186.516ZM180.016 62H177.016V65H180.016V62ZM180.016 16.5V13.5H177.016V16.5H180.016ZM186.516 16.5L188.793 14.5476L187.895 13.5H186.516V16.5ZM206.016 39.25L203.738 41.2024L209.016 47.3598V39.25H206.016ZM206.016 0.25V-2.75H203.016V0.25H206.016ZM212.516 0.25H215.516V-2.75H212.516V0.25ZM212.516 49V52H215.516V49H212.516ZM206.016 49L203.738 50.9524L204.636 52H206.016V49ZM183.516 26.25V62H189.516V26.25H183.516ZM186.516 59H180.016V65H186.516V59ZM183.016 62V16.5H177.016V62H183.016ZM180.016 19.5H186.516V13.5H180.016V19.5ZM184.238 18.4524L203.738 41.2024L208.293 37.2976L188.793 14.5476L184.238 18.4524ZM209.016 39.25V0.25H203.016V39.25H209.016ZM206.016 3.25H212.516V-2.75H206.016V3.25ZM209.516 0.25V49H215.516V0.25H209.516ZM212.516 46H206.016V52H212.516V46ZM208.293 47.0476L188.793 24.2976L184.238 28.2024L203.738 50.9524L208.293 47.0476ZM271.727 36V39H274.727V36H271.727ZM234.352 36H231.352V39H234.352V36ZM234.352 29.5V26.5H231.352V29.5H234.352ZM271.727 29.5H274.727V26.5H271.727V29.5ZM252.227 16.5H255.227V13.5H252.227V16.5ZM252.227 23V26H255.227V23H252.227ZM226.227 23V20H223.227V23H226.227ZM226.227 42.5H223.227V45.5H226.227V42.5ZM252.227 42.5H255.227V39.5H252.227V42.5ZM252.227 49V52H255.227V49H252.227ZM219.727 49H216.727V52H219.727V49ZM219.727 16.5V13.5H216.727V16.5H219.727ZM271.727 33H234.352V39H271.727V33ZM237.352 36V29.5H231.352V36H237.352ZM234.352 32.5H271.727V26.5H234.352V32.5ZM268.727 29.5V36H274.727V29.5H268.727ZM249.227 16.5V23H255.227V16.5H249.227ZM252.227 20H226.227V26H252.227V20ZM223.227 23V42.5H229.227V23H223.227ZM226.227 45.5H252.227V39.5H226.227V45.5ZM249.227 42.5V49H255.227V42.5H249.227ZM252.227 46H219.727V52H252.227V46ZM222.727 49V16.5H216.727V49H222.727ZM219.727 19.5H252.227V13.5H219.727V19.5ZM282.898 23V20H279.898V23H282.898ZM282.898 62V65H285.898V62H282.898ZM276.398 62H273.398V65H276.398V62ZM276.398 23H279.398V20H276.398V23ZM263.398 23H260.398V26H263.398V23ZM263.398 16.5V13.5H260.398V16.5H263.398ZM295.898 16.5H298.898V13.5H295.898V16.5ZM295.898 23V26H298.898V23H295.898ZM279.898 23V62H285.898V23H279.898ZM282.898 59H276.398V65H282.898V59ZM279.398 62V23H273.398V62H279.398ZM276.398 20H263.398V26H276.398V20ZM266.398 23V16.5H260.398V23H266.398ZM263.398 19.5H295.898V13.5H263.398V19.5ZM292.898 16.5V23H298.898V16.5H292.898ZM295.898 20H282.898V26H295.898V20ZM333.121 44.2773L330.988 46.3873L331 46.3987L331.011 46.41L333.121 44.2773ZM333.121 21.2734L331 19.1521L333.121 21.2734ZM356.125 21.2734L353.992 23.3834L354.004 23.3948L354.015 23.4061L356.125 21.2734ZM351.555 39.6562L349.433 37.5349L351.555 39.6562ZM351.555 25.8438L349.433 27.9651L351.555 25.8438ZM344.648 46C340.931 46 337.848 44.7338 335.231 42.1447L331.011 46.41C334.759 50.1177 339.361 52 344.648 52V46ZM335.254 42.1674C332.665 39.5504 331.398 36.4677 331.398 32.75H325.398C325.398 38.0375 327.281 42.6397 330.988 46.3873L335.254 42.1674ZM331.398 32.75C331.398 29.033 332.664 25.9735 335.242 23.3948L331 19.1521C327.282 22.8702 325.398 27.4618 325.398 32.75H331.398ZM335.242 23.3948C337.862 20.7754 340.941 19.5 344.648 19.5V13.5C339.351 13.5 334.745 15.4069 331 19.1521L335.242 23.3948ZM344.648 19.5C348.355 19.5 351.411 20.7744 353.992 23.3834L358.258 19.1635C354.542 15.4079 349.947 13.5 344.648 13.5V19.5ZM354.015 23.4061C356.624 25.9873 357.898 29.0434 357.898 32.75H363.898C363.898 27.4514 361.991 22.8564 358.235 19.1408L354.015 23.4061ZM357.898 32.75C357.898 36.4574 356.623 39.5366 354.004 42.156L358.246 46.3987C361.992 42.6535 363.898 38.0478 363.898 32.75H357.898ZM354.004 42.156C351.425 44.7348 348.365 46 344.648 46V52C349.937 52 354.528 50.1168 358.246 46.3987L354.004 42.156ZM344.648 45.5C348.143 45.5 351.211 44.2424 353.676 41.7776L349.433 37.5349C348.107 38.8618 346.57 39.5 344.648 39.5V45.5ZM353.676 41.7776C356.141 39.3127 357.398 36.2449 357.398 32.75H351.398C351.398 34.6718 350.76 36.2081 349.433 37.5349L353.676 41.7776ZM357.398 32.75C357.398 29.2551 356.141 26.1873 353.676 23.7224L349.433 27.9651C350.76 29.2919 351.398 30.8282 351.398 32.75H357.398ZM353.676 23.7224C351.211 21.2576 348.143 20 344.648 20V26C346.57 26 348.107 26.6382 349.433 27.9651L353.676 23.7224ZM344.648 20C341.154 20 338.086 21.2576 335.621 23.7224L339.864 27.9651C341.19 26.6382 342.727 26 344.648 26V20ZM335.621 23.7224C333.156 26.1873 331.898 29.2551 331.898 32.75H337.898C337.898 30.8282 338.537 29.2919 339.864 27.9651L335.621 23.7224ZM331.898 32.75C331.898 36.2449 333.156 39.3127 335.621 41.7776L339.864 37.5349C338.537 36.2081 337.898 34.6718 337.898 32.75H331.898ZM335.621 41.7776C338.086 44.2424 341.154 45.5 344.648 45.5V39.5C342.727 39.5 341.19 38.8618 339.864 37.5349L335.621 41.7776ZM397.156 36V39H400.156V36H397.156ZM379.281 36H376.281V39H379.281V36ZM379.281 29.5V26.5H376.281V29.5H379.281ZM397.156 29.5H400.156V26.5H397.156V29.5ZM364.656 16.5V13.5H361.656V16.5H364.656ZM397.156 16.5H400.156V13.5H397.156V16.5ZM397.156 23V26H400.156V23H397.156ZM371.156 23V20H368.156V23H371.156ZM371.156 62V65H374.156V62H371.156ZM364.656 62H361.656V65H364.656V62ZM397.156 33H379.281V39H397.156V33ZM382.281 36V29.5H376.281V36H382.281ZM379.281 32.5H397.156V26.5H379.281V32.5ZM394.156 29.5V36H400.156V29.5H394.156ZM364.656 19.5H397.156V13.5H364.656V19.5ZM394.156 16.5V23H400.156V16.5H394.156ZM397.156 20H371.156V26H397.156V20ZM368.156 23V62H374.156V23H368.156ZM371.156 59H364.656V65H371.156V59ZM367.656 62V16.5H361.656V62H367.656ZM19.75 84V81H16.75V84H19.75ZM19.75 123V126H22.75V123H19.75ZM13.25 123H10.25V126H13.25V123ZM13.25 84H16.25V81H13.25V84ZM0.25 84H-2.75V87H0.25V84ZM0.25 77.5V74.5H-2.75V77.5H0.25ZM32.75 77.5H35.75V74.5H32.75V77.5ZM32.75 84V87H35.75V84H32.75ZM16.75 84V123H22.75V84H16.75ZM19.75 120H13.25V126H19.75V120ZM16.25 123V84H10.25V123H16.25ZM13.25 81H0.25V87H13.25V81ZM3.25 84V77.5H-2.75V84H3.25ZM0.25 80.5H32.75V74.5H0.25V80.5ZM29.75 77.5V84H35.75V77.5H29.75ZM32.75 81H19.75V87H32.75V81ZM42.8555 97V94H39.8555V97H42.8555ZM42.8555 110V113H45.8555V110H42.8555ZM36.3555 110H33.3555V113H36.3555V110ZM36.3555 77.5V74.5H33.3555V77.5H36.3555ZM42.8555 77.5H45.8555V74.5H42.8555V77.5ZM42.8555 90.5H39.8555V93.5H42.8555V90.5ZM62.3555 90.5V93.5H65.3555V90.5H62.3555ZM62.3555 77.5V74.5H59.3555V77.5H62.3555ZM68.8555 77.5H71.8555V74.5H68.8555V77.5ZM68.8555 110V113H71.8555V110H68.8555ZM62.3555 110H59.3555V113H62.3555V110ZM62.3555 97H65.3555V94H62.3555V97ZM39.8555 97V110H45.8555V97H39.8555ZM42.8555 107H36.3555V113H42.8555V107ZM39.3555 110V77.5H33.3555V110H39.3555ZM36.3555 80.5H42.8555V74.5H36.3555V80.5ZM39.8555 77.5V90.5H45.8555V77.5H39.8555ZM42.8555 93.5H62.3555V87.5H42.8555V93.5ZM65.3555 90.5V77.5H59.3555V90.5H65.3555ZM62.3555 80.5H68.8555V74.5H62.3555V80.5ZM65.8555 77.5V110H71.8555V77.5H65.8555ZM68.8555 107H62.3555V113H68.8555V107ZM65.3555 110V97H59.3555V110H65.3555ZM62.3555 94H42.8555V100H62.3555V94ZM82.5664 110V113H85.5664V110H82.5664ZM76.0664 110H73.0664V113H76.0664V110ZM76.0664 77.5V74.5H73.0664V77.5H76.0664ZM82.5664 77.5H85.5664V74.5H82.5664V77.5ZM82.5664 107H76.0664V113H82.5664V107ZM79.0664 110V77.5H73.0664V110H79.0664ZM76.0664 80.5H82.5664V74.5H76.0664V80.5ZM79.5664 77.5V110H85.5664V77.5H79.5664ZM96.3281 87.25L98.6059 85.2976L93.3281 79.1402V87.25H96.3281ZM96.3281 123V126H99.3281V123H96.3281ZM89.8281 123H86.8281V126H89.8281V123ZM89.8281 77.5V74.5H86.8281V77.5H89.8281ZM96.3281 77.5L98.6059 75.5476L97.7079 74.5H96.3281V77.5ZM115.828 100.25L113.55 102.202L118.828 108.36V100.25H115.828ZM115.828 61.25V58.25H112.828V61.25H115.828ZM122.328 61.25H125.328V58.25H122.328V61.25ZM122.328 110V113H125.328V110H122.328ZM115.828 110L113.55 111.952L114.448 113H115.828V110ZM93.3281 87.25V123H99.3281V87.25H93.3281ZM96.3281 120H89.8281V126H96.3281V120ZM92.8281 123V77.5H86.8281V123H92.8281ZM89.8281 80.5H96.3281V74.5H89.8281V80.5ZM94.0504 79.4524L113.55 102.202L118.106 98.2976L98.6059 75.5476L94.0504 79.4524ZM118.828 100.25V61.25H112.828V100.25H118.828ZM115.828 64.25H122.328V58.25H115.828V64.25ZM119.328 61.25V110H125.328V61.25H119.328ZM122.328 107H115.828V113H122.328V107ZM118.106 108.048L98.6059 85.2976L94.0504 89.2024L113.55 111.952L118.106 108.048ZM168.336 77.5L171.019 78.8416L173.19 74.5H168.336V77.5ZM165.086 84V87H166.94L167.769 85.3416L165.086 84ZM158.941 103.5V106.5H164.036L161.565 102.045L158.941 103.5ZM155.336 97L157.959 95.5448L157.102 94H155.336V97ZM142.336 97H139.336V100H142.336V97ZM142.336 90.5V87.5H139.336V90.5H142.336ZM158.586 90.5L161.22 89.0634L160.367 87.5H158.586V90.5ZM178.086 126.25V129.25H183.14L180.72 124.813L178.086 126.25ZM171.586 126.25L168.964 127.708L169.822 129.25H171.586V126.25ZM162.547 110L165.169 108.542L164.311 107H162.547V110ZM130.809 105.277L128.676 107.387L128.687 107.399L128.699 107.41L130.809 105.277ZM130.809 82.2734L128.687 80.1521L130.809 82.2734ZM142.336 80.5H168.336V74.5H142.336V80.5ZM165.653 76.1584L162.403 82.6584L167.769 85.3416L171.019 78.8416L165.653 76.1584ZM165.086 81H142.336V87H165.086V81ZM142.336 81C138.841 81 135.773 82.2576 133.308 84.7224L137.551 88.9651C138.878 87.6382 140.414 87 142.336 87V81ZM133.308 84.7224C130.844 87.1873 129.586 90.2551 129.586 93.75H135.586C135.586 91.8282 136.224 90.2919 137.551 88.9651L133.308 84.7224ZM129.586 93.75C129.586 97.2449 130.844 100.313 133.308 102.778L137.551 98.5349C136.224 97.2081 135.586 95.6718 135.586 93.75H129.586ZM133.308 102.778C135.773 105.242 138.841 106.5 142.336 106.5V100.5C140.414 100.5 138.878 99.8618 137.551 98.5349L133.308 102.778ZM142.336 106.5H158.941V100.5H142.336V106.5ZM161.565 102.045L157.959 95.5448L152.712 98.4552L156.318 104.955L161.565 102.045ZM155.336 94H142.336V100H155.336V94ZM145.336 97V90.5H139.336V97H145.336ZM142.336 93.5H158.586V87.5H142.336V93.5ZM155.952 91.9366L175.452 127.687L180.72 124.813L161.22 89.0634L155.952 91.9366ZM178.086 123.25H171.586V129.25H178.086V123.25ZM174.208 124.792L165.169 108.542L159.925 111.458L168.964 127.708L174.208 124.792ZM162.547 107H142.336V113H162.547V107ZM142.336 107C138.618 107 135.536 105.734 132.919 103.145L128.699 107.41C132.446 111.118 137.048 113 142.336 113V107ZM132.941 103.167C130.352 100.55 129.086 97.4677 129.086 93.75H123.086C123.086 99.0375 124.968 103.64 128.676 107.387L132.941 103.167ZM129.086 93.75C129.086 90.033 130.351 86.9735 132.93 84.3948L128.687 80.1521C124.969 83.8702 123.086 88.4618 123.086 93.75H129.086ZM132.93 84.3948C135.549 81.7754 138.629 80.5 142.336 80.5V74.5C137.038 74.5 132.432 76.4069 128.687 80.1521L132.93 84.3948ZM171.129 110H168.129V113H171.129V110ZM171.129 103.5V100.5H168.129V103.5H171.129ZM212.414 102.586L214.535 104.707L212.414 102.586ZM212.414 97.9648L210.236 100.028L210.292 100.087L210.351 100.143L212.414 97.9648ZM216.629 77.5H219.629V74.5H216.629V77.5ZM216.629 84V87H219.629V84H216.629ZM194.793 84.9648L196.914 87.0862L194.793 84.9648ZM194.793 89.5859L192.615 91.6492L192.671 91.708L192.73 91.7638L194.793 89.5859ZM210.129 107H171.129V113H210.129V107ZM174.129 110V103.5H168.129V110H174.129ZM171.129 106.5H210.129V100.5H171.129V106.5ZM210.129 106.5C211.785 106.5 213.327 105.916 214.535 104.707L210.293 100.465C210.283 100.474 210.276 100.481 210.271 100.484C210.267 100.488 210.265 100.49 210.264 100.49C210.264 100.49 210.265 100.489 210.267 100.488C210.269 100.487 210.271 100.486 210.272 100.486C210.275 100.485 210.269 100.488 210.249 100.491C210.229 100.495 210.19 100.5 210.129 100.5V106.5ZM214.535 104.707C215.744 103.498 216.379 101.955 216.379 100.25H210.379C210.379 100.302 210.374 100.334 210.371 100.35C210.368 100.366 210.366 100.372 210.365 100.374C210.364 100.376 210.362 100.382 210.354 100.394C210.345 100.406 210.327 100.43 210.293 100.465L214.535 104.707ZM216.379 100.25C216.379 98.5415 215.74 96.9828 214.477 95.787L210.351 100.143C210.363 100.154 210.371 100.163 210.376 100.169C210.381 100.174 210.383 100.177 210.383 100.177C210.383 100.177 210.382 100.177 210.382 100.176C210.381 100.175 210.38 100.173 210.38 100.172C210.378 100.168 210.376 100.164 210.374 100.16C210.37 100.151 210.371 100.149 210.372 100.158C210.374 100.169 210.379 100.198 210.379 100.25H216.379ZM214.592 95.9016C213.396 94.6394 211.837 94 210.129 94V100C210.181 100 210.21 100.005 210.22 100.007C210.23 100.008 210.228 100.009 210.219 100.005C210.215 100.003 210.211 100.001 210.207 99.9994C210.206 99.9984 210.204 99.9976 210.203 99.997C210.202 99.9964 210.202 99.9961 210.202 99.9961C210.202 99.9962 210.205 99.9981 210.21 100.003C210.216 100.008 210.224 100.016 210.236 100.028L214.592 95.9016ZM210.129 94H197.129V100H210.129V94ZM197.129 94C195.207 94 193.671 93.3618 192.344 92.0349L188.101 96.2776C190.566 98.7424 193.634 100 197.129 100V94ZM192.344 92.0349C191.017 90.7081 190.379 89.1718 190.379 87.25H184.379C184.379 90.7449 185.637 93.8127 188.101 96.2776L192.344 92.0349ZM190.379 87.25C190.379 85.3282 191.017 83.7919 192.344 82.4651L188.101 78.2224C185.637 80.6873 184.379 83.7551 184.379 87.25H190.379ZM192.344 82.4651C193.671 81.1382 195.207 80.5 197.129 80.5V74.5C193.634 74.5 190.566 75.7576 188.101 78.2224L192.344 82.4651ZM197.129 80.5H216.629V74.5H197.129V80.5ZM213.629 77.5V84H219.629V77.5H213.629ZM216.629 81H197.129V87H216.629V81ZM197.129 81C195.424 81 193.881 81.6346 192.672 82.8435L196.914 87.0862C196.949 87.0514 196.973 87.0334 196.985 87.0252C196.997 87.0172 197.003 87.0147 197.005 87.014C197.006 87.0133 197.013 87.0105 197.029 87.0076C197.045 87.0045 197.077 87 197.129 87V81ZM192.672 82.8435C191.463 84.0523 190.879 85.5939 190.879 87.25H196.879C196.879 87.1884 196.884 87.1497 196.888 87.1297C196.891 87.1103 196.894 87.1044 196.893 87.1073C196.892 87.1084 196.892 87.11 196.891 87.1119C196.89 87.1138 196.889 87.1147 196.889 87.1145C196.889 87.1143 196.891 87.112 196.895 87.1076C196.898 87.1032 196.904 87.096 196.914 87.0862L192.672 82.8435ZM190.879 87.25C190.879 88.9048 191.46 90.4295 192.615 91.6492L196.971 87.5227C196.916 87.4648 196.904 87.4345 196.901 87.4263C196.897 87.4165 196.879 87.3679 196.879 87.25H190.879ZM192.73 91.7638C193.949 92.9193 195.474 93.5 197.129 93.5V87.5C197.011 87.5 196.962 87.4816 196.953 87.4778C196.944 87.4746 196.914 87.463 196.856 87.4081L192.73 91.7638ZM197.129 93.5H210.129V87.5H197.129V93.5ZM210.129 93.5C212.051 93.5 213.587 94.1382 214.914 95.4651L219.156 91.2224C216.692 88.7576 213.624 87.5 210.129 87.5V93.5ZM214.914 95.4651C216.241 96.7919 216.879 98.3282 216.879 100.25H222.879C222.879 96.7551 221.621 93.6873 219.156 91.2224L214.914 95.4651ZM216.879 100.25C216.879 102.172 216.241 103.708 214.914 105.035L219.156 109.278C221.621 106.813 222.879 103.745 222.879 100.25H216.879ZM214.914 105.035C213.587 106.362 212.051 107 210.129 107V113C213.624 113 216.692 111.742 219.156 109.278L214.914 105.035ZM252.379 71V68H249.379V71H252.379ZM265.379 71H268.379V68H265.379V71ZM265.379 77.5V80.5H268.379V77.5H265.379ZM258.879 77.5V74.5H255.879V77.5H258.879ZM258.879 110H255.879V113H258.879V110ZM265.379 110H268.379V107H265.379V110ZM265.379 116.5V119.5H268.379V116.5H265.379ZM252.379 116.5H249.379V119.5H252.379V116.5ZM252.379 74H265.379V68H252.379V74ZM262.379 71V77.5H268.379V71H262.379ZM265.379 74.5H258.879V80.5H265.379V74.5ZM255.879 77.5V110H261.879V77.5H255.879ZM258.879 113H265.379V107H258.879V113ZM262.379 110V116.5H268.379V110H262.379ZM265.379 113.5H252.379V119.5H265.379V113.5ZM255.379 116.5V71H249.379V116.5H255.379ZM278.379 110V113H281.379V110H278.379ZM271.879 110H268.879V113H271.879V110ZM271.879 77.5V74.5H268.879V77.5H271.879ZM278.379 77.5H281.379V74.5H278.379V77.5ZM278.379 107H271.879V113H278.379V107ZM274.879 110V77.5H268.879V110H274.879ZM271.879 80.5H278.379V74.5H271.879V80.5ZM275.379 77.5V110H281.379V77.5H275.379ZM286.859 105.277L284.727 107.387L284.738 107.399L284.749 107.41L286.859 105.277ZM286.859 82.2734L284.738 80.1521L286.859 82.2734ZM309.863 82.2734L307.731 84.3834L307.742 84.3948L307.753 84.4061L309.863 82.2734ZM305.293 100.656L303.172 98.5349L305.293 100.656ZM305.293 86.8438L303.172 88.9651L305.293 86.8438ZM298.387 107C294.669 107 291.586 105.734 288.969 103.145L284.749 107.41C288.497 111.118 293.099 113 298.387 113V107ZM288.992 103.167C286.403 100.55 285.137 97.4677 285.137 93.75H279.137C279.137 99.0375 281.019 103.64 284.727 107.387L288.992 103.167ZM285.137 93.75C285.137 90.033 286.402 86.9735 288.981 84.3948L284.738 80.1521C281.02 83.8702 279.137 88.4618 279.137 93.75H285.137ZM288.981 84.3948C291.6 81.7754 294.679 80.5 298.387 80.5V74.5C293.089 74.5 288.483 76.4069 284.738 80.1521L288.981 84.3948ZM298.387 80.5C302.093 80.5 305.149 81.7744 307.731 84.3834L311.996 80.1635C308.28 76.4079 303.685 74.5 298.387 74.5V80.5ZM307.753 84.4061C310.362 86.9873 311.637 90.0434 311.637 93.75H317.637C317.637 88.4514 315.729 83.8564 311.973 80.1408L307.753 84.4061ZM311.637 93.75C311.637 97.4574 310.361 100.537 307.742 103.156L311.985 107.399C315.73 103.653 317.637 99.0478 317.637 93.75H311.637ZM307.742 103.156C305.163 105.735 302.104 107 298.387 107V113C303.675 113 308.266 111.117 311.985 107.399L307.742 103.156ZM298.387 106.5C301.882 106.5 304.949 105.242 307.414 102.778L303.172 98.5349C301.845 99.8618 300.308 100.5 298.387 100.5V106.5ZM307.414 102.778C309.879 100.313 311.137 97.2449 311.137 93.75H305.137C305.137 95.6718 304.498 97.2081 303.172 98.5349L307.414 102.778ZM311.137 93.75C311.137 90.2551 309.879 87.1873 307.414 84.7224L303.172 88.9651C304.498 90.2919 305.137 91.8282 305.137 93.75H311.137ZM307.414 84.7224C304.949 82.2576 301.882 81 298.387 81V87C300.308 87 301.845 87.6382 303.172 88.9651L307.414 84.7224ZM298.387 81C294.892 81 291.824 82.2576 289.359 84.7224L293.602 88.9651C294.929 87.6382 296.465 87 298.387 87V81ZM289.359 84.7224C286.894 87.1873 285.637 90.2551 285.637 93.75H291.637C291.637 91.8282 292.275 90.2919 293.602 88.9651L289.359 84.7224ZM285.637 93.75C285.637 97.2449 286.894 100.313 289.359 102.778L293.602 98.5349C292.275 97.2081 291.637 95.6718 291.637 93.75H285.637ZM289.359 102.778C291.824 105.242 294.892 106.5 298.387 106.5V100.5C296.465 100.5 294.929 99.8618 293.602 98.5349L289.359 102.778ZM332.766 84V81H329.766V84H332.766ZM332.766 123V126H335.766V123H332.766ZM326.266 123H323.266V126H326.266V123ZM326.266 84H329.266V81H326.266V84ZM313.266 84H310.266V87H313.266V84ZM313.266 77.5V74.5H310.266V77.5H313.266ZM345.766 77.5H348.766V74.5H345.766V77.5ZM345.766 84V87H348.766V84H345.766ZM329.766 84V123H335.766V84H329.766ZM332.766 120H326.266V126H332.766V120ZM329.266 123V84H323.266V123H329.266ZM326.266 81H313.266V87H326.266V81ZM316.266 84V77.5H310.266V84H316.266ZM313.266 80.5H345.766V74.5H313.266V80.5ZM342.766 77.5V84H348.766V77.5H342.766ZM345.766 81H332.766V87H345.766V81ZM358.766 77.5H361.766V74.5H358.766V77.5ZM352.266 77.5H349.266V80.5H352.266V77.5ZM352.266 71V68H349.266V71H352.266ZM365.266 71H368.266V68H365.266V71ZM365.266 116.5V119.5H368.266V116.5H365.266ZM352.266 116.5H349.266V119.5H352.266V116.5ZM352.266 110V107H349.266V110H352.266ZM358.766 110V113H361.766V110H358.766ZM358.766 74.5H352.266V80.5H358.766V74.5ZM355.266 77.5V71H349.266V77.5H355.266ZM352.266 74H365.266V68H352.266V74ZM362.266 71V116.5H368.266V71H362.266ZM365.266 113.5H352.266V119.5H365.266V113.5ZM355.266 116.5V110H349.266V116.5H355.266ZM352.266 113H358.766V107H352.266V113ZM361.766 110V77.5H355.766V110H361.766Z" fill="black" mask="url(#path-1-outside-1_58_275)"/>
</svg>
