<svg width="448" height="152" viewBox="0 0 448 152" fill="none" xmlns="http://www.w3.org/2000/svg">
<path d="M105.867 63H55.6167V54.625H105.867C107.044 54.625 108.026 54.2324 108.811 53.4473C109.64 52.6185 110.054 51.6152 110.054 50.4375C110.054 49.2598 109.64 48.2783 108.811 47.4932C108.026 46.6644 107.044 46.25 105.867 46.25H89.1167C85.6271 46.25 82.661 45.0286 80.2183 42.5859C77.7756 40.1432 76.5542 37.1771 76.5542 33.6875C76.5542 30.1979 77.7756 27.2318 80.2183 24.7891C82.661 22.3464 85.6271 21.125 89.1167 21.125H114.242V29.5H89.1167C87.939 29.5 86.9357 29.9144 86.1069 30.7432C85.3218 31.5283 84.9292 32.5098 84.9292 33.6875C84.9292 34.8652 85.3218 35.8685 86.1069 36.6973C86.9357 37.4824 87.939 37.875 89.1167 37.875H105.867C109.356 37.875 112.322 39.0964 114.765 41.5391C117.208 43.9818 118.429 46.9479 118.429 50.4375C118.429 53.9271 117.208 56.8932 114.765 59.3359C112.322 61.7786 109.356 63 105.867 63ZM189.748 46.25H141.591V37.875H189.748V46.25ZM164.623 21.125V29.5H131.123V54.625H164.623V63H122.748V21.125H164.623ZM214.873 54.625H244.185V63H214.873C209.071 63 204.12 60.9717 200.02 56.915C195.963 52.8148 193.935 47.8639 193.935 42.0625C193.935 36.2611 195.963 31.332 200.02 27.2754C204.12 23.1751 209.071 21.125 214.873 21.125H248.373L244.185 29.5H214.873C211.383 29.5 208.417 30.7214 205.974 33.1641C203.531 35.6068 202.31 38.5729 202.31 42.0625C202.31 45.5521 203.531 48.5182 205.974 50.9609C208.417 53.4036 211.383 54.625 214.873 54.625ZM265.188 63C259.387 63 254.436 60.9717 250.335 56.915C246.279 52.8148 244.25 47.8639 244.25 42.0625C244.25 36.2611 246.279 31.332 250.335 27.2754C254.436 23.1751 259.387 21.125 265.188 21.125C270.989 21.125 275.918 23.1751 279.975 27.2754C284.075 31.332 286.125 36.2611 286.125 42.0625C286.125 47.8639 284.075 52.8148 279.975 56.915C275.918 60.9717 270.989 63 265.188 63ZM265.188 54.625C268.678 54.625 271.644 53.4036 274.086 50.9609C276.529 48.5182 277.75 45.5521 277.75 42.0625C277.75 38.5729 276.529 35.6068 274.086 33.1641C271.644 30.7214 268.678 29.5 265.188 29.5C261.698 29.5 258.732 30.7214 256.29 33.1641C253.847 35.6068 252.625 38.5729 252.625 42.0625C252.625 45.5521 253.847 48.5182 256.29 50.9609C258.732 53.4036 261.698 54.625 265.188 54.625ZM299.342 33.6875V79.75H290.967V21.125H299.342L324.467 50.4375V0.1875H332.842V63H324.467L299.342 33.6875ZM371.446 63H342.133V21.125H371.446C377.247 21.125 382.176 23.1751 386.233 27.2754C390.333 31.332 392.383 36.2611 392.383 42.0625C392.383 47.8639 390.333 52.8148 386.233 56.915C382.176 60.9717 377.247 63 371.446 63ZM350.508 54.625H371.446C374.935 54.625 377.902 53.4036 380.344 50.9609C382.787 48.5182 384.008 45.5521 384.008 42.0625C384.008 38.5729 382.787 35.6068 380.344 33.1641C377.902 30.7214 374.935 29.5 371.446 29.5H350.508V54.625ZM28.5288 135L14.7231 109.875H29.3794C30.5571 109.875 31.5386 109.482 32.3237 108.697C33.1525 107.868 33.5669 106.865 33.5669 105.688C33.5669 104.51 33.1525 103.528 32.3237 102.743C31.5386 101.914 30.5571 101.5 29.3794 101.5H8.44189V135H0.0668945V93.125H29.3794C32.869 93.125 35.8351 94.3464 38.2778 96.7891C40.7205 99.2318 41.9419 102.198 41.9419 105.688C41.9419 109.177 40.7205 112.143 38.2778 114.586C35.8351 117.029 32.869 118.25 29.3794 118.25H27.5474L36.8384 135H28.5288ZM45.9985 114.062V93.125H54.3735V114.062C54.3735 117.552 55.5949 120.518 58.0376 122.961C60.4803 125.404 63.4465 126.625 66.936 126.625C70.4256 126.625 73.3918 125.404 75.8345 122.961C78.2772 120.518 79.4985 117.552 79.4985 114.062V72.1875H87.8735V114.062C87.8735 119.864 85.8234 124.815 81.7231 128.915C77.6665 132.972 72.7375 135 66.936 135C61.1346 135 56.1838 132.972 52.0835 128.915C48.0269 124.815 45.9985 119.864 45.9985 114.062ZM103.577 105.688V151.75H95.2017V93.125H103.577L128.702 122.438V72.1875H137.077V135H128.702L103.577 105.688ZM154.808 105.688V151.75H146.433V93.125H154.808L179.933 122.438V72.1875H188.308V135H179.933L154.808 105.688ZM264.599 118.25H216.443V109.875H264.599V118.25ZM239.474 93.125V101.5H205.974V126.625H239.474V135H197.599V93.125H239.474ZM277.554 135H269.179V93.125H298.492C301.981 93.125 304.947 94.3464 307.39 96.7891C309.833 99.2318 311.054 102.198 311.054 105.688C311.054 109.177 309.833 112.143 307.39 114.586C304.947 117.029 301.981 118.25 298.492 118.25H296.66L315.242 151.75H306.867L283.835 109.875H298.492C299.669 109.875 300.651 109.482 301.436 108.697C302.265 107.868 302.679 106.865 302.679 105.688C302.679 104.51 302.265 103.528 301.436 102.743C300.651 101.914 299.669 101.5 298.492 101.5H277.554V135ZM357.117 114.062V93.125H365.492V114.062C365.492 117.552 366.713 120.518 369.156 122.961C371.598 125.404 374.565 126.625 378.054 126.625C381.544 126.625 384.51 125.404 386.953 122.961C389.395 120.518 390.617 117.552 390.617 114.062V93.125H398.992V114.062C398.992 119.864 396.942 124.815 392.841 128.915C388.785 132.972 383.856 135 378.054 135C372.253 135 367.302 132.972 363.202 128.915C359.145 124.815 357.117 119.864 357.117 114.062ZM414.433 151.75H406.058V93.125H435.371C438.86 93.125 441.826 94.3464 444.269 96.7891C446.712 99.2318 447.933 102.198 447.933 105.688C447.933 109.177 446.712 112.143 444.269 114.586C441.826 117.029 438.86 118.25 435.371 118.25H424.902V109.875H435.371C436.548 109.875 437.53 109.482 438.315 108.697C439.144 107.868 439.558 106.865 439.558 105.688C439.558 104.51 439.144 103.528 438.315 102.743C437.53 101.914 436.548 101.5 435.371 101.5H414.433V151.75Z" fill="#F44878"/>
</svg>
