<svg width="436" height="62" viewBox="0 0 436 62" fill="none" xmlns="http://www.w3.org/2000/svg">
<mask id="path-1-outside-1_58_285" maskUnits="userSpaceOnUse" x="-3.12146" y="-3" width="445" height="68" fill="black">
<rect fill="white" x="-3.12146" y="-3" width="445" height="68"/>
<path d="M39.1285 49H0.12854V42.5H39.1285C40.0426 42.5 40.8043 42.1953 41.4137 41.5859C42.0569 40.9427 42.3785 40.1641 42.3785 39.25C42.3785 38.3359 42.0569 37.5742 41.4137 36.9648C40.8043 36.3216 40.0426 36 39.1285 36H26.1285C23.4202 36 21.1181 35.0521 19.2223 33.1562C17.3265 31.2604 16.3785 28.9583 16.3785 26.25C16.3785 23.5417 17.3265 21.2396 19.2223 19.3438C21.1181 17.4479 23.4202 16.5 26.1285 16.5H45.6285V23H26.1285C25.2145 23 24.4358 23.3216 23.7926 23.9648C23.1832 24.5742 22.8785 25.3359 22.8785 26.25C22.8785 27.1641 23.1832 27.9427 23.7926 28.5859C24.4358 29.1953 25.2145 29.5 26.1285 29.5H39.1285C41.8369 29.5 44.139 30.4479 46.0348 32.3438C47.9306 34.2396 48.8785 36.5417 48.8785 39.25C48.8785 41.9583 47.9306 44.2604 46.0348 46.1562C44.139 48.0521 41.8369 49 39.1285 49ZM50.9606 32.75V16.5H57.4606V32.75C57.4606 35.4583 58.4085 37.7604 60.3043 39.6562C62.2002 41.5521 64.5022 42.5 67.2106 42.5C69.9189 42.5 72.221 41.5521 74.1168 39.6562C76.0127 37.7604 76.9606 35.4583 76.9606 32.75V0.25H83.4606V32.75C83.4606 37.2526 81.8694 41.0951 78.6871 44.2773C75.5387 47.4258 71.7132 49 67.2106 49C62.708 49 58.8655 47.4258 55.6832 44.2773C52.5348 41.0951 50.9606 37.2526 50.9606 32.75ZM121.089 49H82.0895V42.5H121.089C122.004 42.5 122.765 42.1953 123.375 41.5859C124.018 40.9427 124.339 40.1641 124.339 39.25C124.339 38.3359 124.018 37.5742 123.375 36.9648C122.765 36.3216 122.004 36 121.089 36H108.089C105.381 36 103.079 35.0521 101.183 33.1562C99.2874 31.2604 98.3395 28.9583 98.3395 26.25C98.3395 23.5417 99.2874 21.2396 101.183 19.3438C103.079 17.4479 105.381 16.5 108.089 16.5H127.589V23H108.089C107.175 23 106.397 23.3216 105.754 23.9648C105.144 24.5742 104.839 25.3359 104.839 26.25C104.839 27.1641 105.144 27.9427 105.754 28.5859C106.397 29.1953 107.175 29.5 108.089 29.5H121.089C123.798 29.5 126.1 30.4479 127.996 32.3438C129.892 34.2396 130.839 36.5417 130.839 39.25C130.839 41.9583 129.892 44.2604 127.996 46.1562C126.1 48.0521 123.798 49 121.089 49ZM151.304 23V62H144.804V23H131.804V16.5H164.304V23H151.304ZM155.976 49L172.226 14.875L188.476 49H181.164L172.226 30.3125L163.289 49H155.976ZM196.601 49H190.101V16.5H196.601V49ZM210.363 26.25V62H203.863V16.5H210.363L229.863 39.25V0.25H236.363V49H229.863L210.363 26.25ZM237.988 49L254.238 14.875L270.488 49H263.175L254.238 30.3125L245.3 49H237.988ZM294.863 49H272.113V16.5H294.863C297.571 16.5 299.873 17.4479 301.769 19.3438C303.665 21.2396 304.613 23.5417 304.613 26.25C304.613 28.7552 303.8 30.9219 302.175 32.75C303.8 34.5781 304.613 36.7448 304.613 39.25C304.613 41.9583 303.665 44.2604 301.769 46.1562C299.873 48.0521 297.571 49 294.863 49ZM278.613 42.5H294.863C295.777 42.5 296.539 42.1953 297.148 41.5859C297.791 40.9427 298.113 40.1641 298.113 39.25C298.113 38.3359 297.791 37.5742 297.148 36.9648C296.539 36.3216 295.777 36 294.863 36H286.738V29.5H294.863C295.777 29.5 296.539 29.1953 297.148 28.5859C297.791 27.9427 298.113 27.1641 298.113 26.25C298.113 25.3359 297.791 24.5742 297.148 23.9648C296.539 23.3216 295.777 23 294.863 23H278.613V42.5ZM315.683 49H309.183V16.5H315.683V49ZM329.394 42.5H355.394V49H322.894V16.5H329.394V42.5ZM365.5 49H359V16.5H365.5V49ZM388.605 23V62H382.105V23H369.105V16.5H401.605V23H388.605ZM415.824 33.7656L402.824 16.5H410.949L419.074 27.3164L427.199 16.5H435.324L422.324 33.7148V62H415.824V33.7656Z"/>
</mask>
<path d="M39.1285 49H0.12854V42.5H39.1285C40.0426 42.5 40.8043 42.1953 41.4137 41.5859C42.0569 40.9427 42.3785 40.1641 42.3785 39.25C42.3785 38.3359 42.0569 37.5742 41.4137 36.9648C40.8043 36.3216 40.0426 36 39.1285 36H26.1285C23.4202 36 21.1181 35.0521 19.2223 33.1562C17.3265 31.2604 16.3785 28.9583 16.3785 26.25C16.3785 23.5417 17.3265 21.2396 19.2223 19.3438C21.1181 17.4479 23.4202 16.5 26.1285 16.5H45.6285V23H26.1285C25.2145 23 24.4358 23.3216 23.7926 23.9648C23.1832 24.5742 22.8785 25.3359 22.8785 26.25C22.8785 27.1641 23.1832 27.9427 23.7926 28.5859C24.4358 29.1953 25.2145 29.5 26.1285 29.5H39.1285C41.8369 29.5 44.139 30.4479 46.0348 32.3438C47.9306 34.2396 48.8785 36.5417 48.8785 39.25C48.8785 41.9583 47.9306 44.2604 46.0348 46.1562C44.139 48.0521 41.8369 49 39.1285 49ZM50.9606 32.75V16.5H57.4606V32.75C57.4606 35.4583 58.4085 37.7604 60.3043 39.6562C62.2002 41.5521 64.5022 42.5 67.2106 42.5C69.9189 42.5 72.221 41.5521 74.1168 39.6562C76.0127 37.7604 76.9606 35.4583 76.9606 32.75V0.25H83.4606V32.75C83.4606 37.2526 81.8694 41.0951 78.6871 44.2773C75.5387 47.4258 71.7132 49 67.2106 49C62.708 49 58.8655 47.4258 55.6832 44.2773C52.5348 41.0951 50.9606 37.2526 50.9606 32.75ZM121.089 49H82.0895V42.5H121.089C122.004 42.5 122.765 42.1953 123.375 41.5859C124.018 40.9427 124.339 40.1641 124.339 39.25C124.339 38.3359 124.018 37.5742 123.375 36.9648C122.765 36.3216 122.004 36 121.089 36H108.089C105.381 36 103.079 35.0521 101.183 33.1562C99.2874 31.2604 98.3395 28.9583 98.3395 26.25C98.3395 23.5417 99.2874 21.2396 101.183 19.3438C103.079 17.4479 105.381 16.5 108.089 16.5H127.589V23H108.089C107.175 23 106.397 23.3216 105.754 23.9648C105.144 24.5742 104.839 25.3359 104.839 26.25C104.839 27.1641 105.144 27.9427 105.754 28.5859C106.397 29.1953 107.175 29.5 108.089 29.5H121.089C123.798 29.5 126.1 30.4479 127.996 32.3438C129.892 34.2396 130.839 36.5417 130.839 39.25C130.839 41.9583 129.892 44.2604 127.996 46.1562C126.1 48.0521 123.798 49 121.089 49ZM151.304 23V62H144.804V23H131.804V16.5H164.304V23H151.304ZM155.976 49L172.226 14.875L188.476 49H181.164L172.226 30.3125L163.289 49H155.976ZM196.601 49H190.101V16.5H196.601V49ZM210.363 26.25V62H203.863V16.5H210.363L229.863 39.25V0.25H236.363V49H229.863L210.363 26.25ZM237.988 49L254.238 14.875L270.488 49H263.175L254.238 30.3125L245.3 49H237.988ZM294.863 49H272.113V16.5H294.863C297.571 16.5 299.873 17.4479 301.769 19.3438C303.665 21.2396 304.613 23.5417 304.613 26.25C304.613 28.7552 303.8 30.9219 302.175 32.75C303.8 34.5781 304.613 36.7448 304.613 39.25C304.613 41.9583 303.665 44.2604 301.769 46.1562C299.873 48.0521 297.571 49 294.863 49ZM278.613 42.5H294.863C295.777 42.5 296.539 42.1953 297.148 41.5859C297.791 40.9427 298.113 40.1641 298.113 39.25C298.113 38.3359 297.791 37.5742 297.148 36.9648C296.539 36.3216 295.777 36 294.863 36H286.738V29.5H294.863C295.777 29.5 296.539 29.1953 297.148 28.5859C297.791 27.9427 298.113 27.1641 298.113 26.25C298.113 25.3359 297.791 24.5742 297.148 23.9648C296.539 23.3216 295.777 23 294.863 23H278.613V42.5ZM315.683 49H309.183V16.5H315.683V49ZM329.394 42.5H355.394V49H322.894V16.5H329.394V42.5ZM365.5 49H359V16.5H365.5V49ZM388.605 23V62H382.105V23H369.105V16.5H401.605V23H388.605ZM415.824 33.7656L402.824 16.5H410.949L419.074 27.3164L427.199 16.5H435.324L422.324 33.7148V62H415.824V33.7656Z" fill="white"/>
<path d="M0.12854 49H-2.87146V52H0.12854V49ZM0.12854 42.5V39.5H-2.87146V42.5H0.12854ZM41.4137 41.5859L43.535 43.7073L41.4137 41.5859ZM41.4137 36.9648L39.2358 39.0281L39.2916 39.0869L39.3505 39.1427L41.4137 36.9648ZM45.6285 16.5H48.6285V13.5H45.6285V16.5ZM45.6285 23V26H48.6285V23H45.6285ZM23.7926 23.9648L25.9139 26.0862L23.7926 23.9648ZM23.7926 28.5859L21.6147 30.6492L21.6705 30.708L21.7294 30.7638L23.7926 28.5859ZM39.1285 46H0.12854V52H39.1285V46ZM3.12854 49V42.5H-2.87146V49H3.12854ZM0.12854 45.5H39.1285V39.5H0.12854V45.5ZM39.1285 45.5C40.7847 45.5 42.3263 44.916 43.535 43.7073L39.2924 39.4646C39.2826 39.4744 39.2754 39.4807 39.2709 39.4844C39.2665 39.488 39.2642 39.4895 39.264 39.4897C39.2638 39.4898 39.2648 39.4892 39.2666 39.4882C39.2685 39.4872 39.2702 39.4865 39.2712 39.4861C39.2742 39.4849 39.2683 39.4877 39.2489 39.4913C39.2288 39.4949 39.1901 39.5 39.1285 39.5V45.5ZM43.535 43.7073C44.7439 42.4984 45.3785 40.9554 45.3785 39.25H39.3785C39.3785 39.302 39.374 39.334 39.371 39.3502C39.368 39.3658 39.3653 39.3725 39.3645 39.3743C39.3638 39.376 39.3614 39.3819 39.3534 39.3936C39.3451 39.4058 39.3271 39.4299 39.2924 39.4646L43.535 43.7073ZM45.3785 39.25C45.3785 37.5415 44.7392 35.9828 43.4769 34.787L39.3505 39.1427C39.3628 39.1544 39.3709 39.1632 39.3757 39.1687C39.3804 39.1741 39.3824 39.1769 39.3824 39.1769C39.3824 39.177 39.3821 39.1765 39.3815 39.1756C39.3809 39.1746 39.3801 39.1733 39.3792 39.1716C39.3772 39.1681 39.3753 39.1641 39.3736 39.1601C39.3697 39.1509 39.3701 39.1487 39.372 39.1585C39.374 39.1689 39.3785 39.1978 39.3785 39.25H45.3785ZM43.5916 34.9016C42.3957 33.6394 40.837 33 39.1285 33V39C39.1807 39 39.2097 39.0045 39.2201 39.0065C39.2298 39.0084 39.2277 39.0088 39.2185 39.005C39.2144 39.0033 39.2105 39.0013 39.207 38.9994C39.2053 38.9984 39.2039 38.9976 39.203 38.997C39.202 38.9964 39.2016 38.9961 39.2016 38.9961C39.2016 38.9962 39.2044 38.9981 39.2099 39.0028C39.2154 39.0076 39.2241 39.0157 39.2358 39.0281L43.5916 34.9016ZM39.1285 33H26.1285V39H39.1285V33ZM26.1285 33C24.2068 33 22.6704 32.3618 21.3436 31.0349L17.101 35.2776C19.5658 37.7424 22.6336 39 26.1285 39V33ZM21.3436 31.0349C20.0168 29.7081 19.3785 28.1718 19.3785 26.25H13.3785C13.3785 29.7449 14.6361 32.8127 17.101 35.2776L21.3436 31.0349ZM19.3785 26.25C19.3785 24.3282 20.0168 22.7919 21.3436 21.4651L17.101 17.2224C14.6361 19.6873 13.3785 22.7551 13.3785 26.25H19.3785ZM21.3436 21.4651C22.6704 20.1382 24.2068 19.5 26.1285 19.5V13.5C22.6336 13.5 19.5658 14.7576 17.101 17.2224L21.3436 21.4651ZM26.1285 19.5H45.6285V13.5H26.1285V19.5ZM42.6285 16.5V23H48.6285V16.5H42.6285ZM45.6285 20H26.1285V26H45.6285V20ZM26.1285 20C24.4232 20 22.8802 20.6346 21.6713 21.8435L25.9139 26.0862C25.9487 26.0514 25.9727 26.0334 25.9849 26.0252C25.9967 26.0172 26.0025 26.0147 26.0043 26.014C26.0061 26.0133 26.0128 26.0105 26.0284 26.0076C26.0445 26.0045 26.0766 26 26.1285 26V20ZM21.6713 21.8435C20.4625 23.0523 19.8785 24.5939 19.8785 26.25H25.8785C25.8785 26.1884 25.8836 26.1497 25.8873 26.1297C25.8908 26.1103 25.8937 26.1044 25.8925 26.1073C25.8921 26.1084 25.8913 26.11 25.8904 26.1119C25.8894 26.1138 25.8887 26.1147 25.8889 26.1145C25.889 26.1143 25.8905 26.112 25.8942 26.1076C25.8978 26.1032 25.9041 26.096 25.9139 26.0862L21.6713 21.8435ZM19.8785 26.25C19.8785 27.9048 20.4592 29.4295 21.6147 30.6492L25.9705 26.5227C25.9156 26.4648 25.904 26.4345 25.9008 26.4263C25.8969 26.4165 25.8785 26.3679 25.8785 26.25H19.8785ZM21.7294 30.7638C22.9491 31.9193 24.4738 32.5 26.1285 32.5V26.5C26.0106 26.5 25.962 26.4816 25.9522 26.4778C25.944 26.4746 25.9138 26.463 25.8558 26.4081L21.7294 30.7638ZM26.1285 32.5H39.1285V26.5H26.1285V32.5ZM39.1285 32.5C41.0503 32.5 42.5866 33.1382 43.9135 34.4651L48.1561 30.2224C45.6913 27.7576 42.6234 26.5 39.1285 26.5V32.5ZM43.9135 34.4651C45.2403 35.7919 45.8785 37.3282 45.8785 39.25H51.8785C51.8785 35.7551 50.6209 32.6873 48.1561 30.2224L43.9135 34.4651ZM45.8785 39.25C45.8785 41.1718 45.2403 42.7081 43.9135 44.0349L48.1561 48.2776C50.6209 45.8127 51.8785 42.7449 51.8785 39.25H45.8785ZM43.9135 44.0349C42.5866 45.3618 41.0503 46 39.1285 46V52C42.6234 52 45.6913 50.7424 48.1561 48.2776L43.9135 44.0349ZM50.9606 16.5V13.5H47.9606V16.5H50.9606ZM57.4606 16.5H60.4606V13.5H57.4606V16.5ZM74.1168 39.6562L71.9955 37.5349L74.1168 39.6562ZM76.9606 0.25V-2.75H73.9606V0.25H76.9606ZM83.4606 0.25H86.4606V-2.75H83.4606V0.25ZM55.6832 44.2773L53.5506 46.3873L53.5619 46.3987L53.5733 46.41L55.6832 44.2773ZM53.9606 32.75V16.5H47.9606V32.75H53.9606ZM50.9606 19.5H57.4606V13.5H50.9606V19.5ZM54.4606 16.5V32.75H60.4606V16.5H54.4606ZM54.4606 32.75C54.4606 36.2449 55.7182 39.3127 58.183 41.7776L62.4256 37.5349C61.0988 36.2081 60.4606 34.6718 60.4606 32.75H54.4606ZM58.183 41.7776C60.6478 44.2424 63.7157 45.5 67.2106 45.5V39.5C65.2888 39.5 63.7525 38.8618 62.4256 37.5349L58.183 41.7776ZM67.2106 45.5C70.7055 45.5 73.7733 44.2424 76.2381 41.7776L71.9955 37.5349C70.6687 38.8618 69.1323 39.5 67.2106 39.5V45.5ZM76.2381 41.7776C78.703 39.3127 79.9606 36.2449 79.9606 32.75H73.9606C73.9606 34.6718 73.3223 36.2081 71.9955 37.5349L76.2381 41.7776ZM79.9606 32.75V0.25H73.9606V32.75H79.9606ZM76.9606 3.25H83.4606V-2.75H76.9606V3.25ZM80.4606 0.25V32.75H86.4606V0.25H80.4606ZM80.4606 32.75C80.4606 36.4574 79.1852 39.5366 76.5658 42.156L80.8085 46.3987C84.5537 42.6535 86.4606 38.0478 86.4606 32.75H80.4606ZM76.5658 42.156C73.9871 44.7348 70.9276 46 67.2106 46V52C72.4988 52 77.0903 50.1168 80.8085 46.3987L76.5658 42.156ZM67.2106 46C63.4929 46 60.4101 44.7338 57.7932 42.1447L53.5733 46.41C57.3209 50.1177 61.923 52 67.2106 52V46ZM57.8159 42.1674C55.2267 39.5504 53.9606 36.4677 53.9606 32.75H47.9606C47.9606 38.0375 49.8429 42.6397 53.5506 46.3873L57.8159 42.1674ZM82.0895 49H79.0895V52H82.0895V49ZM82.0895 42.5V39.5H79.0895V42.5H82.0895ZM123.375 41.5859L125.496 43.7073L123.375 41.5859ZM123.375 36.9648L121.197 39.0281L121.253 39.0869L121.311 39.1427L123.375 36.9648ZM127.589 16.5H130.589V13.5H127.589V16.5ZM127.589 23V26H130.589V23H127.589ZM105.754 23.9648L107.875 26.0862L105.754 23.9648ZM105.754 28.5859L103.576 30.6492L103.631 30.708L103.69 30.7638L105.754 28.5859ZM121.089 46H82.0895V52H121.089V46ZM85.0895 49V42.5H79.0895V49H85.0895ZM82.0895 45.5H121.089V39.5H82.0895V45.5ZM121.089 45.5C122.746 45.5 124.287 44.916 125.496 43.7073L121.253 39.4646C121.244 39.4744 121.236 39.4807 121.232 39.4844C121.227 39.488 121.225 39.4895 121.225 39.4897C121.225 39.4898 121.226 39.4892 121.228 39.4882C121.229 39.4872 121.231 39.4865 121.232 39.4861C121.235 39.4849 121.229 39.4877 121.21 39.4913C121.19 39.4949 121.151 39.5 121.089 39.5V45.5ZM125.496 43.7073C126.705 42.4984 127.339 40.9554 127.339 39.25H121.339C121.339 39.302 121.335 39.334 121.332 39.3502C121.329 39.3658 121.326 39.3725 121.325 39.3743C121.325 39.376 121.322 39.3819 121.314 39.3936C121.306 39.4058 121.288 39.4299 121.253 39.4646L125.496 43.7073ZM127.339 39.25C127.339 37.5415 126.7 35.9828 125.438 34.787L121.311 39.1427C121.324 39.1544 121.332 39.1632 121.337 39.1687C121.341 39.1741 121.343 39.1769 121.343 39.1769C121.343 39.177 121.343 39.1765 121.342 39.1756C121.342 39.1746 121.341 39.1733 121.34 39.1716C121.338 39.1681 121.336 39.1641 121.335 39.1601C121.331 39.1509 121.331 39.1487 121.333 39.1585C121.335 39.1689 121.339 39.1978 121.339 39.25H127.339ZM125.552 34.9016C124.357 33.6394 122.798 33 121.089 33V39C121.142 39 121.171 39.0045 121.181 39.0065C121.191 39.0084 121.189 39.0088 121.179 39.005C121.175 39.0033 121.171 39.0013 121.168 38.9994C121.166 38.9984 121.165 38.9976 121.164 38.997C121.163 38.9964 121.162 38.9961 121.163 38.9961C121.163 38.9962 121.165 38.9981 121.171 39.0028C121.176 39.0076 121.185 39.0157 121.197 39.0281L125.552 34.9016ZM121.089 33H108.089V39H121.089V33ZM108.089 33C106.168 33 104.631 32.3618 103.305 31.0349L99.0619 35.2776C101.527 37.7424 104.595 39 108.089 39V33ZM103.305 31.0349C101.978 29.7081 101.339 28.1718 101.339 26.25H95.3395C95.3395 29.7449 96.5971 32.8127 99.0619 35.2776L103.305 31.0349ZM101.339 26.25C101.339 24.3282 101.978 22.7919 103.305 21.4651L99.0619 17.2224C96.5971 19.6873 95.3395 22.7551 95.3395 26.25H101.339ZM103.305 21.4651C104.631 20.1382 106.168 19.5 108.089 19.5V13.5C104.595 13.5 101.527 14.7576 99.0619 17.2224L103.305 21.4651ZM108.089 19.5H127.589V13.5H108.089V19.5ZM124.589 16.5V23H130.589V16.5H124.589ZM127.589 20H108.089V26H127.589V20ZM108.089 20C106.384 20 104.841 20.6346 103.632 21.8435L107.875 26.0862C107.91 26.0514 107.934 26.0334 107.946 26.0252C107.958 26.0172 107.963 26.0147 107.965 26.014C107.967 26.0133 107.974 26.0105 107.989 26.0076C108.005 26.0045 108.037 26 108.089 26V20ZM103.632 21.8435C102.423 23.0523 101.839 24.5939 101.839 26.25H107.839C107.839 26.1884 107.845 26.1497 107.848 26.1297C107.852 26.1103 107.855 26.1044 107.853 26.1073C107.853 26.1084 107.852 26.11 107.851 26.1119C107.85 26.1138 107.85 26.1147 107.85 26.1145C107.85 26.1143 107.851 26.112 107.855 26.1076C107.859 26.1032 107.865 26.096 107.875 26.0862L103.632 21.8435ZM101.839 26.25C101.839 27.9048 102.42 29.4295 103.576 30.6492L107.931 26.5227C107.877 26.4648 107.865 26.4345 107.862 26.4263C107.858 26.4165 107.839 26.3679 107.839 26.25H101.839ZM103.69 30.7638C104.91 31.9193 106.435 32.5 108.089 32.5V26.5C107.972 26.5 107.923 26.4816 107.913 26.4778C107.905 26.4746 107.875 26.463 107.817 26.4081L103.69 30.7638ZM108.089 32.5H121.089V26.5H108.089V32.5ZM121.089 32.5C123.011 32.5 124.548 33.1382 125.874 34.4651L130.117 30.2224C127.652 27.7576 124.584 26.5 121.089 26.5V32.5ZM125.874 34.4651C127.201 35.7919 127.839 37.3282 127.839 39.25H133.839C133.839 35.7551 132.582 32.6873 130.117 30.2224L125.874 34.4651ZM127.839 39.25C127.839 41.1718 127.201 42.7081 125.874 44.0349L130.117 48.2776C132.582 45.8127 133.839 42.7449 133.839 39.25H127.839ZM125.874 44.0349C124.548 45.3618 123.011 46 121.089 46V52C124.584 52 127.652 50.7424 130.117 48.2776L125.874 44.0349ZM151.304 23V20H148.304V23H151.304ZM151.304 62V65H154.304V62H151.304ZM144.804 62H141.804V65H144.804V62ZM144.804 23H147.804V20H144.804V23ZM131.804 23H128.804V26H131.804V23ZM131.804 16.5V13.5H128.804V16.5H131.804ZM164.304 16.5H167.304V13.5H164.304V16.5ZM164.304 23V26H167.304V23H164.304ZM148.304 23V62H154.304V23H148.304ZM151.304 59H144.804V65H151.304V59ZM147.804 62V23H141.804V62H147.804ZM144.804 20H131.804V26H144.804V20ZM134.804 23V16.5H128.804V23H134.804ZM131.804 19.5H164.304V13.5H131.804V19.5ZM161.304 16.5V23H167.304V16.5H161.304ZM164.304 20H151.304V26H164.304V20ZM155.976 49L153.268 47.7102L151.225 52H155.976V49ZM172.226 14.875L174.935 13.5852L172.226 7.89718L169.518 13.5852L172.226 14.875ZM188.476 49V52H193.228L191.185 47.7102L188.476 49ZM181.164 49L178.457 50.2944L179.273 52H181.164V49ZM172.226 30.3125L174.933 29.0181L172.226 23.3593L169.52 29.0181L172.226 30.3125ZM163.289 49V52H165.179L165.995 50.2944L163.289 49ZM158.685 50.2898L174.935 16.1648L169.518 13.5852L153.268 47.7102L158.685 50.2898ZM169.518 16.1648L185.768 50.2898L191.185 47.7102L174.935 13.5852L169.518 16.1648ZM188.476 46H181.164V52H188.476V46ZM183.87 47.7056L174.933 29.0181L169.52 31.6069L178.457 50.2944L183.87 47.7056ZM169.52 29.0181L160.582 47.7056L165.995 50.2944L174.933 31.6069L169.52 29.0181ZM163.289 46H155.976V52H163.289V46ZM196.601 49V52H199.601V49H196.601ZM190.101 49H187.101V52H190.101V49ZM190.101 16.5V13.5H187.101V16.5H190.101ZM196.601 16.5H199.601V13.5H196.601V16.5ZM196.601 46H190.101V52H196.601V46ZM193.101 49V16.5H187.101V49H193.101ZM190.101 19.5H196.601V13.5H190.101V19.5ZM193.601 16.5V49H199.601V16.5H193.601ZM210.363 26.25L212.641 24.2976L207.363 18.1402V26.25H210.363ZM210.363 62V65H213.363V62H210.363ZM203.863 62H200.863V65H203.863V62ZM203.863 16.5V13.5H200.863V16.5H203.863ZM210.363 16.5L212.641 14.5476L211.743 13.5H210.363V16.5ZM229.863 39.25L227.585 41.2024L232.863 47.3598V39.25H229.863ZM229.863 0.25V-2.75H226.863V0.25H229.863ZM236.363 0.25H239.363V-2.75H236.363V0.25ZM236.363 49V52H239.363V49H236.363ZM229.863 49L227.585 50.9524L228.483 52H229.863V49ZM207.363 26.25V62H213.363V26.25H207.363ZM210.363 59H203.863V65H210.363V59ZM206.863 62V16.5H200.863V62H206.863ZM203.863 19.5H210.363V13.5H203.863V19.5ZM208.085 18.4524L227.585 41.2024L232.141 37.2976L212.641 14.5476L208.085 18.4524ZM232.863 39.25V0.25H226.863V39.25H232.863ZM229.863 3.25H236.363V-2.75H229.863V3.25ZM233.363 0.25V49H239.363V0.25H233.363ZM236.363 46H229.863V52H236.363V46ZM232.141 47.0476L212.641 24.2976L208.085 28.2024L227.585 50.9524L232.141 47.0476ZM237.988 49L235.279 47.7102L233.237 52H237.988V49ZM254.238 14.875L256.947 13.5852L254.238 7.89718L251.529 13.5852L254.238 14.875ZM270.488 49V52H275.239L273.197 47.7102L270.488 49ZM263.175 49L260.469 50.2944L261.285 52H263.175V49ZM254.238 30.3125L256.944 29.0181L254.238 23.3593L251.532 29.0181L254.238 30.3125ZM245.3 49V52H247.191L248.007 50.2944L245.3 49ZM240.697 50.2898L256.947 16.1648L251.529 13.5852L235.279 47.7102L240.697 50.2898ZM251.529 16.1648L267.779 50.2898L273.197 47.7102L256.947 13.5852L251.529 16.1648ZM270.488 46H263.175V52H270.488V46ZM265.882 47.7056L256.944 29.0181L251.532 31.6069L260.469 50.2944L265.882 47.7056ZM251.532 29.0181L242.594 47.7056L248.007 50.2944L256.944 31.6069L251.532 29.0181ZM245.3 46H237.988V52H245.3V46ZM272.113 49H269.113V52H272.113V49ZM272.113 16.5V13.5H269.113V16.5H272.113ZM302.175 32.75L299.933 30.7569L298.162 32.75L299.933 34.7431L302.175 32.75ZM278.613 42.5H275.613V45.5H278.613V42.5ZM297.148 41.5859L299.269 43.7073L297.148 41.5859ZM297.148 36.9648L294.97 39.0281L295.026 39.0869L295.085 39.1427L297.148 36.9648ZM286.738 36H283.738V39H286.738V36ZM286.738 29.5V26.5H283.738V29.5H286.738ZM297.148 28.5859L299.269 30.7073L297.148 28.5859ZM297.148 23.9648L294.97 26.0281L295.026 26.0869L295.085 26.1427L297.148 23.9648ZM278.613 23V20H275.613V23H278.613ZM294.863 46H272.113V52H294.863V46ZM275.113 49V16.5H269.113V49H275.113ZM272.113 19.5H294.863V13.5H272.113V19.5ZM294.863 19.5C296.785 19.5 298.321 20.1382 299.648 21.4651L303.89 17.2224C301.426 14.7576 298.358 13.5 294.863 13.5V19.5ZM299.648 21.4651C300.975 22.7919 301.613 24.3282 301.613 26.25H307.613C307.613 22.7551 306.355 19.6873 303.89 17.2224L299.648 21.4651ZM301.613 26.25C301.613 28.0401 301.057 29.4924 299.933 30.7569L304.418 34.7431C306.544 32.3513 307.613 29.4704 307.613 26.25H301.613ZM299.933 34.7431C301.057 36.0076 301.613 37.4599 301.613 39.25H307.613C307.613 36.0296 306.544 33.1487 304.418 30.7569L299.933 34.7431ZM301.613 39.25C301.613 41.1718 300.975 42.7081 299.648 44.0349L303.89 48.2776C306.355 45.8127 307.613 42.7449 307.613 39.25H301.613ZM299.648 44.0349C298.321 45.3618 296.785 46 294.863 46V52C298.358 52 301.426 50.7424 303.89 48.2776L299.648 44.0349ZM278.613 45.5H294.863V39.5H278.613V45.5ZM294.863 45.5C296.519 45.5 298.061 44.916 299.269 43.7073L295.027 39.4646C295.017 39.4744 295.01 39.4807 295.005 39.4844C295.001 39.488 294.999 39.4895 294.998 39.4897C294.998 39.4898 294.999 39.4892 295.001 39.4882C295.003 39.4872 295.005 39.4865 295.006 39.4861C295.009 39.4849 295.003 39.4877 294.983 39.4913C294.963 39.4949 294.924 39.5 294.863 39.5V45.5ZM299.269 43.7073C300.478 42.4984 301.113 40.9554 301.113 39.25H295.113C295.113 39.302 295.108 39.334 295.105 39.3502C295.102 39.3658 295.1 39.3725 295.099 39.3743C295.098 39.376 295.096 39.3819 295.088 39.3936C295.079 39.4058 295.061 39.4299 295.027 39.4646L299.269 43.7073ZM301.113 39.25C301.113 37.5415 300.474 35.9828 299.211 34.787L295.085 39.1427C295.097 39.1544 295.105 39.1632 295.11 39.1687C295.115 39.1741 295.117 39.1769 295.117 39.1769C295.117 39.177 295.116 39.1765 295.116 39.1756C295.115 39.1746 295.114 39.1733 295.114 39.1716C295.112 39.1681 295.11 39.1641 295.108 39.1601C295.104 39.1509 295.105 39.1487 295.106 39.1585C295.108 39.1689 295.113 39.1978 295.113 39.25H301.113ZM299.326 34.9016C298.13 33.6394 296.571 33 294.863 33V39C294.915 39 294.944 39.0045 294.954 39.0065C294.964 39.0084 294.962 39.0088 294.953 39.005C294.949 39.0033 294.945 39.0013 294.941 38.9994C294.94 38.9984 294.938 38.9976 294.937 38.997C294.936 38.9964 294.936 38.9961 294.936 38.9961C294.936 38.9962 294.939 38.9981 294.944 39.0028C294.95 39.0076 294.958 39.0157 294.97 39.0281L299.326 34.9016ZM294.863 33H286.738V39H294.863V33ZM289.738 36V29.5H283.738V36H289.738ZM286.738 32.5H294.863V26.5H286.738V32.5ZM294.863 32.5C296.519 32.5 298.061 31.916 299.269 30.7073L295.027 26.4646C295.017 26.4744 295.01 26.4807 295.005 26.4844C295.001 26.488 294.999 26.4895 294.998 26.4897C294.998 26.4898 294.999 26.4892 295.001 26.4882C295.003 26.4872 295.005 26.4865 295.006 26.4861C295.009 26.4849 295.003 26.4877 294.983 26.4913C294.963 26.4949 294.924 26.5 294.863 26.5V32.5ZM299.269 30.7073C300.478 29.4984 301.113 27.9554 301.113 26.25H295.113C295.113 26.302 295.108 26.334 295.105 26.3502C295.102 26.3658 295.1 26.3725 295.099 26.3743C295.098 26.376 295.096 26.3819 295.088 26.3936C295.079 26.4058 295.061 26.4299 295.027 26.4646L299.269 30.7073ZM301.113 26.25C301.113 24.5415 300.474 22.9828 299.211 21.787L295.085 26.1427C295.097 26.1544 295.105 26.1632 295.11 26.1687C295.115 26.1741 295.117 26.1769 295.117 26.1769C295.117 26.177 295.116 26.1765 295.116 26.1756C295.115 26.1746 295.114 26.1733 295.114 26.1716C295.112 26.1681 295.11 26.1641 295.108 26.1601C295.104 26.1509 295.105 26.1487 295.106 26.1585C295.108 26.1689 295.113 26.1979 295.113 26.25H301.113ZM299.326 21.9016C298.13 20.6394 296.571 20 294.863 20V26C294.915 26 294.944 26.0045 294.954 26.0065C294.964 26.0084 294.962 26.0088 294.953 26.005C294.949 26.0033 294.945 26.0013 294.941 25.9994C294.94 25.9984 294.938 25.9976 294.937 25.997C294.936 25.9964 294.936 25.9961 294.936 25.9961C294.936 25.9962 294.939 25.9981 294.944 26.0028C294.95 26.0076 294.958 26.0157 294.97 26.0281L299.326 21.9016ZM294.863 20H278.613V26H294.863V20ZM275.613 23V42.5H281.613V23H275.613ZM315.683 49V52H318.683V49H315.683ZM309.183 49H306.183V52H309.183V49ZM309.183 16.5V13.5H306.183V16.5H309.183ZM315.683 16.5H318.683V13.5H315.683V16.5ZM315.683 46H309.183V52H315.683V46ZM312.183 49V16.5H306.183V49H312.183ZM309.183 19.5H315.683V13.5H309.183V19.5ZM312.683 16.5V49H318.683V16.5H312.683ZM329.394 42.5H326.394V45.5H329.394V42.5ZM355.394 42.5H358.394V39.5H355.394V42.5ZM355.394 49V52H358.394V49H355.394ZM322.894 49H319.894V52H322.894V49ZM322.894 16.5V13.5H319.894V16.5H322.894ZM329.394 16.5H332.394V13.5H329.394V16.5ZM329.394 45.5H355.394V39.5H329.394V45.5ZM352.394 42.5V49H358.394V42.5H352.394ZM355.394 46H322.894V52H355.394V46ZM325.894 49V16.5H319.894V49H325.894ZM322.894 19.5H329.394V13.5H322.894V19.5ZM326.394 16.5V42.5H332.394V16.5H326.394ZM365.5 49V52H368.5V49H365.5ZM359 49H356V52H359V49ZM359 16.5V13.5H356V16.5H359ZM365.5 16.5H368.5V13.5H365.5V16.5ZM365.5 46H359V52H365.5V46ZM362 49V16.5H356V49H362ZM359 19.5H365.5V13.5H359V19.5ZM362.5 16.5V49H368.5V16.5H362.5ZM388.605 23V20H385.605V23H388.605ZM388.605 62V65H391.605V62H388.605ZM382.105 62H379.105V65H382.105V62ZM382.105 23H385.105V20H382.105V23ZM369.105 23H366.105V26H369.105V23ZM369.105 16.5V13.5H366.105V16.5H369.105ZM401.605 16.5H404.605V13.5H401.605V16.5ZM401.605 23V26H404.605V23H401.605ZM385.605 23V62H391.605V23H385.605ZM388.605 59H382.105V65H388.605V59ZM385.105 62V23H379.105V62H385.105ZM382.105 20H369.105V26H382.105V20ZM372.105 23V16.5H366.105V23H372.105ZM369.105 19.5H401.605V13.5H369.105V19.5ZM398.605 16.5V23H404.605V16.5H398.605ZM401.605 20H388.605V26H401.605V20ZM415.824 33.7656H418.824V32.7625L418.22 31.9611L415.824 33.7656ZM402.824 16.5V13.5H396.81L400.427 18.3045L402.824 16.5ZM410.949 16.5L413.348 14.6982L412.447 13.5H410.949V16.5ZM419.074 27.3164L416.675 29.1182L419.074 32.3114L421.473 29.1182L419.074 27.3164ZM427.199 16.5V13.5H425.7L424.8 14.6982L427.199 16.5ZM435.324 16.5L437.718 18.3079L441.349 13.5H435.324V16.5ZM422.324 33.7148L419.93 31.9069L419.324 32.7093V33.7148H422.324ZM422.324 62V65H425.324V62H422.324ZM415.824 62H412.824V65H415.824V62ZM418.22 31.9611L405.22 14.6955L400.427 18.3045L413.427 35.5701L418.22 31.9611ZM402.824 19.5H410.949V13.5H402.824V19.5ZM408.55 18.3018L416.675 29.1182L421.473 25.5146L413.348 14.6982L408.55 18.3018ZM421.473 29.1182L429.598 18.3018L424.8 14.6982L416.675 25.5146L421.473 29.1182ZM427.199 19.5H435.324V13.5H427.199V19.5ZM432.93 14.6921L419.93 31.9069L424.718 35.5227L437.718 18.3079L432.93 14.6921ZM419.324 33.7148V62H425.324V33.7148H419.324ZM422.324 59H415.824V65H422.324V59ZM418.824 62V33.7656H412.824V62H418.824Z" fill="black" mask="url(#path-1-outside-1_58_285)"/>
</svg>
