<svg width="151" height="29" viewBox="0 0 151 29" fill="none" xmlns="http://www.w3.org/2000/svg">
<path d="M8.52469 29L0.964688 15.8V14.04H1.84469C3.25802 14.04 4.44469 13.9067 5.40469 13.64C6.39135 13.3733 7.16469 12.9333 7.72469 12.32C8.28469 11.7067 8.61802 10.8667 8.72469 9.8H0.964688V7.24H8.68469C8.49802 6.25333 8.12469 5.45333 7.56469 4.84C7.00469 4.2 6.24469 3.73333 5.28469 3.44C4.35135 3.14666 3.20469 3 1.84469 3H0.964688V0.439998H17.5247V3H9.96469C10.578 3.50667 11.0847 4.10667 11.4847 4.8C11.8847 5.49333 12.138 6.30666 12.2447 7.24H17.5247V9.8H12.3247C12.138 11.7467 11.3914 13.2667 10.0847 14.36C8.80469 15.4267 7.09802 16.1067 4.96469 16.4L12.6047 29H8.52469ZM60.6953 4V9H28.1953V11.5C28.1953 12.2031 28.4297 12.8021 28.8984 13.2969C29.3932 13.7656 29.9922 14 30.6953 14H40.6953C42.7786 14 44.5495 14.7292 46.0078 16.1875C47.4661 17.6458 48.1953 19.4167 48.1953 21.5C48.1953 23.5833 47.4661 25.3542 46.0078 26.8125C44.5495 28.2708 42.7786 29 40.6953 29H25.6953V24H40.6953C41.3984 24 41.9844 23.7656 42.4531 23.2969C42.9479 22.8021 43.1953 22.2031 43.1953 21.5C43.1953 20.7969 42.9479 20.2109 42.4531 19.7422C41.9844 19.2474 41.3984 19 40.6953 19H30.6953C28.612 19 26.8411 18.2708 25.3828 16.8125C23.9245 15.3542 23.1953 13.5833 23.1953 11.5V4H60.6953ZM78.1953 29C74.7318 29 71.776 27.7891 69.3281 25.3672C66.9062 22.9193 65.6953 19.9635 65.6953 16.5C65.6953 13.0365 66.9062 10.0938 69.3281 7.67188C71.776 5.22396 74.7318 4 78.1953 4C81.6589 4 84.6016 5.22396 87.0234 7.67188C89.4714 10.0938 90.6953 13.0365 90.6953 16.5C90.6953 19.9635 89.4714 22.9193 87.0234 25.3672C84.6016 27.7891 81.6589 29 78.1953 29ZM78.1953 24C80.2786 24 82.0495 23.2708 83.5078 21.8125C84.9661 20.3542 85.6953 18.5833 85.6953 16.5C85.6953 14.4167 84.9661 12.6458 83.5078 11.1875C82.0495 9.72917 80.2786 9 78.1953 9C76.112 9 74.3411 9.72917 72.8828 11.1875C71.4245 12.6458 70.6953 14.4167 70.6953 16.5C70.6953 18.5833 71.4245 20.3542 72.8828 21.8125C74.3411 23.2708 76.112 24 78.1953 24ZM108.195 29C104.732 29 101.776 27.7891 99.3281 25.3672C96.9062 22.9193 95.6953 19.9635 95.6953 16.5C95.6953 13.0365 96.9062 10.0938 99.3281 7.67188C101.776 5.22396 104.732 4 108.195 4C111.659 4 114.602 5.22396 117.023 7.67188C119.471 10.0938 120.695 13.0365 120.695 16.5C120.695 19.9635 119.471 22.9193 117.023 25.3672C114.602 27.7891 111.659 29 108.195 29ZM108.195 24C110.279 24 112.049 23.2708 113.508 21.8125C114.966 20.3542 115.695 18.5833 115.695 16.5C115.695 14.4167 114.966 12.6458 113.508 11.1875C112.049 9.72917 110.279 9 108.195 9C106.112 9 104.341 9.72917 102.883 11.1875C101.424 12.6458 100.695 14.4167 100.695 16.5C100.695 18.5833 101.424 20.3542 102.883 21.8125C104.341 23.2708 106.112 24 108.195 24ZM138.195 29C134.732 29 131.776 27.7891 129.328 25.3672C126.906 22.9193 125.695 19.9635 125.695 16.5C125.695 13.0365 126.906 10.0938 129.328 7.67188C131.776 5.22396 134.732 4 138.195 4C141.659 4 144.602 5.22396 147.023 7.67188C149.471 10.0938 150.695 13.0365 150.695 16.5C150.695 19.9635 149.471 22.9193 147.023 25.3672C144.602 27.7891 141.659 29 138.195 29ZM138.195 24C140.279 24 142.049 23.2708 143.508 21.8125C144.966 20.3542 145.695 18.5833 145.695 16.5C145.695 14.4167 144.966 12.6458 143.508 11.1875C142.049 9.72917 140.279 9 138.195 9C136.112 9 134.341 9.72917 132.883 11.1875C131.424 12.6458 130.695 14.4167 130.695 16.5C130.695 18.5833 131.424 20.3542 132.883 21.8125C134.341 23.2708 136.112 24 138.195 24Z" fill="#F44878"/>
</svg>
